<svg width="128" height="83" viewBox="0 0 128 83" fill="none" xmlns="http://www.w3.org/2000/svg">
<path d="M114.534 40.7139L108.658 44.4434L111.172 48.4052L117.049 44.6757L114.534 40.7139Z" fill="white"/>
<path d="M117.049 44.6724L117 44.5998L116.864 44.3912C116.745 44.2097 116.57 43.9394 116.351 43.5964L114.513 40.7259L114.549 40.735L108.677 44.4692C108.677 44.4801 108.696 44.3803 108.677 44.4238L108.688 44.4402L108.708 44.4746L108.75 44.54L108.833 44.6724C108.89 44.7595 108.946 44.8539 109 44.9337L109.329 45.4526C109.546 45.7956 109.762 46.1349 109.971 46.4669L111.178 48.3703L111.136 48.3613L115.373 45.6903L116.588 44.9283L116.913 44.7269L116.999 44.676L117.029 44.6579L117.004 44.676L116.924 44.7287L116.607 44.9337L115.427 45.7248L111.189 48.4284L111.16 48.4465L111.141 48.4211C110.759 47.8169 110.354 47.18 109.931 46.5177L109.289 45.5053L108.959 44.9863L108.793 44.725L108.71 44.5926L108.666 44.5273L108.647 44.4946L108.636 44.4765C108.625 44.5182 108.648 44.4184 108.647 44.4293L114.525 40.7042L114.549 40.6896L114.564 40.7132C115.326 41.9235 115.95 42.9196 116.378 43.6164C116.592 43.9575 116.759 44.2261 116.875 44.4129L117.004 44.6198C117.037 44.6488 117.049 44.6724 117.049 44.6724Z" fill="#E0E0E0"/>
<path d="M114.534 40.7114C114.532 40.7403 114.526 40.7688 114.518 40.7967C114.504 40.8602 114.484 40.9401 114.46 41.0417C114.404 41.2594 114.326 41.5642 114.231 41.9362C114.028 42.7001 113.752 43.7507 113.444 44.9101V44.9373H113.415L113.197 44.9156L109.991 44.5962L109.02 44.491L108.757 44.4583C108.726 44.456 108.695 44.4511 108.665 44.4438C108.695 44.4399 108.726 44.4399 108.757 44.4438L109.022 44.462L109.996 44.5454L113.204 44.8466L113.422 44.8666L113.386 44.892C113.702 43.7289 113.985 42.6856 114.193 41.9253C114.297 41.5533 114.375 41.2521 114.442 41.0344L114.513 40.7931C114.518 40.7654 114.525 40.7382 114.534 40.7114Z" fill="#E0E0E0"/>
<path d="M120.402 32.0764C120.584 32.7205 120.45 33.1651 120.06 33.2776C120.005 33.2967 119.946 33.3042 119.888 33.2995C119.83 33.2948 119.774 33.2782 119.723 33.2505C119.671 33.2229 119.627 33.1848 119.591 33.1389C119.555 33.0929 119.529 33.0401 119.515 32.9836C119.475 33.1362 119.393 33.275 119.28 33.3852C119.167 33.4954 119.026 33.573 118.873 33.6096C118.619 33.6638 118.355 33.6191 118.133 33.4848C117.911 33.3505 117.749 33.1366 117.68 32.8868C117.61 32.637 117.639 32.3701 117.759 32.1406C117.88 31.9111 118.083 31.7363 118.329 31.6518C118.475 31.6035 118.633 31.5948 118.784 31.6267C118.935 31.6585 119.075 31.7298 119.19 31.8332L119.083 31.4486L119.325 31.3905L119.727 32.8294C119.787 33.0417 119.909 33.087 120.043 33.0507C120.279 32.9854 120.348 32.6516 120.205 32.1435C119.954 31.2526 119.149 30.8407 118.231 31.0966C117.312 31.3524 116.841 32.158 117.093 33.0562C117.345 33.9544 118.147 34.4098 119.069 34.1449C119.32 34.0763 119.554 33.9523 119.751 33.782L119.867 33.9489C119.652 34.1345 119.397 34.2702 119.123 34.3463C118.08 34.6384 117.165 34.1195 116.884 33.1143C116.603 32.109 117.129 31.1964 118.176 30.9042C119.223 30.6121 120.125 31.082 120.402 32.0764ZM119.352 32.4157C119.305 32.2765 119.218 32.1541 119.102 32.0638C118.986 31.9735 118.846 31.9192 118.699 31.9077C118.553 31.8961 118.406 31.9278 118.277 31.9988C118.149 32.0698 118.044 32.1771 117.975 32.3072C117.907 32.4373 117.878 32.5846 117.893 32.7309C117.907 32.8771 117.965 33.0159 118.057 33.13C118.15 33.2441 118.274 33.3286 118.414 33.3729C118.554 33.4171 118.704 33.4193 118.846 33.3792C118.946 33.3548 119.039 33.3094 119.12 33.246C119.202 33.1827 119.268 33.1028 119.316 33.0116C119.364 32.9205 119.392 32.8203 119.398 32.7175C119.404 32.6148 119.389 32.5119 119.352 32.4157Z" fill="#EBEBEB"/>
<path d="M121.944 39.618L121.059 43.7L127.114 45.0137L128 40.9317L121.944 39.618Z" fill="#EBEBEB"/>
<path d="M128 40.9346C127.98 40.9511 127.959 40.9657 127.936 40.9782L127.746 41.0961L127.04 41.5207L124.681 42.9106L124.659 42.9251L124.643 42.9051L124.518 42.7545L122.687 40.5463L122.143 39.8732L121.994 39.6917C121.976 39.6706 121.961 39.6481 121.947 39.6246C121.968 39.6415 121.988 39.661 122.005 39.6826L122.159 39.8641L122.723 40.5264C123.2 41.0925 123.85 41.8673 124.569 42.7237L124.692 42.8725H124.654L127.013 41.4971L127.728 41.0889L127.922 40.9818C127.945 40.9621 127.971 40.9462 128 40.9346Z" fill="#E0E0E0"/>
<path d="M121.059 43.7289C121.469 43.3501 121.899 42.9945 122.348 42.6638C122.778 42.3083 123.228 41.9775 123.696 41.6731C123.285 42.0511 122.855 42.4066 122.406 42.7382C121.976 43.0936 121.526 43.4244 121.059 43.7289Z" fill="#E0E0E0"/>
<path d="M127.114 45.0154C127.023 44.8976 126.944 44.7705 126.878 44.6362C126.742 44.3948 126.563 44.061 126.367 43.689C126.171 43.317 126.004 42.9759 125.88 42.7255C125.805 42.5945 125.745 42.4558 125.699 42.3118C125.79 42.4287 125.868 42.5545 125.933 42.6874C126.067 42.9287 126.251 43.2644 126.445 43.6382C126.639 44.012 126.808 44.3531 126.935 44.6035C127.009 44.734 127.069 44.8721 127.114 45.0154Z" fill="#E0E0E0"/>
<path d="M93.8112 53.7523L91.4103 58.8892L99.031 62.4508L101.432 57.3139L93.8112 53.7523Z" fill="white"/>
<path d="M99.0298 62.4471C99.0298 62.4471 99.0425 62.4126 99.0715 62.3509L99.1949 62.0751L99.6721 61.0372C100.086 60.1409 100.677 58.8599 101.399 57.2958L101.416 57.3411L93.795 53.7866L93.8494 53.7666V53.7775L93.8385 53.7993L93.8186 53.8428L93.7787 53.9281L93.6988 54.0987C93.6462 54.213 93.5936 54.3255 93.5392 54.4398L93.2252 55.1111L92.5974 56.4303C92.1964 57.2903 91.8081 58.1159 91.4416 58.898L91.4235 58.849L96.8996 61.4273L98.4673 62.1713L98.8846 62.3709L98.9917 62.4235L99.0298 62.4435L98.9935 62.4307L98.8882 62.3836L98.4745 62.2021L96.9068 61.4763L91.3926 58.9197L91.3582 58.9034L91.3745 58.8707L92.5249 56.3994C92.7269 55.9688 92.9313 55.5309 93.1382 55.0857C93.2434 54.8644 93.3468 54.6394 93.4521 54.4126C93.5065 54.3001 93.5591 54.1876 93.6117 54.0733L93.6916 53.9027L93.7315 53.8174L93.7515 53.7739L93.7623 53.7521V53.7412L93.8168 53.7213L101.438 57.2903L101.468 57.303L101.454 57.3339C100.715 58.8961 100.109 60.1808 99.6848 61.0771C99.4761 61.5181 99.311 61.8646 99.1967 62.1023L99.0679 62.3691C99.0443 62.418 99.0298 62.4471 99.0298 62.4471Z" fill="#E0E0E0"/>
<path d="M101.43 57.3103C101.399 57.3273 101.366 57.3407 101.332 57.3502L101.046 57.4482L99.9842 57.7966L96.4441 58.9306L96.4097 58.9397L96.3951 58.9089L96.2736 58.6748L94.5153 55.1982L93.991 54.1422L93.8512 53.8519C93.8324 53.8196 93.8184 53.7848 93.8095 53.7485C93.8307 53.7794 93.8501 53.8115 93.8676 53.8446C93.9057 53.9172 93.9565 54.0098 94.02 54.1277L94.5643 55.1728L96.3443 58.6367L96.4641 58.8726L96.4151 58.8508L99.9624 57.744L101.033 57.4192L101.323 57.3339C101.358 57.3227 101.394 57.3148 101.43 57.3103Z" fill="#E0E0E0"/>
<path d="M91.3963 58.9306C91.3854 58.907 92.3035 58.4552 93.4321 57.9217C94.5607 57.3883 95.4952 56.9764 95.5061 57C95.517 57.0236 94.5988 57.4754 93.472 58.007C92.3453 58.5387 91.409 58.9542 91.3963 58.9306Z" fill="#E0E0E0"/>
<path d="M99.0298 62.4471C98.954 62.2599 98.8933 62.067 98.8483 61.8701C98.7431 61.5072 98.607 61.0119 98.46 60.4603C98.313 59.9086 98.1878 59.406 98.0971 59.0413C98.0406 58.8445 97.9987 58.6438 97.9719 58.4407C98.0487 58.627 98.1094 58.8194 98.1534 59.0159C98.2568 59.3788 98.3947 59.8742 98.5417 60.4294C98.6886 60.9846 98.8157 61.4854 98.9046 61.852C98.9614 62.0469 99.0033 62.2458 99.0298 62.4471Z" fill="#E0E0E0"/>
<path d="M108.507 19.6182L106.289 25.2814L114.69 28.5723L116.909 22.9091L108.507 19.6182Z" fill="#EBEBEB"/>
<path d="M116.911 22.9096C116.879 22.9298 116.844 22.9462 116.808 22.9586L116.509 23.0838L115.396 23.5302L111.684 24.9818L111.649 24.9963L111.63 24.9636L111.486 24.7205L109.365 21.1206L108.732 20.0319C108.661 19.9085 108.607 19.8087 108.563 19.7325C108.541 19.699 108.524 19.6631 108.51 19.6254C108.536 19.6557 108.559 19.6886 108.578 19.7234C108.625 19.7978 108.686 19.894 108.759 20.0155C108.921 20.2786 109.144 20.647 109.418 21.1042C109.962 22.0296 110.726 23.2925 111.559 24.6896L111.704 24.9328L111.651 24.9146L115.373 23.4866L116.494 23.0657L116.801 22.955C116.836 22.9366 116.873 22.9214 116.911 22.9096Z" fill="#E0E0E0"/>
<path d="M106.282 25.3301C106.27 25.3065 107.215 24.7622 108.392 24.1144C109.57 23.4667 110.537 22.9604 110.55 22.984C110.563 23.0076 109.617 23.5501 108.438 24.1979C107.258 24.8457 106.295 25.3519 106.282 25.3301Z" fill="#E0E0E0"/>
<path d="M114.692 28.5726C114.599 28.3764 114.519 28.1739 114.455 27.9665C114.32 27.5891 114.139 27.0593 113.945 26.4823C113.751 25.9053 113.582 25.3736 113.462 24.989C113.402 24.7966 113.355 24.6406 113.324 24.5317C113.302 24.4736 113.289 24.4124 113.286 24.3503C113.379 24.5451 113.458 24.7465 113.522 24.9527C113.656 25.3301 113.838 25.8599 114.032 26.4387C114.226 27.0176 114.395 27.5528 114.518 27.9375C114.578 28.1298 114.625 28.2859 114.654 28.3929C114.675 28.4507 114.688 28.5112 114.692 28.5726Z" fill="#E0E0E0"/>
<path d="M117.789 55.1171L108.954 56.9516L110.191 62.9067L119.026 61.0723L117.789 55.1171Z" fill="#EBEBEB"/>
<path d="M117.788 55.1184C117.772 55.1528 117.752 55.1856 117.73 55.2164C117.683 55.2835 117.621 55.3743 117.548 55.4849L116.861 56.4666L114.545 59.7127L114.524 59.7417L114.491 59.7254L114.237 59.6002L110.494 57.744L109.365 57.1724L109.06 57.0145C109.023 56.9974 108.988 56.9768 108.955 56.9528C108.994 56.9646 109.031 56.9798 109.067 56.9982L109.38 57.1434L110.521 57.6877L114.273 59.5149L114.527 59.6401L114.473 59.6528L116.808 56.4303L117.519 55.465L117.715 55.2055C117.737 55.1745 117.761 55.1453 117.788 55.1184Z" fill="#E0E0E0"/>
<path d="M110.209 62.9515C110.185 62.9407 110.681 61.9681 111.312 60.7742C111.943 59.5802 112.477 58.6367 112.5 58.6494C112.524 58.6621 112.029 59.6329 111.395 60.8268C110.762 62.0207 110.232 62.9624 110.209 62.9515Z" fill="#E0E0E0"/>
<path d="M119.023 61.0735C118.838 60.9605 118.661 60.8344 118.494 60.6961C118.174 60.453 117.737 60.1119 117.256 59.7308C116.775 59.3498 116.349 59.005 116.035 58.7437C115.881 58.6167 115.756 58.5115 115.672 58.4353C115.624 58.4001 115.582 58.3586 115.545 58.3119C115.729 58.4242 115.905 58.5498 116.071 58.6875C116.391 58.9306 116.83 59.2718 117.312 59.6528C117.795 60.0338 118.22 60.3786 118.537 60.6417C118.691 60.7705 118.817 60.8757 118.9 60.9501C118.984 61.0245 119.029 61.0681 119.023 61.0735Z" fill="#E0E0E0"/>
<path d="M58.7578 14.1826L47.8567 16.4461L49.3824 23.7941L60.2835 21.5306L58.7578 14.1826Z" fill="#EBEBEB"/>
<path d="M58.7592 14.1856C58.7375 14.2273 58.7126 14.2674 58.6848 14.3054C58.6286 14.3906 58.5524 14.4995 58.4598 14.6374L57.6107 15.8477L54.7565 19.8522L54.7293 19.8903L54.6875 19.8704L54.3736 19.7161L49.7558 17.419L48.3623 16.7132L47.9867 16.5172C47.9412 16.4963 47.8981 16.4708 47.8578 16.441C47.9055 16.4552 47.9517 16.474 47.9958 16.4973L48.3804 16.6787L49.7903 17.3537L54.4226 19.6145L54.7293 19.7778L54.6603 19.796C55.7889 18.2337 56.8032 16.8329 57.5435 15.8041L58.4199 14.612L58.6613 14.2927C58.6897 14.2533 58.7226 14.2174 58.7592 14.1856Z" fill="#E0E0E0"/>
<path d="M49.4074 23.8513C49.3784 23.8368 49.9881 22.6374 50.7683 21.1731C51.5485 19.7088 52.2054 18.5349 52.2344 18.5494C52.2634 18.5639 51.6447 19.7633 50.8717 21.2294C50.0987 22.6955 49.4346 23.8658 49.4074 23.8513Z" fill="#E0E0E0"/>
<path d="M60.2834 21.5324C60.0547 21.3929 59.8364 21.2371 59.6302 21.0661C59.2346 20.7667 58.6957 20.3403 58.1024 19.8776C57.5091 19.4149 56.9792 18.9704 56.5964 18.6601C56.404 18.5004 56.2498 18.3716 56.1446 18.279C56.0393 18.1865 55.9831 18.1321 55.9885 18.1248C56.2158 18.2641 56.4328 18.4193 56.6381 18.5893C57.0318 18.8887 57.5744 19.3151 58.1677 19.7814C58.761 20.2478 59.2963 20.6887 59.6792 21.0008C59.8715 21.1604 60.0239 21.2893 60.1292 21.3818C60.2344 21.4743 60.2888 21.527 60.2834 21.5324Z" fill="#E0E0E0"/>
<path d="M51.7082 77.2587C47.9704 75.0813 46.7928 70.5578 46.595 66.4244C46.5623 65.7349 46.4281 65.0164 46.7057 64.3849C46.9833 63.7535 47.7127 63.2799 48.3532 63.5194C48.883 63.719 49.1552 64.2942 49.4818 64.7623C49.9171 65.3864 50.5196 65.8751 51.2201 66.1722C51.6773 66.3627 52.2308 66.4571 52.6445 66.1831C53.2106 65.8075 53.2124 64.9819 53.1525 64.2978C53.04 63.0241 52.9281 61.7497 52.8168 60.4747C52.7551 59.7907 52.6971 59.0921 52.8568 58.4244C53.0164 57.7566 53.4374 57.1161 54.0725 56.8802C54.7075 56.6444 55.544 56.9546 55.7363 57.606C55.8162 57.88 55.7835 58.174 55.8252 58.457C55.867 58.7401 56.0267 59.0431 56.3025 59.0994C56.5783 59.1556 56.8468 58.9415 57.0282 58.7238C57.6778 57.9762 58.0843 57.0454 58.4599 56.1236C58.8355 55.2019 59.1965 54.262 59.7754 53.4545C60.3542 52.6471 61.1925 51.9793 62.1668 51.8433C63.1412 51.7072 64.2353 52.2279 64.562 53.1696C64.8886 54.1114 64.4077 55.1383 63.8579 55.9694C63.0449 57.2026 62.0572 58.3113 60.9257 59.2608C60.7225 59.4314 60.503 59.6237 60.4413 59.8759C60.3306 60.3441 60.8042 60.7614 61.2614 60.8757C61.7858 61.0027 62.3356 60.9048 62.8727 60.9247C63.4098 60.9447 64.0085 61.1316 64.2517 61.6197C64.5892 62.2965 64.0702 63.0712 63.5259 63.6047C62.4507 64.66 61.2023 65.5229 59.8352 66.1559C59.3471 66.3809 58.8318 66.5859 58.4544 66.9724C58.077 67.3589 57.8829 67.9957 58.1677 68.4566C58.4526 68.9175 59.0931 69.0227 59.6193 68.8812C60.1455 68.7397 60.5864 68.4149 61.0709 68.1844C61.9781 67.7526 63.2029 67.7181 63.8706 68.482C64.3097 68.9828 64.4059 69.7249 64.2589 70.3782C64.0784 71.0245 63.7699 71.6279 63.3517 72.1527C61.989 74.0452 60.1764 75.6256 58.057 76.5619C55.9377 77.4982 53.9327 77.8665 51.7064 77.2514" fill="#EBEBEB"/>
<path d="M51.9042 80.3179C51.9395 78.3912 52.1595 76.4724 52.561 74.5878C53.0611 72.2865 53.693 70.0159 54.4535 67.7871C54.6531 67.1944 54.8491 66.6089 55.0414 66.0307C55.2374 65.4537 55.4297 64.8821 55.6529 64.336C56.0827 63.2858 56.5704 62.2603 57.1135 61.264C57.6252 60.3096 58.146 59.4224 58.6395 58.5968C59.1331 57.7712 59.6103 57.0109 60.073 56.3359C60.7992 55.2681 61.6086 54.2591 62.4935 53.3184C62.8056 52.9864 63.0578 52.736 63.2302 52.5691L63.4261 52.3876C63.4478 52.365 63.4715 52.3444 63.4969 52.3259C63.4792 52.3519 63.4585 52.3756 63.4352 52.3967L63.2537 52.5945C63.0868 52.7668 62.8419 53.0227 62.5279 53.3602C61.6587 54.3101 60.8623 55.3243 60.1455 56.394C59.6883 57.0708 59.2183 57.8329 58.7266 58.6585C58.2349 59.484 57.7214 60.3731 57.2133 61.3276C56.6739 62.3212 56.1893 63.3437 55.7618 64.3904C55.5404 64.9347 55.3499 65.5009 55.1557 66.0779C54.9616 66.6549 54.7674 67.2428 54.5678 67.8343C53.8097 70.0589 53.1755 72.3238 52.6681 74.6186C52.2635 76.496 52.0357 78.4071 51.9876 80.327" fill="#E0E0E0"/>
<path d="M55.6873 64.3269C55.6476 64.2346 55.6172 64.1385 55.5966 64.0402C55.5458 63.8587 55.4805 63.5829 55.4042 63.2454C55.2518 62.5723 55.0722 61.636 54.8799 60.6017C54.6875 59.5675 54.4952 58.6348 54.3355 57.9671C54.2557 57.6314 54.1885 57.3611 54.1396 57.1742C54.108 57.0788 54.0867 56.9802 54.076 56.8802C54.1225 56.9678 54.1591 57.0603 54.1849 57.156C54.2502 57.3375 54.3301 57.606 54.4226 57.9381C54.6041 58.604 54.8127 59.5366 55.0069 60.5727C55.201 61.6088 55.3698 62.516 55.495 63.2218C55.5567 63.5412 55.6075 63.8097 55.6492 64.0238C55.6731 64.1231 55.6859 64.2248 55.6873 64.3269Z" fill="#E0E0E0"/>
<path d="M64.346 61.9626C64.2332 61.9981 64.117 62.0218 63.9994 62.0334C63.7744 62.0733 63.4551 62.1259 63.0522 62.2058C62.2539 62.36 61.1579 62.6086 59.9676 62.9315C58.7773 63.2545 57.7013 63.6083 56.9338 63.8805C56.5491 64.0148 56.2407 64.1309 56.0266 64.2089C55.918 64.2573 55.805 64.295 55.6891 64.3214C55.7902 64.2598 55.8964 64.207 56.0066 64.1636C56.2153 64.0692 56.5201 63.9404 56.9012 63.8007C57.6632 63.5067 58.732 63.1457 59.9331 62.8136C60.9567 62.5288 61.9941 62.2963 63.0414 62.1168C63.4442 62.0497 63.7671 62.008 63.9976 61.9844C64.1129 61.9677 64.2294 61.9604 64.346 61.9626Z" fill="#E0E0E0"/>
<path d="M52.6553 74.4172C52.6283 74.3855 52.6052 74.3508 52.5863 74.3137L52.4049 74.0089C52.2525 73.7422 52.042 73.3503 51.7898 72.864C51.2817 71.8914 50.6249 70.5251 49.9191 69.0082C49.2132 67.4913 48.5745 66.1196 48.0883 65.1397L47.5094 63.9785C47.4477 63.8515 47.3951 63.748 47.3534 63.6609C47.3328 63.625 47.3169 63.5866 47.3062 63.5466C47.3062 63.5466 47.3352 63.5793 47.3752 63.6501C47.4151 63.7208 47.4822 63.8315 47.5566 63.9549C47.709 64.2216 47.9195 64.6117 48.1717 65.0998C48.678 66.0724 49.3366 67.4387 50.0424 68.9574C50.7483 70.4761 51.3924 71.8442 51.8769 72.8259C52.1164 73.3031 52.3105 73.6968 52.4557 73.989C52.5192 74.1142 52.57 74.2194 52.6117 74.3047C52.6311 74.3401 52.6457 74.378 52.6553 74.4172Z" fill="#E0E0E0"/>
<path d="M64.0376 69.6923C64.0024 69.716 63.9647 69.7355 63.9251 69.7504L63.5948 69.8919L62.3755 70.4C61.3467 70.8282 59.9332 71.4378 58.3709 72.1128C56.8087 72.7878 55.3879 73.383 54.3501 73.793C53.8311 73.9981 53.4083 74.1559 53.1162 74.2648L52.7769 74.3827C52.7382 74.3998 52.6972 74.4114 52.6553 74.4172C52.6899 74.3927 52.7278 74.3731 52.7678 74.3592L53.0963 74.2122L54.3138 73.7041C55.3426 73.2759 56.7579 72.6663 58.3201 71.9895C59.8824 71.3127 61.3031 70.7193 62.341 70.3092C62.86 70.106 63.2809 69.9463 63.5749 69.8393L63.9142 69.7195C63.954 69.7052 63.9954 69.6961 64.0376 69.6923Z" fill="#E0E0E0"/>
<path d="M127.241 80.1872C127.241 80.2145 101.238 80.2344 69.1779 80.2344C37.1179 80.2344 11.1019 80.2145 11.1019 80.1872C11.1019 80.16 37.098 80.1401 69.1779 80.1401C101.258 80.1401 127.241 80.1618 127.241 80.1872Z" fill="#263238"/>
<path d="M31.7452 20.1407C31.3571 19.5469 30.8901 19.0085 30.3572 18.5403C30.1213 18.3335 29.8273 18.1248 29.4844 18.1629C29.3567 18.1815 29.2345 18.2276 29.1264 18.2981C29.0183 18.3686 28.9269 18.4618 28.8584 18.5712C28.7374 18.7775 28.6608 19.0068 28.6334 19.2443C28.6176 19.4064 28.5747 19.5647 28.5064 19.7125C28.4668 19.7909 28.4092 19.8588 28.3382 19.9106C28.2672 19.9623 28.1849 19.9964 28.0981 20.0101C27.9765 20.0089 27.8551 19.998 27.7352 19.9774C27.5444 19.9825 27.3613 20.0534 27.2168 20.178C27.0723 20.3027 26.9753 20.4735 26.9423 20.6615C26.8842 21.0098 26.926 21.1931 26.9423 21.6703L31.7452 20.1407Z" fill="#012A4A"/>
<g opacity="0.3">
<path opacity="0.3" d="M31.7452 20.1407C31.3571 19.5469 30.8901 19.0085 30.3572 18.5403C30.1213 18.3335 29.8273 18.1248 29.4844 18.1629C29.3567 18.1815 29.2345 18.2276 29.1264 18.2981C29.0183 18.3686 28.9269 18.4618 28.8584 18.5712C28.7374 18.7775 28.6608 19.0068 28.6334 19.2443C28.6176 19.4064 28.5747 19.5647 28.5064 19.7125C28.4668 19.7909 28.4092 19.8588 28.3382 19.9106C28.2672 19.9623 28.1849 19.9964 28.0981 20.0101C27.9765 20.0089 27.8551 19.998 27.7352 19.9774C27.5444 19.9825 27.3613 20.0534 27.2168 20.178C27.0723 20.3027 26.9753 20.4735 26.9423 20.6615C26.8842 21.0098 26.926 21.1931 26.9423 21.6703L31.7452 20.1407Z" fill="black"/>
</g>
<path d="M26.9078 21.1006C26.9078 21.1006 29.0344 19.6835 31.3461 19.5818L31.5275 19.8286L26.9441 21.4326L26.9078 21.1006Z" fill="#263238"/>
<path d="M26.9678 21.1604C26.5747 21.345 26.1999 21.5661 25.8482 21.8209C25.6093 21.9777 25.412 22.19 25.273 22.4396C25.2399 22.5112 25.2275 22.5905 25.2371 22.6688C25.2467 22.747 25.278 22.821 25.3275 22.8824C25.6015 23.131 26.3345 23.2453 27.5629 23.0638C29.1959 22.837 29.0308 22.4015 30.6348 22.0096C31.2064 21.8699 31.8795 21.8282 32.4493 21.6467C33.019 21.4653 33.5543 20.9064 33.9626 20.4818C34.0383 20.3833 34.108 20.2803 34.1712 20.1734C34.3781 19.8994 34.1803 19.7179 34.1005 19.629C34.0426 19.5752 33.9741 19.534 33.8995 19.5081C33.8248 19.4822 33.7456 19.4721 33.6668 19.4784C31.9322 19.4058 28.8367 20.2151 26.9532 21.1677" fill="#012A4A"/>
<g opacity="0.2">
<path opacity="0.2" d="M30.1902 20.5653C30.0868 20.5653 28.3957 21.1695 27.65 21.654C27.0149 22.075 26.4397 22.4197 26.1657 23.1292C26.5993 23.1618 27.0353 23.1386 27.4631 23.0602C28.4663 22.9522 29.4556 22.7406 30.4152 22.4288C30.5807 22.3949 30.7301 22.3068 30.8398 22.1784C30.9088 22.0607 30.9369 21.9236 30.9196 21.7883C30.9013 21.5388 30.8227 21.2976 30.6906 21.0852C30.5585 20.8728 30.3768 20.6957 30.1612 20.5689" fill="black"/>
</g>
<path d="M27.9693 29.6739L31.2771 29.409C31.2989 29.0226 31.2771 27.5292 31.2771 27.5292C31.2771 27.5292 32.6525 27.3151 32.6706 25.9379C32.6888 24.5607 32.4475 21.4017 32.4475 21.4017C31.6651 21.0652 30.807 20.9438 29.962 21.05C29.117 21.1563 28.3157 21.4863 27.6409 22.006L27.4377 22.162L27.9693 29.6739Z" fill="#B78876"/>
<path d="M31.2735 27.5093C30.6379 27.5214 30.0132 27.3439 29.4789 26.9995C29.4789 26.9995 29.9035 27.9902 31.2771 27.865L31.2735 27.5093Z" fill="#AA6550"/>
<path d="M27.601 23.5882C27.5792 23.5773 26.6556 23.3088 26.6937 24.2505C26.7318 25.1922 27.6626 24.9672 27.6626 24.94C27.6626 24.9128 27.601 23.5882 27.601 23.5882Z" fill="#B78876"/>
<path d="M27.356 24.5916C27.356 24.5916 27.3415 24.6043 27.3125 24.617C27.2932 24.6251 27.2725 24.6292 27.2517 24.6292C27.2308 24.6292 27.2101 24.6251 27.1909 24.617C27.1283 24.5798 27.0768 24.5266 27.0417 24.4628C27.0066 24.399 26.9892 24.3269 26.9913 24.2541C26.9865 24.1731 26.9995 24.0919 27.0294 24.0164C27.0378 23.9871 27.053 23.9601 27.0738 23.9377C27.0947 23.9153 27.1205 23.8981 27.1492 23.8876C27.1678 23.8824 27.1877 23.8837 27.2055 23.8913C27.2233 23.8989 27.238 23.9123 27.2471 23.9293C27.2616 23.9547 27.2562 23.9747 27.2598 23.9765C27.2635 23.9783 27.2798 23.9584 27.2707 23.9203C27.2648 23.8972 27.2514 23.8768 27.2326 23.8622C27.2061 23.8442 27.1736 23.837 27.1419 23.8422C27.1035 23.851 27.068 23.8694 27.0388 23.8958C27.0096 23.9222 26.9876 23.9556 26.975 23.9928C26.9367 24.0757 26.9198 24.1667 26.926 24.2578C26.9241 24.3415 26.9471 24.4239 26.992 24.4946C27.0369 24.5653 27.1016 24.6212 27.1782 24.6551C27.2035 24.6622 27.2302 24.6633 27.256 24.6583C27.2819 24.6532 27.3062 24.6422 27.327 24.6261C27.356 24.6152 27.3596 24.5934 27.356 24.5916Z" fill="#AA6550"/>
<path d="M32.139 23.5592C32.14 23.6092 32.1217 23.6576 32.0879 23.6945C32.0541 23.7313 32.0074 23.7537 31.9575 23.7569C31.9319 23.76 31.906 23.7576 31.8814 23.7499C31.8568 23.7422 31.8341 23.7293 31.8149 23.7122C31.7957 23.695 31.7803 23.6739 31.7699 23.6504C31.7594 23.6268 31.7541 23.6013 31.7543 23.5755C31.7537 23.5256 31.7721 23.4774 31.8058 23.4407C31.8395 23.4039 31.886 23.3814 31.9357 23.3777C31.9613 23.3746 31.9873 23.377 32.0119 23.3847C32.0365 23.3925 32.0591 23.4053 32.0784 23.4225C32.0976 23.4397 32.1129 23.4607 32.1234 23.4843C32.1338 23.5079 32.1391 23.5334 32.139 23.5592Z" fill="#263238"/>
<path d="M32.1826 23.3378C32.1572 23.3632 32.0011 23.2526 31.7979 23.2544C31.5947 23.2562 31.435 23.3596 31.4078 23.3342C31.3806 23.3088 31.4223 23.2761 31.4894 23.2272C31.5812 23.1639 31.6901 23.1303 31.8015 23.131C31.9118 23.1305 32.0193 23.1655 32.1082 23.2308C32.1717 23.2798 32.1953 23.327 32.1826 23.3378Z" fill="#263238"/>
<path d="M30.0687 23.6082C30.0689 23.6342 30.064 23.6601 30.0541 23.6842C30.0442 23.7083 30.0297 23.7302 30.0113 23.7486C29.9929 23.767 29.971 23.7816 29.9469 23.7914C29.9228 23.8013 29.8969 23.8062 29.8709 23.806C29.8454 23.8088 29.8197 23.8062 29.7953 23.7984C29.7709 23.7905 29.7485 23.7776 29.7295 23.7605C29.7104 23.7433 29.6953 23.7223 29.6849 23.6989C29.6746 23.6755 29.6693 23.6501 29.6695 23.6245C29.6684 23.5744 29.6866 23.5257 29.7204 23.4886C29.7542 23.4514 29.8009 23.4287 29.8509 23.4249C29.8777 23.4195 29.9055 23.4201 29.932 23.4269C29.9585 23.4336 29.9832 23.4463 30.0041 23.4639C30.0251 23.4815 30.0418 23.5037 30.0529 23.5287C30.0641 23.5536 30.0695 23.5808 30.0687 23.6082Z" fill="#263238"/>
<path d="M30.1032 23.3778C30.0796 23.4032 29.9217 23.2925 29.7185 23.2925C29.5153 23.2925 29.3556 23.3995 29.3284 23.3741C29.3012 23.3487 29.3429 23.3161 29.41 23.2671C29.5018 23.2038 29.6107 23.1703 29.7221 23.1709C29.8321 23.1704 29.9395 23.2047 30.0288 23.2689C30.0923 23.3197 30.1159 23.3651 30.1032 23.3778Z" fill="#263238"/>
<path d="M30.8707 24.9455C30.9823 24.9116 31.0973 24.8909 31.2137 24.8838C31.2681 24.8838 31.3189 24.8674 31.328 24.8311C31.3329 24.7751 31.3209 24.7188 31.2935 24.6697L31.1411 24.2596C30.9914 23.9113 30.87 23.5514 30.7782 23.1836C30.9544 23.5194 31.1031 23.8689 31.2227 24.2287L31.3752 24.6424C31.4092 24.707 31.4194 24.7815 31.4042 24.8529C31.3967 24.8723 31.3847 24.8896 31.3693 24.9034C31.3538 24.9173 31.3353 24.9273 31.3153 24.9328C31.2851 24.9408 31.254 24.9451 31.2227 24.9455C31.1059 24.9607 30.9876 24.9607 30.8707 24.9455Z" fill="#263238"/>
<path d="M30.2483 25.0924C30.2828 25.0924 30.2828 25.3193 30.4806 25.4826C30.6784 25.6459 30.9215 25.6205 30.9233 25.6531C30.9251 25.6858 30.8671 25.6967 30.7655 25.7003C30.6332 25.7008 30.5049 25.6552 30.4026 25.5715C30.3015 25.4899 30.2364 25.372 30.2211 25.2431C30.2066 25.1469 30.2338 25.0906 30.2483 25.0924Z" fill="#263238"/>
<path d="M30.1576 22.5485C30.1376 22.6066 29.9253 22.5794 29.6786 22.6084C29.4318 22.6374 29.2286 22.7064 29.1959 22.6538C29.1814 22.6302 29.2159 22.5757 29.2975 22.5195C29.4067 22.4492 29.5312 22.4063 29.6604 22.3943C29.7875 22.3786 29.9164 22.3942 30.036 22.4397C30.1213 22.476 30.1667 22.5213 30.1576 22.5485Z" fill="#263238"/>
<path d="M32.1045 22.7263C32.0682 22.7735 31.9231 22.7263 31.7416 22.7263C31.5602 22.7263 31.4168 22.759 31.3787 22.7082C31.3406 22.6574 31.3787 22.6356 31.4513 22.5902C31.5386 22.5362 31.6399 22.5092 31.7425 22.5124C31.8452 22.5156 31.9446 22.549 32.0283 22.6084C32.1009 22.6519 32.1208 22.7027 32.1045 22.7263Z" fill="#263238"/>
<path d="M34.8462 35.5257L35.1583 30.7064C34.0587 29.6178 33.4817 29.126 31.9485 28.9446C31.7144 28.9174 31.5275 28.8992 31.3878 28.8811L31.3787 27.9847C31.0561 27.9688 30.736 28.0489 30.4588 28.2149C30.1817 28.3809 29.9601 28.6254 29.8219 28.9174C29.1487 27.845 27.7661 27.992 27.7661 27.992L27.8296 28.8756C27.2853 28.8992 26.8317 29.0661 26.369 29.1551C24.9174 29.4363 23.8559 30.4996 23.5638 31.4812L24.9718 35.308L24.9138 38.8426V40.1454L24.9228 44.932H35.3942C35.4196 43.7906 34.8462 35.5257 34.8462 35.5257Z" fill="#E0E0E0"/>
<path d="M33.1134 79.2093L33.1243 77.373L29.6768 77.3313L29.6387 80.0185L29.8528 80.0349C30.8018 80.1002 34.6829 80.2943 35.3198 80.1111C36.0293 79.9042 33.1134 79.2093 33.1134 79.2093Z" fill="#012A4A"/>
<g opacity="0.4">
<path opacity="0.4" d="M30.887 80.0076C30.84 79.7162 30.6868 79.4526 30.457 79.2673C30.2316 79.0834 29.9454 78.9908 29.655 79.0078L29.6441 79.9695L30.887 80.0076Z" fill="black"/>
</g>
<g opacity="0.4">
<path opacity="0.4" d="M34.5378 79.5994C34.5378 79.5994 35.5593 79.9078 35.4305 80.0748C35.3017 80.2417 31.3697 80.1927 29.6387 80.0185V79.9423L34.2202 80.0403C34.2202 80.0403 34.3382 79.6066 34.5378 79.5994Z" fill="black"/>
</g>
<path d="M29.5914 79.9387H29.6513L29.8201 79.9514L30.446 79.9858C30.9741 80.0131 31.7035 80.0385 32.5109 80.0493C33.3184 80.0602 34.0478 80.0493 34.5758 80.0493L35.2018 80.0312H35.3724H35.4322C35.4124 80.0286 35.3922 80.0286 35.3724 80.0312H35.2018H34.5758C34.0478 80.0312 33.3166 80.0312 32.5109 80.0312C31.7053 80.0312 30.9759 79.9985 30.446 79.9804L29.8219 79.9586H29.6513L29.5914 79.9387Z" fill="#263238"/>
<path d="M34.2257 80.0929C34.2541 79.9895 34.2943 79.8896 34.3454 79.7953C34.4087 79.7091 34.481 79.63 34.5613 79.5594C34.4581 79.6041 34.3707 79.6789 34.3108 79.7741C34.2509 79.8694 34.2212 79.9805 34.2257 80.0929Z" fill="#263238"/>
<path d="M33.2186 79.5649C33.2277 79.5649 33.2767 79.5123 33.3275 79.4342C33.3783 79.3562 33.4128 79.2873 33.4037 79.28C33.3946 79.2728 33.3438 79.3326 33.293 79.4107C33.2422 79.4887 33.2077 79.5594 33.2186 79.5649Z" fill="#263238"/>
<path d="M32.941 79.4143C32.941 79.4234 33.0027 79.3871 33.0626 79.3345C33.1225 79.2819 33.166 79.2329 33.1587 79.2238C33.1515 79.2147 33.0952 79.251 33.0354 79.3036C32.9755 79.3563 32.9337 79.4053 32.941 79.4143Z" fill="#263238"/>
<path d="M32.7741 79.0877C32.8321 79.1087 32.8941 79.1168 32.9556 79.1112C33.0554 79.1112 33.137 79.1113 33.137 79.0949C33.0791 79.0734 33.0172 79.0647 32.9556 79.0695C32.8503 79.0677 32.7741 79.075 32.7741 79.0877Z" fill="#263238"/>
<path d="M32.7124 78.8572C32.7707 78.8983 32.8407 78.9194 32.912 78.9171C32.9817 78.9303 33.0538 78.9221 33.1188 78.8935C33.0519 78.8808 32.9838 78.8753 32.9156 78.8772C32.8487 78.8639 32.7806 78.8572 32.7124 78.8572Z" fill="#263238"/>
<path d="M33.3384 79.2655C33.4116 79.2789 33.4866 79.2789 33.5597 79.2655C33.6398 79.257 33.7188 79.2406 33.7956 79.2165C33.8428 79.2039 33.8884 79.1863 33.9317 79.1639C33.9576 79.1482 33.9769 79.1237 33.9861 79.0949C33.9903 79.0787 33.9896 79.0617 33.9841 79.0458C33.9786 79.03 33.9686 79.0162 33.9553 79.006C33.8712 78.9634 33.7749 78.9513 33.6829 78.9718C33.5909 78.9923 33.5089 79.0442 33.4509 79.1185C33.4164 79.162 33.3911 79.212 33.3765 79.2655C33.3717 79.2852 33.3717 79.3057 33.3765 79.3254C33.4003 79.2594 33.4353 79.198 33.4799 79.1439C33.5279 79.0877 33.5908 79.0462 33.6614 79.0242C33.7045 79.0101 33.7499 79.0048 33.7951 79.0086C33.8403 79.0123 33.8842 79.025 33.9245 79.046C33.9589 79.0714 33.9444 79.1131 33.9063 79.1367C33.866 79.157 33.8242 79.174 33.7811 79.1875C33.7063 79.2116 33.6299 79.2304 33.5525 79.2437C33.4237 79.2601 33.3384 79.2601 33.3384 79.2655Z" fill="#263238"/>
<path d="M33.3964 79.2782C33.4231 79.2315 33.4327 79.177 33.4236 79.124C33.4175 79.0663 33.3976 79.0109 33.3656 78.9625C33.3471 78.9298 33.3209 78.9022 33.2893 78.8819C33.2576 78.8617 33.2215 78.8495 33.1841 78.8464C33.1618 78.8512 33.1421 78.8644 33.1293 78.8834C33.1165 78.9023 33.1114 78.9254 33.1152 78.948C33.1195 78.9836 33.1319 79.0177 33.1515 79.0478C33.1782 79.0975 33.2124 79.1428 33.2531 79.1821C33.2873 79.222 33.3301 79.2536 33.3783 79.2746C33.3783 79.2746 33.3347 79.2347 33.2748 79.1621C33.2404 79.121 33.21 79.0766 33.1841 79.0296C33.1551 78.9825 33.1351 78.8972 33.1841 78.8881C33.2331 78.879 33.2966 78.9389 33.3293 78.9843C33.3597 79.0278 33.3808 79.0773 33.391 79.1294C33.3955 79.1789 33.3973 79.2286 33.3964 79.2782Z" fill="#263238"/>
<path d="M29.6731 78.9988C29.7579 78.9987 29.8427 79.0029 29.9271 79.0115C30.1301 79.0366 30.3219 79.1183 30.4805 79.2474C30.6367 79.3777 30.7541 79.5484 30.8198 79.7409C30.8707 79.8897 30.8743 79.9877 30.8815 79.9877C30.8888 79.9877 30.8815 79.9623 30.8815 79.9187C30.8759 79.8573 30.8643 79.7965 30.8471 79.7373C30.7873 79.5343 30.6677 79.354 30.5039 79.22C30.3401 79.086 30.1398 79.0045 29.9289 78.9861C29.8686 78.9806 29.8078 78.9806 29.7475 78.9861C29.7221 78.986 29.697 78.9903 29.6731 78.9988Z" fill="#263238"/>
<path d="M30.0524 77.5708C30.0137 78.0409 30.0015 78.5128 30.0161 78.9843C30.0438 78.75 30.0571 78.5143 30.056 78.2784C30.068 78.0427 30.0668 77.8064 30.0524 77.5708Z" fill="#263238"/>
<path d="M31.3224 79.6774C31.4868 79.718 31.6558 79.7369 31.8251 79.7336C31.9934 79.7436 32.1623 79.732 32.3277 79.6991C32.3277 79.6864 32.1027 79.6991 31.8251 79.6991C31.5474 79.6991 31.3224 79.6647 31.3224 79.6774Z" fill="#263238"/>
<path d="M30.6511 79.6683C30.642 79.6683 30.6674 79.7155 30.691 79.7663C30.7146 79.8171 30.7237 79.8643 30.7364 79.8643C30.7491 79.8643 30.7545 79.8099 30.7364 79.75C30.7183 79.6901 30.6584 79.6556 30.6511 79.6683Z" fill="#263238"/>
<path d="M30.4008 79.3471C30.4008 79.3562 30.4135 79.3925 30.4479 79.4288C30.4824 79.4651 30.5187 79.4887 30.5278 79.4796C30.5368 79.4705 30.5133 79.436 30.4788 79.3998C30.4443 79.3635 30.4153 79.3399 30.4008 79.3471Z" fill="#263238"/>
<path d="M30.0378 79.1984C30.0378 79.2111 30.0868 79.2111 30.1358 79.2292C30.1848 79.2474 30.2229 79.2746 30.232 79.2673C30.2411 79.2601 30.2138 79.2111 30.1503 79.1893C30.0868 79.1675 30.0342 79.1875 30.0378 79.1984Z" fill="#263238"/>
<path d="M29.7802 79.1276C29.7802 79.1385 29.7947 79.1566 29.8238 79.1675C29.8528 79.1784 29.8782 79.1784 29.8836 79.1675C29.8891 79.1566 29.8673 79.1385 29.8401 79.1276C29.8129 79.1167 29.7838 79.1113 29.7802 79.1276Z" fill="#263238"/>
<path d="M22.6601 78.0425L22.3317 79.4197C22.3317 79.4197 20.0727 82.3464 19.3832 82.1958C18.9278 82.1015 19.4866 81.3376 20.3449 79.1112L20.5263 78.1931L22.6601 78.0425Z" fill="#012A4A"/>
<path d="M19.2907 81.7713C19.3207 81.8193 19.3625 81.8586 19.4123 81.8856C19.4824 81.9166 19.5598 81.9275 19.6358 81.9169C19.7118 81.9063 19.7833 81.8747 19.8423 81.8257C20.2378 81.4955 20.6123 81.141 20.9637 80.7642C21.381 80.3251 21.7312 79.9042 21.978 79.5939C22.0886 79.4524 22.183 79.329 22.2665 79.231L22.3445 79.1294C22.3626 79.1076 22.3717 79.0949 22.3735 79.0967C22.3672 79.1099 22.3599 79.1227 22.3517 79.1348L22.2792 79.2401C22.2157 79.3308 22.1213 79.4614 22.0015 79.6193C21.6867 80.0298 21.3506 80.4235 20.9945 80.7987C20.6419 81.1783 20.2623 81.5318 19.8586 81.8565C19.784 81.9103 19.6963 81.9429 19.6046 81.9509C19.5354 81.9549 19.4663 81.9399 19.405 81.9074C19.3658 81.8865 19.3327 81.8559 19.3089 81.8184C19.3006 81.8036 19.2945 81.7878 19.2907 81.7713Z" fill="#263238"/>
<path d="M19.61 80.8296C19.6678 80.8076 19.7302 80.8007 19.7914 80.8096C19.9425 80.8249 20.0879 80.8752 20.216 80.9566C20.3492 81.0327 20.4571 81.1463 20.5263 81.2832C20.5567 81.3389 20.573 81.4012 20.5735 81.4647C20.5735 81.4647 20.5535 81.3975 20.4991 81.2977C20.4266 81.1713 20.3221 81.0662 20.1961 80.9929C20.072 80.9157 19.9339 80.8639 19.7896 80.8405C19.6808 80.8223 19.6118 80.8369 19.61 80.8296Z" fill="#263238"/>
<path d="M21.7438 80.1437C21.7311 80.1229 21.7219 80.1003 21.7166 80.0765C21.6964 80.0176 21.6818 79.9568 21.6731 79.8951C21.6406 79.6807 21.6768 79.4616 21.7765 79.2691C21.8754 79.0754 22.0355 78.9197 22.2319 78.8264C22.2897 78.7997 22.3507 78.7808 22.4134 78.7701C22.4368 78.7665 22.4607 78.7665 22.4842 78.7701C22.4006 78.7935 22.3187 78.8226 22.2392 78.8572C22.0538 78.9543 21.9029 79.1064 21.8073 79.2927C21.7114 79.4787 21.6723 79.6888 21.6949 79.8969C21.7184 80.0457 21.7511 80.1419 21.7438 80.1437Z" fill="#263238"/>
<path d="M22.515 78.2766C22.5259 78.2766 22.4751 78.4726 22.4334 78.7157C22.4156 78.8653 22.3758 79.0114 22.3154 79.1494C22.3154 79.1494 22.3517 78.9516 22.3935 78.7085C22.4115 78.5591 22.4525 78.4135 22.515 78.2766Z" fill="#263238"/>
<path d="M20.305 79.3181C20.3992 79.2903 20.4993 79.2903 20.5935 79.3181C20.6901 79.3349 20.7804 79.3775 20.8548 79.4415C20.8548 79.4523 20.735 79.3925 20.5844 79.358C20.4338 79.3235 20.305 79.329 20.305 79.3181Z" fill="#263238"/>
<path d="M20.2542 79.554C20.3315 79.5218 20.4178 79.5186 20.4973 79.5449C20.5799 79.5578 20.6555 79.5988 20.7114 79.661C20.7114 79.6719 20.6152 79.6139 20.4882 79.5848C20.3612 79.5558 20.2542 79.5649 20.2542 79.554Z" fill="#263238"/>
<path d="M20.0728 79.8498C20.1098 79.8262 20.1516 79.811 20.1952 79.8053C20.2388 79.7997 20.2831 79.8037 20.325 79.8171C20.3684 79.8235 20.41 79.8392 20.4469 79.8629C20.4838 79.8867 20.5153 79.9181 20.5391 79.955C20.4688 79.9136 20.3939 79.8807 20.3159 79.857C20.2355 79.844 20.1538 79.8416 20.0728 79.8498Z" fill="#263238"/>
<path d="M20.4592 79.2183C20.4592 79.2183 20.5645 79.1911 20.7241 79.1276C20.8183 79.0917 20.9094 79.048 20.9963 78.9969C21.0479 78.9681 21.0976 78.936 21.1451 78.9008C21.1705 78.8872 21.1923 78.8678 21.2087 78.8441C21.2251 78.8205 21.2357 78.7932 21.2395 78.7647C21.2395 78.7103 21.1723 78.6812 21.1197 78.6957C21.0661 78.7132 21.0183 78.7453 20.9818 78.7883C20.8983 78.8663 20.8276 78.9407 20.7695 79.0042C20.6552 79.133 20.5881 79.2201 20.5881 79.2165C20.5881 79.2129 20.5989 79.1911 20.6262 79.1512C20.6534 79.1113 20.6951 79.0532 20.7495 78.9861C20.804 78.9189 20.8747 78.8409 20.9564 78.7611C20.9983 78.7129 21.0521 78.6766 21.1124 78.6558C21.1307 78.6501 21.15 78.6484 21.169 78.6509C21.188 78.6533 21.2062 78.6599 21.2224 78.6701C21.2386 78.6802 21.2524 78.6938 21.2629 78.7098C21.2733 78.7258 21.2802 78.7439 21.283 78.7629C21.2788 78.7981 21.2664 78.8318 21.2469 78.8614C21.2273 78.891 21.2012 78.9157 21.1705 78.9334C21.1209 78.9683 21.0694 79.0004 21.0163 79.0296C20.9267 79.0789 20.8333 79.1208 20.7368 79.1548C20.6717 79.1777 20.605 79.1959 20.5373 79.2092C20.5118 79.2157 20.4855 79.2187 20.4592 79.2183Z" fill="#263238"/>
<path d="M20.5771 79.1893C20.5771 79.1893 20.5626 79.0931 20.5372 78.9389C20.5227 78.8488 20.4965 78.7609 20.4592 78.6776C20.4379 78.6296 20.4098 78.585 20.3757 78.5451C20.3412 78.507 20.2886 78.4726 20.2469 78.498C20.2052 78.5234 20.1997 78.5832 20.2052 78.634C20.2128 78.6866 20.2274 78.7378 20.2487 78.7865C20.2861 78.869 20.3356 78.9454 20.3957 79.0133C20.5009 79.1294 20.5771 79.1838 20.5771 79.1947C20.5562 79.1861 20.5367 79.1745 20.5191 79.1602C20.4675 79.1237 20.4195 79.0824 20.3757 79.0369C20.3093 78.9696 20.2548 78.8917 20.2142 78.8064C20.1915 78.7548 20.175 78.7005 20.1652 78.6449C20.1576 78.6119 20.1593 78.5775 20.1702 78.5454C20.1811 78.5133 20.2007 78.485 20.2269 78.4635C20.259 78.4506 20.2946 78.4491 20.3276 78.4594C20.3607 78.4696 20.3892 78.4909 20.4084 78.5197C20.4453 78.5633 20.4752 78.6123 20.4973 78.6649C20.5345 78.7509 20.5584 78.8421 20.5681 78.9352C20.5768 78.9954 20.5816 79.056 20.5826 79.1167C20.5808 79.1657 20.5808 79.1893 20.5771 79.1893Z" fill="#263238"/>
<g opacity="0.4">
<path opacity="0.4" d="M22.3317 79.4197L22.4896 78.7574C22.4896 78.7574 21.9452 78.8591 21.7946 79.2728C21.7099 79.4986 21.6734 79.7396 21.6876 79.9804L20.4864 81.2723C20.4864 81.2723 20.1852 80.6844 19.6409 80.826C19.6409 80.826 19.2108 81.7695 19.2253 82.0054C19.2399 82.2412 19.512 82.214 19.61 82.1687C20.0072 81.939 20.3696 81.6536 20.686 81.3213C21.3211 80.6608 22.0233 79.8244 22.3317 79.4197Z" fill="black"/>
</g>
<path d="M48.4657 33.7946C48.5139 33.8131 48.5573 33.8426 48.5922 33.8807C48.6272 33.9188 48.6528 33.9645 48.6671 34.0142C48.7505 34.3226 48.8975 34.9795 48.6671 35.1155C48.5655 35.1791 47.181 35.2335 47.0231 35.17C46.8653 35.1065 46.0996 35.2444 46.0996 35.2444L45.9689 34.3771L48.032 33.6331L48.4657 33.7946Z" fill="#B78876"/>
<path d="M51.9513 36.5418H49.803C49.2111 36.5418 48.6434 36.3067 48.2249 35.8881C47.8063 35.4696 47.5712 34.9019 47.5712 34.31C47.5712 33.7181 47.8063 33.1504 48.2249 32.7319C48.6434 32.3133 49.2111 32.0782 49.803 32.0782H51.9513V32.9854H49.803C49.4531 32.9854 49.1176 33.1244 48.8702 33.3718C48.6228 33.6192 48.4838 33.9547 48.4838 34.3046C48.4838 34.6544 48.6228 34.9899 48.8702 35.2373C49.1176 35.4847 49.4531 35.6237 49.803 35.6237H51.9513V36.5418Z" fill="#263238"/>
<path d="M45.9762 33.8872L46.5405 33.7402C46.5405 33.7402 46.7655 33.116 47.0975 33.058C47.4296 32.9999 48.7088 33.39 48.7088 33.39C48.7088 33.39 48.5909 33.6295 48.0175 33.6005L47.6546 33.6331C47.6546 33.6331 47.6854 33.9398 47.2209 34.2845C47.2209 34.2845 46.1576 34.6293 46.1087 34.6474C46.0597 34.6656 45.9762 33.8872 45.9762 33.8872Z" fill="#B78876"/>
<path d="M48.5728 33.8708C48.2971 33.8971 48.0237 33.9425 47.7544 34.0069C47.7032 34.0229 47.6566 34.0509 47.6183 34.0886C47.6 34.1081 47.5873 34.1324 47.5819 34.1586C47.5764 34.1849 47.5784 34.2121 47.5875 34.2374C47.6183 34.3045 47.7036 34.3208 47.7689 34.3245C47.9227 34.3354 48.0772 34.3299 48.2298 34.3081C48.0671 34.3179 47.9064 34.3503 47.7526 34.4043C47.6953 34.4234 47.644 34.4572 47.6038 34.5023C47.5847 34.5251 47.572 34.5526 47.5672 34.582C47.5624 34.6114 47.5657 34.6415 47.5766 34.6692C47.6147 34.7545 47.729 34.7672 47.8216 34.7672C47.9904 34.7633 48.1588 34.7494 48.326 34.7255C48.1754 34.7509 48.0266 34.7853 47.8796 34.8253C47.8516 34.8293 47.8247 34.8392 47.8006 34.8542C47.7766 34.8692 47.7559 34.889 47.7399 34.9124C47.7272 34.9462 47.7277 34.9836 47.7411 35.0171C47.7545 35.0507 47.78 35.078 47.8125 35.0938C47.878 35.1226 47.9498 35.1345 48.0212 35.1283C48.2679 35.1283 48.384 35.1283 48.6671 35.1174" fill="#B78876"/>
<path d="M47.397 34.887C47.3824 34.887 47.397 34.809 47.3843 34.6874C47.3694 34.5281 47.3117 34.3757 47.2173 34.2465L47.1883 34.2084L47.2282 34.1794C47.2628 34.1563 47.2961 34.1315 47.328 34.105C47.4747 33.9879 47.5792 33.826 47.6256 33.6441C47.6492 33.5026 47.5966 33.4191 47.6129 33.4118C47.6292 33.4046 47.7 33.4826 47.6927 33.6514C47.6621 33.8583 47.5538 34.0459 47.3897 34.1757C47.3552 34.2053 47.3188 34.2325 47.2808 34.2574L47.2917 34.1921C47.396 34.3352 47.4502 34.5086 47.4459 34.6856C47.4405 34.8162 47.406 34.8888 47.397 34.887Z" fill="#AA6550"/>
<path d="M48.7868 34.6565C48.66 34.7186 48.5215 34.7532 48.3804 34.7581C48.2436 34.7888 48.1016 34.7888 47.9648 34.7581C48.0935 34.6939 48.2348 34.6592 48.3785 34.6565C48.5129 34.6262 48.6524 34.6262 48.7868 34.6565Z" fill="#AA6550"/>
<path d="M48.7251 34.2573C48.4502 34.3547 48.1572 34.3906 47.8669 34.3626C47.9988 34.2988 48.1431 34.2648 48.2897 34.2628C48.4328 34.2302 48.5812 34.2283 48.7251 34.2573Z" fill="#AA6550"/>
<path d="M35.4359 44.0228L34.1168 78.5142L28.7568 78.6267L29.6459 48.7405L23.6182 78.8554H18.5231L25.0879 44.0936L35.4359 44.0228Z" fill="#263238"/>
<path d="M30.8816 45.2784C30.8773 45.4692 30.8566 45.6592 30.8199 45.8464C30.7691 46.1966 30.6947 46.6774 30.6058 47.2072C30.572 47.4603 30.5204 47.7107 30.4515 47.9566C30.3919 48.164 30.2696 48.3478 30.1014 48.4828C29.9902 48.5766 29.8563 48.6392 29.7131 48.6643C29.6617 48.6756 29.6084 48.6756 29.557 48.6643C29.7498 48.6392 29.9306 48.5565 30.0757 48.427C30.2207 48.2975 30.3233 48.1272 30.3699 47.9385C30.4303 47.6957 30.4776 47.4497 30.5114 47.2018C30.6003 46.6702 30.6929 46.1911 30.7546 45.8446C30.7812 45.6527 30.8237 45.4633 30.8816 45.2784Z" fill="#455A64"/>
<path d="M29.7656 45.4436C29.7783 45.4527 29.7348 45.5071 29.7656 45.5978C29.7716 45.6223 29.7826 45.6453 29.7979 45.6653C29.8132 45.6853 29.8325 45.7018 29.8545 45.714C29.8814 45.7249 29.9109 45.7276 29.9393 45.7218C29.9677 45.716 29.9938 45.7019 30.0142 45.6813C30.037 45.6635 30.0542 45.6394 30.0635 45.612C30.0729 45.5846 30.074 45.5551 30.0668 45.5271C30.0577 45.5036 30.0438 45.4823 30.026 45.4645C30.0082 45.4467 29.9869 45.4328 29.9634 45.4237C29.8763 45.3874 29.8164 45.4237 29.8092 45.411C29.8019 45.3983 29.8582 45.3329 29.9906 45.3601C30.0269 45.3688 30.0608 45.3858 30.0894 45.4097C30.1181 45.4336 30.1408 45.4639 30.1558 45.498C30.1713 45.543 30.1727 45.5916 30.1597 45.6374C30.1467 45.6831 30.12 45.7238 30.0832 45.7539C30.0488 45.7864 30.0052 45.8074 29.9583 45.8139C29.9115 45.8204 29.8638 45.8121 29.8219 45.7902C29.7898 45.771 29.7626 45.7446 29.7425 45.7131C29.7223 45.6816 29.7097 45.6459 29.7058 45.6087C29.6894 45.4817 29.762 45.4327 29.7656 45.4436Z" fill="#455A64"/>
<path d="M26.8879 45.9353C26.8234 45.7798 26.799 45.6105 26.8171 45.4431C26.8352 45.2757 26.8951 45.1155 26.9913 44.9773C27.0149 44.99 26.9387 45.1932 26.9115 45.4545C26.8843 45.7158 26.9151 45.9299 26.8879 45.9353Z" fill="#455A64"/>
<path d="M27.532 45.8936C27.4696 45.7323 27.4435 45.5592 27.4558 45.3867C27.468 45.2142 27.5182 45.0465 27.6028 44.8956C27.5945 45.0628 27.577 45.2294 27.5502 45.3946C27.5542 45.5612 27.5481 45.7278 27.532 45.8936Z" fill="#455A64"/>
<path d="M33.0717 46.0352C33.0669 45.8616 33.0772 45.688 33.1025 45.5162C33.0964 45.3435 33.1036 45.1706 33.1243 44.9991C33.2393 45.3386 33.2205 45.7091 33.0717 46.0352Z" fill="#455A64"/>
<path d="M33.772 45.997C33.7466 45.9843 33.8301 45.7593 33.8483 45.4708C33.8664 45.1823 33.8192 44.9464 33.8483 44.9391C33.9418 45.1042 33.9764 45.2962 33.9462 45.4835C33.9456 45.669 33.8844 45.8493 33.772 45.997Z" fill="#455A64"/>
<path d="M24.3095 59.4514C24.2748 59.293 24.2596 59.1309 24.2642 58.9688C24.2848 58.5038 24.3835 58.0456 24.5563 57.6134C24.7504 57.0436 25.1006 56.3759 25.2131 55.5267C25.278 55.0761 25.2013 54.6164 24.9936 54.2112C24.8847 53.9971 24.7432 53.7921 24.6143 53.5689C24.4708 53.3419 24.3745 53.0882 24.3313 52.8231C24.3045 52.5418 24.343 52.258 24.4438 51.9939C24.5399 51.7254 24.667 51.4659 24.7795 51.1956C24.9031 50.9252 24.9821 50.6366 25.0135 50.3409C25.0351 50.0323 25.026 49.7224 24.9863 49.4156C24.9434 49.0948 24.9173 48.772 24.9083 48.4484C24.9 47.4057 25.1985 46.3835 25.7665 45.509C25.9633 45.202 26.1919 44.9168 26.4488 44.658C26.5798 44.5287 26.7185 44.4075 26.8643 44.2951C27.014 44.1722 27.1916 44.0881 27.3814 44.0501C27.5788 44.02 27.7805 44.0584 27.953 44.159C28.1226 44.2581 28.2702 44.3909 28.3866 44.5491C28.5045 44.7056 28.5986 44.8787 28.6661 45.0626C28.738 45.2451 28.7921 45.4341 28.8276 45.6269C28.957 46.4189 28.8659 47.2312 28.5645 47.9749C28.4278 48.3627 28.215 48.7193 27.9385 49.0236C27.7947 49.177 27.6221 49.3003 27.4304 49.3865C27.2343 49.4746 27.0173 49.5054 26.8044 49.4754C26.5956 49.4347 26.3983 49.3486 26.2265 49.2232C26.0547 49.0977 25.9125 48.9361 25.8101 48.7496C25.6018 48.3889 25.5105 47.9724 25.5488 47.5575C25.584 47.1571 25.6694 46.7627 25.8028 46.3836C25.9217 46.0084 26.0598 45.6396 26.2165 45.2785C26.3708 44.9163 26.6075 44.5951 26.9078 44.3405C27.212 44.0877 27.6021 43.9622 27.9965 43.9903C28.192 44.0133 28.3788 44.0837 28.5409 44.1953C28.694 44.3072 28.8261 44.4455 28.931 44.6036C29.1271 44.9149 29.2591 45.2622 29.3193 45.6251C29.4424 46.2975 29.426 46.9879 29.2712 47.6537C29.1163 48.3195 28.8264 48.9463 28.4193 49.4954C28.0701 50.0166 27.5516 50.4012 26.9514 50.5841C26.6627 50.6601 26.3569 50.6378 26.0823 50.5206C25.8236 50.4032 25.6039 50.2143 25.449 49.9762C25.1782 49.5314 25.0218 49.0265 24.9936 48.5065C24.952 48.047 24.9758 47.5839 25.0643 47.1311C25.1411 46.7385 25.2597 46.3553 25.4182 45.988C25.5538 45.6807 25.7178 45.3867 25.9081 45.1098C26.1684 44.7236 26.4846 44.3782 26.8462 44.0846C26.9381 44.0072 27.0344 43.9351 27.1347 43.8687L27.2363 43.7997C27.2363 43.7997 27.2054 43.827 27.1401 43.876C27.0748 43.9249 26.9732 43.9921 26.857 44.0991C26.5036 44.3978 26.1939 44.7448 25.9371 45.1298C25.7527 45.4073 25.593 45.7006 25.4599 46.0062C25.3055 46.3715 25.1905 46.7523 25.117 47.142C25.031 47.5897 25.0096 48.0473 25.0534 48.5011C25.083 49.0101 25.2382 49.5038 25.5053 49.9381C25.6523 50.1663 25.8621 50.3472 26.1095 50.4589C26.3701 50.5688 26.6601 50.5886 26.9332 50.5151C27.5153 50.3363 28.0182 49.9628 28.3576 49.4573C28.7533 48.9144 29.0335 48.2963 29.1811 47.6409C29.3287 46.9856 29.3406 46.307 29.2159 45.6469C29.1588 45.2953 29.031 44.9589 28.8403 44.658C28.7429 44.5094 28.6201 44.3792 28.4774 44.2733C28.3293 44.1739 28.1593 44.1116 27.982 44.0919C27.6132 44.0678 27.2493 44.1867 26.9659 44.4239C26.6771 44.6703 26.4503 44.981 26.3036 45.3312C26.1479 45.6866 26.011 46.05 25.8936 46.4199C25.7622 46.7913 25.6781 47.1778 25.6432 47.5702C25.6078 47.966 25.6945 48.363 25.8917 48.7079C25.9874 48.8815 26.12 49.032 26.2802 49.1486C26.4404 49.2652 26.6244 49.3452 26.8189 49.3829C27.0156 49.4026 27.2141 49.3742 27.3975 49.3003C27.5808 49.2263 27.7434 49.109 27.8713 48.9583C28.1394 48.6627 28.3461 48.3166 28.4792 47.9404C28.7746 47.2129 28.8644 46.4183 28.7387 45.6433C28.7039 45.4573 28.6517 45.275 28.5826 45.0989C28.5189 44.9231 28.429 44.7579 28.3159 44.609C28.2077 44.4613 28.0699 44.3377 27.9113 44.2461C27.7565 44.1553 27.5753 44.1201 27.3978 44.1463C27.0349 44.208 26.7718 44.4911 26.5141 44.736C26.2609 44.9897 26.0353 45.2695 25.8409 45.5707C25.4662 46.1512 25.2074 46.7988 25.0788 47.4777C25.0186 47.8026 24.9895 48.1325 24.9918 48.463C24.999 48.784 25.0239 49.1045 25.0662 49.4228C25.1044 49.7346 25.1129 50.0493 25.0916 50.3627C25.0583 50.666 24.9762 50.962 24.8484 51.2391C24.7323 51.5095 24.6053 51.7689 24.5127 52.032C24.4139 52.2852 24.3748 52.5578 24.3984 52.8286C24.4392 53.0864 24.5318 53.3333 24.6706 53.5544C24.7976 53.7757 24.9373 53.9826 25.0498 54.2021C25.2605 54.6187 25.3365 55.0904 25.2676 55.5521C25.1496 56.4122 24.7903 57.0781 24.5926 57.6442C24.4182 58.0723 24.3141 58.5257 24.2841 58.9869C24.2817 59.1081 24.2865 59.2293 24.2986 59.3498C24.3077 59.4097 24.3095 59.4514 24.3095 59.4514Z" fill="#455A64"/>
<path d="M27.3578 22.1004C27.3798 22.5089 27.4283 22.9156 27.503 23.3179C27.5139 23.3778 27.523 23.5592 27.5357 23.6191C27.6173 23.9675 27.7625 24.1163 27.9693 23.757C28.0482 23.5375 28.1024 23.3099 28.1308 23.0784L28.3812 21.8082C28.7046 21.9754 29.0642 22.0602 29.4282 22.055C29.6097 22.0503 29.787 21.9996 29.9435 21.9076C30.1 21.8155 30.2305 21.6852 30.3227 21.5288C30.4087 21.6719 30.5259 21.7938 30.6656 21.8852C30.8053 21.9767 30.9638 22.0355 31.1294 22.0571C31.2949 22.0787 31.4632 22.0627 31.6217 22.0102C31.7802 21.9577 31.9248 21.87 32.0446 21.7538C32.1121 21.8483 32.2124 21.914 32.3259 21.9382C32.4394 21.9624 32.5579 21.9432 32.6579 21.8844C32.7553 21.8204 32.8296 21.7267 32.8697 21.6173C32.9099 21.5079 32.9139 21.3885 32.8811 21.2766C32.7868 20.9409 32.4275 20.7595 32.0918 20.6615C30.7836 20.275 29.3356 20.578 28.158 21.2675C27.983 21.3651 27.8229 21.4873 27.6826 21.6304C27.5484 21.7774 27.3633 21.9498 27.3578 22.1475" fill="#263238"/>
<path d="M27.8405 44.8793L27.8006 28.8683C27.2676 28.9089 26.7382 28.9878 26.2166 29.1042C24.7559 29.3837 23.7035 30.4469 23.4114 31.4304L24.8158 35.19L24.7595 40.0891V41.9671L24.0827 46.6158L27.8351 47.7044L27.8042 44.8739L27.8405 44.8793Z" fill="#012A4A"/>
<path d="M40.1317 38.4524C40.6507 38.3726 46.3173 35.9684 46.3173 35.9684L45.8618 33.2049L40.5309 34.6565L34.6211 30.1022C33.752 29.3165 33.1351 29.0498 31.796 28.8919L31.5873 28.8683L32.4946 44.8793L32.676 47.8768L36.0237 47.3434L35.5483 42.9886C35.2871 40.1998 34.8842 36.1607 34.8425 35.5166C36.1616 36.3404 39.7144 38.5159 40.1317 38.4524Z" fill="#012A4A"/>
<path d="M40.0519 35.992C40.0215 35.747 40.0438 35.4983 40.1173 35.2627C40.1908 35.027 40.3139 34.8098 40.4783 34.6257C40.5019 34.642 40.3223 34.9124 40.208 35.2916C40.0937 35.6708 40.081 35.992 40.0519 35.992Z" fill="#263238"/>
<path d="M40.5292 35.943C40.4023 35.4981 40.3935 35.0279 40.5038 34.5786C40.5276 34.8051 40.5337 35.0333 40.5219 35.2608C40.5426 35.4876 40.5451 35.7158 40.5292 35.943Z" fill="#263238"/>
<g opacity="0.2">
<path opacity="0.2" d="M45.0381 33.4245C45.0182 33.4245 45.2777 36.4075 45.2777 36.4075L46.3174 35.9684L45.8619 33.205L45.0381 33.4245Z" fill="black"/>
</g>
<g opacity="0.2">
<path opacity="0.2" d="M35.4958 42.1812L33.6069 42.8852L33.7702 44.3894C33.7928 44.5956 33.8589 44.7947 33.964 44.9735C34.0692 45.1524 34.211 45.3069 34.3802 45.4269C34.5495 45.5469 34.7422 45.6297 34.9457 45.6698C35.1493 45.7099 35.359 45.7064 35.5611 45.6595L35.895 45.5815L35.4958 42.1812Z" fill="black"/>
</g>
<g opacity="0.2">
<path opacity="0.2" d="M24.6942 42.446L26.8099 42.8852L26.6629 43.9611C26.6277 44.2145 26.5429 44.4584 26.4132 44.6789C26.2835 44.8994 26.1116 45.0922 25.9073 45.2461C25.703 45.4 25.4703 45.5121 25.2226 45.5758C24.9749 45.6396 24.717 45.6539 24.4637 45.6178L24.2369 45.5851L24.6942 42.446Z" fill="black"/>
</g>
<path d="M35.0984 38.4542C35.073 38.4542 34.8861 36.5291 34.6811 34.1521C34.476 31.7751 34.3309 29.8445 34.3563 29.8427C34.3817 29.8409 34.5704 31.7661 34.7754 34.1448C34.9805 36.5236 35.1329 38.4506 35.0984 38.4542Z" fill="#263238"/>
<path d="M31.7616 28.9174C31.8338 28.9562 31.9013 29.0031 31.963 29.0571C32.1432 29.1909 32.3097 29.3423 32.4602 29.5089C32.694 29.7584 32.8416 30.0764 32.8811 30.4161C32.8904 30.5154 32.8861 30.6155 32.8684 30.7137C32.8461 30.8128 32.8158 30.9099 32.7777 31.004C32.7407 31.0935 32.7252 31.1905 32.7323 31.2871C32.7487 31.3862 32.7858 31.4808 32.8412 31.5647C32.8938 31.6554 32.9537 31.7461 33.0009 31.8441C33.0493 31.9437 33.0753 32.0527 33.0771 32.1635C33.0682 32.3678 33.0057 32.5662 32.8956 32.7386C32.8017 32.8902 32.6974 33.0351 32.5836 33.1723C32.4819 33.303 32.3912 33.4263 32.3096 33.5352C32.1798 33.7162 32.068 33.9095 31.9757 34.1122C31.9465 34.1875 31.9216 34.2645 31.9013 34.3427C31.9013 34.3427 31.9013 34.3209 31.9013 34.2791C31.9084 34.2173 31.9224 34.1564 31.943 34.0977C32.0248 33.8877 32.1308 33.688 32.2588 33.5025C32.3368 33.3846 32.4257 33.2576 32.5237 33.1233C32.6336 32.9869 32.7342 32.8432 32.8249 32.6933C32.9418 32.5324 32.9993 32.3361 32.9877 32.1376C32.9762 31.9391 32.8962 31.7508 32.7614 31.6046C32.6993 31.5098 32.6584 31.4027 32.6416 31.2907C32.6328 31.1805 32.6502 31.0699 32.6924 30.9677C32.7295 30.8771 32.7592 30.7837 32.7813 30.6883C32.7985 30.5986 32.8039 30.5072 32.7977 30.4161C32.762 30.0928 32.6269 29.7886 32.4112 29.5452C32.2664 29.3777 32.1093 29.2212 31.9412 29.077C31.8765 29.0295 31.8164 28.976 31.7616 28.9174Z" fill="#263238"/>
<path d="M27.7352 34.5785C27.7001 34.4973 27.6692 34.4143 27.6427 34.3299C27.556 34.1057 27.4498 33.8896 27.3252 33.684C27.249 33.5479 27.1655 33.4027 27.0766 33.2485C26.9792 33.0807 26.8954 32.9054 26.8262 32.7241C26.7484 32.5204 26.7114 32.3034 26.7173 32.0854C26.7231 31.9676 26.7508 31.852 26.799 31.7443C26.8535 31.6376 26.9238 31.5397 27.0076 31.454C27.0435 31.4167 27.071 31.3721 27.0882 31.3233C27.1054 31.2744 27.1119 31.2225 27.1074 31.1709C27.0941 31.0673 27.0561 30.9684 26.9967 30.8824C26.8551 30.7186 26.7378 30.5353 26.6484 30.3381C26.5921 30.1439 26.5984 29.9369 26.6665 29.7466C26.7231 29.5836 26.812 29.4336 26.9278 29.3056C27.0913 29.1201 27.301 28.9811 27.5356 28.9028C27.5996 28.8835 27.6652 28.8702 27.7316 28.8629C27.777 28.8629 27.8006 28.8629 27.8006 28.8629C27.8006 28.8629 27.7062 28.8756 27.5483 28.9373C27.3261 29.0242 27.1295 29.1659 26.9768 29.3492C26.8707 29.4723 26.7905 29.6154 26.7409 29.7702C26.6804 29.9461 26.6772 30.1367 26.7318 30.3145C26.8216 30.502 26.937 30.676 27.0748 30.8316C27.1428 30.9307 27.1863 31.0445 27.2018 31.1637C27.2071 31.2273 27.199 31.2913 27.1781 31.3516C27.1571 31.412 27.1238 31.4672 27.0802 31.5139C27.0021 31.5933 26.9361 31.6838 26.8842 31.7824C26.8408 31.8798 26.8156 31.9844 26.8099 32.0909C26.8029 32.2969 26.8368 32.5022 26.9096 32.6951C26.9758 32.8711 27.0559 33.0416 27.1492 33.205L27.3887 33.6459C27.509 33.857 27.607 34.0802 27.6808 34.3118C27.7012 34.3748 27.7175 34.439 27.7298 34.5041C27.7352 34.5531 27.7389 34.5767 27.7352 34.5785Z" fill="#263238"/>
<path d="M29.7929 28.9881C29.7929 28.9881 29.7929 28.9463 29.7403 28.8955C29.7094 28.8609 29.669 28.8362 29.6241 28.8245C29.5792 28.8129 29.5318 28.8149 29.4881 28.8302C29.4238 28.859 29.367 28.9024 29.3223 28.9569C29.2776 29.0113 29.2461 29.0754 29.2304 29.1441C29.1965 29.3334 29.1353 29.5167 29.049 29.6885L29.0163 29.7375L28.9746 29.6939C28.7511 29.4452 28.4843 29.2393 28.1871 29.0861C27.9585 28.9663 27.8042 28.9173 27.8079 28.9046C27.9504 28.9199 28.0889 28.9618 28.2161 29.028C28.5323 29.1682 28.815 29.3742 29.0453 29.6322H28.9709C29.0523 29.4698 29.1132 29.2979 29.1524 29.1205C29.1737 29.0408 29.2141 28.9675 29.27 28.9068C29.326 28.8461 29.3958 28.7999 29.4736 28.7722C29.5283 28.7555 29.587 28.7569 29.6409 28.7762C29.6949 28.7955 29.7411 28.8316 29.7729 28.8792C29.8129 28.9427 29.7965 28.9899 29.7929 28.9881Z" fill="#263238"/>
<path d="M31.3878 28.881C31.3578 28.9619 31.3155 29.0378 31.2626 29.106C31.1447 29.2892 31.0125 29.4627 30.8671 29.625L30.8072 29.6885L30.7891 29.5995C30.7711 29.4824 30.7451 29.3666 30.711 29.253C30.6721 29.1025 30.5879 28.9675 30.4697 28.8665C30.4235 28.8257 30.3686 28.7959 30.3092 28.7792C30.2498 28.7626 30.1875 28.7595 30.1268 28.7703C30.0432 28.7851 29.9674 28.8288 29.9127 28.8937C29.8746 28.9409 29.8637 28.9736 29.8546 28.9717C29.8455 28.9699 29.8546 28.9318 29.8818 28.8719C29.934 28.7893 30.0158 28.7296 30.1104 28.705C30.1816 28.6878 30.2558 28.6872 30.3272 28.7033C30.3986 28.7193 30.4654 28.7516 30.5223 28.7975C30.6585 28.9063 30.7564 29.0557 30.8018 29.224C30.8367 29.3428 30.8628 29.4641 30.8798 29.5868L30.8036 29.5614C30.985 29.38 31.1157 29.1985 31.2173 29.0733C31.2651 29.0018 31.3225 28.937 31.3878 28.881Z" fill="#263238"/>
<path d="M30.1576 44.9392C30.1495 44.8851 30.1464 44.8304 30.1485 44.7758C30.1485 44.6615 30.1485 44.5073 30.1376 44.3113C30.1376 43.8976 30.1267 43.3152 30.1195 42.6003C30.105 41.1487 30.085 39.1528 30.0469 36.9554C30.0088 34.7581 29.9525 32.7549 29.9108 31.3106C29.8909 30.5939 29.8745 30.0133 29.8618 29.5996V29.135C29.8586 29.0807 29.8586 29.0261 29.8618 28.9717C29.8718 29.025 29.8773 29.079 29.8781 29.1332C29.8781 29.2475 29.8945 29.4036 29.9054 29.5977C29.9253 30.0114 29.9525 30.5921 29.9852 31.3088C30.0451 32.7513 30.1086 34.7472 30.1485 36.9536C30.1884 39.16 30.1957 41.1541 30.1939 42.6003C30.1939 43.3152 30.1848 43.8976 30.183 44.3113C30.183 44.5073 30.183 44.6615 30.1739 44.7758C30.1724 44.8306 30.1669 44.8852 30.1576 44.9392Z" fill="#263238"/>
<path d="M51.9531 32.0782H51.2672V32.9909H51.9531V32.0782Z" fill="#455A64"/>
<path d="M51.9531 35.6291H51.2672V36.5418H51.9531V35.6291Z" fill="#455A64"/>
<path d="M28.7568 78.6268L28.804 77.0173H34.2202L34.1167 78.5143L28.7568 78.6268Z" fill="#455A64"/>
<path d="M18.5231 78.8554L18.7862 77.4673L23.8758 77.5708L23.6182 78.8554H18.5231Z" fill="#455A64"/>
<path d="M26.6883 42.0197L26.7319 42.0741C26.8153 42.0905 26.9024 42.1086 27.0004 42.1249C27.1468 42.1512 27.2967 42.1512 27.4431 42.1249C27.6257 42.0998 27.804 42.0497 27.973 41.9762C28.0022 41.9536 28.0378 41.9411 28.0747 41.9406C28.1116 41.94 28.1476 41.9514 28.1775 41.9731C28.2073 41.9948 28.2293 42.0255 28.2402 42.0607C28.2511 42.096 28.2503 42.1338 28.2379 42.1685C28.1762 42.3082 27.7752 42.5495 27.2309 42.5949C26.6865 42.6403 27.396 43.1265 27.6518 43.3062C27.9077 43.4858 28.6734 44.0846 28.6806 44.2134C28.6897 44.3949 28.4992 44.4366 28.2488 44.2497C27.9984 44.0628 27.2036 43.5566 27.1147 43.6963C27.0258 43.836 28.3413 44.7378 28.3413 44.7378C28.3413 44.7378 28.6534 44.8848 28.5572 45.0499C28.3758 45.3475 27.053 44.2842 26.9242 44.1789C26.8389 44.1064 26.7428 44.2551 26.8335 44.3277C26.9242 44.4003 28.1653 45.1987 27.9893 45.5035C27.8532 45.7376 26.8897 44.6398 26.5377 44.6162C26.1857 44.5926 27.3542 45.3747 27.2163 45.5924C27.1637 45.6741 27.1147 45.7267 26.5105 45.1823C26.0247 44.6984 25.5656 44.1883 25.1351 43.6545L26.6883 42.0197Z" fill="#B78876"/>
<path d="M23.7779 30.6756C23.7779 30.6756 21.566 34.2156 19.9149 36.8031C19.7382 37.0811 19.6187 37.3915 19.5633 37.7161C19.5078 38.0408 19.5175 38.3732 19.5918 38.6941C19.6661 39.015 19.8036 39.3178 19.9961 39.5851C20.1886 39.8523 20.4324 40.0785 20.7132 40.2506L25.1224 43.9376L26.9949 41.929L23.3551 37.8682L25.7375 34.5767L23.7779 30.6756Z" fill="#012A4A"/>
<path d="M25.1224 43.9412C25.1605 43.8875 25.2024 43.8366 25.2476 43.7888C25.342 43.6854 25.4654 43.5457 25.6105 43.3733C25.9426 43.0104 26.4053 42.5078 26.9569 41.9036V41.958L24.941 39.6627L23.3878 37.8772L23.3642 37.8518L23.3842 37.8246C23.963 36.9918 24.4728 36.3023 24.8503 35.8287C25.0317 35.5892 25.1859 35.4023 25.2894 35.2753L25.4091 35.1319C25.4381 35.1011 25.4527 35.0847 25.4545 35.0866C25.4563 35.0884 25.4454 35.1065 25.42 35.141L25.3111 35.2934C25.2059 35.4331 25.0662 35.6236 24.892 35.8613C24.5291 36.3476 24.0265 37.0426 23.4549 37.879V37.8264L25.0154 39.6046C25.7521 40.452 26.4397 41.2376 27.0113 41.9108L27.0349 41.938L27.0095 41.9653L25.6396 43.4168L25.2513 43.816C25.2115 43.8609 25.1684 43.9028 25.1224 43.9412Z" fill="#263238"/>
<path d="M60.9583 32.7495C60.8642 32.6908 60.7593 32.6513 60.6499 32.6334C60.3461 32.6133 60.0437 32.6881 59.7843 32.8475C59.5963 32.9508 59.3988 33.0358 59.1946 33.1015C59.0768 33.1356 58.9543 33.1503 58.8317 33.1451C58.7033 33.1363 58.5765 33.1113 58.4543 33.0707C58.2017 32.9737 57.9545 32.8628 57.714 32.7386C57.4671 32.6029 57.1882 32.5364 56.9066 32.5463C56.6265 32.5896 56.3581 32.6889 56.1173 32.8384C55.8847 32.9793 55.6378 33.0949 55.3806 33.1832C55.1378 33.2598 54.8759 33.2489 54.6403 33.1523C54.4451 33.0647 54.2555 32.9654 54.0724 32.8548C53.9472 32.7717 53.8053 32.717 53.6568 32.6944C53.5082 32.6719 53.3565 32.682 53.2123 32.7241C53.1094 32.7652 53.0202 32.8344 52.9547 32.9237C52.9633 32.8952 52.9775 32.8687 52.9964 32.8457C53.0481 32.7764 53.1178 32.7224 53.1978 32.6896C53.3474 32.6384 53.5066 32.6215 53.6636 32.64C53.8206 32.6585 53.9715 32.7121 54.105 32.7967C54.2871 32.9015 54.4749 32.996 54.6675 33.0797C54.8882 33.1655 55.1317 33.1726 55.357 33.0997C55.6103 33.0111 55.8535 32.8961 56.0828 32.7568C56.3331 32.5991 56.6138 32.4959 56.9066 32.4538C57.2049 32.4416 57.5008 32.5106 57.763 32.6533C57.9984 32.7788 58.2408 32.8909 58.4888 32.989C58.7105 33.0723 58.9524 33.0856 59.1819 33.0271C59.3825 32.9654 59.5768 32.8852 59.7626 32.7876C60.0375 32.6309 60.3557 32.5673 60.6698 32.6062C60.754 32.6212 60.8343 32.6533 60.9057 32.7005C60.9402 32.7241 60.9601 32.7477 60.9583 32.7495Z" fill="#263238"/>
<path d="M61.0926 34.0288C60.9987 33.9696 60.8938 33.9301 60.7841 33.9126C60.4805 33.8929 60.1781 33.9677 59.9186 34.1268C59.7314 34.2304 59.5345 34.3154 59.3307 34.3808C59.2129 34.4146 59.0904 34.4293 58.9679 34.4243C58.8388 34.4155 58.7114 34.3905 58.5886 34.3499C58.3362 34.2531 58.0896 34.1416 57.8501 34.0161C57.602 33.882 57.3227 33.8162 57.0409 33.8255C56.7616 33.8664 56.4936 33.9639 56.2534 34.1122C56.02 34.2528 55.7725 34.3683 55.5149 34.457C55.2721 34.5336 55.0102 34.5227 54.7746 34.4261C54.58 34.3386 54.3909 34.2392 54.2085 34.1286C54.0829 34.0456 53.9407 33.9909 53.7919 33.9684C53.6431 33.9458 53.4911 33.9559 53.3466 33.9979C53.2436 34.0379 53.1546 34.1073 53.0908 34.1975C53.0984 34.1686 53.1127 34.1419 53.1325 34.1195C53.1829 34.0489 53.2529 33.9946 53.3339 33.9634C53.4834 33.912 53.6427 33.8949 53.7997 33.9134C53.9568 33.9319 54.1077 33.9856 54.2411 34.0705C54.4238 34.1743 54.6115 34.2687 54.8036 34.3536C55.0243 34.4394 55.2678 34.4464 55.4931 34.3735C55.7433 34.2843 55.9835 34.1694 56.2098 34.0306C56.4609 33.8728 56.7421 33.769 57.0354 33.7258C57.3332 33.7153 57.6283 33.7849 57.8901 33.9272C58.1253 34.0524 58.3676 34.1639 58.6158 34.261C58.8372 34.3457 59.0794 34.3597 59.309 34.3009C59.5092 34.2384 59.7035 34.1582 59.8896 34.0614C60.1631 33.9005 60.4817 33.8335 60.7968 33.8709C60.8811 33.8859 60.9614 33.918 61.0327 33.9653C61.0799 34.0034 61.0944 34.027 61.0926 34.0288Z" fill="#263238"/>
<path d="M61.031 35.3606C60.937 35.3014 60.8321 35.2619 60.7225 35.2444C60.4188 35.2247 60.1165 35.2995 59.857 35.4585C59.6698 35.5628 59.4729 35.6485 59.2691 35.7144C59.151 35.7468 59.0286 35.7608 58.9062 35.7561C58.7772 35.7473 58.6498 35.7223 58.527 35.6817C58.2743 35.5862 58.0276 35.4754 57.7885 35.3497C57.5401 35.2171 57.2604 35.1543 56.9792 35.1682C56.6996 35.2101 56.4316 35.3089 56.1917 35.4585C55.9588 35.5998 55.7111 35.7154 55.4533 35.8033C55.2105 35.879 54.9491 35.8687 54.7129 35.7743C54.5187 35.6854 54.3296 35.5855 54.1468 35.4749C54.0211 35.3922 53.879 35.3378 53.7302 35.3152C53.5814 35.2927 53.4295 35.3026 53.285 35.3442C53.1819 35.3842 53.0929 35.4536 53.0291 35.5438C53.0372 35.5151 53.0514 35.4885 53.0708 35.4658C53.1218 35.3957 53.1916 35.3416 53.2723 35.3098C53.4218 35.2583 53.581 35.2412 53.7381 35.2597C53.8952 35.2783 54.046 35.3319 54.1795 35.4168C54.3617 35.5213 54.5495 35.6158 54.742 35.6999C54.9625 35.7866 55.2063 35.7936 55.4315 35.7198C55.6816 35.6306 55.9218 35.5157 56.1482 35.3769C56.399 35.2189 56.6803 35.1157 56.9738 35.0739C57.2715 35.062 57.5668 35.131 57.8284 35.2735C58.064 35.3986 58.3063 35.5106 58.5542 35.6092C58.7759 35.6925 59.0178 35.7058 59.2473 35.6473C59.4478 35.5855 59.6422 35.5053 59.828 35.4077C60.102 35.2482 60.4202 35.1813 60.7352 35.2172C60.8192 35.233 60.8993 35.2651 60.9711 35.3116C61.0128 35.3352 61.0328 35.3588 61.031 35.3606Z" fill="#263238"/>
<path d="M48.3786 66.8308C49.1301 66.479 49.9744 66.3766 50.7882 66.5387C51.2237 66.6113 51.6791 66.7419 51.9767 67.0703C52.2743 67.3988 52.3305 67.9776 51.9894 68.257C51.7698 68.4066 51.5044 68.4741 51.24 68.4475C50.6031 68.4475 49.8955 68.3278 49.3874 68.7106C49.0971 68.9302 48.9048 69.2931 48.5582 69.4001C48.384 69.4412 48.2011 69.4243 48.0373 69.3519C47.8735 69.2795 47.7379 69.1557 47.651 68.9991C47.4861 68.6801 47.4498 68.3099 47.5494 67.9649C47.5909 67.7248 47.6874 67.4975 47.8312 67.3008C47.975 67.1041 48.1624 66.9432 48.3786 66.8308Z" fill="#012A4A"/>
<path d="M46.7002 63.592C47.1466 64.2307 48.0175 64.0202 48.4221 63.6283C48.8268 63.2364 48.9955 62.6721 49.1479 62.1332C49.5017 60.8993 49.8592 59.6056 49.5961 58.35C49.5318 57.9701 49.3649 57.6149 49.1134 57.323C48.9855 57.1789 48.8219 57.071 48.6391 57.0102C48.4563 56.9494 48.2607 56.9377 48.0719 56.9764C47.6346 57.0926 47.3607 57.5208 47.1647 57.9308C46.5832 59.1386 46.2783 60.4607 46.272 61.8011C46.272 62.4235 46.3446 63.0713 46.6966 63.592" fill="#012A4A"/>
<path d="M45.4754 64.5102C45.9617 63.9332 46.0543 63.0912 45.8383 62.3673C45.5925 61.6487 45.153 61.012 44.5682 60.5274C43.9054 59.9369 43.1337 59.4814 42.2965 59.1865C41.9724 59.0559 41.6239 58.9971 41.2749 59.0141C41.1006 59.0241 40.9313 59.0764 40.7818 59.1665C40.6323 59.2566 40.5069 59.3818 40.4167 59.5312C40.179 59.9885 40.4076 60.5419 40.6562 60.9919C41.0928 61.7872 41.5915 62.5468 42.1477 63.2636C42.5959 63.8406 43.1075 64.4104 43.7898 64.6698C44.472 64.9293 45.1779 64.9003 45.5389 64.4285" fill="#012A4A"/>
<path d="M46.6694 73.2414C46.692 73.1461 46.7054 73.0489 46.7093 72.9511C46.731 72.7388 46.7565 72.4738 46.7873 72.1581C46.8276 71.767 46.8882 71.3781 46.9687 70.9932C47.0733 70.525 47.2146 70.0657 47.3915 69.6197C47.5658 69.1749 47.8022 68.757 48.0937 68.3786C48.3307 68.07 48.6331 67.8178 48.9792 67.6401C49.2149 67.5245 49.4671 67.4462 49.7268 67.4078C49.8242 67.4051 49.921 67.3911 50.0153 67.3661C49.9175 67.3562 49.819 67.3562 49.7213 67.3661C49.4519 67.3864 49.1883 67.4546 48.9429 67.5675C48.5777 67.7402 48.2573 67.9947 48.0066 68.3114C47.7035 68.6968 47.4589 69.1248 47.2808 69.5816C47.1008 70.0338 46.9599 70.5006 46.8599 70.9769C46.7856 71.3661 46.7341 71.7593 46.7056 72.1545C46.6802 72.492 46.6712 72.7642 46.6657 72.9529C46.6561 73.0489 46.6573 73.1456 46.6694 73.2414Z" fill="#263238"/>
<path d="M46.7238 72.6318C46.7291 72.5866 46.7291 72.5409 46.7238 72.4957V72.111C46.7238 71.7754 46.7238 71.2909 46.7401 70.6939C46.7691 69.4964 46.8726 68.2099 47.0722 66.3936C47.2536 64.688 47.5131 62.7012 47.7798 61.4092C47.8379 61.1153 47.8941 60.8522 47.9486 60.6199C48.0012 60.3877 48.0447 60.1881 48.0883 60.0266L48.1772 59.651C48.1917 59.6083 48.1996 59.5636 48.2008 59.5186C48.1802 59.5588 48.165 59.6015 48.1554 59.6456C48.1246 59.7417 48.0883 59.8633 48.0429 60.0085C47.9975 60.1536 47.9413 60.3714 47.8832 60.5982C47.8252 60.825 47.7599 61.0935 47.7018 61.3857C47.3723 62.9131 47.124 64.457 46.9579 66.0108C46.7583 67.8252 46.6694 69.4873 46.6603 70.6867C46.6603 71.2855 46.6603 71.7754 46.6821 72.1056C46.6821 72.2635 46.7002 72.3905 46.7056 72.4921C46.7068 72.5392 46.7129 72.586 46.7238 72.6318Z" fill="#263238"/>
<path d="M46.731 69.4365C46.7421 69.3024 46.7421 69.1677 46.731 69.0337C46.7165 68.7742 46.6802 68.4004 46.6077 67.945C46.5169 67.4087 46.3958 66.878 46.2448 66.3555C46.072 65.7122 45.85 65.0831 45.5807 64.4739C45.1194 63.3499 44.4572 62.3194 43.6265 61.4328C43.4825 61.2807 43.3292 61.1376 43.1674 61.0046C43.0966 60.9447 43.0349 60.8866 42.9714 60.8395L42.79 60.7161C42.6818 60.6361 42.5685 60.5634 42.4507 60.4984C42.8405 60.8065 43.2114 61.1379 43.5611 61.4909C44.3641 62.3851 45.0084 63.4099 45.4663 64.521C45.7299 65.1276 45.9536 65.7506 46.1359 66.3863C46.2879 66.9041 46.4139 67.4291 46.5133 67.9595C46.5968 68.4149 46.6439 68.7851 46.673 69.0482C46.683 69.1788 46.7024 69.3086 46.731 69.4365Z" fill="#263238"/>
<path d="M43.4305 74.5859L43.7499 78.9715H49.3838L49.705 74.5859H43.4305Z" fill="#263238"/>
<path d="M50.3763 72.8568H42.8862V74.5859H50.3763V72.8568Z" fill="#263238"/>
<path d="M42.8862 78.8028V79.2818H43.2382H50.253V78.8028H42.8862Z" fill="#455A64"/>
<path d="M43.5829 80.1255L43.2382 79.2818H49.9844L49.5816 80.1255H43.5829Z" fill="#455A64"/>
<path d="M49.5997 76.0267C49.5928 76.0413 49.5836 76.0548 49.5725 76.0666L49.489 76.1791L49.1606 76.5982L49.1461 76.6164L49.1316 76.5982C48.9265 76.3115 48.6507 75.9305 48.3259 75.4823H48.3786C48.1372 75.8216 47.8705 76.2081 47.5838 76.6073L47.5584 76.6418L47.5312 76.6091L46.584 75.4823H46.6385L46.5877 75.5476L45.7458 76.6019L45.7167 76.6381L45.6913 76.6019L44.8966 75.4769H44.9438C44.5518 75.9214 44.218 76.3006 43.9658 76.591L43.9476 76.6109L43.9349 76.5873L43.6283 76.0738L43.5502 75.9359C43.5402 75.9205 43.5317 75.904 43.5248 75.8869C43.5372 75.9003 43.5481 75.9149 43.5575 75.9305C43.5811 75.965 43.6101 76.0085 43.6446 76.063L43.9676 76.5674H43.9367L44.8984 75.4388L44.922 75.4116L44.9456 75.4424L45.7458 76.5601H45.6913L46.5314 75.5041L46.584 75.4388L46.6113 75.4043L46.6385 75.4388L47.5766 76.5601H47.524L48.3259 75.4424L48.3495 75.4097L48.3731 75.4424L49.1606 76.5692H49.1334L49.4745 76.1591L49.5652 76.0539C49.587 76.0267 49.5979 76.0267 49.5997 76.0267Z" fill="#E0E0E0"/>
<path d="M49.783 74.5569C49.783 74.5769 48.3713 74.5914 46.6294 74.5914C44.8875 74.5914 43.4795 74.5751 43.4795 74.5569C43.4795 74.5388 44.8912 74.5225 46.6312 74.5225C48.3713 74.5225 49.783 74.537 49.783 74.5569Z" fill="#455A64"/>
<path d="M50.0679 79.329C50.0679 79.3489 48.5328 79.3652 46.6403 79.3652C44.7478 79.3652 43.2146 79.3489 43.2146 79.329C43.2146 79.309 44.7497 79.2927 46.6403 79.2927C48.531 79.2927 50.0679 79.3108 50.0679 79.329Z" fill="#263238"/>
<g opacity="0.2">
<path opacity="0.2" d="M48.3786 66.8308C49.1301 66.479 49.9744 66.3766 50.7882 66.5387C51.2237 66.6113 51.6791 66.7419 51.9767 67.0703C52.2743 67.3988 52.3305 67.9776 51.9894 68.257C51.7698 68.4066 51.5044 68.4741 51.24 68.4475C50.6031 68.4475 49.8955 68.3278 49.3874 68.7106C49.0971 68.9302 48.9048 69.2931 48.5582 69.4001C48.384 69.4412 48.2011 69.4243 48.0373 69.3519C47.8735 69.2795 47.7379 69.1557 47.651 68.9991C47.4861 68.6801 47.4498 68.3099 47.5494 67.9649C47.5909 67.7248 47.6874 67.4975 47.8312 67.3008C47.975 67.1041 48.1624 66.9432 48.3786 66.8308Z" fill="black"/>
</g>
<path d="M89.736 32.8421C89.5291 33.479 89.1717 33.7784 88.7852 33.6532C88.7292 33.6384 88.6769 33.6122 88.6315 33.5762C88.5861 33.5403 88.5486 33.4954 88.5213 33.4443C88.4941 33.3932 88.4777 33.337 88.4731 33.2793C88.4686 33.2216 88.476 33.1636 88.4949 33.1088C88.3764 33.2132 88.2319 33.2837 88.0767 33.3128C87.9214 33.3418 87.7612 33.3284 87.613 33.2739C87.3696 33.1807 87.1712 32.9976 87.0588 32.7625C86.9463 32.5273 86.9284 32.2579 87.0086 32.0099C87.0889 31.7619 87.2613 31.5542 87.4902 31.4295C87.7191 31.3048 87.9871 31.2726 88.239 31.3397C88.3884 31.3821 88.5239 31.4631 88.6319 31.5746C88.7399 31.6861 88.8166 31.8241 88.8541 31.9748L88.9757 31.5956L89.2206 31.6754L88.7598 33.0943C88.6908 33.3048 88.7725 33.4137 88.8995 33.4572C89.1317 33.5316 89.3749 33.2921 89.54 32.7859C89.8249 31.9058 89.3821 31.1165 88.4749 30.8208C87.5677 30.525 86.7312 30.9351 86.4427 31.8242C86.1542 32.7133 86.5715 33.5352 87.4824 33.8201C87.7314 33.9017 87.9958 33.9253 88.2553 33.8891V34.0941C87.9733 34.1288 87.6871 34.101 87.4171 34.0124C86.3864 33.6786 85.911 32.7423 86.234 31.748C86.557 30.7536 87.5041 30.2855 88.533 30.6212C89.5618 30.9569 90.0535 31.8532 89.736 32.8421ZM88.6727 32.5427C88.7103 32.4007 88.7055 32.2508 88.6588 32.1115C88.6121 31.9722 88.5257 31.8497 88.41 31.759C88.2944 31.6684 88.1548 31.6136 88.0084 31.6016C87.862 31.5895 87.7152 31.6206 87.5863 31.691C87.4574 31.7615 87.352 31.8682 87.2831 31.9979C87.2142 32.1277 87.1849 32.2748 87.1987 32.421C87.2126 32.5673 87.269 32.7062 87.361 32.8208C87.453 32.9353 87.5766 33.0203 87.7164 33.0653C87.8138 33.1005 87.9176 33.1144 88.0208 33.1062C88.1241 33.098 88.2243 33.0677 88.3149 33.0176C88.4055 32.9674 88.4843 32.8984 88.546 32.8152C88.6077 32.7321 88.6509 32.6367 88.6727 32.5355V32.5427Z" fill="#012A4A"/>
<path d="M67.5013 34.9505C67.5413 35.4694 67.3725 35.7906 67.0568 35.8142C67.0119 35.8205 66.9662 35.8174 66.9225 35.8052C66.8789 35.7929 66.8382 35.7716 66.8032 35.7428C66.7683 35.7139 66.7397 35.6781 66.7193 35.6376C66.6989 35.5971 66.6872 35.5528 66.6848 35.5075C66.6311 35.6183 66.5481 35.7124 66.4448 35.7796C66.3415 35.8467 66.2219 35.8844 66.0987 35.8885C65.8963 35.8925 65.7 35.819 65.5501 35.6829C65.4002 35.5468 65.308 35.3585 65.2925 35.1567C65.2769 34.9548 65.3392 34.7546 65.4665 34.5972C65.5938 34.4398 65.7765 34.337 65.9772 34.3099C66.0974 34.2963 66.2191 34.3146 66.3299 34.3631C66.4408 34.4115 66.5369 34.4883 66.6086 34.5858L66.5832 34.2755L66.7828 34.261L66.8717 35.4204C66.8862 35.591 66.9751 35.6454 67.0804 35.6381C67.2618 35.6236 67.3743 35.3787 67.3417 34.965C67.2854 34.2392 66.732 33.8092 65.9917 33.8654C65.2514 33.9217 64.7705 34.466 64.8268 35.19C64.8322 35.3556 64.8722 35.5183 64.9444 35.6675C65.0166 35.8168 65.1192 35.9492 65.2458 36.0562C65.3723 36.1633 65.5199 36.2426 65.6791 36.289C65.8382 36.3355 66.0052 36.348 66.1695 36.3258C66.373 36.3093 66.5702 36.2473 66.7465 36.1444L66.81 36.2914C66.617 36.3982 66.4024 36.4602 66.1822 36.4728C65.9966 36.4977 65.8079 36.4836 65.628 36.4314C65.4482 36.3792 65.2812 36.2901 65.1377 36.1697C64.9943 36.0493 64.8775 35.9003 64.795 35.7322C64.7124 35.5642 64.6657 35.3807 64.6581 35.1936C64.5964 34.3807 65.1353 33.7656 65.9808 33.7003C66.8264 33.635 67.4306 34.1485 67.5013 34.9505ZM66.6467 35.0503C66.6318 34.937 66.584 34.8306 66.5093 34.7441C66.4345 34.6577 66.3361 34.5952 66.2261 34.5641C66.1161 34.5331 65.9995 34.535 65.8906 34.5696C65.7817 34.6042 65.6853 34.6699 65.6134 34.7587C65.5415 34.8475 65.4972 34.9554 65.486 35.0691C65.4748 35.1828 65.4972 35.2973 65.5504 35.3985C65.6036 35.4996 65.6852 35.5829 65.7853 35.6381C65.8853 35.6932 65.9994 35.7179 66.1133 35.7089C66.193 35.7045 66.2709 35.6835 66.342 35.6472C66.4132 35.6108 66.4759 35.56 66.5261 35.4979C66.5764 35.4359 66.6131 35.364 66.6339 35.2869C66.6546 35.2098 66.659 35.1292 66.6467 35.0503Z" fill="#263238"/>
<path d="M87.7655 58.5406C87.535 59.1049 87.1885 59.3498 86.8473 59.2083C86.7973 59.1914 86.7514 59.1642 86.7125 59.1286C86.6736 59.0929 86.6426 59.0496 86.6214 59.0012C86.6003 58.9529 86.5894 58.9007 86.5895 58.8479C86.5897 58.7951 86.6009 58.743 86.6223 58.6948C86.5073 58.7805 86.3714 58.8338 86.2287 58.8492C86.086 58.8645 85.9419 58.8412 85.8113 58.7819C85.5963 58.6808 85.4284 58.5008 85.3425 58.2793C85.2565 58.0578 85.259 57.8118 85.3495 57.5921C85.44 57.3724 85.6115 57.1959 85.8285 57.0992C86.0455 57.0025 86.2914 56.993 86.5153 57.0726C86.6487 57.1223 86.7665 57.2067 86.8564 57.317C86.9464 57.4274 87.0052 57.5597 87.027 57.7005L87.1649 57.3648L87.3808 57.4537L86.8637 58.7093C86.7875 58.8907 86.8528 58.9996 86.9653 59.045C87.1703 59.1303 87.408 58.9307 87.5931 58.4825C87.9124 57.7041 87.5659 56.9565 86.7639 56.6263C85.9619 56.296 85.1762 56.6081 84.8514 57.3938C84.5266 58.1795 84.8514 58.9524 85.6552 59.2845C85.8752 59.3749 86.1127 59.4146 86.3502 59.4006L86.3393 59.5821C86.0809 59.5956 85.8228 59.5503 85.5844 59.4496C84.6772 59.0758 84.3143 58.1922 84.6772 57.314C85.0401 56.4358 85.9274 56.0783 86.8419 56.4539C87.7564 56.8295 88.1156 57.6732 87.7655 58.5406ZM86.8237 58.1958C86.8678 58.0696 86.874 57.9333 86.8415 57.8036C86.8089 57.674 86.7391 57.5567 86.6407 57.4663C86.5422 57.3759 86.4195 57.3163 86.2875 57.2949C86.1556 57.2735 86.0203 57.2912 85.8983 57.3459C85.7763 57.4005 85.673 57.4897 85.6012 57.6024C85.5293 57.7151 85.4921 57.8464 85.494 57.98C85.4959 58.1137 85.537 58.2438 85.6121 58.3544C85.6872 58.465 85.793 58.5512 85.9165 58.6022C86.0022 58.6404 86.095 58.66 86.1887 58.6599C86.2825 58.6597 86.3752 58.6399 86.4608 58.6015C86.5464 58.5632 86.623 58.5072 86.6855 58.4373C86.748 58.3674 86.7951 58.2851 86.8237 58.1958Z" fill="#012A4A"/>
<path d="M103.515 49.1252C103.283 49.6877 102.938 49.9326 102.597 49.7929C102.547 49.7758 102.501 49.7484 102.462 49.7126C102.423 49.6768 102.392 49.6334 102.371 49.585C102.349 49.5365 102.338 49.4842 102.338 49.4313C102.338 49.3784 102.349 49.3261 102.37 49.2776C102.255 49.3642 102.12 49.4181 101.977 49.4338C101.834 49.4494 101.69 49.4262 101.559 49.3665C101.344 49.2654 101.176 49.0854 101.09 48.8639C101.004 48.6424 101.007 48.3964 101.097 48.1767C101.188 47.957 101.359 47.7806 101.576 47.6839C101.793 47.5872 102.039 47.5776 102.263 47.6573C102.395 47.7058 102.513 47.7883 102.603 47.8967C102.693 48.005 102.753 48.1352 102.777 48.2742L102.914 47.9403L103.129 48.0292L102.611 49.2849C102.535 49.4663 102.601 49.5734 102.713 49.6205C102.92 49.7058 103.158 49.5044 103.341 49.058C103.662 48.2778 103.314 47.5321 102.513 47.2018C101.713 46.8716 100.924 47.1819 100.601 47.9675C100.52 48.1432 100.476 48.334 100.473 48.5276C100.469 48.7212 100.507 48.9134 100.582 49.0917C100.658 49.27 100.77 49.4305 100.911 49.5628C101.053 49.6951 101.22 49.7964 101.403 49.86C101.624 49.9506 101.862 49.9903 102.1 49.9762L102.089 50.1576C101.831 50.1694 101.573 50.1242 101.334 50.0252C100.427 49.6496 100.064 48.7677 100.418 47.8895C100.772 47.0113 101.668 46.652 102.582 47.0295C103.497 47.4069 103.872 48.2651 103.515 49.1252ZM102.572 48.7786C102.615 48.6527 102.62 48.517 102.587 48.388C102.554 48.2591 102.484 48.1426 102.386 48.0529C102.288 47.9632 102.165 47.9042 102.034 47.8832C101.902 47.8622 101.768 47.8802 101.646 47.9348C101.525 47.9894 101.422 48.0783 101.351 48.1906C101.279 48.3029 101.242 48.4336 101.244 48.5667C101.246 48.6998 101.287 48.8294 101.361 48.9396C101.436 49.0498 101.541 49.1358 101.664 49.1869C101.75 49.2249 101.843 49.2445 101.937 49.2443C102.031 49.244 102.123 49.224 102.209 49.1854C102.295 49.1469 102.371 49.0908 102.434 49.0207C102.496 48.9506 102.543 48.8681 102.572 48.7786Z" fill="#455A64"/>
<path d="M83.8063 23.8532C83.5486 24.4773 83.1658 24.7495 82.7865 24.5935C82.7311 24.5744 82.6803 24.544 82.6372 24.5042C82.5942 24.4644 82.5599 24.4161 82.5365 24.3624C82.5132 24.3086 82.5012 24.2506 82.5015 24.192C82.5017 24.1334 82.5141 24.0755 82.538 24.0219C82.4101 24.1196 82.258 24.1804 82.098 24.1977C81.9381 24.215 81.7764 24.1881 81.6307 24.1199C81.3902 24.0093 81.2017 23.8099 81.1048 23.5635C81.008 23.3171 81.0102 23.0428 81.111 22.798C81.2118 22.5532 81.4035 22.3569 81.6458 22.2502C81.8881 22.1435 82.1623 22.1347 82.4109 22.2256C82.5576 22.2792 82.6874 22.3708 82.7872 22.491C82.887 22.6111 82.9531 22.7556 82.9789 22.9096L83.1313 22.5467L83.3708 22.6447L82.7974 24.0364C82.7121 24.2433 82.7847 24.3594 82.9099 24.4102C83.1385 24.5046 83.4016 24.2814 83.6067 23.786C83.9605 22.9223 83.5758 22.0931 82.6867 21.7266C81.7976 21.3601 80.9249 21.7066 80.5674 22.5776C80.21 23.4485 80.5674 24.3086 81.4565 24.6751C81.7007 24.7753 81.9642 24.8194 82.2277 24.804L82.2168 25.009C81.9299 25.023 81.6435 24.9728 81.3785 24.862C80.3696 24.4465 79.9632 23.4685 80.3642 22.5032C80.7652 21.5379 81.7505 21.1314 82.7648 21.5488C83.7791 21.9661 84.2018 22.8915 83.8063 23.8532ZM82.7593 23.4703C82.7972 23.3785 82.8166 23.28 82.8165 23.1807C82.8163 23.0813 82.7966 22.9829 82.7584 22.8912C82.7203 22.7995 82.6644 22.7161 82.5941 22.646C82.5237 22.5758 82.4402 22.5202 82.3483 22.4823C82.2565 22.4444 82.1581 22.425 82.0587 22.4252C81.9593 22.4253 81.861 22.445 81.7692 22.4832C81.6775 22.5214 81.5942 22.5772 81.524 22.6476C81.4538 22.718 81.3982 22.8015 81.3604 22.8933C81.3142 22.9865 81.2876 23.0882 81.2824 23.1921C81.2772 23.296 81.2933 23.3998 81.3299 23.4972C81.3666 23.5945 81.4228 23.6833 81.4952 23.758C81.5676 23.8327 81.6545 23.8917 81.7507 23.9314C81.8468 23.971 81.9501 23.9905 82.0541 23.9885C82.1581 23.9866 82.2606 23.9633 82.3552 23.92C82.4498 23.8768 82.5345 23.8145 82.604 23.7372C82.6735 23.6598 82.7264 23.569 82.7593 23.4703Z" fill="#263238"/>
<path d="M73.4184 43.2771C73.6216 43.8051 73.5454 44.1843 73.226 44.315C73.1811 44.3343 73.1327 44.3445 73.0838 44.3447C73.0349 44.3449 72.9865 44.3352 72.9414 44.3162C72.8963 44.2973 72.8555 44.2694 72.8215 44.2342C72.7875 44.1991 72.7609 44.1574 72.7434 44.1117C72.7217 44.2435 72.6647 44.3669 72.5784 44.4688C72.4921 44.5708 72.3798 44.6474 72.2535 44.6906C72.0427 44.764 71.8116 44.7527 71.609 44.6589C71.4065 44.5651 71.2483 44.3962 71.168 44.1879C71.0877 43.9797 71.0914 43.7483 71.1785 43.5428C71.2656 43.3373 71.4292 43.1737 71.6347 43.0866C71.755 43.0349 71.8868 43.016 72.0168 43.0316C72.1468 43.0472 72.2704 43.0968 72.375 43.1755L72.2553 42.8616L72.4567 42.7835L72.9103 43.9611C72.9774 44.1426 73.0918 44.1644 73.1952 44.1244C73.3875 44.05 73.4184 43.7615 73.2569 43.3424C72.9756 42.6166 72.2625 42.3299 71.5113 42.6166C70.7601 42.9033 70.4227 43.62 70.713 44.3567C70.7703 44.5273 70.8628 44.684 70.9844 44.8167C71.106 44.9494 71.254 45.0551 71.419 45.1271C71.584 45.1991 71.7622 45.2357 71.9422 45.2345C72.1221 45.2334 72.2999 45.1946 72.4639 45.1206C72.6703 45.0419 72.8563 44.9179 73.0083 44.7577L73.1208 44.8901C72.9542 45.064 72.7508 45.1986 72.5256 45.2839C71.671 45.6141 70.8599 45.2512 70.5424 44.4275C70.2249 43.6037 70.595 42.7944 71.4497 42.4642C72.3043 42.134 73.099 42.4587 73.4184 43.2771ZM72.5601 43.64C72.5091 43.5268 72.4259 43.431 72.321 43.3645C72.2161 43.2981 72.094 43.2638 71.9698 43.2661C71.8456 43.2683 71.7248 43.3069 71.6224 43.3771C71.5199 43.4472 71.4402 43.5459 71.3933 43.6609C71.3463 43.7758 71.3341 43.9021 71.3581 44.0239C71.3821 44.1458 71.4414 44.2579 71.5285 44.3464C71.6156 44.435 71.7267 44.496 71.8482 44.522C71.9696 44.548 72.096 44.5379 72.2117 44.4928C72.2921 44.4628 72.3655 44.4165 72.427 44.3567C72.4886 44.297 72.5372 44.2251 72.5696 44.1456C72.602 44.0662 72.6175 43.9808 72.6153 43.8951C72.613 43.8093 72.593 43.7249 72.5565 43.6472L72.5601 43.64Z" fill="#012A4A"/>
<path d="M76.2006 49.8975L70.4006 52.3522L72.0548 56.2607L77.8548 53.8059L76.2006 49.8975Z" fill="#263238"/>
<path d="M77.8548 53.7993C77.8548 53.7993 77.8421 53.7739 77.8221 53.7286C77.8021 53.6832 77.7695 53.6106 77.7314 53.5217L77.3921 52.736C77.1018 52.0574 76.6844 51.0849 76.1782 49.9L76.209 49.9127L70.4136 52.3731C70.4136 52.3822 70.4444 52.2969 70.4299 52.335V52.3477V52.3641L70.4444 52.3967L70.4717 52.4621L70.5261 52.5927C70.5642 52.678 70.6005 52.7651 70.6368 52.8503L70.8527 53.362L71.2755 54.3618L72.0811 56.2489L72.0448 56.2344L76.2181 54.4797L77.4157 53.9808L77.7368 53.8501L77.8203 53.8156L77.8493 53.8048L77.8239 53.8175L77.7441 53.8519L77.432 53.988L76.2453 54.4997L72.0611 56.2852L72.0357 56.296L72.0248 56.2706C71.7726 55.6755 71.5041 55.0477 71.2283 54.3927C71.0892 54.066 70.9476 53.7328 70.8037 53.3929L70.5878 52.8812L70.4771 52.6235L70.4227 52.4929L70.3954 52.4276L70.3809 52.3949V52.3786C70.3646 52.4131 70.3991 52.3278 70.3973 52.3369L76.2036 49.8873L76.2254 49.8782L76.2363 49.9018L77.432 52.7614C77.5717 53.0989 77.6824 53.362 77.7586 53.5453C77.7931 53.6342 77.8221 53.7013 77.8421 53.7503C77.862 53.7993 77.8548 53.7993 77.8548 53.7993Z" fill="#263238"/>
<path d="M76.2 49.8981C76.1932 49.9237 76.1841 49.9486 76.1727 49.9725C76.151 50.0251 76.1201 50.0941 76.0838 50.1812L75.7463 50.9469C75.4524 51.5965 75.0514 52.4892 74.6032 53.4872L74.5923 53.5108H74.5669L74.3764 53.46L71.5621 52.6961L70.7112 52.4384L70.4807 52.3713L70.4009 52.3441L70.4843 52.3586L70.7166 52.4166L71.573 52.6344L74.3909 53.3801L74.5833 53.4309L74.547 53.4491L75.7082 50.9197C75.8552 50.604 75.9768 50.3463 76.0711 50.163L76.1691 49.958C76.1778 49.9372 76.1881 49.9172 76.2 49.8981Z" fill="#455A64"/>
<path d="M72.0756 56.2833C72.1933 55.731 72.3424 55.1857 72.522 54.6503C72.673 54.1028 72.8548 53.5643 73.0663 53.0372C72.9462 53.5892 72.7966 54.1343 72.6181 54.6703C72.4662 55.2172 72.2851 55.7557 72.0756 56.2833Z" fill="#455A64"/>
<path d="M77.8548 53.7993C77.7091 53.7536 77.5686 53.6928 77.4356 53.6179C77.1834 53.4981 76.8368 53.3257 76.4576 53.1298C76.0784 52.9338 75.7318 52.7524 75.4887 52.6163C75.3501 52.5502 75.2187 52.47 75.0967 52.3768C75.2409 52.4234 75.3801 52.4841 75.5123 52.5582C75.7645 52.678 76.1129 52.8503 76.4939 53.0463C76.8749 53.2423 77.2197 53.4255 77.4664 53.5616C77.6035 53.6277 77.7336 53.7073 77.8548 53.7993Z" fill="#455A64"/>
<path d="M96.42 30.5605L96.3262 37.5438L106.686 37.6831L106.78 30.6998L96.42 30.5605Z" fill="#012A4A"/>
<path d="M106.785 30.7028C106.758 30.7372 106.727 30.7688 106.694 30.7971L106.422 31.053L105.408 31.982L102.005 35.0466L101.975 35.0738L101.94 35.0484L101.686 34.8434L97.9519 31.8332L96.8251 30.9114L96.5221 30.6574C96.4847 30.63 96.4506 30.5983 96.4205 30.563C96.4604 30.5863 96.4986 30.6124 96.5348 30.6411L96.8487 30.8806L97.9936 31.7769L101.746 34.7654L102 34.9686H101.935L105.353 31.9348L106.389 31.0276L106.674 30.7862C106.708 30.7545 106.745 30.7265 106.785 30.7028Z" fill="#263238"/>
<path d="M96.3298 37.547C96.3116 37.5289 97.1263 36.589 98.1533 35.4458C99.1803 34.3027 100.026 33.3918 100.046 33.4082C100.066 33.4245 99.2493 34.3662 98.2313 35.5093C97.2134 36.6525 96.3497 37.5597 96.3298 37.547Z" fill="#263238"/>
<path d="M106.69 37.6867C106.639 37.6441 106.594 37.5953 106.554 37.5416C106.473 37.4436 106.355 37.3002 106.213 37.1224C105.928 36.7595 105.538 36.2751 105.114 35.7253C104.689 35.1755 104.31 34.6747 104.036 34.3082C103.911 34.1267 103.805 33.9906 103.716 33.8709C103.675 33.8178 103.638 33.7606 103.608 33.7003C103.608 33.7003 103.66 33.7457 103.742 33.8437L104.083 34.2592C104.368 34.6221 104.758 35.1102 105.184 35.6618C105.611 36.2134 105.992 36.7142 106.264 37.0807C106.4 37.2621 106.509 37.4146 106.583 37.518C106.626 37.5697 106.662 37.6264 106.69 37.6867Z" fill="#263238"/>
<path d="M82.3074 40.3502L81.7615 47.4293L92.2633 48.2392L92.8093 41.1601L82.3074 40.3502Z" fill="#455A64"/>
<path d="M92.8096 41.1596C92.7812 41.1934 92.7489 41.2239 92.7135 41.2503L92.4195 41.4917L91.3308 42.3699L87.6819 45.2585L87.6475 45.2857L87.6166 45.2567L87.3717 45.0335L83.7772 41.733L82.6885 40.7241L82.3982 40.4465C82.3626 40.4161 82.3304 40.3821 82.302 40.3449C82.3412 40.3709 82.3782 40.4 82.4127 40.432L82.7157 40.6951L83.8189 41.6785L87.4333 44.9446L87.6783 45.1678H87.6112L91.28 42.3045L92.3887 41.4517L92.6935 41.2249C92.7303 41.2 92.7692 41.1781 92.8096 41.1596Z" fill="#263238"/>
<path d="M81.7649 47.4849C81.745 47.4667 82.6177 46.5395 83.7119 45.4145C84.806 44.2896 85.7078 43.3932 85.7277 43.4186C85.7477 43.444 84.8749 44.3621 83.779 45.4889C82.6831 46.6157 81.7885 47.503 81.7649 47.4849Z" fill="#263238"/>
<path d="M92.2635 48.2379C92.2137 48.1917 92.1692 48.14 92.1311 48.0837L91.7972 47.6391C91.5178 47.2617 91.1386 46.7319 90.7249 46.1549C90.3112 45.5779 89.9374 45.0408 89.6725 44.6543C89.5509 44.4729 89.4457 44.3168 89.3604 44.1898C89.319 44.1335 89.2843 44.0726 89.257 44.0084C89.3062 44.054 89.3501 44.1051 89.3876 44.1608L89.7215 44.6053C90.0009 44.9809 90.3801 45.5126 90.7974 46.0914C91.2148 46.6702 91.5849 47.2091 91.8498 47.5956L92.1619 48.0583C92.203 48.1138 92.2371 48.1741 92.2635 48.2379Z" fill="#263238"/>
<path d="M81.2533 35.0775C81.2533 35.0775 81.2533 35.043 81.2369 34.9795L81.1916 34.6983C81.1553 34.4497 81.1008 34.0886 81.0301 33.6295C80.894 32.706 80.6998 31.3832 80.4603 29.772L80.4966 29.7992L72.62 30.9369C72.6109 30.9459 72.6817 30.8534 72.6526 30.8933V30.9115V30.9332V30.9768L72.6653 31.0657L72.6889 31.2471C72.7071 31.3651 72.7234 31.483 72.7397 31.5991C72.7742 31.8332 72.8069 32.0655 72.8395 32.2959C72.9048 32.755 72.9702 33.2031 73.0337 33.6531C73.1607 34.5422 73.2822 35.3968 73.3966 36.2061L73.3566 36.1753L79.0432 35.3823L80.6762 35.1592L81.1099 35.1011L81.2224 35.0866H81.2623C81.2623 35.0866 81.2514 35.0866 81.2278 35.0866L81.119 35.1047L80.6944 35.17L79.0795 35.4114L73.3893 36.246H73.3548V36.2097C73.2387 35.4005 73.1153 34.5477 72.9919 33.6586C72.9266 33.214 72.8631 32.7513 72.796 32.3013C72.7633 32.0709 72.7288 31.8387 72.6962 31.6046C72.6798 31.4885 72.6617 31.3705 72.6454 31.2544L72.62 31.0729L72.6073 30.984V30.9405V30.9187V30.8988C72.5782 30.9387 72.6472 30.8443 72.6417 30.8552L80.4948 29.7375H80.5256V29.7683C80.7525 31.3887 80.9375 32.7205 81.07 33.6495C81.1317 34.1068 81.1807 34.466 81.2151 34.7146C81.2297 34.8325 81.2424 34.9251 81.2514 34.9904C81.2605 35.0557 81.2533 35.0775 81.2533 35.0775Z" fill="#263238"/>
<path d="M80.4948 29.7683C80.4791 29.7975 80.4603 29.8249 80.4386 29.85L80.2571 30.0768L79.5966 30.9024L77.383 33.6331L77.3612 33.6586L77.3322 33.6422L77.1163 33.5188L73.9228 31.679L72.9593 31.1147L72.6998 30.9586C72.669 30.9405 72.6393 30.9205 72.6109 30.8987C72.6444 30.9105 72.6767 30.9257 72.7071 30.9441L72.9738 31.0893L73.95 31.6336L77.1544 33.4481L77.3721 33.5715L77.3213 33.5805L79.5567 30.8588L80.2335 30.0459L80.415 29.83C80.4396 29.807 80.4663 29.7864 80.4948 29.7683Z" fill="#263238"/>
<path d="M73.3893 36.2497C73.3675 36.2351 73.8538 35.4059 74.478 34.3953C75.1022 33.3846 75.6229 32.5808 75.6447 32.5917C75.6665 32.6025 75.1802 33.4354 74.556 34.4461C73.9318 35.4567 73.4183 36.2624 73.3893 36.2497Z" fill="#263238"/>
<path d="M81.2533 35.0775C81.0937 34.9696 80.9438 34.8482 80.8051 34.7146C80.5366 34.4841 80.17 34.1593 79.7672 33.8073C79.3644 33.4553 79.0051 33.1142 78.7475 32.8711C78.6011 32.7443 78.4647 32.6066 78.3392 32.4592C78.4985 32.5666 78.6479 32.6881 78.7856 32.8221C79.0541 33.0525 79.4225 33.3664 79.8253 33.7293C80.2281 34.0922 80.591 34.4242 80.8487 34.6692C80.995 34.7934 81.1304 34.93 81.2533 35.0775Z" fill="#263238"/>
<path d="M70.2197 21.7019L63.975 24.776L66.0474 28.9858L72.2921 25.9117L70.2197 21.7019Z" fill="#012A4A"/>
<path d="M70.1269 21.6776C70.1216 21.7063 70.1131 21.7343 70.1015 21.7611L70.018 21.997C69.9382 22.2093 69.8275 22.5014 69.6932 22.8625L68.59 25.7348L68.5809 25.7602H68.5519L68.3378 25.7112L65.1842 25.0398L64.2298 24.8312L63.9721 24.7695C63.9415 24.7652 63.9115 24.7567 63.8832 24.7441C63.9138 24.7455 63.9442 24.7497 63.974 24.7568L64.2352 24.804L65.1951 24.9854L68.3523 25.6295L68.5664 25.6749L68.5265 25.6949C68.9674 24.5735 69.3612 23.5665 69.6497 22.8316L69.9926 21.9734C70.0325 21.8772 70.0652 21.7919 70.0888 21.7411C70.0996 21.7189 70.1124 21.6977 70.1269 21.6776Z" fill="#263238"/>
<path d="M65.9554 28.9609C66.0126 28.352 66.1004 27.7464 66.2185 27.1464C66.3077 26.5393 66.4288 25.9372 66.5814 25.3428C66.6068 25.3428 66.4871 26.1612 66.3165 27.1573C66.2265 27.7642 66.106 28.3662 65.9554 28.9609Z" fill="#263238"/>
<path d="M69.1616 24.0909C69.6908 24.3483 70.2056 24.6341 70.7039 24.9473C71.2192 25.2328 71.7183 25.5466 72.199 25.8872C71.6705 25.6279 71.1557 25.3414 70.6567 25.029C70.1423 24.7426 69.6432 24.4295 69.1616 24.0909Z" fill="#263238"/>
<path d="M99.2094 19.3823H92.249V24.0745H99.2094V19.3823Z" fill="#455A64"/>
<path d="M99.2094 19.3823C99.1909 19.4048 99.1708 19.426 99.1495 19.4458L98.968 19.6272L98.293 20.2605L96.0376 22.3489L96.0159 22.3689L95.9941 22.3507L95.8126 22.2165L93.2724 20.2206L92.5085 19.6127L92.3034 19.444C92.2781 19.4262 92.2549 19.4055 92.2345 19.3823C92.2613 19.397 92.2868 19.414 92.3107 19.4331L92.5248 19.5909L93.3014 20.1843L95.8417 22.1566L96.0231 22.2909H95.9778L98.2495 20.2169L98.9372 19.5982L99.1186 19.4331C99.1464 19.4121 99.177 19.395 99.2094 19.3823Z" fill="#263238"/>
<path d="M92.249 24.0745C92.5686 23.5515 92.9156 23.0457 93.2887 22.5594C93.6366 22.0571 94.0097 21.5726 94.4064 21.1078C94.0869 21.6309 93.7398 22.1366 93.3667 22.6229C93.0189 23.1253 92.6458 23.6098 92.249 24.0745Z" fill="#263238"/>
<path d="M97.2769 21.1205C97.6376 21.5862 97.9731 22.0707 98.2821 22.5721C98.6181 23.0558 98.9276 23.5573 99.2093 24.0745C98.8487 23.6089 98.5131 23.1243 98.2041 22.6229C97.8694 22.1384 97.5599 21.637 97.2769 21.1205Z" fill="#263238"/>
<path d="M57.3593 38.5265L55.8507 44.3979L64.5621 46.6363L66.0707 40.7648L57.3593 38.5265Z" fill="#012A4A"/>
<path d="M66.0679 40.764C66.0386 40.7872 66.0069 40.8072 65.9735 40.8239L65.6905 40.9854L64.6453 41.5606L61.1488 43.4495L61.1162 43.4676L61.0926 43.4368L60.9202 43.2136L58.3799 39.9094L57.6324 38.9024L57.4291 38.6266C57.4044 38.5943 57.382 38.5604 57.362 38.525C57.3927 38.5519 57.4201 38.5823 57.4436 38.6157L57.6596 38.8824L58.4416 39.8713L60.9946 43.161L61.176 43.3841L61.1198 43.3714L64.629 41.508L65.6886 40.9636L65.9771 40.8185C66.0052 40.7969 66.0356 40.7786 66.0679 40.764Z" fill="#263238"/>
<path d="M55.8488 44.3967C55.8324 44.3767 56.638 43.6836 57.6469 42.8471C58.6557 42.0106 59.4886 41.3483 59.5049 41.3683C59.5213 41.3883 58.7174 42.0832 57.7068 42.9197C56.6961 43.7562 55.8651 44.4166 55.8488 44.3967Z" fill="#263238"/>
<path d="M63.0903 42.3173C63.1157 42.3173 63.4641 43.2699 63.8705 44.462C64.277 45.6541 64.5836 46.6266 64.56 46.6393C64.5364 46.6521 64.1862 45.6867 63.7798 44.4946C63.3734 43.3025 63.0758 42.3263 63.0903 42.3173Z" fill="#263238"/>
</svg>
