<svg width="98" height="73" viewBox="0 0 98 73" fill="none" xmlns="http://www.w3.org/2000/svg">
<path d="M97.9708 64.1512H0V64.2002H97.9708V64.1512Z" fill="#EBEBEB"/>
<path d="M88.1541 67.304H81.6646V67.3529H88.1541V67.304Z" fill="#EBEBEB"/>
<path d="M64.8998 67.8369H63.197V67.8859H64.8998V67.8369Z" fill="#EBEBEB"/>
<path d="M81.4686 65.4856H77.7085V65.5346H81.4686V65.4856Z" fill="#EBEBEB"/>
<path d="M18.7418 65.8148H10.2791V65.8638H18.7418V65.8148Z" fill="#EBEBEB"/>
<path d="M21.728 65.8148H20.4877V65.8638H21.728V65.8148Z" fill="#EBEBEB"/>
<path d="M44.1162 66.6417H25.7604V66.6906H44.1162V66.6417Z" fill="#EBEBEB"/>
<path d="M46.4381 55.4123H8.60379C8.3074 55.4118 8.02332 55.2937 7.81393 55.0839C7.60453 54.8741 7.48692 54.5898 7.48692 54.2935V1.10903C7.4895 0.814338 7.60825 0.532565 7.81737 0.324914C8.02649 0.117263 8.30909 0.000504821 8.60379 0H46.4381C46.7349 0 47.0195 0.117876 47.2293 0.327697C47.4391 0.537517 47.557 0.822095 47.557 1.11883V54.2935C47.557 54.5902 47.4391 54.8748 47.2293 55.0846C47.0195 55.2944 46.7349 55.4123 46.4381 55.4123ZM8.60379 0.0391885C8.32039 0.0397075 8.04878 0.152651 7.84856 0.353229C7.64835 0.553807 7.53591 0.825629 7.53591 1.10903V54.2935C7.53591 54.5769 7.64835 54.8487 7.84856 55.0493C8.04878 55.2498 8.32039 55.3628 8.60379 55.3633H46.4381C46.7217 55.3628 46.9935 55.2499 47.1941 55.0494C47.3946 54.8489 47.5075 54.577 47.508 54.2935V1.10903C47.5075 0.825449 47.3946 0.553631 47.1941 0.35311C46.9935 0.152588 46.7217 0.0397064 46.4381 0.0391885H8.60379Z" fill="#EBEBEB"/>
<path d="M88.8223 55.4123H50.986C50.6894 55.4118 50.4051 55.2937 50.1954 55.084C49.9857 54.8743 49.8676 54.59 49.8671 54.2935V1.10903C49.8702 0.814159 49.9894 0.532388 50.1988 0.324791C50.4083 0.117194 50.6911 0.000499316 50.986 0H88.8223C89.1166 0.00101978 89.3987 0.118006 89.6074 0.325602C89.8161 0.533198 89.9346 0.814677 89.9372 1.10903V54.2935C89.9372 54.5895 89.8198 54.8735 89.6109 55.0832C89.4019 55.2929 89.1183 55.4112 88.8223 55.4123ZM50.986 0.0391885C50.7024 0.0397064 50.4306 0.152588 50.23 0.35311C50.0295 0.553631 49.9166 0.825449 49.9161 1.10903V54.2935C49.9166 54.577 50.0295 54.8489 50.23 55.0494C50.4306 55.2499 50.7024 55.3628 50.986 55.3633H88.8223C89.1059 55.3628 89.3777 55.2499 89.5782 55.0494C89.7787 54.8489 89.8916 54.577 89.8921 54.2935V1.10903C89.8916 0.825449 89.7787 0.553631 89.5782 0.35311C89.3777 0.152588 89.1059 0.0397064 88.8223 0.0391885H50.986Z" fill="#EBEBEB"/>
<path d="M84.1157 63.2636L84.0236 49.7437L82.0152 48.0468L81.0865 43.5774L79.8834 42.1744L79.2368 39.0394L78.1395 40.4639L77.5184 49.0226L76.8972 48.0429L76.4035 44.7119L75.412 45.7778L74.1717 46.0874L73.4487 53.157L55.0302 55.3554L51.1995 52.0871L49.632 45.6877L48.0155 44.0202L47.5237 40.9361L45.9777 41.471V44.7256L44.6747 45.4819L44.1123 52.0871L42.4625 54.3698L41.9942 50.2884C41.9942 50.2884 40.7304 49.2773 40.4502 49.0343C40.17 48.7914 38.577 44.3513 38.818 44.0202C39.059 43.6891 38.4731 40.8087 38.4731 40.8087L36.8801 41.761V46.5322L35.2185 46.9534L34.9677 49.0343L30.7275 49.7182L30.0457 46.5322H28.1548L27.567 48.3486L25.8466 48.3368L23.125 50.2962L20.8874 45.9032L18.6105 46.9613L16.9705 43.1561L15.2482 45.3859L14.6094 52.622L13.7159 52.7083L13.3064 51.1407L11.6487 52.7083V63.2558L84.1157 63.2636Z" fill="#F5F5F5"/>
<path d="M53.5018 27.1654H43.3384C42.9175 27.1461 42.5206 26.9638 42.2316 26.6572C41.9427 26.3505 41.7845 25.9434 41.7903 25.5221C41.7962 25.1008 41.9657 24.6983 42.263 24.3998C42.5603 24.1013 42.9622 23.9301 43.3834 23.9225C43.5414 23.9222 43.6986 23.9453 43.8498 23.9911C43.8255 23.8263 43.813 23.66 43.8125 23.4934C43.8125 22.5819 44.1746 21.7078 44.8192 21.0632C45.4637 20.4187 46.3378 20.0566 47.2493 20.0566C47.4617 20.0563 47.6736 20.076 47.8822 20.1154C48.2203 19.5577 48.7307 19.1253 49.3364 18.8835C49.942 18.6417 50.6099 18.6037 51.2391 18.7753C51.8682 18.9469 52.4244 19.3187 52.8234 19.8344C53.2225 20.3502 53.4428 20.9819 53.4509 21.6339H53.5018C54.2231 21.6531 54.9084 21.9531 55.4118 22.4701C55.9152 22.987 56.1969 23.6801 56.1969 24.4016C56.1969 25.1232 55.9152 25.8162 55.4118 26.3331C54.9084 26.8501 54.2231 27.1501 53.5018 27.1693V27.1654Z" fill="#F5F5F5"/>
<path d="M59.5859 10.9727H55.763C55.6014 10.9706 55.4472 10.9044 55.3344 10.7887C55.2216 10.6729 55.1594 10.5171 55.1615 10.3555C55.1636 10.1939 55.2298 10.0397 55.3455 9.92689C55.4613 9.81408 55.6171 9.75187 55.7787 9.75395C55.8385 9.75318 55.898 9.76178 55.9551 9.77942C55.945 9.71461 55.9404 9.64906 55.9413 9.58348C55.9413 9.41375 55.9748 9.24568 56.0398 9.08889C56.1048 8.9321 56.2001 8.78966 56.3202 8.66973C56.4403 8.5498 56.5829 8.45473 56.7398 8.38995C56.8967 8.32518 57.0648 8.29197 57.2346 8.29223C57.3141 8.29242 57.3934 8.29963 57.4716 8.31378C57.599 8.10304 57.7917 7.93972 58.0205 7.84872C58.2493 7.75772 58.5015 7.74402 58.7388 7.80973C58.9761 7.87543 59.1854 8.01692 59.3348 8.21264C59.4842 8.40836 59.5655 8.64755 59.5663 8.89377H59.5859C59.8542 8.90541 60.1078 9.02022 60.2936 9.21425C60.4794 9.40829 60.5831 9.66656 60.5831 9.9352C60.5831 10.2038 60.4794 10.4621 60.2936 10.6561C60.1078 10.8502 59.8542 10.965 59.5859 10.9766V10.9727Z" fill="#F5F5F5"/>
<path d="M24.7552 12.1621H20.9324C20.8524 12.1609 20.7734 12.144 20.6999 12.1123C20.6264 12.0806 20.5599 12.0348 20.5041 11.9774C20.3915 11.8614 20.3295 11.7055 20.3319 11.5439C20.3342 11.3823 20.4006 11.2282 20.5166 11.1156C20.6325 11.003 20.7884 10.941 20.9501 10.9433C21.0092 10.9427 21.068 10.9513 21.1244 10.9688C21.1155 10.9039 21.1109 10.8384 21.1107 10.7729C21.1113 10.4301 21.2477 10.1014 21.4901 9.859C21.7325 9.61659 22.0611 9.48018 22.4039 9.47966C22.4836 9.47953 22.563 9.4874 22.641 9.50317C22.7679 9.29312 22.9598 9.13014 23.1876 9.03893C23.4154 8.94771 23.6668 8.93324 23.9036 8.9977C24.1403 9.06215 24.3497 9.20203 24.4998 9.39613C24.65 9.59023 24.7328 9.82798 24.7357 10.0734H24.7552C25.0236 10.085 25.2772 10.1998 25.463 10.3938C25.6488 10.5879 25.7525 10.8461 25.7525 11.1148C25.7525 11.3834 25.6488 11.6417 25.463 11.8357C25.2772 12.0298 25.0236 12.1446 24.7552 12.1562V12.1621Z" fill="#F5F5F5"/>
<path d="M24.7552 23.5286H20.9324C20.8524 23.5275 20.7734 23.5106 20.6999 23.4789C20.6264 23.4472 20.5599 23.4013 20.5041 23.3439C20.3915 23.228 20.3295 23.0721 20.3319 22.9104C20.3342 22.7488 20.4006 22.5948 20.5166 22.4821C20.6325 22.3695 20.7884 22.3075 20.9501 22.3099C21.0091 22.3102 21.0678 22.3188 21.1244 22.3354C21.1155 22.2704 21.1109 22.205 21.1107 22.1394C21.1113 21.7968 21.2477 21.4683 21.4902 21.2262C21.7327 20.9841 22.0613 20.8482 22.4039 20.8482C22.4835 20.8483 22.5628 20.8556 22.641 20.8697C22.768 20.6595 22.9601 20.4965 23.1881 20.4053C23.4161 20.3141 23.6676 20.2998 23.9045 20.3645C24.1414 20.4292 24.3507 20.5694 24.5007 20.7639C24.6507 20.9583 24.7332 21.1963 24.7357 21.4419H24.7552C25.0236 21.4535 25.2772 21.5683 25.463 21.7623C25.6488 21.9564 25.7525 22.2146 25.7525 22.4833C25.7525 22.7519 25.6488 23.0102 25.463 23.2042C25.2772 23.3983 25.0236 23.5131 24.7552 23.5247V23.5286Z" fill="#F5F5F5"/>
<path d="M81.0767 26.4521H75.5472C75.3134 26.4487 75.0904 26.3526 74.9275 26.1848C74.7645 26.0171 74.6748 25.7915 74.6782 25.5576C74.6816 25.3238 74.7777 25.1008 74.9455 24.9379C75.1132 24.7749 75.3388 24.6852 75.5727 24.6886C75.6584 24.6879 75.7436 24.7005 75.8255 24.7258C75.8129 24.6356 75.8064 24.5446 75.8059 24.4535C75.8059 23.9577 76.0028 23.4823 76.3534 23.1317C76.7039 22.7811 77.1794 22.5842 77.6752 22.5842C77.7909 22.5842 77.9064 22.5954 78.02 22.6175C78.2044 22.3151 78.482 22.0807 78.8111 21.9498C79.1402 21.8188 79.5029 21.7983 79.8447 21.8914C80.1864 21.9845 80.4887 22.186 80.7059 22.4658C80.9232 22.7455 81.0437 23.0883 81.0493 23.4424H81.0767C81.279 23.4351 81.4807 23.4687 81.6698 23.5411C81.8589 23.6134 82.0314 23.7232 82.1771 23.8637C82.3228 24.0043 82.4387 24.1727 82.5179 24.3591C82.597 24.5454 82.6378 24.7458 82.6378 24.9482C82.6378 25.1507 82.597 25.351 82.5179 25.5374C82.4387 25.7237 82.3228 25.8922 82.1771 26.0327C82.0314 26.1733 81.8589 26.283 81.6698 26.3554C81.4807 26.4278 81.279 26.4613 81.0767 26.454V26.4521Z" fill="#F5F5F5"/>
<path d="M39.686 14.0588H34.1565C33.9328 14.041 33.7242 13.9387 33.5732 13.7727C33.4221 13.6068 33.3398 13.3895 33.3431 13.1651C33.3463 12.9407 33.4348 12.7259 33.5906 12.5644C33.7464 12.4029 33.9579 12.3067 34.182 12.2953C34.2676 12.2956 34.3527 12.3081 34.4348 12.3325C34.4213 12.243 34.4148 12.1526 34.4152 12.0621C34.4152 11.5664 34.6121 11.0909 34.9627 10.7404C35.3132 10.3898 35.7887 10.1929 36.2845 10.1929C36.4001 10.1933 36.5155 10.2038 36.6293 10.2242C36.8138 9.92165 37.0916 9.68726 37.4209 9.55634C37.7502 9.42543 38.1131 9.4051 38.4549 9.49841C38.7968 9.59172 39.099 9.79362 39.3161 10.0737C39.5332 10.3537 39.6534 10.6968 39.6586 11.0511H39.686C40.076 11.0652 40.4453 11.23 40.7162 11.5108C40.9871 11.7917 41.1385 12.1667 41.1385 12.5569C41.1385 12.9471 40.9871 13.3221 40.7162 13.603C40.4453 13.8838 40.076 14.0486 39.686 14.0627V14.0588Z" fill="#F5F5F5"/>
<path d="M57.2149 44.7295C56.7995 41.6983 58.081 38.2948 59.8797 36.0454C60.2326 35.6485 60.5438 35.2165 60.8085 34.7561C61.5531 33.2964 60.3951 32.2735 59.3154 31.4545C55.234 28.3606 59.819 27.8237 61.9606 26.0602C62.1661 25.9194 62.3164 25.7117 62.3858 25.4724C62.4603 25.0805 62.1233 24.7278 61.8176 24.4613C60.35 23.1642 58.5081 21.8749 58.179 19.7901C58.0418 18.9221 58.2573 17.9678 58.8863 17.3526C60.4695 15.8086 69.5494 17.6347 67.8585 13.5494C67.6116 12.9517 67.2491 12.3384 67.3804 11.7055C68.1974 7.78672 77.8534 9.33074 80.4634 9.46202C78.2451 9.35211 76.024 9.61303 73.8915 10.234C72.9118 10.5201 71.7871 11.0746 71.6832 12.0916C71.5794 13.1085 72.5238 13.8237 73.2508 14.3214C74.3618 15.0797 75.7647 16.2436 74.5891 17.6524C73.0979 19.4433 70.1941 19.6902 68.0877 20.2506C67.351 20.4465 66.5555 20.7443 66.5202 21.6378C66.4967 22.1453 66.7161 22.6313 66.965 23.0741C67.4921 24.0224 68.1661 24.8944 68.5795 25.8976C68.993 26.9008 69.0302 28.2391 68.3248 29.162C66.9728 30.9372 64.5333 30.4493 66.2753 33.3943C68.4718 37.1172 68.3542 41.4789 66.7416 45.4114C65.9304 47.3865 64.4471 49.6673 62.088 49.8103C60.7811 49.8906 59.5035 49.1911 58.6727 48.1781C57.8768 47.1858 57.3721 45.9919 57.2149 44.7295Z" fill="#E0E0E0"/>
<path d="M13.1281 59.5898L16.367 58.9432L17.0959 50.0925L19.3042 48.5622L20.0742 40.9714L22.0591 38.7377L22.982 40.4776L24.4888 43.2208L24.9923 45.9189L25.8467 48.329L27.6924 51.2152L29.3501 49.7359C29.3501 49.7359 30.2534 48.2702 30.6864 48.0782C31.1194 47.8862 32.8849 47.7255 32.8849 47.7255L35.342 50.0768V51.9245L37.8559 53.2648L39.4019 54.8186L40.3267 55.9609L42.0451 56.8544C45.8209 54.2484 55.1732 46.9378 57.2541 37.2289L59.6054 39.4411L61.2807 36.8076L62.5935 39.5802L61.6667 42.4997L63.2813 43.9713L62.5935 46.9202L64.5157 43.9713L63.4851 41.8884L64.2688 40.0524L63.681 37.3347L65.4974 36.5137L67.8154 40.0524L69.3986 37.2309C69.3986 37.2309 71.3678 51.9559 87.8171 64.0749H9.58154L13.1281 59.5898Z" fill="#EBEBEB"/>
<path d="M48.9854 73C69.9673 73 86.9765 72.0069 86.9765 70.7819C86.9765 69.5569 69.9673 68.5638 48.9854 68.5638C28.0035 68.5638 10.9943 69.5569 10.9943 70.7819C10.9943 72.0069 28.0035 73 48.9854 73Z" fill="#F5F5F5"/>
<path d="M64.5517 26.6072L61.8643 26.6771C61.4651 26.6875 61.1499 27.0195 61.1603 27.4187L61.2302 30.1061C61.2406 30.5053 61.5726 30.8205 61.9718 30.8101L64.6592 30.7402C65.0584 30.7298 65.3736 30.3978 65.3632 29.9986L65.2933 27.3112C65.2829 26.912 64.9509 26.5968 64.5517 26.6072Z" fill="#012A4A"/>
<path d="M63.7535 30.4415C63.7535 30.4415 63.244 31.6955 62.039 32.1148C62.039 32.1148 62.7013 31.7092 62.617 30.418L63.7535 30.4415Z" fill="#012A4A"/>
<g opacity="0.5">
<path opacity="0.5" d="M63.0109 29.5872C63.0109 29.554 63.0176 29.5211 63.0306 29.4906C63.0437 29.4601 63.0628 29.4326 63.0868 29.4097C63.1108 29.3868 63.1392 29.369 63.1703 29.3574C63.2013 29.3458 63.2345 29.3406 63.2676 29.3422C63.3004 29.3409 63.3331 29.3463 63.3638 29.358C63.3944 29.3698 63.4223 29.3877 63.4458 29.4106C63.4693 29.4336 63.4879 29.461 63.5003 29.4914C63.5128 29.5218 63.519 29.5543 63.5184 29.5872C63.5189 29.6202 63.5128 29.6529 63.5004 29.6835C63.4879 29.714 63.4694 29.7418 63.446 29.765C63.4226 29.7883 63.3947 29.8065 63.3641 29.8187C63.3334 29.8309 63.3006 29.8368 63.2676 29.836C63.2343 29.8371 63.2011 29.8314 63.17 29.8194C63.1389 29.8073 63.1105 29.7892 63.0865 29.766C63.0626 29.7427 63.0436 29.715 63.0306 29.6842C63.0176 29.6535 63.0109 29.6205 63.0109 29.5872ZM63.0325 27.5886H63.5027L63.4224 29.0758H63.1089L63.0325 27.5886Z" fill="white"/>
</g>
<path d="M60.4617 57.9242L59.6603 58.7864L57.8361 57.0288L58.6355 56.1666L60.4617 57.9242Z" fill="#EEC1BB"/>
<path opacity="0.2" d="M58.6355 56.1666L57.8361 57.0288L58.7786 57.936L59.578 57.0719L58.6355 56.1666Z" fill="black"/>
<path d="M59.3703 58.4964L60.5459 57.8459C60.5651 57.8341 60.5877 57.8295 60.6099 57.8327C60.6321 57.8359 60.6524 57.8468 60.6674 57.8635L61.3062 58.6139C61.32 58.6317 61.3301 58.6521 61.3359 58.6738C61.3417 58.6955 61.3431 58.7182 61.34 58.7405C61.3369 58.7628 61.3293 58.7842 61.3178 58.8035C61.3063 58.8228 61.291 58.8397 61.2729 58.853C61.2643 58.8607 61.2543 58.8667 61.2435 58.8706C60.834 59.0881 60.6126 59.1861 60.1012 59.4682C59.7877 59.6407 58.4631 60.252 57.9889 60.252C57.5147 60.252 57.4873 59.8053 57.6832 59.7465C58.6786 59.4428 59.0862 59.0019 59.2331 58.6453C59.2618 58.5823 59.3099 58.5302 59.3703 58.4964Z" fill="#263238"/>
<path d="M59.1136 58.8549C59.0474 58.898 58.9692 58.9193 58.8903 58.9157C58.865 58.9113 58.8413 58.9002 58.8217 58.8837C58.8021 58.8672 58.7872 58.8458 58.7786 58.8216C58.7714 58.808 58.7676 58.7929 58.7676 58.7775C58.7676 58.7621 58.7714 58.747 58.7786 58.7334C58.8668 58.6159 59.2978 58.6217 59.3468 58.6237C59.3516 58.6235 59.3564 58.625 59.3603 58.6278C59.3642 58.6307 59.367 58.6347 59.3684 58.6394C59.3711 58.6441 59.3726 58.6496 59.3726 58.6551C59.3726 58.6606 59.3711 58.666 59.3684 58.6707C59.2898 58.7405 59.2045 58.8022 59.1136 58.8549ZM58.8589 58.7393C58.8475 58.7449 58.8375 58.7529 58.8295 58.7628C58.8257 58.7679 58.8236 58.7741 58.8236 58.7805C58.8236 58.7868 58.8257 58.793 58.8295 58.7981C58.8347 58.8147 58.8445 58.8295 58.8576 58.841C58.8707 58.8524 58.8868 58.8599 58.904 58.8628C59.0489 58.8448 59.1824 58.7752 59.2802 58.6668C59.1365 58.665 58.9937 58.6896 58.8589 58.7393Z" fill="#012A4A"/>
<path d="M59.3703 58.6747H59.3566C59.2234 58.6747 58.9079 58.5786 58.8746 58.4591C58.8698 58.4388 58.872 58.4175 58.8809 58.3986C58.8898 58.3798 58.9049 58.3645 58.9236 58.3553C58.9404 58.3432 58.9594 58.3345 58.9796 58.3298C58.9998 58.3251 59.0207 58.3244 59.0412 58.3278C59.2097 58.3533 59.3743 58.6218 59.3801 58.6374C59.3837 58.6437 59.3847 58.6511 59.3829 58.658C59.381 58.665 59.3765 58.671 59.3703 58.6747ZM58.9549 58.3905H58.9432C58.9138 58.4121 58.9177 58.4278 58.9197 58.4337C58.9393 58.5042 59.1528 58.5924 59.2959 58.61C59.243 58.5355 59.1274 58.3886 59.0216 58.3729C58.9987 58.3688 58.975 58.373 58.9549 58.3847V58.3905Z" fill="#012A4A"/>
<path d="M73.6897 59.8072L73.0353 60.7869L70.9544 59.3409L71.6089 58.3611L73.6897 59.8072Z" fill="#EEC1BB"/>
<path d="M72.8668 60.7242L73.5624 59.574C73.5731 59.5545 73.5904 59.5393 73.6111 59.5311C73.6318 59.5228 73.6548 59.5221 73.676 59.5289L74.6048 59.8621C74.6463 59.8798 74.6792 59.9132 74.6961 59.9551C74.713 59.997 74.7125 60.0438 74.6949 60.0854C74.6902 60.0965 74.6843 60.107 74.6773 60.1168C74.4304 60.5087 74.2854 60.7046 73.9837 61.2023C73.7975 61.508 72.953 62.6973 72.5415 62.9383C72.13 63.1793 71.8851 62.7992 72.0262 62.6483C72.7394 61.89 72.8727 61.3061 72.8217 60.9241C72.8136 60.8542 72.8295 60.7838 72.8668 60.7242Z" fill="#263238"/>
<path opacity="0.2" d="M71.6089 58.3611L70.9544 59.3409L72.0282 60.0854L72.6826 59.1057L71.6089 58.3611Z" fill="black"/>
<path d="M72.8217 61.1611C72.7859 61.2322 72.7282 61.2899 72.6571 61.3257C72.6332 61.3344 72.6073 61.3367 72.5822 61.3322C72.5571 61.3277 72.5336 61.3167 72.5141 61.3003C72.5014 61.2916 72.4912 61.2799 72.4843 61.2661C72.4775 61.2524 72.4742 61.2372 72.4749 61.2219C72.4925 61.0749 72.8668 60.8653 72.9119 60.8437C72.9159 60.8408 72.9207 60.8393 72.9256 60.8393C72.9305 60.8393 72.9353 60.8408 72.9393 60.8437C72.942 60.8485 72.9435 60.8539 72.9435 60.8594C72.9435 60.8649 72.942 60.8703 72.9393 60.8751C72.9099 60.9741 72.8705 61.07 72.8217 61.1611ZM72.5415 61.1886C72.5353 61.1994 72.5313 61.2114 72.5298 61.2238C72.529 61.2298 72.5299 61.2359 72.5323 61.2414C72.5347 61.2469 72.5386 61.2517 72.5435 61.2552C72.5565 61.267 72.5726 61.2749 72.5899 61.278C72.6073 61.2811 72.6251 61.2793 72.6415 61.2728C72.7584 61.1886 72.8417 61.0658 72.8766 60.926C72.7499 60.9924 72.6363 61.0814 72.5415 61.1886Z" fill="#012A4A"/>
<path d="M72.9471 60.8829H72.9353C72.8217 60.9534 72.4984 61.024 72.4102 60.9358C72.3961 60.9207 72.3874 60.9013 72.3856 60.8807C72.3838 60.86 72.3891 60.8394 72.4004 60.8221C72.4104 60.8027 72.4242 60.7856 72.441 60.7718C72.4579 60.7579 72.4774 60.7477 72.4984 60.7418C72.6552 60.6811 72.9334 60.83 72.9471 60.8417C72.9515 60.8442 72.9551 60.8479 72.9572 60.8525C72.9593 60.8571 72.9599 60.8623 72.9589 60.8672C72.9585 60.8706 72.9571 60.8739 72.9551 60.8766C72.953 60.8794 72.9503 60.8815 72.9471 60.8829ZM72.4553 60.8437V60.8535C72.4396 60.8868 72.4553 60.8986 72.4553 60.9044C72.5062 60.9554 72.7374 60.926 72.8707 60.8692C72.7623 60.8086 72.6374 60.7839 72.5141 60.7986C72.4916 60.8068 72.4728 60.8228 72.4612 60.8437H72.4553Z" fill="#012A4A"/>
<path d="M72.2123 58.6375L72.0869 58.8334L71.9811 58.998L71.36 59.9405C71.36 59.9405 65.76 56.5918 65.0899 56.0373C64.4198 55.4828 60.8712 48.8913 60.8712 48.8913C60.8125 48.909 58.4239 49.6751 56.6899 50.3707C55.6847 50.7724 54.9009 51.1545 54.9127 51.3347C54.946 51.852 59.3331 56.7741 59.3331 56.7741L58.1751 57.5206C58.1751 57.5206 51.0017 52.7083 51.2133 50.4765C51.4249 48.2447 58.6395 45.6328 58.6395 45.6328L58.7727 42.3018L62.8072 42.8367L63.0188 42.8642L63.3597 42.9092C64.8234 46.2833 66.5751 53.4097 66.7926 53.9976C67.0101 54.5854 72.2123 58.6375 72.2123 58.6375Z" fill="#012A4A"/>
<path d="M72.0869 58.8275L71.9811 58.9921C70.492 57.9183 66.2812 54.8224 66.1283 54.0347C65.9755 53.2471 63.2147 44.1848 62.8071 42.8445C62.7738 42.7426 62.7582 42.6878 62.7562 42.6799L62.9521 42.6231L63.0286 42.872C63.5262 44.5022 66.1636 53.1804 66.3302 53.9975C66.436 54.5834 69.6749 57.0895 72.0869 58.8275Z" fill="white"/>
<path d="M49.2147 35.7083L47.5041 35.0833C47.4954 34.9288 47.4475 34.7791 47.365 34.6483C47.2376 34.4856 45.7269 33.841 45.7328 34.0605C45.7387 34.2799 45.6074 34.8442 45.9601 35.1597C46.3128 35.4752 47.2337 35.9435 47.41 35.6985L48.8385 36.5234L49.2147 35.7083Z" fill="#EEC1BB"/>
<path d="M56.0197 39.2588C56.0197 39.2588 54.9695 39.0354 53.8839 38.7964L52.4007 38.4672C51.127 38.1733 48.2487 36.8428 48.1487 36.4705C48.0488 36.0983 48.3917 35.3223 48.9051 35.3654C49.4184 35.4085 52.481 36.4137 52.481 36.4137L55.3907 36.4529L55.6886 37.7912L56.0197 39.2588Z" fill="#012A4A"/>
<path d="M53.4509 36.7625C53.1324 36.7791 52.8132 36.7791 52.4947 36.7625C52.4163 36.7488 52.1675 36.6684 51.6972 36.5156C50.696 36.1884 48.8326 35.5829 48.2957 35.5947V35.3987C48.8659 35.387 50.6803 35.9768 51.7619 36.3295C52.1401 36.4509 52.4653 36.5567 52.5339 36.5705C52.7298 36.6057 54.4522 36.5509 55.5651 36.5058V36.7017C55.3868 36.7017 54.2876 36.7448 53.4509 36.7625Z" fill="white"/>
<path d="M48.0704 35.1597L48.6719 35.4027L48.1409 36.3922L47.7725 36.1453L48.0704 35.1597Z" fill="#012A4A"/>
<path opacity="0.2" d="M48.0704 35.1597L48.6719 35.4027L48.1409 36.3922L47.7725 36.1453L48.0704 35.1597Z" fill="black"/>
<path opacity="0.2" d="M56.0197 39.2589C56.0197 39.2589 54.9695 39.0355 53.8839 38.7964C54.1034 38.144 55.1654 37.8834 55.6886 37.7913L56.0197 39.2589Z" fill="black"/>
<path d="M63.7242 42.1039C63.7344 42.2129 63.7072 42.3222 63.647 42.4138C63.5868 42.5053 63.4972 42.5736 63.393 42.6074C63.3519 42.6213 63.309 42.6292 63.2657 42.6309H63.1971L58.7708 42.8386C58.6636 42.8441 58.5577 42.8135 58.47 42.7517C58.3822 42.6899 58.3177 42.6004 58.2868 42.4977C58.2266 42.2972 58.1533 42.1008 58.0673 41.9099C57.6706 41.0539 57.1154 40.2807 56.4312 39.6311C56.2353 39.4351 56.0119 39.2392 55.7689 39.0432C55.5641 38.8832 55.3957 38.6815 55.2748 38.4515C55.1538 38.2214 55.0832 37.9683 55.0675 37.7089C55.0469 37.3627 55.1143 37.0169 55.2634 36.7037C55.2982 36.6331 55.3368 36.5644 55.379 36.498L55.4045 36.4588C55.4045 36.4588 59.1274 35.8494 61.2142 36.5901C62.6196 38.1118 63.4994 40.0446 63.7242 42.1039Z" fill="#012A4A"/>
<path d="M63.393 42.6075C63.3954 42.7012 63.3849 42.7948 63.3616 42.8857L63.1657 42.8269C63.1852 42.7635 63.1932 42.6972 63.1892 42.631C63.199 41.4161 61.3944 37.1544 61.0613 36.9487C59.866 36.3608 56.1902 36.6116 55.2496 36.6881C55.2844 36.6174 55.323 36.5488 55.3653 36.4823C56.4939 36.3941 59.9424 36.1806 61.1514 36.7723C61.5257 36.9643 63.3812 41.1869 63.393 42.6075Z" fill="white"/>
<path d="M58.5807 42.725L63.583 42.4879L63.777 43.2325L58.6159 43.4774L58.5807 42.725Z" fill="#012A4A"/>
<path opacity="0.2" d="M58.5807 42.725L63.583 42.4879L63.777 43.2325L58.6159 43.4774L58.5807 42.725Z" fill="black"/>
<path d="M56.7388 36.1571C56.8682 35.9161 58.5258 35.5379 58.7237 35.7005C58.9216 35.8632 58.9059 36.3942 58.9059 36.3942C58.9059 36.3942 57.7303 37.2681 57.2542 37.0839C56.778 36.8997 56.7388 36.1571 56.7388 36.1571Z" fill="#012A4A"/>
<path opacity="0.4" d="M56.7388 36.1571C56.8682 35.9161 58.5258 35.5379 58.7237 35.7005C58.9216 35.8632 58.9059 36.3942 58.9059 36.3942C58.9059 36.3942 57.7303 37.2681 57.2542 37.0839C56.778 36.8997 56.7388 36.1571 56.7388 36.1571Z" fill="black"/>
<path d="M58.902 36.2883C58.8648 36.7841 58.4376 37.3053 57.4952 37.3778C56.9073 37.4248 56.7761 37.1818 56.7996 37.0231C57.0974 36.8154 56.9426 36.8017 56.9955 36.5764C57.0641 36.2198 56.874 35.8573 56.6389 35.5261V35.5144L57.2267 34.4289L57.6186 33.6784C57.7558 34.5092 58.1594 35.9846 58.902 36.2883Z" fill="#EEC1BB"/>
<path opacity="0.2" d="M57.6539 34.4328C57.7273 34.8173 57.705 35.214 57.5888 35.5879C57.4726 35.9617 57.2661 36.3012 56.9877 36.5764C57.0563 36.2198 56.8662 35.8573 56.6311 35.5261C56.6311 35.5261 56.6311 35.5144 56.6311 35.5124L57.2189 34.4269C57.2894 34.5503 57.6186 34.2897 57.6539 34.4328Z" fill="black"/>
<path d="M56.7388 36.157C56.792 36.2834 56.8832 36.39 56.9998 36.462C57.1164 36.534 57.2526 36.5678 57.3894 36.5587C57.8792 36.5352 58.7237 35.7005 58.7237 35.7005L59.3958 36.2531C59.3958 36.2531 58.3142 37.6462 57.5069 37.6246C56.6996 37.6031 56.443 36.7468 56.443 36.7468L56.7388 36.157Z" fill="#012A4A"/>
<path opacity="0.2" d="M56.7388 36.157C56.792 36.2834 56.8832 36.39 56.9998 36.462C57.1164 36.534 57.2526 36.5678 57.3894 36.5587C57.8792 36.5352 58.7237 35.7005 58.7237 35.7005L59.3958 36.2531C59.3958 36.2531 58.3142 37.6462 57.5069 37.6246C56.6996 37.6031 56.443 36.7468 56.443 36.7468L56.7388 36.157Z" fill="black"/>
<path d="M59.7093 43.4441L59.527 42.7348C59.3661 42.6079 59.2613 42.4229 59.2351 42.2195C59.1606 41.9334 59.0391 41.4534 58.3906 40.5011C57.3011 38.8924 57.3913 37.7579 57.4109 37.6168L57.2933 36.5686L57.4892 36.547L57.6068 37.6208V37.6325C57.6068 37.6443 57.4599 38.7768 58.5552 40.3933C59.2194 41.373 59.3487 41.8727 59.4251 42.1725C59.4338 42.2571 59.4602 42.3389 59.5028 42.4125C59.5453 42.4862 59.603 42.5499 59.672 42.5996L59.7014 42.6192L59.8974 43.403L59.7093 43.4441Z" fill="#263238"/>
<path opacity="0.2" d="M60.5695 41.0164C60.0463 41.5023 58.8569 41.7806 58.0673 41.9177C57.6714 41.0589 57.1162 40.283 56.4312 39.6311C57.2835 39.5214 58.518 39.3685 58.518 39.3685C58.9765 38.3692 59.5251 37.4326 60.107 37.1544C60.6478 36.8977 61.4688 37.5953 61.5374 38.2203C61.606 38.8454 61.3865 40.2601 60.5695 41.0164Z" fill="black"/>
<path d="M55.3496 31.7719C55.3026 31.6752 55.2759 31.5699 55.2713 31.4625C55.2667 31.3551 55.2842 31.2479 55.3228 31.1475C55.3614 31.0472 55.4202 30.9559 55.4956 30.8792C55.571 30.8026 55.6614 30.7423 55.7611 30.702C56.5057 30.3298 58.5043 30.8 58.9863 31.5564C59.4683 32.3127 60.0032 32.4675 60.0032 32.4675C59.9696 32.5639 59.9041 32.6459 59.8175 32.7001C59.7309 32.7542 59.6285 32.7773 59.5271 32.7653C59.6445 32.7975 59.7487 32.866 59.8247 32.961C59.9007 33.0561 59.9447 33.1728 59.9503 33.2944C59.7951 33.343 59.6474 33.4129 59.5114 33.5021C59.4173 33.5961 59.5114 34.0899 59.2626 34.0468C59.0137 34.0037 59.0666 33.9684 58.9138 34.2427C58.7609 34.517 58.1437 35.0735 57.9047 34.8482C57.6656 34.6228 55.1047 32.5615 55.1047 32.5615C55.1047 32.5615 54.9342 31.7151 55.3496 31.7719Z" fill="#263238"/>
<path d="M58.0987 33.2944C57.9478 34.2741 57.8929 34.907 57.4521 35.3968C57.3917 35.4639 57.3262 35.5261 57.2561 35.583C56.3254 36.3667 54.993 35.726 54.8264 34.5837C54.7986 34.3759 54.7881 34.1662 54.7951 33.9567C54.8245 32.9887 55.2007 31.8444 56.1275 31.5662C56.3202 31.5065 56.5228 31.4855 56.7237 31.5042C56.9246 31.5229 57.1198 31.5811 57.2981 31.6754C57.4765 31.7697 57.6345 31.8982 57.7631 32.0536C57.8918 32.209 57.9885 32.3883 58.0477 32.5811C58.1194 32.8118 58.1369 33.0559 58.0987 33.2944Z" fill="#EEC1BB"/>
<path d="M56.3724 33.4472C56.3724 33.5393 56.3078 33.6079 56.249 33.602C56.1902 33.5961 56.1471 33.5177 56.1549 33.4257C56.1628 33.3336 56.2196 33.2669 56.2784 33.2728C56.3372 33.2787 56.3803 33.3551 56.3724 33.4472Z" fill="#263238"/>
<path d="M55.3418 33.3512C55.3418 33.4413 55.2771 33.5119 55.2183 33.506C55.1595 33.5001 55.1184 33.4198 55.1262 33.3296C55.1341 33.2395 55.1909 33.169 55.2497 33.1748C55.3085 33.1807 55.3496 33.265 55.3418 33.3512Z" fill="#263238"/>
<path d="M55.6651 33.4257C55.5303 33.6943 55.3588 33.9429 55.1556 34.1644C55.2144 34.2147 55.2833 34.2517 55.3577 34.273C55.4321 34.2944 55.5102 34.2994 55.5867 34.2878L55.6651 33.4257Z" fill="#D4827D"/>
<path d="M56.7741 33.0573C56.7653 33.0616 56.7556 33.0639 56.7457 33.0639C56.7359 33.0639 56.7261 33.0616 56.7173 33.0573C56.6638 33.0168 56.6015 32.9895 56.5354 32.9776C56.4694 32.9657 56.4015 32.9695 56.3372 32.9887C56.3239 32.9939 56.3091 32.9938 56.2959 32.9883C56.2828 32.9828 56.2723 32.9724 56.2666 32.9593C56.2615 32.9463 56.2617 32.9318 56.2672 32.919C56.2727 32.9061 56.283 32.896 56.296 32.8907C56.3772 32.8645 56.4636 32.8582 56.5478 32.8721C56.632 32.8861 56.7116 32.92 56.78 32.9711C56.7858 32.975 56.7909 32.9801 56.7947 32.986C56.7986 32.9919 56.8013 32.9985 56.8025 33.0054C56.8038 33.0124 56.8037 33.0195 56.8022 33.0264C56.8007 33.0333 56.7978 33.0398 56.7937 33.0455C56.7881 33.0508 56.7814 33.0548 56.7741 33.0573Z" fill="#263238"/>
<path d="M55.8258 34.7717C55.9573 34.758 56.0836 34.7132 56.1943 34.6409C56.3051 34.5687 56.397 34.4711 56.4626 34.3563C56.4655 34.3492 56.4656 34.3414 56.4631 34.3341C56.4606 34.3269 56.4555 34.3209 56.4489 34.3171C56.4456 34.3154 56.4421 34.3144 56.4385 34.3141C56.4349 34.3137 56.4312 34.3141 56.4278 34.3152C56.4243 34.3163 56.4211 34.3181 56.4183 34.3204C56.4156 34.3228 56.4133 34.3257 56.4116 34.3289C56.3512 34.4357 56.2665 34.5268 56.1644 34.5948C56.0623 34.6629 55.9456 34.706 55.8238 34.7208C55.8201 34.7207 55.8164 34.7215 55.8131 34.723C55.8097 34.7245 55.8067 34.7268 55.8042 34.7296C55.8018 34.7324 55.8 34.7357 55.799 34.7392C55.798 34.7428 55.7978 34.7465 55.7983 34.7502C55.7986 34.7538 55.7995 34.7573 55.8011 34.7605C55.8028 34.7638 55.805 34.7667 55.8077 34.769C55.8105 34.7714 55.8136 34.7732 55.8171 34.7743C55.8205 34.7755 55.8241 34.7759 55.8277 34.7756L55.8258 34.7717Z" fill="#263238"/>
<path d="M54.9479 32.7104C54.9393 32.7042 54.9331 32.6952 54.9303 32.685C54.9292 32.6781 54.9295 32.6711 54.9312 32.6644C54.9329 32.6577 54.9359 32.6514 54.9401 32.6459C54.9444 32.6404 54.9497 32.6358 54.9557 32.6324C54.9618 32.629 54.9684 32.6269 54.9753 32.6262C55.06 32.6147 55.1461 32.6237 55.2265 32.6523C55.307 32.6809 55.3794 32.7284 55.4378 32.7908C55.4476 32.8007 55.4531 32.8141 55.4531 32.828C55.4531 32.8419 55.4476 32.8553 55.4378 32.8652C55.4279 32.875 55.4145 32.8805 55.4005 32.8805C55.3866 32.8805 55.3732 32.875 55.3633 32.8652C55.3159 32.8171 55.2579 32.7809 55.1939 32.7594C55.1299 32.738 55.0617 32.7319 54.9949 32.7418C54.9851 32.7409 54.9756 32.7376 54.9674 32.7321C54.9592 32.7267 54.9525 32.7192 54.9479 32.7104Z" fill="#263238"/>
<path d="M55.4691 31.9384C55.563 31.9246 55.6587 31.9328 55.7489 31.9624C55.839 31.992 55.921 32.0421 55.9884 32.1089C56.3385 32.0864 56.69 32.0949 57.0386 32.1344C57.1537 32.1659 57.2577 32.2291 57.3387 32.3167C57.4198 32.4043 57.4746 32.5129 57.4971 32.6301C57.5246 32.7163 57.356 32.8789 57.356 32.8789C57.356 32.8789 57.3698 33.9115 57.3756 34.1976L57.7793 34.9814C58.2651 34.2547 58.5367 33.4059 58.5631 32.5321C58.612 31.0626 55.7141 31.0645 55.7141 31.0645L55.4691 31.9384Z" fill="#263238"/>
<path d="M58.4866 34.5739C58.4016 34.6853 58.2953 34.7787 58.1738 34.8486C58.0524 34.9186 57.9183 34.9637 57.7793 34.9814C57.407 35.0285 57.2777 34.6817 57.4266 34.3584C57.5618 34.0742 57.9184 33.6961 58.2691 33.8019C58.3456 33.8251 58.415 33.8672 58.4709 33.9242C58.5268 33.9813 58.5675 34.0515 58.5891 34.1284C58.6108 34.2053 58.6128 34.2864 58.5948 34.3642C58.5769 34.4421 58.5397 34.5142 58.4866 34.5739Z" fill="#EEC1BB"/>
<path d="M55.7356 40.6755L53.8134 40.8949C53.8134 40.8949 52.6946 40.1993 52.4418 40.1856C52.1891 40.1719 52.2106 41.3338 52.5065 41.5572C52.8024 41.7806 53.5273 41.8198 53.6312 41.8139C53.735 41.808 53.9055 41.5944 53.9055 41.5944L55.8649 41.373L55.7356 40.6755Z" fill="#EEC1BB"/>
<path d="M59.6211 41.0321C59.1136 41.2143 55.4436 41.9315 55.2457 41.6493L55.1928 41.5749L55.136 41.4828C54.9499 41.1771 54.7637 40.7264 55.0929 40.4541C55.4848 40.1249 58.4827 39.7702 58.6826 39.5175C58.8824 39.2647 60.0875 36.1297 61.2082 36.5784C61.2304 36.5877 61.2514 36.5996 61.2709 36.6136C61.3554 36.6646 61.4193 36.7437 61.4512 36.837C61.8392 37.8167 60.0737 40.8734 59.6211 41.0321Z" fill="#012A4A"/>
<path d="M61.4512 36.837C61.3961 37.1589 61.3135 37.4755 61.2043 37.7834C60.834 38.8748 60.0444 40.5266 59.4409 40.8068C58.6689 41.1614 55.6181 41.518 55.185 41.567H55.138L55.1282 41.471L55.1164 41.375C55.1517 41.375 58.5748 40.9831 59.3605 40.6245C59.8308 40.409 60.593 38.9473 61.0123 37.7148C61.1525 37.3616 61.2371 36.9888 61.2631 36.6097C61.3513 36.6602 61.4181 36.7409 61.4512 36.837Z" fill="white"/>
<path d="M54.4463 40.6402L55.0322 40.5364L55.3281 41.6532L54.6423 41.7336L54.4463 40.6402Z" fill="#012A4A"/>
<path opacity="0.2" d="M54.4463 40.6402L55.0322 40.5364L55.3281 41.6532L54.6423 41.7336L54.4463 40.6402Z" fill="black"/>
<path d="M71.5481 60.1815L72.5219 58.6198L72.1006 58.3475L71.0621 59.9522L71.5481 60.1815Z" fill="#012A4A"/>
<path opacity="0.2" d="M71.5481 60.1815L72.5219 58.6198L72.1006 58.3475L71.0621 59.9522L71.5481 60.1815Z" fill="black"/>
<path d="M58.1888 57.9027L59.5545 56.6702L59.2254 56.2921L57.7852 57.548L58.1888 57.9027Z" fill="#012A4A"/>
<path opacity="0.2" d="M58.1888 57.9027L59.5545 56.6702L59.2254 56.2921L57.7852 57.548L58.1888 57.9027Z" fill="black"/>
<path opacity="0.2" d="M60.8693 48.8854C60.8105 48.9031 58.422 49.6692 56.6879 50.3648C56.8584 48.4818 59.627 47.3238 59.627 47.3238L60.8693 48.8854Z" fill="black"/>
<path d="M37.0623 22.6606C36.598 24.9081 33.4198 28.3958 28.5369 25.0629C27.3456 24.2497 26.8577 23.2876 26.8068 22.3001C26.648 19.3335 30.3886 16.1279 30.6178 15.934H30.6296C30.6296 15.934 30.4728 14.531 29.3893 14.3664C29.2924 14.3549 29.1975 14.3305 29.1071 14.2939C28.5193 14.0353 29.3893 13.3593 29.3893 13.3593C30.0868 12.8165 30.7844 13.8883 31.2488 13.7786C31.7131 13.6689 32.2579 12.8949 32.5674 13.2045C32.877 13.5141 32.4891 14.3664 33.1866 14.3664C33.8842 14.3664 34.7189 14.0568 34.9501 14.3664C35.1813 14.676 34.9501 15.738 34.9501 15.738C34.9501 15.738 33.2552 15.3834 32.7947 15.9183C32.7947 15.9183 36.7978 19.7176 37.0741 22.0748C37.1016 22.2694 37.0976 22.4672 37.0623 22.6606Z" fill="#012A4A"/>
<path d="M33.2278 22.0356L33.3257 22.7567L32.6791 22.7312L32.5988 22.018C31.8444 21.9494 31.1096 21.7221 30.706 21.4301L31.0136 20.856C31.4754 21.1312 31.9916 21.3024 32.5263 21.3576L32.4009 20.229C31.6015 20.0566 30.755 19.8371 30.7276 19.1376C30.708 18.6517 31.1723 18.2637 32.1775 18.2324L32.1227 17.7386L32.6419 17.7582L32.7085 18.2422C33.1805 18.2743 33.644 18.3842 34.0801 18.5674L33.8979 19.0318C33.5387 18.8809 33.1601 18.7812 32.7732 18.7359L32.9084 19.7274C33.7039 19.8959 34.5935 20.1193 34.7522 20.8756C34.8776 21.4713 34.4171 21.9846 33.2278 22.0356ZM32.3304 19.5942L32.2324 18.7261C31.7661 18.7614 31.5819 18.9221 31.5975 19.1357C31.6132 19.3492 31.9208 19.5021 32.3304 19.5942ZM33.8293 20.8854C33.7823 20.6111 33.4374 20.472 32.9985 20.3622L33.1376 21.3655C33.6726 21.3302 33.8705 21.1401 33.8293 20.8932V20.8854Z" fill="white"/>
<path opacity="0.2" d="M34.9599 15.7439C34.9599 15.7439 33.265 15.3892 32.8045 15.9242C32.1834 15.8007 31.0215 15.5773 30.6335 15.9242C30.6335 15.9242 30.4767 14.5212 29.3932 14.3566C29.2963 14.3451 29.2015 14.3207 29.111 14.2841C29.1969 14.146 29.3217 14.0363 29.4696 13.9687C30.2534 13.6199 30.7099 14.8994 31.2527 14.7054C31.7954 14.5114 32.1834 13.8922 32.5322 14.3135C32.881 14.7348 34.4073 14.2528 34.9599 15.7439Z" fill="black"/>
<path opacity="0.2" d="M37.0623 22.6607C36.598 24.9081 33.4198 28.3959 28.5369 25.0629C27.3456 24.2498 26.8577 23.2877 26.8068 22.3002C27.0987 22.6137 27.4455 22.7685 28.1882 22.7567C29.4657 22.7371 32.1207 21.4223 33.2552 22.2355C34.3897 23.0487 36.3295 22.9448 37.08 22.0807C37.1049 22.2737 37.0989 22.4695 37.0623 22.6607Z" fill="black"/>
<path d="M30.4787 16.0554C30.4787 16.0554 29.9712 15.7615 30.9392 15.4892C31.9071 15.2168 33.4864 15.7439 33.1376 16.2573C32.7386 16.0247 32.2919 15.8856 31.8314 15.8507C31.3708 15.8157 30.9083 15.8857 30.4787 16.0554Z" fill="#263238"/>
<path d="M32.0325 15.6753C32.0325 15.6753 32.2285 17.186 32.7418 16.9529C33.2552 16.7197 32.3872 15.934 32.3872 15.934C32.3872 15.934 33.5942 16.6785 33.7098 16.1593C33.8254 15.64 32.2755 15.3736 32.0325 15.6753ZM32.6537 16.7021C32.5479 16.7785 32.3735 16.1025 32.3735 16.1025C32.4029 16.1201 32.7614 16.6139 32.6537 16.6923V16.7021ZM33.4159 16.0809C33.3414 16.1985 32.7418 15.8105 32.7418 15.8105C32.7418 15.8105 33.4903 15.9555 33.4159 16.0672V16.0809Z" fill="#263238"/>
<path d="M32.5263 15.8713C32.5263 15.8713 33.6059 16.5375 34.1781 16.5747C34.1917 16.6035 34.1988 16.635 34.1988 16.6668C34.1988 16.6986 34.1917 16.7301 34.1781 16.7589C34.1781 16.7589 32.8849 16.367 32.6106 16.0457C32.6106 16.0457 33.2356 17.0508 33.7235 16.7589C33.7772 16.7972 33.8176 16.8513 33.8391 16.9137C33.8391 16.9137 33.6608 17.0587 33.2807 16.9137C32.9006 16.7687 32.3931 15.934 32.3931 15.934L32.5263 15.8713Z" fill="#263238"/>
<path d="M13.808 70.782L15.8242 52.7358L17.5054 50.1611L18.7418 44.6434C18.7418 44.6434 20.5052 39.1825 20.4876 38.7103C20.47 38.2381 21.5927 32.9633 21.5927 32.9633L22.7684 27.2066L24.3849 23.4837L29.3696 23.1447L31.8346 24.6535L39.2255 25.157L42.9112 29.3698L44.1142 33.3964L47.1082 35.5988L48.3211 39.2256L51.7109 40.6599L53.2686 41.7454L51.5051 51.0566L60.4185 59.6682L72.9157 62.4917L80.5888 66.7633L83.2085 70.782H13.808Z" fill="#012A4A"/>
<path opacity="0.6" d="M83.2066 70.7819H13.808L15.8242 52.7357L17.5054 50.161L18.7418 44.6433C18.7418 44.6433 20.5053 39.1824 20.4876 38.7102C20.47 38.238 21.5928 32.9632 21.5928 32.9632L22.4823 28.5722L22.7586 27.2006L24.3751 23.4777L29.3599 23.1387L31.8248 24.6475L39.2157 25.1511L42.9112 29.3697L44.1143 33.3963L47.1083 35.5987L48.3211 39.2255L51.7109 40.6598L53.2687 41.7453L51.5052 51.0565L60.4186 59.6681L68.9068 61.5864L72.9157 62.4936L75.7255 64.0611L80.5888 66.7671L83.2066 70.7819Z" fill="white"/>
<path opacity="0.2" d="M83.2066 70.7819H13.808L15.8243 52.7357L15.3579 68.5619L17.5133 69.5416L20.1213 62.0234V67.3138L23.4209 68.5717L26.1347 65.5444L30.1456 61.0966L31.6975 52.0832L31.1802 49.7319L35.9337 38.7396V53.5567L38.6221 56.7388V61.3297L39.0355 66.2557L42.1275 65.9598L43.0582 58.3906L45.1979 57.1052L47.559 53.1296L48.1468 63.5713L49.924 66.771L57.3972 60.9907L60.4245 59.676L68.9127 61.5942C66.5457 62.1625 61.7569 63.3362 61.7196 63.5713C61.6687 63.8809 62.0998 65.4249 62.764 66.2537C63.4283 67.0826 66.7456 68.8284 66.7456 68.8284L71.2326 68.5698L73.1724 65.9677L75.7314 64.0651L80.5947 66.771H74.3246V68.5698L83.2066 70.7819Z" fill="black"/>
<path opacity="0.2" d="M29.3599 23.1407L27.1418 28.9661L26.7343 36.696L24.867 44.9255L28.5898 35.5752L30.9588 32.0149C30.9588 32.0149 29.6166 30.3632 29.7185 29.9615C29.8204 29.5598 32.1991 25.1021 32.1991 25.1021L29.3599 23.1407Z" fill="black"/>
<path opacity="0.2" d="M20.5073 57.3482C20.5071 57.3914 20.5005 57.4343 20.4877 57.4756C20.4739 57.5089 20.4818 57.4599 20.5073 57.3482Z" fill="black"/>
<path opacity="0.2" d="M21.1068 39.6351L22.4784 41.3437V50.161C22.4784 50.161 20.7483 56.341 20.5033 57.3462C20.5602 56.4919 20.1115 52.0676 20.1115 52.0676L17.5054 50.161L18.7418 44.6433C18.7418 44.6433 20.5053 39.1824 20.4877 38.7102C20.47 38.238 21.5928 32.9633 21.5928 32.9633L22.4823 28.5722L21.1068 39.6351Z" fill="black"/>
<path opacity="0.2" d="M42.9112 29.3697L40.844 36.886L39.7507 38.0127C39.7507 38.0127 38.5104 50.0259 38.5104 49.6124C38.5104 49.199 40.846 39.1883 40.846 39.1883L42.9112 37.2152L44.1143 33.3963L42.9112 29.3697Z" fill="black"/>
<path opacity="0.2" d="M48.3231 39.2256L46.0717 46.0835V48.8385L47.1964 46.3598C47.1964 46.3598 49.1696 45.1842 49.2146 44.9138C49.2597 44.6434 51.7129 40.652 51.7129 40.652L48.3231 39.2256Z" fill="black"/>
<path d="M74.4264 70.7819H81.4215C81.4215 70.7819 80.0284 68.6501 79.4347 68.9205C78.6627 69.2732 78.0886 67.3412 77.2343 67.7997C76.9325 67.9604 77.0795 68.4776 76.8894 68.6853C76.5759 69.0282 76.1781 68.9616 75.798 69.1497C75.0574 69.5201 74.7928 70.0099 74.4264 70.7819Z" fill="#263238"/>
<path d="M80.6574 70.1882C80.6574 70.1882 80.1969 67.5234 80.5144 67.1315C80.8318 66.7396 80.8866 68.5854 80.8866 68.5854C80.8866 68.5854 81.9526 64.7371 82.6344 64.7156C83.3163 64.694 81.8252 68.0564 81.8252 68.0564C81.8252 68.0564 84.7389 63.293 85.5873 63.7359C86.4357 64.1787 82.5365 68.4012 82.5365 68.4012C82.5365 68.4012 84.6683 66.5672 85.1366 67.0865C85.6049 67.6057 82.7716 69.187 82.7716 69.187C82.7716 69.187 84.0217 68.9068 84.0198 69.3222C84.0178 69.7375 81.9036 70.4233 80.6574 70.1882Z" fill="#012A4A"/>
<path opacity="0.2" d="M80.6574 70.1882C80.6574 70.1882 80.1969 67.5234 80.5144 67.1315C80.8318 66.7396 80.8866 68.5854 80.8866 68.5854C80.8866 68.5854 81.9526 64.7371 82.6344 64.7156C83.3163 64.694 81.8252 68.0564 81.8252 68.0564C81.8252 68.0564 84.7389 63.293 85.5873 63.7359C86.4357 64.1787 82.5365 68.4012 82.5365 68.4012C82.5365 68.4012 84.6683 66.5672 85.1366 67.0865C85.6049 67.6057 82.7716 69.187 82.7716 69.187C82.7716 69.187 84.0217 68.9068 84.0198 69.3222C84.0178 69.7375 81.9036 70.4233 80.6574 70.1882Z" fill="white"/>
<path d="M80.2361 69.8061C80.2361 69.8061 78.0474 69.4143 77.8338 69.0537C77.6203 68.6932 79.0643 69.1772 79.0643 69.1772C79.0643 69.1772 76.3878 67.2648 76.5641 66.7318C76.7405 66.1989 78.9154 68.2993 78.9154 68.2993C78.9154 68.2993 76.0566 64.6999 76.6386 64.1709C77.2205 63.6418 79.3818 67.8467 79.3818 67.8467C79.3818 67.8467 78.5647 65.6914 79.0977 65.4641C79.6306 65.2368 80.0539 67.8879 80.0539 67.8879C80.0539 67.8879 80.191 66.8415 80.5124 66.9591C80.8337 67.0767 80.773 68.9048 80.2361 69.8061Z" fill="#012A4A"/>
<path opacity="0.2" d="M80.2361 69.8061C80.2361 69.8061 78.0474 69.4143 77.8338 69.0537C77.6203 68.6932 79.0643 69.1772 79.0643 69.1772C79.0643 69.1772 76.3878 67.2648 76.5641 66.7318C76.7405 66.1989 78.9154 68.2993 78.9154 68.2993C78.9154 68.2993 76.0566 64.6999 76.6386 64.1709C77.2205 63.6418 79.3818 67.8467 79.3818 67.8467C79.3818 67.8467 78.5647 65.6914 79.0977 65.4641C79.6306 65.2368 80.0539 67.8879 80.0539 67.8879C80.0539 67.8879 80.191 66.8415 80.5124 66.9591C80.8337 67.0767 80.773 68.9048 80.2361 69.8061Z" fill="white"/>
<path d="M80.0715 69.5161C80.0715 69.5161 77.9573 67.396 77.9945 66.8415C78.0317 66.287 79.2603 67.9192 79.2603 67.9192C79.2603 67.9192 77.7692 63.7554 78.3727 63.3008C78.9762 62.8462 79.7698 66.8415 79.7698 66.8415C79.7698 66.8415 79.3779 60.6713 80.4203 60.5322C81.4627 60.3931 80.6339 66.7004 80.6339 66.7004C80.6339 66.7004 81.3941 63.681 82.1504 63.8495C82.9068 64.018 81.349 67.2628 81.349 67.2628C81.349 67.2628 82.3013 66.2106 82.5658 66.5868C82.8304 66.963 81.3569 68.9302 80.0715 69.5161Z" fill="#012A4A"/>
<path opacity="0.4" d="M80.0715 69.5161C80.0715 69.5161 77.9573 67.396 77.9945 66.8415C78.0317 66.287 79.2603 67.9192 79.2603 67.9192C79.2603 67.9192 77.7692 63.7554 78.3727 63.3008C78.9762 62.8462 79.7698 66.8415 79.7698 66.8415C79.7698 66.8415 79.3779 60.6713 80.4203 60.5322C81.4627 60.3931 80.6339 66.7004 80.6339 66.7004C80.6339 66.7004 81.3941 63.681 82.1504 63.8495C82.9068 64.018 81.349 67.2628 81.349 67.2628C81.349 67.2628 82.3013 66.2106 82.5658 66.5868C82.8304 66.963 81.3569 68.9302 80.0715 69.5161Z" fill="white"/>
<path d="M77.5086 70.7819H83.0792C83.0792 70.7819 81.9682 69.0831 81.496 69.2986C80.8808 69.5788 80.4242 68.0407 79.7423 68.4051C79.5013 68.5345 79.6189 68.9459 79.468 69.1105C79.2172 69.3848 78.8998 69.3319 78.598 69.4828C78.0102 69.7767 77.8006 70.1667 77.5086 70.7819Z" fill="#263238"/>
<path opacity="0.2" d="M77.5086 70.7819H83.0792C83.0792 70.7819 81.9682 69.0831 81.496 69.2986C80.8808 69.5788 80.4242 68.0407 79.7423 68.4051C79.5013 68.5345 79.6189 68.9459 79.468 69.1105C79.2172 69.3848 78.8998 69.3319 78.598 69.4828C78.0102 69.7767 77.8006 70.1667 77.5086 70.7819Z" fill="white"/>
<path d="M21.0617 66.8807C21.0617 66.8807 18.9711 59.2174 17.2722 56.7897C15.5734 54.362 18.297 62.2761 18.297 62.2761C18.297 62.2761 15.9183 57.2306 15.1717 57.3912C14.4252 57.5519 17.6347 62.9971 17.6347 62.9971C17.6347 62.9971 15.1933 58.6374 14.1254 59.3487C13.0575 60.06 17.2428 64.5431 17.2428 64.5431C17.2428 64.5431 13.4788 61.7216 13.1065 62.5053C12.7342 63.2891 16.7432 65.7971 16.7432 65.7971C16.7432 65.7971 12.9321 65.0232 12.5246 66.3693C12.117 67.7154 16.3219 67.5116 16.3219 67.5116C16.3219 67.5116 14.3801 67.4254 14.0118 68.8284C13.6434 70.2313 19.1082 69.7218 21.0617 66.8807Z" fill="#012A4A"/>
<path opacity="0.2" d="M21.0617 66.8807C21.0617 66.8807 18.9711 59.2174 17.2722 56.7897C15.5734 54.362 18.297 62.2761 18.297 62.2761C18.297 62.2761 15.9183 57.2306 15.1717 57.3912C14.4252 57.5519 17.6347 62.9971 17.6347 62.9971C17.6347 62.9971 15.1933 58.6374 14.1254 59.3487C13.0575 60.06 17.2428 64.5431 17.2428 64.5431C17.2428 64.5431 13.4788 61.7216 13.1065 62.5053C12.7342 63.2891 16.7432 65.7971 16.7432 65.7971C16.7432 65.7971 12.9321 65.0232 12.5246 66.3693C12.117 67.7154 16.3219 67.5116 16.3219 67.5116C16.3219 67.5116 14.3801 67.4254 14.0118 68.8284C13.6434 70.2313 19.1082 69.7218 21.0617 66.8807Z" fill="white"/>
<path d="M22.1296 69.0968C22.1296 69.0968 19.2944 63.6398 19.8685 62.6836C20.4426 61.7274 21.6535 64.8174 21.6535 64.8174C21.6535 64.8174 19.4668 57.8262 20.2564 57.0562C21.0461 56.2861 22.4941 63.0775 22.4941 63.0775C22.4941 63.0775 21.726 55.1222 22.4941 54.697C23.2622 54.2719 23.6325 61.8979 23.6325 61.8979C23.6325 61.8979 24.1557 53.831 25.1197 53.9525C26.0837 54.074 25.1197 61.12 25.1197 61.12C25.1197 61.12 27.2751 55.7571 28.2391 55.9726C29.2031 56.1882 26.6872 61.5256 26.6872 61.5256C26.6872 61.5256 29.2345 58.3043 29.9771 59.0607C30.7197 59.817 27.6944 63.3439 27.6944 63.3439C27.6944 63.3439 30.2847 61.7216 30.9588 62.5328C31.6328 63.344 28.245 65.08 28.245 65.08C28.245 65.08 31.0038 65.7952 30.8118 66.4829C30.6198 67.1707 28.245 67.0708 28.245 67.0708C28.245 67.0708 27.2104 71.9615 22.1296 69.0968Z" fill="#012A4A"/>
<path opacity="0.2" d="M22.1296 69.0968C22.1296 69.0968 19.2944 63.6398 19.8685 62.6836C20.4426 61.7274 21.6535 64.8174 21.6535 64.8174C21.6535 64.8174 19.4668 57.8262 20.2564 57.0562C21.0461 56.2861 22.4941 63.0775 22.4941 63.0775C22.4941 63.0775 21.726 55.1222 22.4941 54.697C23.2622 54.2719 23.6325 61.8979 23.6325 61.8979C23.6325 61.8979 24.1557 53.831 25.1197 53.9525C26.0837 54.074 25.1197 61.12 25.1197 61.12C25.1197 61.12 27.2751 55.7571 28.2391 55.9726C29.2031 56.1882 26.6872 61.5256 26.6872 61.5256C26.6872 61.5256 29.2345 58.3043 29.9771 59.0607C30.7197 59.817 27.6944 63.3439 27.6944 63.3439C27.6944 63.3439 30.2847 61.7216 30.9588 62.5328C31.6328 63.344 28.245 65.08 28.245 65.08C28.245 65.08 31.0038 65.7952 30.8118 66.4829C30.6198 67.1707 28.245 67.0708 28.245 67.0708C28.245 67.0708 27.2104 71.9615 22.1296 69.0968Z" fill="black"/>
<path d="M16.0339 56.0549C16.0335 56.1405 16.0586 56.2243 16.106 56.2956C16.1534 56.3668 16.2209 56.4224 16.3 56.4551C16.3791 56.4879 16.4661 56.4963 16.55 56.4795C16.6339 56.4626 16.7109 56.4211 16.7712 56.3603C16.8314 56.2995 16.8722 56.2221 16.8883 56.1381C16.9044 56.054 16.8952 55.9671 16.8617 55.8883C16.8282 55.8095 16.7721 55.7425 16.7004 55.6957C16.6287 55.649 16.5447 55.6247 16.4591 55.6258C16.346 55.6269 16.2378 55.6725 16.1582 55.7529C16.0786 55.8333 16.0339 55.9418 16.0339 56.0549Z" fill="#012A4A"/>
<path d="M21.3811 67.3882C21.3584 67.3877 21.3365 67.3795 21.319 67.3649C21.3015 67.3503 21.2896 67.3302 21.2851 67.3079C21.2694 67.2216 19.6862 58.5983 15.9242 54.8989C15.908 54.8803 15.8994 54.8562 15.9002 54.8315C15.901 54.8069 15.911 54.7834 15.9283 54.7658C15.9457 54.7482 15.969 54.7379 15.9936 54.7367C16.0183 54.7356 16.0425 54.7438 16.0613 54.7598C19.8685 58.5022 21.4634 67.1864 21.4791 67.2726C21.4816 67.2855 21.4816 67.2987 21.4789 67.3116C21.4762 67.3244 21.4709 67.3366 21.4634 67.3474C21.4559 67.3582 21.4464 67.3674 21.4352 67.3744C21.4241 67.3814 21.4117 67.3861 21.3988 67.3882H21.3811Z" fill="#012A4A"/>
<path d="M15.4892 54.8303C15.4892 54.9299 15.5187 55.0272 15.574 55.1101C15.6294 55.1929 15.708 55.2574 15.8 55.2955C15.892 55.3336 15.9933 55.3436 16.091 55.3242C16.1887 55.3048 16.2784 55.2568 16.3488 55.1864C16.4192 55.1159 16.4672 55.0262 16.4866 54.9285C16.5061 54.8308 16.4961 54.7296 16.458 54.6376C16.4199 54.5456 16.3553 54.4669 16.2725 54.4116C16.1897 54.3563 16.0923 54.3267 15.9927 54.3267C15.8592 54.3267 15.7311 54.3798 15.6367 54.4742C15.5422 54.5686 15.4892 54.6967 15.4892 54.8303Z" fill="#012A4A"/>
<path d="M17.1057 58.8863C17.1057 58.9715 17.131 59.0549 17.1783 59.1258C17.2257 59.1967 17.293 59.2519 17.3718 59.2845C17.4506 59.3172 17.5372 59.3257 17.6209 59.3091C17.7045 59.2924 17.7813 59.2514 17.8416 59.1911C17.9019 59.1308 17.9429 59.054 17.9595 58.9704C17.9762 58.8868 17.9676 58.8001 17.935 58.7213C17.9024 58.6425 17.8471 58.5752 17.7762 58.5279C17.7054 58.4805 17.622 58.4552 17.5368 58.4552C17.4801 58.4549 17.4239 58.4659 17.3715 58.4875C17.3191 58.5091 17.2714 58.5408 17.2314 58.5809C17.1913 58.621 17.1595 58.6686 17.138 58.721C17.1164 58.7734 17.1054 58.8296 17.1057 58.8863Z" fill="#012A4A"/>
<path d="M19.0063 57.6382C19.0067 57.723 19.0322 57.8057 19.0796 57.876C19.127 57.9463 19.1941 58.001 19.2726 58.0332C19.351 58.0654 19.4372 58.0736 19.5204 58.0568C19.6035 58.0401 19.6797 57.999 19.7396 57.9389C19.7994 57.8789 19.8401 57.8024 19.8565 57.7192C19.8729 57.636 19.8642 57.5498 19.8317 57.4715C19.7992 57.3932 19.7442 57.3263 19.6736 57.2793C19.6031 57.2322 19.5202 57.2071 19.4354 57.2071C19.3789 57.2071 19.323 57.2183 19.2708 57.2399C19.2186 57.2616 19.1712 57.2934 19.1313 57.3335C19.0915 57.3735 19.0599 57.4211 19.0384 57.4733C19.017 57.5256 19.0061 57.5816 19.0063 57.6382Z" fill="#012A4A"/>
<path d="M18.1089 60.8731C18.3459 60.8731 18.538 60.681 18.538 60.444C18.538 60.207 18.3459 60.0149 18.1089 60.0149C17.8719 60.0149 17.6798 60.207 17.6798 60.444C17.6798 60.681 17.8719 60.8731 18.1089 60.8731Z" fill="#012A4A"/>
<path d="M19.6431 59.8288C19.6431 59.9141 19.6685 59.9975 19.7159 60.0685C19.7634 60.1394 19.8308 60.1947 19.9097 60.2272C19.9886 60.2598 20.0754 60.2682 20.159 60.2514C20.2427 60.2346 20.3195 60.1934 20.3797 60.1329C20.4399 60.0724 20.4808 59.9954 20.4972 59.9117C20.5137 59.8279 20.5048 59.7412 20.4719 59.6625C20.439 59.5837 20.3834 59.5165 20.3123 59.4694C20.2411 59.4223 20.1576 59.3973 20.0723 59.3977C20.0157 59.3977 19.9598 59.4089 19.9076 59.4306C19.8554 59.4522 19.808 59.484 19.7681 59.5241C19.7283 59.5641 19.6967 59.6117 19.6752 59.664C19.6538 59.7162 19.6429 59.7723 19.6431 59.8288Z" fill="#012A4A"/>
<path d="M17.5035 55.3338C17.5038 55.4186 17.5293 55.5014 17.5767 55.5717C17.6241 55.642 17.6913 55.6967 17.7697 55.7289C17.8481 55.7611 17.9344 55.7693 18.0175 55.7525C18.1006 55.7357 18.1769 55.6947 18.2367 55.6346C18.2965 55.5745 18.3372 55.4981 18.3536 55.4149C18.37 55.3317 18.3614 55.2455 18.3288 55.1672C18.2963 55.0889 18.2413 55.022 18.1708 54.975C18.1002 54.9279 18.0174 54.9028 17.9326 54.9028C17.876 54.9028 17.8201 54.9139 17.7679 54.9356C17.7157 54.9573 17.6683 54.9891 17.6284 55.0291C17.5886 55.0692 17.557 55.1167 17.5356 55.169C17.5141 55.2213 17.5032 55.2773 17.5035 55.3338Z" fill="#012A4A"/>
<path d="M18.0266 57.5382L15.9692 57.019C15.9568 57.016 15.9451 57.0106 15.9348 57.003C15.9245 56.9955 15.9159 56.9859 15.9093 56.975C15.9027 56.964 15.8984 56.9519 15.8966 56.9393C15.8948 56.9266 15.8955 56.9137 15.8987 56.9014C15.9052 56.8765 15.921 56.8551 15.9429 56.8416C15.9648 56.8281 15.9911 56.8235 16.0163 56.8289L17.8346 57.2796V55.3201C17.8346 55.2942 17.8449 55.2692 17.8633 55.2509C17.8817 55.2325 17.9066 55.2222 17.9326 55.2222C17.9586 55.2222 17.9835 55.2325 18.0018 55.2509C18.0202 55.2692 18.0305 55.2942 18.0305 55.3201L18.0266 57.5382Z" fill="#012A4A"/>
<path d="M18.9515 59.3879L17.5152 59.0665C17.4892 59.0611 17.4665 59.0455 17.452 59.0233C17.4375 59.0011 17.4324 58.974 17.4378 58.948C17.4433 58.922 17.4588 58.8993 17.4811 58.8847C17.5033 58.8702 17.5304 58.8652 17.5564 58.8706L18.8221 59.1547L19.3512 57.6029C19.3541 57.5893 19.3598 57.5765 19.368 57.5654C19.3761 57.5542 19.3866 57.5449 19.3986 57.5381C19.4107 57.5312 19.424 57.527 19.4378 57.5257C19.4516 57.5244 19.4655 57.526 19.4786 57.5305C19.4917 57.535 19.5037 57.5421 19.5138 57.5516C19.524 57.561 19.532 57.5725 19.5373 57.5853C19.5427 57.598 19.5453 57.6118 19.545 57.6256C19.5446 57.6395 19.5414 57.6531 19.5354 57.6656L18.9515 59.3879Z" fill="#012A4A"/>
<path d="M19.6843 61.1886L18.0717 60.5342C18.0586 60.5302 18.0465 60.5235 18.0362 60.5146C18.0259 60.5057 18.0175 60.4947 18.0117 60.4823C18.0058 60.47 18.0026 60.4566 18.0023 60.4429C18.0019 60.4293 18.0045 60.4157 18.0097 60.4031C18.0149 60.3904 18.0227 60.379 18.0326 60.3696C18.0424 60.3602 18.0542 60.3529 18.067 60.3483C18.0799 60.3437 18.0936 60.3418 18.1072 60.3427C18.1208 60.3437 18.1341 60.3475 18.1461 60.3539L19.5687 60.9417L19.9802 59.8053C19.989 59.7809 20.0072 59.7609 20.0307 59.7499C20.0542 59.7389 20.0811 59.7377 20.1056 59.7465C20.1178 59.7506 20.1291 59.7572 20.1387 59.7658C20.1484 59.7745 20.1562 59.785 20.1617 59.7967C20.1672 59.8084 20.1702 59.8211 20.1707 59.834C20.1711 59.8469 20.169 59.8598 20.1643 59.8719L19.6843 61.1886Z" fill="#012A4A"/>
<path d="M26.5227 69.6552C26.5024 69.6551 26.4826 69.649 26.4658 69.6376C26.4452 69.622 26.4314 69.599 26.4273 69.5734C26.4233 69.5478 26.4294 69.5216 26.4443 69.5004C28.4742 66.6985 30.9842 63.6398 34.2173 62.1977C34.2291 62.1925 34.2419 62.1897 34.2548 62.1895C34.2677 62.1892 34.2805 62.1915 34.2925 62.1963C34.3046 62.201 34.3155 62.2081 34.3248 62.2171C34.3341 62.226 34.3415 62.2368 34.3466 62.2486C34.3567 62.2724 34.3572 62.299 34.3481 62.3231C34.339 62.3472 34.3209 62.3669 34.2976 62.378C31.1077 63.7985 28.6153 66.8337 26.603 69.6141C26.594 69.627 26.582 69.6375 26.568 69.6447C26.5539 69.6519 26.5384 69.6555 26.5227 69.6552Z" fill="#012A4A"/>
<path d="M34.7287 62.4641C34.6938 62.5574 34.632 62.6382 34.5512 62.6963C34.4704 62.7544 34.3741 62.7873 34.2746 62.7908C34.1751 62.7942 34.0768 62.7681 33.9922 62.7158C33.9075 62.6634 33.8403 62.5871 33.799 62.4965C33.7576 62.4059 33.7441 62.3051 33.76 62.2069C33.776 62.1086 33.8207 62.0173 33.8885 61.9444C33.9564 61.8715 34.0443 61.8204 34.1411 61.7975C34.238 61.7745 34.3395 61.7808 34.4328 61.8156C34.5578 61.8627 34.6591 61.9573 34.7145 62.0788C34.77 62.2004 34.7751 62.3389 34.7287 62.4641Z" fill="#012A4A"/>
<path d="M31.7935 65.6972C31.7633 65.7765 31.7104 65.845 31.6414 65.8942C31.5723 65.9433 31.4903 65.971 31.4055 65.9736C31.3208 65.9762 31.2372 65.9536 31.1653 65.9087C31.0934 65.8639 31.0364 65.7987 31.0014 65.7215C30.9665 65.6443 30.9552 65.5584 30.969 65.4748C30.9828 65.3911 31.0211 65.3135 31.079 65.2516C31.1369 65.1896 31.2118 65.1463 31.2943 65.1269C31.3769 65.1075 31.4633 65.113 31.5427 65.1427C31.5956 65.1625 31.6442 65.1926 31.6855 65.2312C31.7268 65.2699 31.7601 65.3163 31.7834 65.3678C31.8067 65.4193 31.8196 65.475 31.8213 65.5315C31.823 65.588 31.8136 65.6444 31.7935 65.6972Z" fill="#012A4A"/>
<path d="M30.4454 63.8593C30.4054 63.9661 30.3246 64.0526 30.2208 64.0998C30.117 64.1471 29.9987 64.1511 29.8919 64.1111C29.7851 64.0711 29.6986 63.9903 29.6513 63.8865C29.6041 63.7827 29.6001 63.6644 29.6401 63.5576C29.6801 63.4508 29.7609 63.3643 29.8647 63.317C29.9685 63.2698 30.0868 63.2658 30.1936 63.3058C30.3004 63.3458 30.3869 63.4266 30.4342 63.5304C30.4814 63.6342 30.4854 63.7525 30.4454 63.8593Z" fill="#012A4A"/>
<path d="M30.7099 66.9552C30.6903 67.0081 30.6604 67.0566 30.622 67.098C30.5836 67.1394 30.5374 67.1727 30.4861 67.1962C30.4348 67.2197 30.3793 67.2328 30.3229 67.2348C30.2665 67.2369 30.2102 67.2277 30.1574 67.208C30.1045 67.1881 30.056 67.1581 30.0148 67.1196C29.9735 67.081 29.9402 67.0347 29.9168 66.9833C29.8696 66.8795 29.8656 66.7612 29.9056 66.6544C29.9456 66.5476 30.0264 66.4611 30.1302 66.4139C30.234 66.3667 30.3523 66.3626 30.4591 66.4026C30.5656 66.4427 30.6519 66.5234 30.699 66.627C30.746 66.7306 30.7499 66.8487 30.7099 66.9552Z" fill="#012A4A"/>
<path d="M29.0875 65.6894C29.0578 65.7689 29.0052 65.8378 28.9364 65.8874C28.8676 65.9369 28.7856 65.965 28.7009 65.9681C28.6161 65.9711 28.5323 65.9489 28.4601 65.9044C28.388 65.8598 28.3306 65.7949 28.2953 65.7177C28.26 65.6406 28.2484 65.5547 28.2619 65.471C28.2754 65.3872 28.3134 65.3094 28.3711 65.2472C28.4288 65.1851 28.5037 65.1414 28.5862 65.1218C28.6687 65.1021 28.7552 65.1074 28.8347 65.1369C28.8877 65.1565 28.9362 65.1864 28.9776 65.2248C29.0189 65.2632 29.0523 65.3094 29.0758 65.3607C29.0993 65.412 29.1124 65.4675 29.1144 65.5239C29.1164 65.5803 29.1073 65.6366 29.0875 65.6894Z" fill="#012A4A"/>
<path d="M32.6674 62.231C32.6374 62.3102 32.5846 62.3788 32.5157 62.4281C32.4468 62.4774 32.3648 62.5052 32.2802 62.508C32.1955 62.5107 32.1119 62.4884 32.0399 62.4438C31.9679 62.3991 31.9107 62.3341 31.8756 62.2571C31.8405 62.18 31.8289 62.0942 31.8424 62.0106C31.856 61.927 31.8939 61.8492 31.9516 61.7871C32.0092 61.725 32.084 61.6814 32.1663 61.6617C32.2487 61.642 32.3351 61.6472 32.4146 61.6765C32.4678 61.6961 32.5165 61.7261 32.558 61.7646C32.5995 61.8032 32.633 61.8495 32.6565 61.9011C32.68 61.9526 32.6931 62.0083 32.6949 62.065C32.6968 62.1216 32.6874 62.178 32.6674 62.231Z" fill="#012A4A"/>
<path d="M33.5197 64.355H33.506L31.3977 64.1101L32.1716 62.0449C32.175 62.0315 32.1812 62.019 32.1897 62.0081C32.1983 61.9973 32.209 61.9884 32.2212 61.982C32.2335 61.9756 32.2469 61.9719 32.2607 61.9711C32.2744 61.9702 32.2882 61.9723 32.3011 61.9772C32.314 61.982 32.3258 61.9896 32.3356 61.9993C32.3454 62.009 32.353 62.0206 32.358 62.0335C32.363 62.0464 32.3652 62.0601 32.3645 62.0739C32.3638 62.0877 32.3601 62.1012 32.3539 62.1134L31.67 63.9455L33.5295 64.161C33.5424 64.1618 33.555 64.1651 33.5666 64.1707C33.5782 64.1764 33.5885 64.1842 33.5971 64.1939C33.6056 64.2035 33.6122 64.2148 33.6164 64.2269C33.6206 64.2391 33.6224 64.252 33.6216 64.2649C33.6208 64.2777 33.6175 64.2903 33.6119 64.3019C33.6063 64.3135 33.5984 64.3239 33.5888 64.3324C33.5791 64.341 33.5679 64.3476 33.5557 64.3518C33.5435 64.356 33.5306 64.3577 33.5178 64.357L33.5197 64.355Z" fill="#012A4A"/>
<path d="M31.3604 65.7227H31.3506L29.8909 65.5268L29.9457 63.7104C29.9481 63.6849 29.9599 63.6612 29.9787 63.6439C29.9975 63.6265 30.022 63.6167 30.0476 63.6163C30.0605 63.6168 30.0731 63.6199 30.0848 63.6253C30.0965 63.6307 30.107 63.6383 30.1158 63.6478C30.1245 63.6572 30.1313 63.6683 30.1357 63.6804C30.1402 63.6925 30.1422 63.7054 30.1417 63.7182L30.0927 65.3563L31.3761 65.5346C31.3889 65.536 31.4014 65.54 31.4126 65.5464C31.4239 65.5527 31.4337 65.5613 31.4416 65.5715C31.4494 65.5818 31.4552 65.5935 31.4584 65.606C31.4616 65.6185 31.4623 65.6316 31.4604 65.6443C31.4554 65.6669 31.4427 65.6871 31.4244 65.7014C31.4062 65.7157 31.3836 65.7232 31.3604 65.7227Z" fill="#012A4A"/>
<path d="M28.5722 66.9513L28.5859 65.5385C28.5869 65.513 28.5976 65.4889 28.6158 65.471C28.634 65.4532 28.6584 65.443 28.6839 65.4425C28.6966 65.4425 28.7093 65.4451 28.7211 65.45C28.7329 65.4549 28.7435 65.4622 28.7525 65.4713C28.7614 65.4804 28.7684 65.4913 28.7731 65.5031C28.7779 65.515 28.7801 65.5277 28.7799 65.5405L28.7681 66.7494L30.3043 66.7063C30.33 66.7068 30.3546 66.7169 30.3731 66.7347C30.3916 66.7525 30.4028 66.7767 30.4042 66.8023C30.4048 66.8153 30.4027 66.8282 30.3981 66.8403C30.3935 66.8524 30.3865 66.8634 30.3775 66.8728C30.3686 66.8821 30.3578 66.8895 30.3459 66.8946C30.334 66.8997 30.3212 66.9023 30.3082 66.9023L28.5722 66.9513Z" fill="#012A4A"/>
<path d="M34.7365 70.7799H11.7761C11.7761 70.7799 17.5818 68.8852 17.7288 68.3483C17.8757 67.8114 17.8679 67.4391 18.5772 66.9767C19.2865 66.5143 20.2545 66.2223 20.5249 65.7109C20.7953 65.1995 21.628 64.3746 21.9161 64.1336C22.2041 63.8926 25.6487 65.6247 25.6899 65.6639C25.731 65.7031 26.6872 67.5822 27.0145 68.0034C27.3417 68.4247 29.595 67.9113 30.1338 68.3542C30.6727 68.797 32.4851 69.9472 32.4851 69.9472C32.4851 69.9472 33.3669 69.8179 34.7365 70.7799Z" fill="#263238"/>
<path opacity="0.2" d="M34.7365 70.7799H11.7761C11.7761 70.7799 17.5818 68.8852 17.7288 68.3483C17.8757 67.8114 17.8679 67.4391 18.5772 66.9767C19.2865 66.5143 20.2545 66.2223 20.5249 65.7109C20.7953 65.1995 21.628 64.3746 21.9161 64.1336C22.2041 63.8926 25.6487 65.6247 25.6899 65.6639C25.731 65.7031 26.6872 67.5822 27.0145 68.0034C27.3417 68.4247 29.595 67.9113 30.1338 68.3542C30.6727 68.797 32.4851 69.9472 32.4851 69.9472C32.4851 69.9472 33.3669 69.8179 34.7365 70.7799Z" fill="white"/>
<path d="M40.5599 66.8591C40.5599 66.8591 41.281 66.8199 41.3437 64.8488C41.4064 62.8776 40.1445 62.3505 39.1668 62.5915C39.1668 62.5915 39.3098 61.1886 38.6769 61.2395C38.044 61.2905 38.0891 62.2192 38.0891 62.2192C38.0891 62.2192 37.8716 60.2285 37.0075 60.2265C36.1434 60.2245 37.0075 62.5778 37.0075 62.5778C37.0075 62.5778 35.8122 62.0037 35.3733 62.5778C34.9344 63.1519 35.922 63.8259 35.922 63.8259C35.922 63.8259 34.3701 64.3315 35.0187 65.9402C35.0187 65.9402 33.939 66.1087 33.6353 66.8278C33.6353 66.8278 33.7215 65.3758 33.3336 65.4738C32.9456 65.5718 33.0299 66.8454 33.0299 66.8454C33.0299 66.8454 32.3833 65.4444 31.8209 65.9402C31.2586 66.4359 32.0796 67.6194 32.0796 67.6194C32.0796 67.6194 30.9999 67.0943 30.8255 67.7898C30.6511 68.4854 31.431 68.7441 31.431 68.7441C31.431 68.7441 30.3063 68.4854 30.3063 69.7747C30.3063 69.7747 28.1509 69.569 27.6278 70.727H40.509L40.5599 66.8591Z" fill="#263238"/>
<path opacity="0.3" d="M40.5599 66.8591C40.5599 66.8591 41.281 66.8199 41.3437 64.8488C41.4064 62.8776 40.1445 62.3505 39.1668 62.5915C39.1668 62.5915 39.3098 61.1886 38.6769 61.2395C38.044 61.2905 38.0891 62.2192 38.0891 62.2192C38.0891 62.2192 37.8716 60.2285 37.0075 60.2265C36.1434 60.2245 37.0075 62.5778 37.0075 62.5778C37.0075 62.5778 35.8122 62.0037 35.3733 62.5778C34.9344 63.1519 35.922 63.8259 35.922 63.8259C35.922 63.8259 34.3701 64.3315 35.0187 65.9402C35.0187 65.9402 33.939 66.1087 33.6353 66.8278C33.6353 66.8278 33.7215 65.3758 33.3336 65.4738C32.9456 65.5718 33.0299 66.8454 33.0299 66.8454C33.0299 66.8454 32.3833 65.4444 31.8209 65.9402C31.2586 66.4359 32.0796 67.6194 32.0796 67.6194C32.0796 67.6194 30.9999 67.0943 30.8255 67.7898C30.6511 68.4854 31.431 68.7441 31.431 68.7441C31.431 68.7441 30.3063 68.4854 30.3063 69.7747C30.3063 69.7747 28.1509 69.569 27.6278 70.727H40.509L40.5599 66.8591Z" fill="white"/>
<path d="M36.7645 70.7407H55.7179L55.4436 69.6807L53.8055 69.089L55.4436 66.8219L54.3385 64.3237L51.1995 64.4569L51.7952 60.5146L51.0663 58.7785L48.5249 58.4435L49.1265 55.8374L48.1487 53.3H46.6439L42.098 61.2219L41.7826 60.2481L40.5795 59.1782L39.3039 60.5146L36.7645 70.7407Z" fill="#012A4A"/>
<path opacity="0.2" d="M36.7645 70.7407H55.7179L55.4436 69.6807L53.8055 69.089L55.4436 66.8219L53.737 67.1217L50.7978 68.9126L51.5561 66.093L51.1995 64.4569L50.3531 63.4654L47.5452 66.2811L49.1931 65.3876L49.5948 66.0479L48.7032 69.2281L45.7621 69.665L43.7577 68.8009L43.8027 65.6286L45.2723 64.7998L46.6439 66.2811L48.1487 59.3644L46.2402 63.0187L45.094 62.0194L43.0444 62.8404L42.098 61.2219L41.7826 60.2481L41.9452 65.3445L41.3966 68.2934L40.5795 67.3921L39.4803 67.1217L36.7645 70.7407Z" fill="black"/>
<path d="M36.0533 70.6957C36.0533 70.6957 35.101 68.3777 35.2558 67.8976C35.4106 67.4176 36.1277 69.1184 36.1277 69.1184C36.1277 69.1184 35.7358 65.1447 36.3609 64.8801C36.9859 64.6156 36.8115 68.2856 36.8115 68.2856C36.8115 68.2856 37.8089 62.7992 38.7592 62.8992C39.7095 62.9991 37.5992 68.3522 37.5992 68.3522C37.5992 68.3522 38.9258 65.8716 39.5586 66.1851C40.1915 66.4986 38.1106 68.9988 38.1106 68.9988C38.1106 68.9988 39.1746 68.2856 39.3235 68.6736C39.4724 69.0615 37.2955 70.4645 36.0533 70.6957Z" fill="#263238"/>
<path opacity="0.2" d="M36.0533 70.6957C36.0533 70.6957 35.101 68.3777 35.2558 67.8976C35.4106 67.4176 36.1277 69.1184 36.1277 69.1184C36.1277 69.1184 35.7358 65.1447 36.3609 64.8801C36.9859 64.6156 36.8115 68.2856 36.8115 68.2856C36.8115 68.2856 37.8089 62.7992 38.7592 62.8992C39.7095 62.9991 37.5992 68.3522 37.5992 68.3522C37.5992 68.3522 38.9258 65.8716 39.5586 66.1851C40.1915 66.4986 38.1106 68.9988 38.1106 68.9988C38.1106 68.9988 39.1746 68.2856 39.3235 68.6736C39.4724 69.0615 37.2955 70.4645 36.0533 70.6957Z" fill="white"/>
<path d="M36.0532 70.6957C36.0532 70.6957 33.7764 70.9132 33.4511 70.6584C33.1259 70.4037 34.6405 70.3293 34.6405 70.3293C34.6405 70.3293 31.4545 69.5122 31.4271 68.9577C31.3996 68.4032 34.1898 69.571 34.1898 69.571C34.1898 69.571 30.2122 67.2412 30.5669 66.5378C30.9215 65.8344 34.4544 68.9714 34.4544 68.9714C34.4544 68.9714 32.9103 67.2471 33.3277 66.8513C33.745 66.4555 35.0912 68.7657 35.0912 68.7657C35.0912 68.7657 34.8384 67.7409 35.1813 67.735C35.5242 67.7291 36.2178 69.6611 36.0532 70.6957Z" fill="#263238"/>
<path opacity="0.2" d="M36.0532 70.6957C36.0532 70.6957 33.7764 70.9132 33.4511 70.6584C33.1259 70.4037 34.6405 70.3293 34.6405 70.3293C34.6405 70.3293 31.4545 69.5122 31.4271 68.9577C31.3996 68.4032 34.1898 69.571 34.1898 69.571C34.1898 69.571 30.2122 67.2412 30.5669 66.5378C30.9215 65.8344 34.4544 68.9714 34.4544 68.9714C34.4544 68.9714 32.9103 67.2471 33.3277 66.8513C33.745 66.4555 35.0912 68.7657 35.0912 68.7657C35.0912 68.7657 34.8384 67.7409 35.1813 67.735C35.5242 67.7291 36.2178 69.6611 36.0532 70.6957Z" fill="white"/>
<path d="M36.0532 70.6957C36.0532 70.6957 32.9672 69.0674 32.8006 68.5403C32.6341 68.0132 34.3681 69.089 34.3681 69.089C34.3681 69.089 31.4741 65.7442 31.8738 65.1035C32.2735 64.4628 34.4544 67.8996 34.4544 67.8996C34.4544 67.8996 31.8542 62.2898 32.783 61.7803C33.7117 61.2709 35.2107 67.4627 35.2107 67.4627C35.2107 67.4627 34.8286 64.3707 35.6026 64.2571C36.3765 64.1434 36.0885 67.7272 36.0885 67.7272C36.0885 67.7272 36.596 66.4026 36.98 66.6593C37.3641 66.916 37.0329 69.6866 36.0532 70.6957Z" fill="#263238"/>
<path opacity="0.4" d="M36.0532 70.6957C36.0532 70.6957 32.9672 69.0674 32.8006 68.5403C32.6341 68.0132 34.3681 69.089 34.3681 69.089C34.3681 69.089 31.4741 65.7442 31.8738 65.1035C32.2735 64.4628 34.4544 67.8996 34.4544 67.8996C34.4544 67.8996 31.8542 62.2898 32.783 61.7803C33.7117 61.2709 35.2107 67.4627 35.2107 67.4627C35.2107 67.4627 34.8286 64.3707 35.6026 64.2571C36.3765 64.1434 36.0885 67.7272 36.0885 67.7272C36.0885 67.7272 36.596 66.4026 36.98 66.6593C37.3641 66.916 37.0329 69.6866 36.0532 70.6957Z" fill="white"/>
</svg>
