<svg width="89" height="86" viewBox="0 0 89 86" fill="none" xmlns="http://www.w3.org/2000/svg">
<path d="M44.5 85.6732C69.0767 85.6732 89 74.1705 89 59.9811C89 45.7917 69.0767 34.2889 44.5 34.2889C19.9233 34.2889 0 45.7917 0 59.9811C0 74.1705 19.9233 85.6732 44.5 85.6732Z" fill="#F0F0F0"/>
<path d="M36.1523 81.9376C35.6775 81.9443 35.2091 81.8283 34.7923 81.6009L13.1066 69.0793C12.8719 68.9768 12.6721 68.8081 12.5319 68.5937C12.3916 68.3794 12.3169 68.1288 12.3169 67.8727C12.3169 67.6165 12.3916 67.3659 12.5319 67.1516C12.6721 66.9373 12.8719 66.7685 13.1066 66.666L51.2903 44.6192C51.7099 44.3981 52.177 44.2826 52.6512 44.2826C53.1254 44.2826 53.5925 44.3981 54.0121 44.6192L75.6978 57.1408C75.9325 57.2433 76.1323 57.4121 76.2725 57.6264C76.4128 57.8407 76.4875 58.0913 76.4875 58.3474C76.4875 58.6036 76.4128 58.8542 76.2725 59.0685C76.1323 59.2828 75.9325 59.4516 75.6978 59.5541L37.5141 81.6009C37.0965 81.828 36.6276 81.944 36.1523 81.9376Z" fill="#E0E0E0"/>
<path d="M74.8119 55.7075L72.6958 54.5789C72.6958 54.5789 72.534 51.3436 72.7861 48.7799C73.1416 45.1759 75.8201 40.9927 78.5945 42.0084C81.3689 43.0241 77.323 46.6958 76.422 49.7505C75.521 52.8051 74.8119 55.7075 74.8119 55.7075Z" fill="#012A4A"/>
<path opacity="0.1" d="M74.8119 55.7075L72.6958 54.5789C72.6958 54.5789 72.534 51.3436 72.7861 48.7799C73.1416 45.1759 75.8201 40.9927 78.5945 42.0084C81.3689 43.0241 77.323 46.6958 76.422 49.7505C75.521 52.8051 74.8119 55.7075 74.8119 55.7075Z" fill="black"/>
<path d="M73.7773 55.3313C73.8019 55.3304 73.8252 55.3198 73.842 55.3018C73.8589 55.2839 73.8681 55.26 73.8676 55.2354C73.5948 47.23 77.5806 43.1972 77.6201 43.1633C77.6289 43.1547 77.6358 43.1445 77.6406 43.1332C77.6453 43.1219 77.6478 43.1098 77.6478 43.0975C77.6478 43.0852 77.6453 43.0731 77.6406 43.0618C77.6358 43.0505 77.6289 43.0402 77.6201 43.0317C77.6114 43.0228 77.601 43.0159 77.5895 43.0111C77.5781 43.0063 77.5658 43.0038 77.5533 43.0038C77.5409 43.0038 77.5286 43.0063 77.5172 43.0111C77.5057 43.0159 77.4953 43.0228 77.4866 43.0317C77.4471 43.073 73.403 47.1566 73.6776 55.2429C73.6783 55.2553 73.6815 55.2674 73.6869 55.2785C73.6923 55.2897 73.6998 55.2996 73.7091 55.3078C73.7184 55.316 73.7292 55.3223 73.7409 55.3264C73.7526 55.3304 73.7649 55.3321 73.7773 55.3313Z" fill="white"/>
<path d="M75.8972 56.347L74.7968 55.7112C74.6274 53.9025 74.8613 52.0787 75.4815 50.3712C76.501 47.6043 79.1343 46.0957 80.3457 46.5077C81.826 47.0118 81.8354 48.4281 81.2975 49.3592C80.6617 50.4577 76.6966 53.2359 75.8972 56.347Z" fill="#012A4A"/>
<path d="M75.3178 56.1044C75.3428 56.1044 75.3667 56.0945 75.3843 56.0768C75.402 56.0592 75.4119 56.0353 75.4119 56.0103C75.3893 50.9486 80.1425 47.529 80.1895 47.4952C80.2086 47.4804 80.2212 47.4589 80.2249 47.4351C80.2285 47.4113 80.2229 47.3869 80.2091 47.3672C80.1954 47.3474 80.1746 47.3336 80.151 47.3287C80.1274 47.3239 80.1028 47.3282 80.0823 47.3409C80.0334 47.3767 75.1918 50.8546 75.2238 56.0122C75.2238 56.0245 75.2262 56.0366 75.231 56.0479C75.2357 56.0592 75.2427 56.0695 75.2514 56.078C75.2602 56.0866 75.2706 56.0934 75.282 56.0979C75.2934 56.1024 75.3056 56.1046 75.3178 56.1044Z" fill="white"/>
<path d="M11.3969 57.9026V53.4936C11.3969 53.4936 11.1712 51.0051 9.42939 49.1185C7.68761 47.2318 6.13017 47.8732 5.62042 48.7686C5.11068 49.6639 6.26748 51.3643 7.0067 52.3217C7.8964 53.4729 11.3969 58.8205 11.3969 61.215V57.9026Z" fill="#012A4A"/>
<g opacity="0.2">
<path opacity="0.2" d="M11.3969 57.9026V53.4936C11.3969 53.4936 11.1712 51.0051 9.42939 49.1185C7.68761 47.2318 6.13017 47.8732 5.62042 48.7686C5.11068 49.6639 6.26748 51.3643 7.0067 52.3217C7.8964 53.4729 11.3969 58.8205 11.3969 61.215V57.9026Z" fill="black"/>
</g>
<path d="M11.3969 57.2066C11.371 57.2065 11.346 57.1972 11.3263 57.1803C11.3067 57.1634 11.2937 57.14 11.2897 57.1145C10.4959 52.3067 6.83551 49.0075 6.79978 48.9755C6.77832 48.9565 6.76528 48.9298 6.76352 48.9013C6.76175 48.8727 6.77141 48.8446 6.79037 48.8231C6.80933 48.8017 6.83603 48.7887 6.8646 48.7869C6.89317 48.7851 6.92128 48.7948 6.94273 48.8137C6.98035 48.8476 10.7047 52.1995 11.5041 57.0806C11.5084 57.109 11.5014 57.138 11.4845 57.1612C11.4676 57.1845 11.4422 57.2001 11.4138 57.2047L11.3969 57.2066Z" fill="white"/>
<path d="M11.4195 58.4857C11.4195 58.4857 11.5643 58.0474 10.921 57.9364C10.2777 57.8254 10.0294 57.2912 9.96923 56.3921C9.90904 55.493 9.63818 54.8497 8.82936 54.7181C8.02054 54.5864 7.37349 54.9908 6.8487 54.5864C6.32391 54.182 4.96773 53.2058 3.83914 53.6459C2.71056 54.0861 3.08676 55.0567 3.66609 55.6811C4.24543 56.3056 4.41848 56.5182 3.97457 57.5339C3.53067 58.5496 3.85231 59.5014 4.89061 59.7384C5.9289 59.9754 6.512 59.855 6.52705 60.9949C6.5421 62.1347 6.7001 62.6426 7.27944 63.0903C7.85878 63.538 9.64006 63.3348 10.3849 63.5079C10.6086 63.5648 10.8174 63.669 10.9975 63.8134C11.1776 63.9577 11.3246 64.139 11.4289 64.3449L11.4195 58.4857Z" fill="#012A4A"/>
<path d="M11.4195 63.1768C11.4009 63.1767 11.3828 63.1709 11.3676 63.1601C11.3525 63.1493 11.341 63.1342 11.3348 63.1166C9.44445 57.5001 5.16336 55.2316 5.12762 55.2166C5.10667 55.2056 5.09093 55.1867 5.08388 55.1642C5.07682 55.1416 5.07903 55.1171 5.09 55.0962C5.10098 55.0752 5.11982 55.0595 5.1424 55.0524C5.16498 55.0454 5.18943 55.0476 5.21038 55.0586C5.25365 55.0811 9.59681 57.3797 11.5116 63.0658C11.5155 63.077 11.517 63.0887 11.5162 63.1004C11.5155 63.1122 11.5124 63.1236 11.5071 63.1341C11.5018 63.1446 11.4946 63.154 11.4856 63.1616C11.4767 63.1693 11.4664 63.1751 11.4552 63.1787L11.4195 63.1768Z" fill="white"/>
<path d="M8.70709 58.2807H8.6864C7.45249 57.9985 5.47559 58.1509 5.45678 58.1528C5.43311 58.1549 5.40957 58.1476 5.39126 58.1324C5.37295 58.1173 5.36135 58.0955 5.35897 58.0719C5.35738 58.048 5.36513 58.0245 5.38057 58.0063C5.39601 57.988 5.41794 57.9765 5.44173 57.9741C5.52449 57.9741 7.46565 57.818 8.7259 58.1076C8.74737 58.1121 8.76639 58.1244 8.77928 58.1422C8.79218 58.1599 8.79802 58.1818 8.79568 58.2036C8.79333 58.2254 8.78297 58.2456 8.7666 58.2602C8.75023 58.2747 8.72902 58.2827 8.70709 58.2826V58.2807Z" fill="white"/>
<path d="M9.7134 60.9799C9.14911 60.9799 8.55096 60.9441 8.51334 60.9422C8.48956 60.9403 8.46745 60.9292 8.45167 60.9114C8.43588 60.8935 8.42765 60.8701 8.4287 60.8463C8.42941 60.8345 8.43247 60.823 8.43771 60.8124C8.44295 60.8018 8.45026 60.7924 8.4592 60.7847C8.46814 60.777 8.47854 60.7711 8.48977 60.7675C8.50101 60.7639 8.51287 60.7625 8.52463 60.7635C8.5378 60.7635 9.91655 60.8482 10.4545 60.7635C10.4668 60.7599 10.4798 60.7589 10.4925 60.7607C10.5052 60.7624 10.5174 60.7669 10.5283 60.7737C10.5392 60.7806 10.5484 60.7897 10.5555 60.8004C10.5626 60.8111 10.5673 60.8232 10.5693 60.8359C10.5714 60.8486 10.5707 60.8615 10.5673 60.8739C10.5639 60.8863 10.5579 60.8978 10.5497 60.9077C10.5415 60.9176 10.5313 60.9256 10.5197 60.9313C10.5082 60.9369 10.4956 60.94 10.4827 60.9404C10.2275 60.9713 9.97045 60.9845 9.7134 60.9799Z" fill="white"/>
<path d="M8.12775 57.6223C8.1043 57.6204 8.08247 57.6096 8.06674 57.5921C8.051 57.5746 8.04254 57.5518 8.0431 57.5283C8.08608 56.8857 8.2197 56.2524 8.43999 55.6473C8.44879 55.6251 8.46599 55.6074 8.48784 55.5979C8.50968 55.5884 8.5344 55.5879 8.55661 55.5965C8.5783 55.6053 8.59571 55.6222 8.60519 55.6436C8.61466 55.665 8.61545 55.6893 8.60739 55.7112C8.39783 56.2996 8.27121 56.9143 8.2312 57.5377C8.23084 57.5503 8.22777 57.5628 8.22218 57.5742C8.21659 57.5855 8.20862 57.5956 8.19881 57.6036C8.189 57.6116 8.17757 57.6175 8.16531 57.6207C8.15305 57.6239 8.14024 57.6245 8.12775 57.6223Z" fill="white"/>
<path d="M12.4746 66.224C12.499 66.5586 12.602 66.8826 12.7752 67.1699C12.9485 67.4572 13.187 67.6996 13.4715 67.8774L35.1572 80.4009C35.4658 80.5577 35.807 80.6394 36.1532 80.6394C36.4993 80.6394 36.8405 80.5577 37.1491 80.4009L75.3328 58.354C75.631 58.1927 75.88 57.9538 76.0535 57.6626C76.227 57.3714 76.3186 57.0387 76.3186 56.6997C76.3186 56.3607 76.227 56.028 76.0535 55.7368C75.88 55.4456 75.631 55.2067 75.3328 55.0454L53.6452 42.5219C53.3366 42.3651 52.9954 42.2834 52.6493 42.2834C52.3031 42.2834 51.9619 42.3651 51.6533 42.5219L13.4658 64.5687C13.1825 64.7477 12.9451 64.9907 12.7729 65.2782C12.6007 65.5658 12.4985 65.8897 12.4746 66.224Z" fill="#012A4A"/>
<path opacity="0.5" d="M76.3316 56.6988C76.3074 57.0334 76.2047 57.3577 76.0318 57.6452C75.8589 57.9328 75.6208 58.1756 75.3366 58.354L37.1529 80.4009C36.8468 80.5634 36.5044 80.6456 36.1579 80.6398V78.4823C36.5044 78.4881 36.8468 78.4059 37.1529 78.2434L75.3366 56.1966C75.8181 55.9182 75.8783 55.4893 75.5247 55.1733C75.758 55.3573 75.9504 55.5881 76.0893 55.8508C76.2283 56.1135 76.3108 56.4023 76.3316 56.6988Z" fill="black"/>
<path opacity="0.3" d="M13.4658 65.7199L35.1572 78.2359C35.4658 78.3927 35.807 78.4744 36.1532 78.4744C36.4993 78.4744 36.8406 78.3927 37.1491 78.2359L75.3328 56.1871C75.8821 55.8711 75.8821 55.3558 75.3328 55.0379L53.6453 42.5144C53.3367 42.3576 52.9954 42.2759 52.6493 42.2759C52.3031 42.2759 51.9619 42.3576 51.6533 42.5144L13.4658 64.5688C12.9204 64.881 12.9204 65.402 13.4658 65.7199Z" fill="black"/>
<path opacity="0.7" d="M36.1541 78.4823V80.6379C35.807 80.6457 35.4637 80.5641 35.1572 80.4009L13.4658 67.8774C13.1743 67.7235 12.9287 67.4952 12.754 67.2155C12.5794 66.9359 12.482 66.615 12.4716 66.2855C12.4613 65.956 12.5385 65.6297 12.6953 65.3397C12.8521 65.0497 13.0829 64.8064 13.3643 64.6346C12.9185 64.9543 12.9542 65.4227 13.4658 65.7199L35.1572 78.2359C35.4632 78.4014 35.8063 78.4862 36.1541 78.4823Z" fill="black"/>
<path d="M11.5398 64.6045C11.0244 64.3073 11.0526 63.8051 11.0526 63.1693V33.2149C11.0713 32.8694 11.1712 32.5332 11.3441 32.2336C11.5169 31.9339 11.758 31.6792 12.0476 31.49L50.2313 9.44315C50.5275 9.28576 50.8566 9.20048 51.192 9.19427C51.5273 9.18806 51.8594 9.26109 52.1612 9.40742C52.6785 9.70461 52.6502 10.2087 52.6502 10.8426V40.8046C52.6316 41.1503 52.5316 41.4867 52.3583 41.7864C52.1851 42.0861 51.9435 42.3407 51.6533 42.5294L13.4659 64.5688C13.1702 64.7255 12.8417 64.8105 12.5071 64.8167C12.1724 64.8229 11.8411 64.7502 11.5398 64.6045Z" fill="#012A4A"/>
<path opacity="0.3" d="M52.654 10.8426C52.654 10.2087 52.2082 9.95102 51.6571 10.267L13.4658 32.3158C13.1703 32.5016 12.928 32.7608 12.7623 33.0681L11.3403 32.2405C11.5078 31.9339 11.7505 31.675 12.0457 31.4881L50.2294 9.44315C50.5256 9.28576 50.8547 9.20048 51.1901 9.19427C51.5254 9.18806 51.8575 9.26109 52.1593 9.40742C52.6803 9.70461 52.654 10.2087 52.654 10.8426Z" fill="black"/>
<path opacity="0.5" d="M12.4746 34.033V63.995C12.4746 64.6289 12.9204 64.8866 13.4696 64.5593L51.6495 42.5219C51.9398 42.3331 52.1813 42.0785 52.3545 41.7788C52.5278 41.4791 52.6278 41.1427 52.6464 40.797V10.8426C52.6464 10.2087 52.2007 9.95098 51.6495 10.2783L13.4658 32.3157C13.1779 32.5046 12.9382 32.7583 12.766 33.0565C12.5939 33.3548 12.494 33.6892 12.4746 34.033Z" fill="black"/>
<path opacity="0.7" d="M13.353 64.6289C13.0674 64.7578 12.7569 64.8224 12.4436 64.8182C12.1303 64.814 11.8218 64.741 11.5397 64.6045C11.0243 64.3073 11.0526 63.8051 11.0526 63.1693V33.2148C11.0641 32.8686 11.1645 32.5311 11.3441 32.2349L12.7661 33.0568C12.5886 33.3527 12.4884 33.6884 12.4746 34.0331V63.9951C12.4746 64.5838 12.8583 64.849 13.353 64.6289Z" fill="black"/>
<path d="M14.0057 33.4688L50.8238 12.2138C51.153 12.0257 51.4201 12.1781 51.4201 12.558V38.7035C51.4092 38.9108 51.3496 39.1125 51.2459 39.2923C51.1423 39.4721 50.9977 39.6248 50.8238 39.7381L14.0057 60.993C13.6765 61.1811 13.4094 61.0288 13.4094 60.6469V34.5015C13.4205 34.2945 13.4803 34.0932 13.5839 33.9138C13.6876 33.7343 13.832 33.5819 14.0057 33.4688Z" fill="#FAFAFA"/>
<path d="M21.712 40.0409L43.33 27.5607C43.9714 27.1845 44.4906 27.4534 44.4906 28.1475C44.4906 28.8416 43.9714 29.7068 43.33 30.083L21.712 42.5539C21.0725 42.9301 20.5533 42.6611 20.5533 41.967C20.5533 41.2729 21.0725 40.4114 21.712 40.0409Z" fill="#455A64"/>
<path d="M44.1256 28.1475C44.1256 28.7118 43.6761 29.4642 43.1438 29.7633L38.7291 32.3139L21.5258 42.2435C21.4172 42.3158 21.2911 42.3574 21.1609 42.3639C20.9897 42.3639 20.9013 42.2303 20.9013 41.967C20.9013 41.4027 21.3508 40.6503 21.8832 40.3494L38.7291 30.6248L43.5012 27.8691C43.6111 27.7983 43.7374 27.7568 43.8679 27.7487C44.0466 27.7487 44.1256 27.8842 44.1256 28.1475Z" fill="#012A4A"/>
<path d="M44.1256 28.1475C44.1256 28.7118 43.6761 29.4642 43.1438 29.7633L38.7291 32.3139L21.5258 42.2435C21.4172 42.3158 21.2911 42.3574 21.1609 42.3639C20.9897 42.3639 20.9013 42.2303 20.9013 41.967C20.9013 41.4027 21.3508 40.6503 21.8832 40.3494L38.7291 30.6248L43.5012 27.8691C43.6111 27.7983 43.7374 27.7568 43.8679 27.7487C44.0466 27.7487 44.1256 27.8842 44.1256 28.1475Z" fill="#012A4A"/>
<path d="M44.1256 28.1475C44.1256 28.7118 43.6761 29.4642 43.1438 29.7633L38.7291 32.3139V30.621L43.5012 27.8654C43.6111 27.7945 43.7374 27.753 43.868 27.745C44.0466 27.7488 44.1256 27.8842 44.1256 28.1475Z" fill="#263238"/>
<path opacity="0.6" d="M26.8339 37.4959L21.8907 40.3494C21.3584 40.656 20.9088 41.3971 20.9088 41.967C20.9088 42.2303 20.9972 42.3639 21.1684 42.3639C21.2987 42.3574 21.4248 42.3158 21.5333 42.2435L26.8339 39.1851V37.4959Z" fill="white"/>
<path opacity="0.4" d="M26.8358 39.1832L32.8267 35.7259V34.0368L26.8358 37.4959V39.1832Z" fill="white"/>
<path d="M28.4496 43.1577C28.4564 43.1518 28.4651 43.1486 28.4741 43.1486C28.483 43.1486 28.4917 43.1518 28.4985 43.1577C28.5059 43.1661 28.5116 43.176 28.5151 43.1866C28.5187 43.1973 28.5201 43.2085 28.5192 43.2197V43.4944C28.5189 43.5244 28.5118 43.5539 28.4985 43.5809C28.4885 43.6048 28.4715 43.6252 28.4496 43.6392L27.3455 44.2768C27.3392 44.2829 27.3308 44.2863 27.322 44.2863C27.3132 44.2863 27.3048 44.2829 27.2985 44.2768C27.2911 44.2684 27.2854 44.2585 27.2819 44.2479C27.2783 44.2372 27.2769 44.226 27.2778 44.2148V41.7074C27.2784 41.6774 27.2854 41.6479 27.2985 41.6209C27.3079 41.5972 27.3243 41.5768 27.3455 41.5626L27.5505 41.4441C27.557 41.4384 27.5654 41.4353 27.574 41.4353C27.5827 41.4353 27.591 41.4384 27.5975 41.4441C27.6049 41.4526 27.6106 41.4624 27.6141 41.4731C27.6177 41.4837 27.6191 41.495 27.6182 41.5062V43.6335L28.4496 43.1577Z" fill="#455A64"/>
<path d="M29.4409 41.0134C29.5159 40.964 29.6032 40.9367 29.693 40.9344C29.7619 40.9349 29.8284 40.9595 29.8811 41.004C29.9402 41.0582 29.9854 41.126 30.0127 41.2015C30.0471 41.2982 30.0661 41.3998 30.0692 41.5024C30.0692 41.5231 30.0692 41.5532 30.0692 41.5889V41.8052C30.0692 41.8391 30.0692 41.8692 30.0692 41.8936C30.0625 42.0207 30.043 42.1467 30.0109 42.2698C29.9798 42.3894 29.9363 42.5054 29.8811 42.6159C29.8304 42.7204 29.7673 42.8183 29.693 42.9075C29.6214 42.9919 29.5362 43.0638 29.4409 43.12C29.3661 43.168 29.2796 43.1947 29.1908 43.1972C29.1221 43.1973 29.0555 43.1733 29.0027 43.1294C28.9438 43.0791 28.8991 43.0143 28.8729 42.9414C28.838 42.8453 28.8183 42.7444 28.8146 42.6423C28.8146 42.6197 28.8146 42.5915 28.8146 42.5558C28.8146 42.52 28.8146 42.4862 28.8146 42.4504C28.8146 42.4147 28.8146 42.3771 28.8146 42.3413C28.8146 42.3056 28.8146 42.2736 28.8146 42.2492C28.8198 42.1221 28.8387 41.996 28.871 41.873C28.903 41.7528 28.9471 41.6362 29.0027 41.525C29.0528 41.4197 29.116 41.3211 29.1908 41.2316C29.2605 41.1446 29.3453 41.0707 29.4409 41.0134ZM29.7475 41.7112C29.7458 41.6468 29.7331 41.5832 29.7099 41.5231C29.696 41.4878 29.6709 41.4581 29.6384 41.4385C29.6079 41.428 29.5749 41.428 29.5444 41.4385C29.5079 41.4476 29.4731 41.4622 29.4409 41.4817C29.4038 41.503 29.3692 41.5283 29.3375 41.557C29.3015 41.5921 29.2705 41.6319 29.2453 41.6755C29.2148 41.7282 29.1908 41.7844 29.1738 41.8429C29.1524 41.9151 29.1398 41.9896 29.1362 42.0648C29.1362 42.0855 29.1362 42.1137 29.1362 42.1438C29.1362 42.1739 29.1362 42.2078 29.1362 42.2416C29.1362 42.2755 29.1362 42.3093 29.1362 42.3413C29.1362 42.3733 29.1362 42.3978 29.1362 42.4147C29.1378 42.476 29.1506 42.5366 29.1738 42.5934C29.1877 42.6287 29.2128 42.6584 29.2453 42.678C29.274 42.6916 29.3066 42.6949 29.3375 42.6874C29.374 42.6794 29.4089 42.6654 29.4409 42.646C29.4779 42.6239 29.5126 42.598 29.5444 42.5689C29.5809 42.5338 29.6125 42.494 29.6384 42.4504C29.6692 42.3979 29.6932 42.3416 29.7099 42.283C29.7305 42.2106 29.7432 42.1362 29.7475 42.0611C29.7475 42.0422 29.7475 42.0178 29.7475 41.9839V41.7958C29.7494 41.7563 29.7475 41.73 29.7475 41.7112Z" fill="#455A64"/>
<path d="M30.4905 40.9438C30.5001 40.8748 30.5159 40.8068 30.5375 40.7406C30.5639 40.6595 30.5986 40.5814 30.641 40.5074C30.6874 40.4254 30.7422 40.3485 30.8046 40.2779C30.8689 40.2031 30.9452 40.1396 31.0303 40.0898C31.1004 40.0458 31.1795 40.0182 31.2617 40.0089C31.2934 40.0052 31.3254 40.0078 31.3561 40.0165C31.3867 40.0253 31.4154 40.0399 31.4404 40.0597C31.4965 40.1095 31.5365 40.1751 31.5551 40.2478C31.584 40.3544 31.5973 40.4647 31.5946 40.5751V41.7168C31.595 41.7461 31.5886 41.7751 31.5758 41.8015C31.5662 41.8262 31.5491 41.8473 31.5269 41.8617L31.3388 41.9708C31.3325 41.9769 31.3241 41.9803 31.3153 41.9803C31.3065 41.9803 31.2981 41.9769 31.2918 41.9708C31.2844 41.9623 31.2788 41.9525 31.2752 41.9418C31.2716 41.9312 31.2703 41.9199 31.2711 41.9087V41.7789C31.2333 41.8789 31.1821 41.9732 31.1187 42.0592C31.0514 42.1524 30.9648 42.23 30.8648 42.2868C30.8078 42.3228 30.7436 42.346 30.6767 42.3545C30.6253 42.3587 30.5742 42.3433 30.5338 42.3112C30.4908 42.2738 30.4594 42.2249 30.4435 42.1702C30.4208 42.0971 30.41 42.0209 30.4115 41.9444C30.4099 41.7734 30.4527 41.6049 30.5356 41.4554C30.62 41.3034 30.7323 41.1688 30.8667 41.0585L31.2767 40.7124C31.2767 40.6052 31.2542 40.545 31.209 40.5243C31.1802 40.5166 31.15 40.5155 31.1207 40.5211C31.0914 40.5266 31.0638 40.5386 31.0397 40.5563C31.0021 40.5773 30.9689 40.6054 30.9419 40.639C30.9151 40.6746 30.8924 40.7131 30.8742 40.7538C30.8622 40.7772 30.8477 40.7993 30.8309 40.8196C30.8195 40.834 30.8055 40.8461 30.7896 40.8554L30.5563 40.9908C30.5499 40.995 30.5424 40.9972 30.5347 40.9972C30.527 40.9972 30.5195 40.995 30.5131 40.9908C30.5059 40.9852 30.5001 40.9781 30.4962 40.9699C30.4923 40.9618 30.4903 40.9528 30.4905 40.9438ZM30.9118 41.7958C30.9688 41.7619 31.0202 41.7194 31.0642 41.6698C31.1085 41.6202 31.1464 41.5652 31.177 41.5062C31.2064 41.4494 31.2292 41.3895 31.2448 41.3275C31.2593 41.2709 31.2669 41.2128 31.2673 41.1544V41.1149L30.925 41.4065C30.8662 41.4526 30.8159 41.5086 30.7764 41.572C30.746 41.6233 30.7298 41.6817 30.7294 41.7413C30.7294 41.7958 30.7482 41.8241 30.7839 41.8297C30.8291 41.8324 30.8739 41.8206 30.9118 41.7958Z" fill="#455A64"/>
<path d="M32.5614 39.2114C32.6043 39.1849 32.6514 39.1658 32.7006 39.155C32.7366 39.1477 32.7737 39.1477 32.8097 39.155C32.8379 39.1592 32.8649 39.1694 32.8887 39.1851C32.9082 39.1977 32.9259 39.2129 32.9414 39.2302V38.4026C32.942 38.3732 32.949 38.3443 32.9621 38.3179C32.9721 38.294 32.9891 38.2737 33.011 38.2596L33.1991 38.1487C33.2059 38.1428 33.2146 38.1396 33.2235 38.1396C33.2325 38.1396 33.2412 38.1428 33.248 38.1487C33.2554 38.1571 33.261 38.1669 33.2646 38.1776C33.2681 38.1883 33.2695 38.1995 33.2687 38.2107V40.7576C33.2681 40.787 33.261 40.8159 33.248 40.8422C33.2384 40.8669 33.2213 40.888 33.1991 40.9024L33.011 41.0134C33.004 41.0189 32.9954 41.0218 32.9865 41.0218C32.9777 41.0218 32.969 41.0189 32.9621 41.0134C32.9547 41.0049 32.949 40.9951 32.9455 40.9844C32.9419 40.9738 32.9405 40.9625 32.9414 40.9513V40.861C32.9262 40.8978 32.9086 40.9337 32.8887 40.9682C32.8653 41.0102 32.8389 41.0504 32.8097 41.0886C32.7765 41.1321 32.74 41.1729 32.7006 41.2109C32.6587 41.2509 32.6119 41.2857 32.5614 41.3143C32.4945 41.3592 32.414 41.3792 32.3338 41.3708C32.2649 41.3599 32.2025 41.3236 32.1589 41.2692C32.1051 41.2032 32.0666 41.1261 32.046 41.0435C32.0167 40.94 32.0009 40.8331 31.999 40.7256C31.999 40.688 31.999 40.6447 31.999 40.592C31.999 40.5394 31.999 40.4942 31.999 40.4547C32.0026 40.3281 32.0184 40.2021 32.046 40.0785C32.0714 39.9559 32.1092 39.8361 32.1589 39.7211C32.2036 39.6135 32.2625 39.5123 32.3338 39.4202C32.3947 39.3358 32.4722 39.2648 32.5614 39.2114ZM32.3263 40.2873C32.3225 40.3594 32.3225 40.4316 32.3263 40.5036C32.3376 40.6673 32.3696 40.7688 32.4279 40.8083C32.4597 40.8276 32.4965 40.837 32.5337 40.8353C32.5709 40.8336 32.6067 40.821 32.6367 40.7989C32.7276 40.7433 32.8002 40.6622 32.8455 40.5657C32.9043 40.4487 32.937 40.3204 32.9414 40.1895C32.9414 40.1481 32.9414 40.0992 32.9414 40.039C32.9414 39.9788 32.9414 39.9318 32.9414 39.8942C32.9442 39.8464 32.9371 39.7985 32.9206 39.7535C32.9041 39.7085 32.8785 39.6674 32.8455 39.6327C32.8155 39.6097 32.7788 39.5972 32.7411 39.5972C32.7033 39.5972 32.6666 39.6097 32.6367 39.6327C32.5462 39.6881 32.4737 39.7684 32.4279 39.8641C32.364 39.9962 32.3293 40.1406 32.3263 40.2873Z" fill="#455A64"/>
<path d="M34.0173 37.6728C34.0236 37.6667 34.032 37.6633 34.0408 37.6633C34.0496 37.6633 34.058 37.6667 34.0643 37.6728C34.0717 37.6812 34.0774 37.6911 34.0809 37.7017C34.0845 37.7124 34.0859 37.7236 34.085 37.7348V38.0377C34.0844 38.0671 34.0774 38.096 34.0643 38.1223C34.0548 38.146 34.0384 38.1663 34.0173 38.1806L33.7991 38.3067C33.7928 38.3127 33.7844 38.3161 33.7756 38.3161C33.7668 38.3161 33.7584 38.3127 33.7521 38.3067C33.7447 38.2982 33.7391 38.2884 33.7355 38.2777C33.7319 38.267 33.7306 38.2558 33.7314 38.2446V37.9417C33.732 37.9123 33.739 37.8834 33.7521 37.8571C33.7609 37.833 33.7774 37.8125 33.7991 37.7988L34.0173 37.6728ZM34.0718 40.293C34.0713 40.3224 34.0642 40.3513 34.0512 40.3776C34.0418 40.4019 34.0254 40.4228 34.0041 40.4378L33.816 40.5469C33.8091 40.5524 33.8005 40.5554 33.7916 40.5554C33.7827 40.5554 33.7741 40.5524 33.7671 40.5469C33.7601 40.5383 33.7548 40.5284 33.7515 40.5177C33.7483 40.5071 33.7472 40.4959 33.7483 40.4848V38.6753C33.748 38.6454 33.7545 38.6159 33.7671 38.5888C33.7778 38.5652 33.7947 38.5451 33.816 38.5305L34.0041 38.4195C34.0104 38.4134 34.0189 38.41 34.0276 38.41C34.0364 38.41 34.0448 38.4134 34.0512 38.4195C34.0586 38.428 34.0642 38.4378 34.0677 38.4485C34.0713 38.4591 34.0727 38.4704 34.0718 38.4816V40.293Z" fill="#455A64"/>
<path d="M35.776 39.3092C35.7764 39.3385 35.77 39.3675 35.7572 39.3938C35.7471 39.4177 35.7301 39.438 35.7083 39.4522L35.5202 39.5631C35.5139 39.5692 35.5055 39.5726 35.4967 39.5726C35.4879 39.5726 35.4795 39.5692 35.4732 39.5631C35.4658 39.5547 35.4602 39.5448 35.4566 39.5342C35.4531 39.5235 35.4517 39.5123 35.4525 39.5011V38.5154C35.4623 38.4 35.4381 38.2843 35.3829 38.1825C35.334 38.1167 35.2625 38.1129 35.1647 38.1693C35.0675 38.2307 34.9934 38.3227 34.954 38.4308C34.9011 38.5629 34.8749 38.7042 34.8769 38.8465V39.834C34.8773 39.8633 34.8709 39.8923 34.8581 39.9186C34.848 39.9425 34.831 39.9628 34.8092 39.9769L34.6211 40.0879C34.6148 40.094 34.6064 40.0974 34.5976 40.0974C34.5888 40.0974 34.5804 40.094 34.5741 40.0879C34.5666 40.0795 34.5609 40.0697 34.5573 40.059C34.5538 40.0483 34.5524 40.0371 34.5534 40.0259V38.2088C34.554 38.1794 34.561 38.1505 34.5741 38.1242C34.5829 38.1001 34.5995 38.0796 34.6211 38.0659L34.8092 37.9549C34.816 37.9491 34.8247 37.9459 34.8337 37.9459C34.8426 37.9459 34.8513 37.9491 34.8581 37.9549C34.8652 37.9635 34.8705 37.9734 34.8737 37.9841C34.8769 37.9947 34.878 38.0059 34.8769 38.017V38.1054C34.9205 38.0156 34.9721 37.93 35.0312 37.8496C35.0878 37.7739 35.1588 37.71 35.2399 37.6615C35.3155 37.6092 35.4059 37.5828 35.4976 37.5862C35.5311 37.5905 35.5633 37.6017 35.5921 37.6192C35.621 37.6367 35.6458 37.6601 35.6651 37.6878C35.7115 37.7601 35.7417 37.8416 35.7535 37.9267C35.7724 38.036 35.7812 38.1468 35.7798 38.2577L35.776 39.3092Z" fill="#455A64"/>
<path d="M36.8105 39.2039C36.851 39.1805 36.8877 39.1514 36.9196 39.1173C36.9582 39.075 36.9917 39.0283 37.0193 38.9781C37.0524 38.9189 37.0777 38.8557 37.0946 38.79C37.1138 38.7208 37.1233 38.6493 37.1228 38.5775V38.4345C37.1071 38.4706 37.0896 38.5057 37.0701 38.5399C37.046 38.582 37.0197 38.6229 36.9911 38.6621C36.9579 38.705 36.9214 38.7452 36.882 38.7825C36.8401 38.8232 36.7934 38.8586 36.7428 38.8879C36.6754 38.9313 36.5951 38.9506 36.5152 38.9424C36.4463 38.9315 36.3839 38.8953 36.3403 38.8408C36.2865 38.7748 36.248 38.6978 36.2274 38.6151C36.1982 38.5122 36.1824 38.406 36.1804 38.2991C36.1804 38.2615 36.1804 38.2163 36.1804 38.1656C36.1804 38.1148 36.1804 38.0678 36.1804 38.0283C36.1839 37.9016 36.1996 37.7756 36.2274 37.6521C36.2523 37.5293 36.2901 37.4095 36.3403 37.2947C36.385 37.1865 36.4438 37.0846 36.5152 36.9918C36.576 36.9079 36.6535 36.8375 36.7428 36.7849C36.7861 36.7587 36.833 36.7391 36.882 36.7266C36.9181 36.7202 36.955 36.7202 36.9911 36.7266C37.0192 36.7312 37.0461 36.7414 37.0701 36.7567C37.09 36.7688 37.1078 36.784 37.1228 36.8019V36.7116C37.1234 36.6822 37.1304 36.6533 37.1435 36.6269C37.153 36.6027 37.1702 36.5823 37.1924 36.5686L37.3805 36.4576C37.3873 36.4518 37.396 36.4486 37.4049 36.4486C37.4139 36.4486 37.4226 36.4518 37.4294 36.4576C37.4368 36.4661 37.4424 36.4759 37.446 36.4866C37.4495 36.4973 37.4509 36.5085 37.4501 36.5197V38.3593C37.4568 38.638 37.3982 38.9143 37.2789 39.1662C37.1762 39.379 37.0125 39.5565 36.8087 39.676C36.7361 39.7211 36.6546 39.75 36.5698 39.7606C36.5057 39.7689 36.4405 39.7591 36.3817 39.7324C36.3283 39.7038 36.2839 39.6608 36.2538 39.6083C36.2198 39.5479 36.2017 39.48 36.2011 39.4108C36.1996 39.3814 36.2061 39.3521 36.2199 39.3261C36.2295 39.3019 36.2466 39.2814 36.2688 39.2678L36.44 39.1681C36.4484 39.1611 36.4591 39.1572 36.4701 39.1572C36.4811 39.1572 36.4917 39.1611 36.5002 39.1681L36.5434 39.2114C36.5535 39.2268 36.5667 39.2399 36.5823 39.2496C36.5979 39.2593 36.6155 39.2656 36.6337 39.2678C36.698 39.2661 36.76 39.2436 36.8105 39.2039ZM36.5077 37.8721C36.5021 37.9448 36.5021 38.0177 36.5077 38.0903C36.519 38.2521 36.551 38.3537 36.6093 38.395C36.6411 38.4143 36.6779 38.4237 36.7151 38.422C36.7523 38.4203 36.7881 38.4077 36.8181 38.3856C36.9083 38.3291 36.9806 38.2483 37.0269 38.1524C37.0857 38.0354 37.1184 37.9071 37.1228 37.7762C37.1228 37.7348 37.1228 37.684 37.1228 37.6257C37.1228 37.5674 37.1228 37.5166 37.1228 37.4809C37.1256 37.4328 37.1185 37.3846 37.102 37.3393C37.0855 37.294 37.0599 37.2526 37.0269 37.2176C36.9967 37.1951 36.9601 37.183 36.9225 37.183C36.8849 37.183 36.8482 37.1951 36.8181 37.2176C36.7281 37.2735 36.6558 37.3537 36.6093 37.4489C36.5456 37.5811 36.5109 37.7254 36.5077 37.8721Z" fill="#455A64"/>
<path d="M38.1987 37.4188C38.2054 37.4135 38.2137 37.4106 38.2222 37.4106C38.2308 37.4106 38.2391 37.4135 38.2457 37.4188C38.2531 37.4273 38.2588 37.4371 38.2623 37.4478C38.2659 37.4584 38.2673 37.4697 38.2664 37.4809V37.8571C38.2659 37.8865 38.2588 37.9154 38.2457 37.9417C38.2362 37.9654 38.2199 37.9857 38.1987 38.0001L37.9636 38.1355C37.9568 38.1413 37.9481 38.1445 37.9391 38.1445C37.9302 38.1445 37.9215 38.1413 37.9147 38.1355C37.9075 38.1269 37.9022 38.117 37.8989 38.1064C37.8957 38.0957 37.8947 38.0845 37.8959 38.0734V37.6972C37.8955 37.6679 37.9019 37.6389 37.9147 37.6126C37.9254 37.5885 37.9422 37.5678 37.9636 37.5524L38.1987 37.4188Z" fill="#455A64"/>
<path d="M38.9812 36.973C38.988 36.9672 38.9967 36.964 39.0056 36.964C39.0146 36.964 39.0233 36.9672 39.0301 36.973C39.0378 36.9813 39.0436 36.9911 39.0472 37.0018C39.0507 37.0125 39.052 37.0239 39.0508 37.0351V37.4113C39.0502 37.4407 39.0432 37.4696 39.0301 37.4959C39.0205 37.5201 39.0034 37.5406 38.9812 37.5542L38.748 37.6897C38.7411 37.6955 38.7325 37.6987 38.7235 37.6987C38.7145 37.6987 38.7059 37.6955 38.699 37.6897C38.692 37.6811 38.6867 37.6712 38.6835 37.6605C38.6802 37.6499 38.6791 37.6387 38.6802 37.6276V37.2514C38.6798 37.2221 38.6863 37.1931 38.699 37.1668C38.7086 37.1425 38.7258 37.1221 38.748 37.1085L38.9812 36.973Z" fill="#455A64"/>
<path d="M39.7656 36.5197C39.7724 36.5139 39.7811 36.5107 39.79 36.5107C39.799 36.5107 39.8077 36.5139 39.8145 36.5197C39.8219 36.5282 39.8275 36.538 39.8311 36.5487C39.8346 36.5593 39.836 36.5706 39.8352 36.5818V36.958C39.8344 36.988 39.8273 37.0174 39.8145 37.0445C39.8045 37.0685 39.7874 37.0888 39.7656 37.1028L39.5323 37.2382C39.5254 37.2437 39.5168 37.2467 39.5079 37.2467C39.499 37.2467 39.4904 37.2437 39.4834 37.2382C39.4764 37.2296 39.4711 37.2197 39.4678 37.2091C39.4646 37.1984 39.4635 37.1872 39.4646 37.1762V36.8C39.4645 36.7701 39.4709 36.7406 39.4834 36.7135C39.4934 36.6895 39.5105 36.6692 39.5323 36.6551L39.7656 36.5197Z" fill="#455A64"/>
<path opacity="0.3" d="M16.2271 64.6289L51.6721 44.164C51.8267 44.0861 51.9974 44.0455 52.1706 44.0455C52.3437 44.0455 52.5144 44.0861 52.669 44.164L53.2596 44.4875C53.5343 44.6474 53.5343 44.9051 53.2596 45.0631L17.8071 65.5243C17.6531 65.603 17.4826 65.6441 17.3096 65.6441C17.1366 65.6441 16.9661 65.603 16.8121 65.5243L16.2271 65.2026C15.9525 65.0446 15.9525 64.7869 16.2271 64.6289Z" fill="black"/>
<path opacity="0.3" d="M19.0071 66.2823L54.4522 45.8174C54.5895 45.7387 54.7433 45.6931 54.9013 45.6843C55.0594 45.6755 55.2173 45.7037 55.3625 45.7666L64.5887 51.0935C64.8163 51.2252 64.7768 51.4603 64.5022 51.6202L29.0986 72.0569C28.9607 72.1351 28.8066 72.1803 28.6484 72.1891C28.4901 72.1979 28.332 72.1701 28.1863 72.1077L18.9206 66.8053C18.693 66.6755 18.7325 66.4403 19.0071 66.2823Z" fill="#263238"/>
<path d="M49.7215 54.4134L50.8313 53.772C50.8783 53.7438 50.8821 53.7024 50.8407 53.6779L49.778 53.0647C49.753 53.053 49.7257 53.0469 49.698 53.0469C49.6704 53.0469 49.6431 53.053 49.6181 53.0647L48.5083 53.7061C48.4594 53.7343 48.4556 53.7757 48.4989 53.8002L49.5598 54.4115C49.5849 54.4238 49.6125 54.4304 49.6404 54.4307C49.6684 54.431 49.6961 54.4251 49.7215 54.4134ZM48.1001 52.1957L46.9904 52.8352C46.9433 52.8635 46.9396 52.9048 46.981 52.9293L48.0437 53.5425C48.0687 53.5542 48.096 53.5603 48.1237 53.5603C48.1513 53.5603 48.1786 53.5542 48.2036 53.5425L49.3134 52.9011C49.3604 52.8747 49.366 52.8334 49.3228 52.8089L48.2638 52.1901C48.2381 52.1778 48.2098 52.1718 48.1813 52.1728C48.1528 52.1738 48.1249 52.1817 48.1001 52.1957ZM44.515 54.2648L42.634 55.3501C42.5851 55.3764 42.5814 55.4197 42.6228 55.4423L43.6855 56.0555C43.7105 56.0683 43.7382 56.0751 43.7664 56.0751C43.7945 56.0751 43.8222 56.0683 43.8473 56.0555L45.7282 54.972C45.7753 54.9438 45.779 54.9024 45.7282 54.878L44.6674 54.2648C44.6434 54.2542 44.6174 54.2487 44.5912 54.2487C44.565 54.2487 44.539 54.2542 44.515 54.2648ZM46.4787 53.1362L45.369 53.7757C45.3219 53.8039 45.3182 53.8453 45.3596 53.8698L46.4204 54.483C46.4457 54.495 46.4733 54.5013 46.5013 54.5013C46.5293 54.5013 46.5569 54.495 46.5822 54.483L47.692 53.8416C47.739 53.8152 47.7428 53.7739 47.7014 53.7494L46.6405 53.1362C46.6158 53.1227 46.5882 53.1154 46.5601 53.1147C46.5319 53.1141 46.5041 53.1201 46.4787 53.1324V53.1362ZM42.1243 55.6454L41.0145 56.2868C40.9675 56.3132 40.9637 56.3545 41.0051 56.379L42.0679 56.9922C42.0926 57.005 42.12 57.0118 42.1478 57.0118C42.1756 57.0118 42.2031 57.005 42.2278 56.9922L43.3375 56.3527C43.3845 56.3244 43.3902 56.2831 43.3469 56.2586L42.2861 55.6454C42.2608 55.6334 42.2332 55.6271 42.2052 55.6271C42.1772 55.6271 42.1496 55.6334 42.1243 55.6454ZM40.5029 56.5859L39.3931 57.2273C39.3461 57.2536 39.3423 57.295 39.3837 57.3195L40.4446 57.9327C40.4696 57.9455 40.4973 57.9523 40.5255 57.9523C40.5536 57.9523 40.5813 57.9455 40.6064 57.9327L41.7161 57.2913C41.7632 57.2649 41.7669 57.2236 41.7255 57.1991L40.6647 56.5859C40.6399 56.5724 40.6124 56.5651 40.5842 56.5644C40.5561 56.5638 40.5282 56.5698 40.5029 56.5821V56.5859ZM44.6636 59.0876L45.7734 58.4462C45.8204 58.4198 45.826 58.3766 45.7828 58.354L44.7219 57.7333C44.6969 57.7204 44.6692 57.7137 44.641 57.7137C44.6129 57.7137 44.5852 57.7204 44.5602 57.7333L43.4504 58.3728C43.4034 58.401 43.3996 58.4424 43.4504 58.4669L44.5131 59.0801C44.5366 59.091 44.5621 59.097 44.588 59.0977C44.6139 59.0983 44.6396 59.0936 44.6636 59.0838V59.0876ZM43.0422 60.0281L44.152 59.3867C44.199 59.3585 44.2028 59.3171 44.1614 59.2926L43.1005 58.6738C43.0753 58.6617 43.0476 58.6555 43.0196 58.6555C42.9917 58.6555 42.964 58.6617 42.9388 58.6738L41.829 59.3152C41.782 59.3434 41.7782 59.3848 41.829 59.4092L42.8899 60.0224C42.914 60.0328 42.94 60.0379 42.9662 60.0376C42.9925 60.0373 43.0184 60.0315 43.0422 60.0206V60.0281ZM41.4208 60.9686L42.5306 60.3272C42.5776 60.2989 42.5814 60.2576 42.5306 60.2331L41.4772 59.6143C41.4522 59.6025 41.4249 59.5964 41.3973 59.5964C41.3697 59.5964 41.3424 59.6025 41.3174 59.6143L40.2076 60.2557C40.1587 60.2839 40.1549 60.3253 40.2076 60.3478L41.2685 60.961C41.2927 60.9711 41.3188 60.9759 41.345 60.9753C41.3713 60.9746 41.3971 60.9685 41.4208 60.9573V60.9686ZM39.7975 61.9091L40.9073 61.2695C40.9543 61.2413 40.96 61.1999 40.9167 61.1755L39.8558 60.5547C39.8306 60.5427 39.8029 60.5365 39.775 60.5365C39.747 60.5365 39.7193 60.5427 39.6941 60.5547L38.5843 61.1962C38.5373 61.2225 38.5335 61.2658 38.5843 61.2883L39.6471 61.9015C39.6715 61.9117 39.6979 61.9162 39.7243 61.9145C39.7507 61.9129 39.7764 61.9052 39.7994 61.8921L39.7975 61.9091ZM48.0983 55.3652L49.208 54.7256C49.2551 54.6974 49.2607 54.656 49.2174 54.6316L48.1566 54.0184C48.1313 54.0063 48.1037 54.0001 48.0757 54.0001C48.0477 54.0001 48.0201 54.0063 47.9948 54.0184L46.885 54.6598C46.838 54.6861 46.8342 54.7294 46.8756 54.752L47.9384 55.3652C47.9644 55.3755 47.9926 55.3793 48.0204 55.3764C48.0483 55.3734 48.075 55.3638 48.0983 55.3482V55.3652ZM46.2869 58.164L48.7622 56.7345C48.8093 56.7063 48.813 56.6649 48.7717 56.6405L46.1947 55.1357C46.1695 55.1236 46.1418 55.1174 46.1138 55.1174C46.0859 55.1174 46.0582 55.1236 46.033 55.1357L44.7539 55.8749C44.7069 55.9031 44.7012 55.9445 44.7445 55.9689L46.1082 56.7571C46.1515 56.7796 46.1458 56.8229 46.0988 56.8492L45.0661 57.4455C45.0191 57.4737 45.0135 57.5151 45.0661 57.5396L46.127 58.1528C46.1524 58.1636 46.1799 58.1687 46.2076 58.1678C46.2352 58.1668 46.2623 58.1597 46.2869 58.1471V58.164ZM38.8815 57.5358L37.7717 58.1753C37.7228 58.2035 37.7191 58.2449 37.7604 58.2694L38.8232 58.8826C38.8485 58.8946 38.8761 58.9008 38.9041 58.9008C38.9321 58.9008 38.9597 58.8946 38.985 58.8826L40.0947 58.2412C40.1418 58.2148 40.1455 58.1734 40.1041 58.149L39.047 57.5132C39.0212 57.5002 38.9925 57.494 38.9635 57.495C38.9346 57.4959 38.9064 57.5042 38.8815 57.5189V57.5358ZM37.2582 58.4763L36.1485 59.1158C36.1014 59.144 36.0977 59.1854 36.139 59.2099L37.2018 59.823C37.2268 59.8348 37.2541 59.8409 37.2817 59.8409C37.3094 59.8409 37.3367 59.8348 37.3617 59.823L38.4715 59.1816C38.5185 59.1553 38.5241 59.112 38.4809 59.0895L37.42 58.4763C37.3967 58.4601 37.3698 58.4498 37.3416 58.4462C37.3135 58.4426 37.2849 58.4458 37.2582 58.4556V58.4763ZM28.2822 68.4548C28.3073 68.4677 28.335 68.4744 28.3631 68.4744C28.3913 68.4744 28.419 68.4677 28.444 68.4548L29.5538 67.8153C29.6008 67.7871 29.6046 67.7457 29.5632 67.7212L28.5023 67.1081C28.477 67.096 28.4494 67.0898 28.4214 67.0898C28.3934 67.0898 28.3658 67.096 28.3405 67.1081L27.2308 67.7495C27.1837 67.7758 27.18 67.8191 27.2214 67.8416L28.2822 68.4548ZM24.2833 65.9494L23.1735 66.5889C23.1246 66.6171 23.1209 66.6585 23.1641 66.6829L24.225 67.2961C24.2502 67.3082 24.2779 67.3144 24.3059 67.3144C24.3338 67.3144 24.3615 67.3082 24.3867 67.2961L25.4965 66.6547C25.5435 66.6284 25.5473 66.5851 25.4965 66.5626L24.4338 65.9494C24.4104 65.9377 24.3848 65.9315 24.3587 65.9312C24.3327 65.9309 24.3069 65.9365 24.2833 65.9475V65.9494ZM26.3392 67.8303C26.3645 67.8424 26.3921 67.8486 26.4201 67.8486C26.4481 67.8486 26.4757 67.8424 26.501 67.8303L27.6107 67.1889C27.6578 67.1626 27.6615 67.1212 27.6201 67.0968L26.5574 66.4836C26.5327 66.4707 26.5053 66.464 26.4774 66.464C26.4496 66.464 26.4222 66.4707 26.3975 66.4836L25.2877 67.1231C25.2407 67.1513 25.2351 67.1927 25.2877 67.2171L26.3392 67.8303ZM30.814 68.831L31.9238 68.1896C31.9708 68.1633 31.9765 68.1219 31.9332 68.0974L30.8723 67.4842C30.8473 67.4714 30.8196 67.4647 30.7914 67.4647C30.7633 67.4647 30.7356 67.4714 30.7106 67.4842L29.6008 68.1238C29.5538 68.152 29.55 68.1934 29.5914 68.2178L30.6541 68.831C30.6792 68.8428 30.7064 68.8489 30.7341 68.8489C30.7617 68.8489 30.789 68.8428 30.814 68.831ZM29.0309 69.7715C29.0561 69.7835 29.0838 69.7898 29.1117 69.7898C29.1397 69.7898 29.1674 69.7835 29.1926 69.7715L30.3024 69.1301C30.3494 69.1038 30.3532 69.0624 30.3118 69.0379L29.2509 68.4247C29.2259 68.4119 29.1982 68.4051 29.1701 68.4051C29.1419 68.4051 29.1142 68.4119 29.0892 68.4247L27.9794 69.0643C27.9324 69.0925 27.9286 69.1339 27.9794 69.1583L29.0309 69.7715ZM25.9047 65.0089L24.7949 65.6484C24.7479 65.6766 24.7441 65.718 24.7949 65.7425L25.8558 66.3557C25.881 66.3677 25.9087 66.3739 25.9367 66.3739C25.9646 66.3739 25.9923 66.3677 26.0175 66.3557L27.1273 65.7143C27.1743 65.6879 27.1781 65.6465 27.1273 65.6221L26.0683 65.0051C26.0426 64.9928 26.0143 64.9869 25.9858 64.9879C25.9573 64.9888 25.9295 64.9967 25.9047 65.0108V65.0089ZM34.0154 60.3253L32.9057 60.9667C32.8568 60.9949 32.853 61.0363 32.8944 61.0607L33.9571 61.672C33.9824 61.6841 34.01 61.6903 34.038 61.6903C34.066 61.6903 34.0936 61.6841 34.1189 61.672L35.2287 61.0306C35.2757 61.0024 35.2794 60.961 35.2381 60.9366L34.1753 60.3253C34.1504 60.313 34.1229 60.3068 34.0951 60.3071C34.0674 60.3074 34.0401 60.3143 34.0154 60.3272V60.3253ZM27.5261 64.0722L26.4163 64.7136C26.3693 64.7399 26.3655 64.7813 26.4163 64.8057L27.4791 65.4189C27.5041 65.4307 27.5314 65.4368 27.559 65.4368C27.5866 65.4368 27.6139 65.4307 27.6389 65.4189L28.7487 64.7775C28.7957 64.7512 28.8014 64.7098 28.7581 64.6854L27.6973 64.0722C27.6709 64.058 27.6414 64.0507 27.6114 64.051C27.5815 64.0513 27.5521 64.0593 27.5261 64.074V64.0722ZM35.6368 59.3904L34.5271 60.03C34.48 60.0582 34.4763 60.0996 34.5177 60.124L35.5785 60.7372C35.6038 60.7492 35.6314 60.7555 35.6594 60.7555C35.6874 60.7555 35.715 60.7492 35.7403 60.7372L36.8501 60.0958C36.8971 60.0695 36.9008 60.0262 36.8595 60.0036L35.7986 59.3904C35.7734 59.3778 35.7456 59.3715 35.7175 59.3718C35.6893 59.3721 35.6617 59.3791 35.6368 59.3923V59.3904ZM32.3922 61.262L31.2824 61.9034C31.2354 61.9297 31.2316 61.973 31.273 61.9956L32.3357 62.6088C32.3604 62.6216 32.3878 62.6283 32.4157 62.6283C32.4435 62.6283 32.4709 62.6216 32.4956 62.6088L33.6054 61.9692C33.6524 61.941 33.658 61.8996 33.6148 61.8752L32.5539 61.262C32.5285 61.2503 32.5008 61.2443 32.4728 61.2447C32.4448 61.245 32.4173 61.2515 32.3922 61.2639V61.262ZM30.7708 62.2025L29.661 62.8439C29.614 62.8702 29.6102 62.9116 29.661 62.9361L30.7219 63.5493C30.7469 63.5621 30.7746 63.5688 30.8027 63.5688C30.8309 63.5688 30.8586 63.5621 30.8836 63.5493L31.9934 62.9097C32.0404 62.8815 32.0442 62.8401 32.0028 62.8157L30.9419 62.2025C30.9156 62.1887 30.8863 62.1813 30.8566 62.1809C30.8268 62.1806 30.7974 62.1874 30.7708 62.2006V62.2025ZM29.1494 63.143L28.0396 63.7844C27.9907 63.8107 27.9869 63.8521 28.0283 63.8765L29.0911 64.4897C29.1161 64.5026 29.1438 64.5093 29.1719 64.5093C29.2001 64.5093 29.2278 64.5026 29.2528 64.4897L30.3626 63.8483C30.4096 63.822 30.4134 63.7806 30.3626 63.7562L29.2998 63.143C29.2765 63.1317 29.2511 63.1254 29.2252 63.1244C29.1993 63.1235 29.1735 63.1278 29.1494 63.1373V63.143ZM36.5547 63.7712L37.6645 63.1298C37.7115 63.1035 37.7153 63.0621 37.6645 63.0376L36.6018 62.4244C36.5768 62.4127 36.5495 62.4066 36.5218 62.4066C36.4942 62.4066 36.4669 62.4127 36.4419 62.4244L35.3321 63.0658C35.2832 63.0922 35.2794 63.1336 35.3227 63.158L36.3836 63.7712C36.4102 63.7848 36.4399 63.7915 36.4699 63.7905C36.4998 63.7895 36.529 63.7809 36.5547 63.7656V63.7712ZM51.6853 50.1304L50.5755 50.7718C50.5285 50.7982 50.5247 50.8414 50.5661 50.864L51.6288 51.4772C51.6539 51.4901 51.6816 51.4968 51.7097 51.4968C51.7379 51.4968 51.7656 51.4901 51.7906 51.4772L52.9004 50.8377C52.9474 50.8094 52.9512 50.7681 52.9098 50.7436L51.847 50.1304C51.8222 50.1175 51.7948 50.1103 51.7668 50.1093C51.7388 50.1083 51.711 50.1136 51.6853 50.1248V50.1304ZM49.7234 51.259L48.6136 51.9004C48.5647 51.9267 48.561 51.9681 48.6024 51.9926L49.6651 52.6058C49.6901 52.6186 49.7179 52.6254 49.746 52.6254C49.7741 52.6254 49.8019 52.6186 49.8269 52.6058L50.9366 51.9644C50.9837 51.938 50.9874 51.8966 50.9461 51.8722L49.8833 51.259C49.8583 51.2472 49.831 51.2412 49.8034 51.2412C49.7757 51.2412 49.7484 51.2472 49.7234 51.259ZM53.3086 49.1899L52.1988 49.8313C52.1518 49.8595 52.1461 49.9009 52.1894 49.9254L53.2502 50.5367C53.2755 50.5487 53.3031 50.555 53.3311 50.555C53.3591 50.555 53.3867 50.5487 53.412 50.5367L54.5218 49.8953C54.5688 49.8671 54.5726 49.8257 54.5312 49.8012L53.4684 49.188C53.4434 49.1763 53.4161 49.1702 53.3885 49.1702C53.3609 49.1702 53.3336 49.1763 53.3086 49.188V49.1899ZM44.342 57.5189L45.4517 56.8793C45.4988 56.8511 45.5044 56.8097 45.4517 56.7853L44.3909 56.1721C44.3656 56.1601 44.338 56.1538 44.31 56.1538C44.282 56.1538 44.2544 56.1601 44.2291 56.1721L43.1193 56.8135C43.0723 56.8398 43.0685 56.8812 43.1193 56.9057L44.1821 57.5189C44.2069 57.5314 44.2344 57.5378 44.2623 57.5375C44.2901 57.5372 44.3174 57.5301 44.342 57.517V57.5189ZM55.0917 48.2494C55.0667 48.2366 55.039 48.2299 55.0108 48.2299C54.9827 48.2299 54.955 48.2366 54.9299 48.2494L53.8202 48.889C53.7732 48.9172 53.7694 48.9586 53.8108 48.983L54.8716 49.5962C54.8969 49.6082 54.9245 49.6145 54.9525 49.6145C54.9805 49.6145 55.0081 49.6082 55.0334 49.5962L56.1432 48.9548C56.1902 48.9285 56.1958 48.8852 56.1526 48.8626L55.0917 48.2494ZM38.1761 62.8307L39.2859 62.1912C39.3329 62.163 39.3367 62.1216 39.2859 62.0971L38.225 61.4839C38.1998 61.4719 38.1721 61.4657 38.1442 61.4657C38.1162 61.4657 38.0885 61.4719 38.0633 61.4839L36.9535 62.1254C36.9065 62.1517 36.9027 62.1931 36.9535 62.2175L38.0144 62.8307C38.0395 62.8433 38.0674 62.8497 38.0955 62.8494C38.1236 62.849 38.1513 62.842 38.1761 62.8288V62.8307ZM58.0674 51.3568L59.1772 50.7154C59.2242 50.6891 59.228 50.6458 59.1866 50.6232L58.1257 50.01C58.1007 49.9972 58.073 49.9904 58.0448 49.9904C58.0167 49.9904 57.989 49.9972 57.964 50.01L56.8542 50.6496C56.8072 50.6778 56.8015 50.7192 56.8448 50.7436L57.9056 51.3568C57.9323 51.366 57.9607 51.3691 57.9887 51.3658C58.0167 51.3626 58.0436 51.353 58.0674 51.338V51.3568ZM54.9281 51.417L56.0378 50.7756C56.0849 50.7493 56.0905 50.7079 56.0472 50.6834L54.9864 50.0702C54.9611 50.0582 54.9335 50.0519 54.9055 50.0519C54.8775 50.0519 54.8499 50.0582 54.8246 50.0702L53.7148 50.7116C53.6678 50.738 53.6641 50.7793 53.7054 50.8038L54.7682 51.417C54.7938 51.4281 54.8217 51.4329 54.8495 51.431C54.8773 51.429 54.9043 51.4203 54.9281 51.4057V51.417ZM56.6078 49.1335C56.5825 49.1215 56.5549 49.1152 56.5269 49.1152C56.4989 49.1152 56.4713 49.1215 56.446 49.1335L55.3362 49.7749C55.2892 49.8012 55.2854 49.8426 55.3268 49.8671L56.3896 50.4803C56.4146 50.4931 56.4423 50.4999 56.4705 50.4999C56.4986 50.4999 56.5263 50.4931 56.5513 50.4803L57.6686 49.8332C57.7157 49.805 57.7194 49.7636 57.678 49.7392L56.6078 49.1335ZM56.9501 48.936L59.5289 50.4257C59.5539 50.4375 59.5812 50.4436 59.6089 50.4436C59.6365 50.4436 59.6638 50.4375 59.6888 50.4257L60.7986 49.7843C60.8456 49.758 60.8512 49.7166 60.808 49.6921L58.2329 48.1855C58.2079 48.1737 58.1806 48.1677 58.153 48.1677C58.1254 48.1677 58.0981 48.1737 58.073 48.1855L56.9633 48.8269C56.9163 48.8589 56.9162 48.9021 56.9501 48.9247V48.936ZM53.2032 51.0051L52.0934 51.6465C52.0464 51.6728 52.0408 51.7142 52.084 51.7386L53.1449 52.3518C53.1702 52.3639 53.1978 52.3701 53.2258 52.3701C53.2538 52.3701 53.2814 52.3639 53.3067 52.3518L54.4164 51.7104C54.4635 51.6841 54.4672 51.6427 54.4258 51.6183L53.365 51.0051C53.3403 50.9916 53.3127 50.9842 53.2845 50.9836C53.2564 50.9829 53.2285 50.989 53.2032 51.0013V51.0051ZM40.9957 58.0531L39.8859 58.6945C39.8389 58.7208 39.8333 58.7622 39.8765 58.7866L40.9374 59.3998C40.9624 59.4127 40.9902 59.4194 41.0183 59.4194C41.0464 59.4194 41.0742 59.4127 41.0992 59.3998L42.2089 58.7584C42.256 58.7321 42.2597 58.6907 42.2183 58.6663L41.1556 58.0531C41.1312 58.0396 41.104 58.0323 41.0761 58.0316C41.0483 58.0309 41.0207 58.037 40.9957 58.0493V58.0531ZM56.2842 52.2916C56.3095 52.3037 56.3371 52.3099 56.3651 52.3099C56.3931 52.3099 56.4207 52.3037 56.446 52.2916L57.5558 51.6502C57.6028 51.6239 57.6066 51.5806 57.5652 51.5581L56.5024 50.9449C56.4777 50.932 56.4503 50.9253 56.4225 50.9253C56.3947 50.9253 56.3672 50.932 56.3426 50.9449L55.2328 51.5844C55.1839 51.6126 55.1801 51.654 55.2215 51.6784L56.2842 52.2916ZM42.6209 57.1126L41.5111 57.754C41.4641 57.7803 41.4603 57.8217 41.5017 57.8462L42.5626 58.4593C42.5876 58.4722 42.6153 58.4789 42.6434 58.4789C42.6716 58.4789 42.6993 58.4722 42.7243 58.4593L43.8341 57.8198C43.8811 57.7916 43.8849 57.7502 43.8341 57.7258L42.7732 57.1126C42.7492 57.1019 42.7233 57.0965 42.6971 57.0965C42.6708 57.0965 42.6449 57.1019 42.6209 57.1126ZM29.9055 67.5143C29.9303 67.5269 29.9577 67.5334 29.9855 67.5334C30.0132 67.5334 30.0406 67.5269 30.0654 67.5143L31.1752 66.8729C31.2222 66.8447 31.2278 66.8033 31.1752 66.7789L30.1143 66.1676C30.089 66.1555 30.0614 66.1493 30.0334 66.1493C30.0054 66.1493 29.9778 66.1555 29.9525 66.1676L28.8428 66.809C28.7957 66.8372 28.792 66.8786 28.8334 66.903L29.9055 67.5143ZM28.0245 65.5393L26.9148 66.1807C26.8677 66.2071 26.864 66.2484 26.9054 66.2729L27.9662 66.8861C27.9915 66.8981 28.0191 66.9044 28.0471 66.9044C28.0751 66.9044 28.1027 66.8981 28.128 66.8861L29.2378 66.2447C29.2848 66.2184 29.2886 66.177 29.2472 66.1525L28.1863 65.5393C28.1604 65.5258 28.1316 65.5189 28.1024 65.5192C28.0732 65.5195 28.0445 65.5271 28.0189 65.5412L28.0245 65.5393ZM31.6943 66.5739L32.8041 65.9324C32.8511 65.9061 32.8549 65.8629 32.8135 65.8403L31.7507 65.2271C31.7261 65.2142 31.6986 65.2075 31.6708 65.2075C31.643 65.2075 31.6155 65.2142 31.5909 65.2271L30.4811 65.8666C30.4341 65.8948 30.4284 65.9362 30.4717 65.9607L31.5231 66.5739C31.5489 66.5865 31.5772 66.593 31.6059 66.593C31.6346 66.593 31.6629 66.5865 31.6887 66.5739H31.6943ZM33.3157 65.6334L34.4255 64.992C34.4725 64.9656 34.4763 64.9242 34.4255 64.8998L33.3646 64.2866C33.3396 64.2737 33.3119 64.267 33.2837 64.267C33.2556 64.267 33.2279 64.2737 33.2029 64.2866L32.0931 64.9261C32.0461 64.9543 32.0423 64.9957 32.0837 65.0202L33.1445 65.6334C33.1703 65.646 33.1986 65.6526 33.2273 65.6526C33.256 65.6526 33.2843 65.646 33.3101 65.6334H33.3157ZM34.9371 64.6929L36.0469 64.0515C36.0939 64.0251 36.0996 63.9838 36.0469 63.9593L34.986 63.3461C34.961 63.3332 34.9333 63.3265 34.9051 63.3265C34.877 63.3265 34.8493 63.3332 34.8243 63.3461L33.7145 63.9856C33.6675 64.0139 33.6637 64.0552 33.7145 64.0797L34.7772 64.6929C34.8008 64.7053 34.8267 64.7125 34.8533 64.7142C34.8799 64.7158 34.9066 64.7117 34.9315 64.7023L34.9371 64.6929ZM29.6422 64.6045L28.5324 65.2459C28.4854 65.2722 28.4816 65.3136 28.523 65.3381L29.5857 65.9513C29.6104 65.9641 29.6379 65.9708 29.6657 65.9708C29.6935 65.9708 29.7209 65.9641 29.7456 65.9513L30.8554 65.3098C30.9024 65.2835 30.9081 65.2421 30.8648 65.2177L29.8039 64.6045C29.7787 64.5924 29.751 64.5862 29.7231 64.5862C29.6951 64.5862 29.6674 64.5924 29.6422 64.6045ZM31.2655 63.664L30.1557 64.3054C30.1087 64.3317 30.103 64.3731 30.1463 64.3976L31.2071 65.0108C31.2322 65.0236 31.2599 65.0304 31.288 65.0304C31.3162 65.0304 31.3439 65.0236 31.3689 65.0108L32.4787 64.3712C32.5257 64.343 32.5295 64.3016 32.4881 64.2772L31.4253 63.664C31.3998 63.6525 31.372 63.6469 31.344 63.6476C31.316 63.6482 31.2886 63.6551 31.2636 63.6678L31.2655 63.664ZM37.7529 59.919L36.6432 60.5585C36.5961 60.5867 36.5924 60.6281 36.6337 60.6526L37.6946 61.2658C37.7199 61.2778 37.7475 61.284 37.7755 61.284C37.8035 61.284 37.8311 61.2778 37.8564 61.2658L38.9662 60.6243C39.0132 60.598 39.0169 60.5548 38.9756 60.5322L37.9184 59.9171C37.8923 59.9041 37.8632 59.8979 37.834 59.8988C37.8048 59.8998 37.7763 59.908 37.751 59.9227L37.7529 59.919ZM36.1315 60.8595L35.0218 61.499C34.9747 61.5272 34.9691 61.5686 35.0123 61.593L36.0732 62.2062C36.0985 62.2183 36.1261 62.2245 36.1541 62.2245C36.1821 62.2245 36.2097 62.2183 36.235 62.2062L37.3448 61.5648C37.3918 61.5385 37.3955 61.4952 37.3542 61.4727L36.2914 60.8595C36.2665 60.8463 36.2387 60.8394 36.2105 60.8394C36.1823 60.8394 36.1546 60.8463 36.1296 60.8595H36.1315ZM39.3743 58.9785L38.2645 59.618C38.2175 59.6462 38.2138 59.6876 38.2551 59.7121L39.3179 60.3253C39.3429 60.337 39.3702 60.3431 39.3978 60.3431C39.4255 60.3431 39.4528 60.337 39.4778 60.3253L40.5875 59.6839C40.6346 59.6575 40.6402 59.6161 40.5875 59.5917L39.5267 58.9785C39.5021 58.968 39.4754 58.9632 39.4487 58.9645C39.422 58.9658 39.3959 58.9732 39.3724 58.986L39.3743 58.9785ZM32.8869 62.7235L31.7771 63.3649C31.7301 63.3913 31.7263 63.4345 31.7677 63.4571L32.8285 64.0703C32.8536 64.0832 32.8813 64.0899 32.9094 64.0899C32.9376 64.0899 32.9653 64.0832 32.9903 64.0703L34.1001 63.4308C34.1471 63.4025 34.1509 63.3612 34.1095 63.3367L33.0486 62.7235C33.0225 62.7123 32.9943 62.7072 32.9659 62.7085C32.9376 62.7098 32.9099 62.7175 32.885 62.731L32.8869 62.7235ZM34.5082 61.783L33.4041 62.4357C33.3571 62.4639 33.3533 62.5053 33.3947 62.5298L34.4575 63.1411C34.4822 63.1536 34.5096 63.1602 34.5374 63.1602C34.5652 63.1602 34.5926 63.1536 34.6173 63.1411L35.7271 62.4997C35.7741 62.4715 35.7798 62.4301 35.7365 62.4056L34.6757 61.7943C34.6494 61.7811 34.6204 61.7742 34.591 61.7742C34.5616 61.7742 34.5326 61.7811 34.5064 61.7943L34.5082 61.783ZM32.4392 67.883L33.549 67.2416C33.596 67.2153 33.5997 67.1739 33.5584 67.1494L32.4956 66.5362C32.4709 66.5234 32.4435 66.5167 32.4157 66.5167C32.3878 66.5167 32.3604 66.5234 32.3357 66.5362L31.226 67.1776C31.177 67.204 31.1733 67.2454 31.2147 67.2698L32.2774 67.883C32.3016 67.8967 32.3287 67.9046 32.3565 67.9059C32.3842 67.9072 32.4119 67.9019 32.4373 67.8905L32.4392 67.883ZM23.8845 67.4786L22.8237 66.8673C22.7984 66.8553 22.7708 66.849 22.7428 66.849C22.7148 66.849 22.6872 66.8553 22.6619 66.8673L21.5521 67.5087C21.5051 67.5369 21.5013 67.5783 21.5521 67.6027L22.6149 68.2159C22.6399 68.2277 22.6672 68.2338 22.6948 68.2338C22.7224 68.2338 22.7497 68.2277 22.7748 68.2159L23.8845 67.5745C23.9203 67.5557 23.9259 67.5143 23.8826 67.4899L23.8845 67.4786ZM25.9987 68.0109L24.9398 67.409C24.9147 67.3961 24.887 67.3894 24.8589 67.3894C24.8307 67.3894 24.803 67.3961 24.778 67.409L23.0719 68.3946C23.0249 68.421 23.0193 68.4624 23.0625 68.4868L24.1234 69.1C24.1484 69.1129 24.1762 69.1196 24.2043 69.1196C24.2324 69.1196 24.2602 69.1129 24.2852 69.1L25.9912 68.1144C26.0345 68.088 26.0401 68.0448 25.9969 68.0222L25.9987 68.0109ZM22.3064 66.2804L21.2436 65.6672C21.219 65.6544 21.1915 65.6477 21.1637 65.6477C21.1359 65.6477 21.1084 65.6544 21.0838 65.6672L19.7182 66.4554C19.6712 66.4836 19.6655 66.525 19.7069 66.5494L20.7696 67.1607C20.7949 67.1728 20.8225 67.179 20.8505 67.179C20.8785 67.179 20.9061 67.1728 20.9314 67.1607L22.297 66.3707C22.3365 66.3463 22.3402 66.3049 22.3064 66.2804ZM23.3541 65.6748C23.3788 65.6876 23.4062 65.6943 23.434 65.6943C23.4619 65.6943 23.4893 65.6876 23.514 65.6748L24.6237 65.0352C24.6708 65.007 24.6764 64.9656 24.6332 64.9412L23.5648 64.3167C23.5395 64.3047 23.5119 64.2984 23.4839 64.2984C23.4559 64.2984 23.4283 64.3047 23.403 64.3167L22.2932 64.9581C22.2462 64.9844 22.2424 65.0277 22.2838 65.0503L23.3541 65.6748ZM27.9493 68.6429L26.8866 68.0297C26.8615 68.018 26.8342 68.0119 26.8066 68.0119C26.779 68.0119 26.7517 68.018 26.7267 68.0297L24.5918 69.2618C24.5447 69.29 24.541 69.3314 24.5824 69.3558L25.6432 69.969C25.6685 69.981 25.6961 69.9873 25.7241 69.9873C25.7521 69.9873 25.7797 69.981 25.805 69.969L27.9399 68.737C27.9794 68.7163 27.9832 68.6749 27.9493 68.6429ZM28.7017 69.9596L27.6389 69.3464C27.6143 69.3335 27.5868 69.3268 27.559 69.3268C27.5312 69.3268 27.5037 69.3335 27.4791 69.3464L26.1003 70.1477C26.0533 70.174 26.0495 70.2154 26.1003 70.2399L27.1631 70.8531C27.1877 70.8659 27.2152 70.8726 27.243 70.8726C27.2708 70.8726 27.2983 70.8659 27.3229 70.8531L28.6904 70.0649C28.728 70.0367 28.7318 69.9935 28.6904 69.9709L28.7017 69.9596ZM35.4168 58.702C35.442 58.714 35.4697 58.7203 35.4976 58.7203C35.5256 58.7203 35.5533 58.714 35.5785 58.702L36.6883 58.0606C36.7353 58.0342 36.7391 57.9929 36.6883 57.9684L35.6237 57.3571C35.599 57.3442 35.5716 57.3375 35.5437 57.3375C35.5159 57.3375 35.4885 57.3442 35.4638 57.3571L34.354 57.9966C34.307 58.0248 34.3013 58.0662 34.3446 58.0907L35.4168 58.702ZM32.1721 60.583C32.1973 60.595 32.225 60.6012 32.253 60.6012C32.2809 60.6012 32.3086 60.595 32.3338 60.583L33.4436 59.9416C33.4906 59.9133 33.4963 59.872 33.4436 59.8475L32.3809 59.2381C32.3556 59.226 32.328 59.2198 32.3 59.2198C32.272 59.2198 32.2444 59.226 32.2191 59.2381L31.1093 59.8795C31.0623 59.9077 31.0585 59.9491 31.0999 59.9735L32.1721 60.583ZM24.9793 64.7361C25.0045 64.7482 25.0321 64.7544 25.0601 64.7544C25.0881 64.7544 25.1157 64.7482 25.141 64.7361L26.2508 64.0947C26.2978 64.0665 26.3016 64.0251 26.2602 64.0007L25.1974 63.3894C25.1728 63.3765 25.1453 63.3698 25.1175 63.3698C25.0897 63.3698 25.0622 63.3765 25.0376 63.3894L23.9278 64.0289C23.8808 64.0571 23.8751 64.0985 23.9165 64.123L24.9793 64.7361ZM33.7803 59.65C33.8056 59.662 33.8332 59.6683 33.8612 59.6683C33.8892 59.6683 33.9168 59.662 33.9421 59.65L35.0518 59.0086C35.0989 58.9823 35.1026 58.939 35.0613 58.9164L34.0023 58.2976C33.9772 58.2847 33.9495 58.278 33.9214 58.278C33.8933 58.278 33.8655 58.2847 33.8405 58.2976L32.7307 58.9371C32.6837 58.9653 32.6799 59.0067 32.7307 59.0312L33.7803 59.65ZM30.5356 61.5216C30.5607 61.5344 30.5884 61.5412 30.6165 61.5412C30.6447 61.5412 30.6724 61.5344 30.6974 61.5216L31.8072 60.882C31.8542 60.8538 31.858 60.8124 31.8166 60.788L30.7576 60.1786C30.7326 60.1668 30.7053 60.1607 30.6777 60.1607C30.65 60.1607 30.6227 60.1668 30.5977 60.1786L29.4879 60.82C29.4409 60.8463 29.4353 60.8896 29.4785 60.9121L30.5356 61.5216ZM29.4823 70.0348C29.457 70.0228 29.4294 70.0166 29.4014 70.0166C29.3734 70.0166 29.3458 70.0228 29.3205 70.0348L27.6145 71.0205C27.5675 71.0487 27.5618 71.0901 27.6051 71.1145L28.666 71.7277C28.6912 71.7397 28.7189 71.746 28.7468 71.746C28.7748 71.746 28.8025 71.7397 28.8277 71.7277L30.5356 70.7421C30.5827 70.7139 30.5864 70.6725 30.5356 70.648L29.4823 70.0348ZM28.2089 62.8665C28.2339 62.8782 28.2612 62.8843 28.2888 62.8843C28.3165 62.8843 28.3437 62.8782 28.3688 62.8665L29.4785 62.2251C29.5256 62.1987 29.5312 62.1573 29.4785 62.1329L28.4177 61.5197C28.3926 61.5068 28.3649 61.5001 28.3368 61.5001C28.3086 61.5001 28.2809 61.5068 28.2559 61.5197L27.1461 62.1592C27.0991 62.1874 27.0953 62.2288 27.1367 62.2533L28.2089 62.8665ZM26.5856 63.8069C26.6109 63.819 26.6385 63.8252 26.6665 63.8252C26.6945 63.8252 26.7221 63.819 26.7474 63.8069L27.8571 63.1655C27.9042 63.1392 27.9079 63.0959 27.8665 63.0734L26.8057 62.4602C26.7807 62.4473 26.7529 62.4406 26.7248 62.4406C26.6967 62.4406 26.6689 62.4473 26.6439 62.4602L25.5341 63.0997C25.4871 63.1279 25.4834 63.1693 25.5247 63.1938L26.5856 63.8069ZM59.5327 52.6904C59.5077 52.6775 59.4799 52.6708 59.4518 52.6708C59.4237 52.6708 59.3959 52.6775 59.3709 52.6904L56.6397 54.2667C56.5927 54.2949 56.589 54.3363 56.6303 54.3607L57.6912 54.9739C57.7165 54.9859 57.7441 54.9922 57.7721 54.9922C57.8001 54.9922 57.8277 54.9859 57.853 54.9739L60.5841 53.3958C60.6312 53.3694 60.6368 53.3281 60.5935 53.3036L59.5327 52.6904ZM55.9476 54.7595C55.9223 54.7474 55.8947 54.7412 55.8667 54.7412C55.8387 54.7412 55.8111 54.7474 55.7858 54.7595L54.676 55.4009C54.629 55.4272 54.6252 55.4705 54.6666 55.4931L55.7275 56.1063C55.7525 56.1191 55.7802 56.1258 55.8084 56.1258C55.8365 56.1258 55.8642 56.1191 55.8892 56.1063L56.999 55.4667C57.046 55.4385 57.0498 55.3971 57.0084 55.3727L55.9476 54.7595ZM34.0587 66.9501L35.1685 66.3105C35.2155 66.2823 35.2193 66.2409 35.1779 66.2165L34.117 65.6033C34.0917 65.5912 34.0641 65.585 34.0361 65.585C34.0081 65.585 33.9805 65.5912 33.9552 65.6033L32.8455 66.2447C32.7984 66.271 32.7947 66.3124 32.8361 66.3369L33.8969 66.9501C33.9219 66.9629 33.9497 66.9696 33.9778 66.9696C34.0059 66.9696 34.0337 66.9629 34.0587 66.9501ZM52.7066 56.6216C52.6814 56.6096 52.6537 56.6034 52.6258 56.6034C52.5978 56.6034 52.5701 56.6096 52.5449 56.6216L51.4351 57.2631C51.3881 57.2894 51.3843 57.3308 51.4257 57.3552L52.4884 57.9684C52.5131 57.9813 52.5406 57.988 52.5684 57.988C52.5962 57.988 52.6236 57.9813 52.6483 57.9684L53.7581 57.327C53.807 57.3007 53.8108 57.2593 53.7694 57.2348L52.7066 56.6216ZM61.1578 51.7424C61.1332 51.7295 61.1057 51.7228 61.0779 51.7228C61.0501 51.7228 61.0226 51.7295 60.998 51.7424L59.8882 52.3819C59.8412 52.4101 59.8355 52.4515 59.8788 52.476L60.9396 53.0892C60.9649 53.1012 60.9925 53.1075 61.0205 53.1075C61.0485 53.1075 61.0761 53.1012 61.1014 53.0892L62.2112 52.4478C62.2582 52.4214 62.262 52.3801 62.2206 52.3556L61.1578 51.7424ZM63.842 51.4189L61.2632 49.9291C61.2382 49.9174 61.2109 49.9113 61.1832 49.9113C61.1556 49.9113 61.1283 49.9174 61.1033 49.9291L59.9935 50.5706C59.9446 50.5988 59.9408 50.6402 59.9822 50.6627L62.5592 52.1656C62.5842 52.1785 62.6119 52.1852 62.64 52.1852C62.6682 52.1852 62.6959 52.1785 62.7209 52.1656L63.8307 51.5242C63.8758 51.4922 63.8758 51.4509 63.842 51.4264V51.4189ZM46.6462 60.1278C46.6209 60.1157 46.5933 60.1095 46.5653 60.1095C46.5373 60.1095 46.5097 60.1157 46.4844 60.1278L45.1188 60.9178C45.0718 60.9441 45.0661 60.9855 45.1094 61.0099L46.1703 61.6231C46.1953 61.636 46.223 61.6427 46.2511 61.6427C46.2793 61.6427 46.307 61.636 46.332 61.6231L47.6976 60.835C47.7446 60.8068 47.7484 60.7654 47.707 60.741L46.6462 60.1278ZM50.7429 57.7634C50.7182 57.7505 50.6908 57.7438 50.663 57.7438C50.6351 57.7438 50.6077 57.7505 50.583 57.7634L48.8751 58.749C48.8281 58.7754 48.8243 58.8167 48.8657 58.8412L49.9266 59.4544C49.9516 59.4673 49.9793 59.474 50.0074 59.474C50.0356 59.474 50.0633 59.4673 50.0883 59.4544L51.7962 58.4688C51.8433 58.4424 51.847 58.401 51.8057 58.3766L50.7429 57.7634ZM42.8899 62.2965C42.8646 62.2845 42.837 62.2783 42.809 62.2783C42.781 62.2783 42.7534 62.2845 42.7281 62.2965L33.5941 67.5632C33.5471 67.5915 33.5414 67.6328 33.5941 67.6573L34.655 68.2705C34.6802 68.2825 34.7079 68.2888 34.7358 68.2888C34.7638 68.2888 34.7915 68.2825 34.8167 68.2705L43.9376 63C43.9846 62.9718 43.9883 62.9304 43.9376 62.906L42.8899 62.2965ZM33.2424 67.8661C33.2171 67.854 33.1895 67.8478 33.1615 67.8478C33.1335 67.8478 33.1059 67.854 33.0806 67.8661L31.7112 68.6617C31.6642 68.6881 31.6605 68.7294 31.7018 68.7539L32.7646 69.3671C32.7893 69.38 32.8167 69.3867 32.8445 69.3867C32.8724 69.3867 32.8998 69.38 32.9245 69.3671L34.2919 68.579C34.339 68.5508 34.3427 68.5094 34.2919 68.4849L33.2424 67.8661ZM44.7671 61.2131C44.7424 61.2002 44.715 61.1935 44.6871 61.1935C44.6593 61.1935 44.6319 61.2002 44.6072 61.2131L43.2397 62.0012C43.1927 62.0294 43.1889 62.0708 43.2397 62.0953L44.3025 62.7066C44.3272 62.7191 44.3546 62.7257 44.3824 62.7257C44.4102 62.7257 44.4376 62.7191 44.4623 62.7066L45.8298 61.9166C45.8768 61.8902 45.8806 61.8489 45.8392 61.8244L44.7671 61.2131ZM31.3651 68.9514C31.3401 68.9385 31.3124 68.9318 31.2843 68.9318C31.2561 68.9318 31.2284 68.9385 31.2034 68.9514L29.8303 69.7452C29.7832 69.7734 29.7776 69.8148 29.8303 69.8392L30.8911 70.4505C30.9164 70.4626 30.944 70.4688 30.972 70.4688C31 70.4688 31.0276 70.4626 31.0529 70.4505L32.4185 69.6605C32.4655 69.6342 32.4693 69.5928 32.4279 69.5684L31.3651 68.9514ZM48.5234 59.05C48.4983 59.0371 48.4706 59.0304 48.4425 59.0304C48.4143 59.0304 48.3866 59.0371 48.3616 59.05L46.996 59.8381C46.949 59.8663 46.9452 59.9077 46.9866 59.9321L48.0494 60.5453C48.0744 60.5571 48.1017 60.5632 48.1293 60.5632C48.1569 60.5632 48.1842 60.5571 48.2092 60.5453L49.5767 59.7553C49.6237 59.729 49.6275 59.6876 49.5767 59.6632L48.5234 59.05ZM54.328 55.6981C54.303 55.6863 54.2757 55.6803 54.2481 55.6803C54.2205 55.6803 54.1932 55.6863 54.1682 55.6981L53.0584 56.3395C53.0114 56.3658 53.0057 56.4072 53.049 56.4317L54.1098 57.0449C54.1349 57.0577 54.1626 57.0644 54.1907 57.0644C54.2189 57.0644 54.2466 57.0577 54.2716 57.0449L55.3814 56.4053C55.4284 56.3771 55.4322 56.3357 55.3908 56.3113L54.328 55.6981ZM57.9621 53.1625L59.0718 52.523C59.1189 52.4948 59.1226 52.4534 59.0812 52.429L58.0204 51.8158C57.9951 51.8037 57.9675 51.7975 57.9395 51.7975C57.9115 51.7975 57.8839 51.8037 57.8586 51.8158L56.7488 52.4572C56.7018 52.4835 56.6981 52.5249 56.7394 52.5493L57.8003 53.1625C57.8258 53.1745 57.8537 53.1803 57.8819 53.1793C57.91 53.1783 57.9375 53.1706 57.9621 53.1569V53.1625ZM51.3429 53.4823L52.4527 52.8409C52.4997 52.8146 52.5035 52.7713 52.4621 52.7468L51.4012 52.1355C51.3762 52.1227 51.3485 52.1159 51.3204 52.1159C51.2922 52.1159 51.2645 52.1227 51.2395 52.1355L50.1297 52.7751C50.0827 52.8033 50.0789 52.8447 50.1203 52.8691L51.1812 53.4823C51.2069 53.4935 51.2347 53.4987 51.2627 53.4978C51.2907 53.4968 51.3181 53.4896 51.3429 53.4767V53.4823ZM47.0355 59.4713L50.2783 57.5997C50.3253 57.5715 50.331 57.5302 50.2877 57.5057L49.2268 56.8925C49.2016 56.8805 49.1739 56.8742 49.146 56.8742C49.118 56.8742 49.0903 56.8805 49.0651 56.8925L45.8204 58.7735C45.7734 58.7998 45.7696 58.8412 45.8204 58.8656L46.8832 59.4788C46.9079 59.4882 46.9345 59.4919 46.9608 59.4896C46.9872 59.4873 47.0127 59.4791 47.0355 59.4657V59.4713ZM56.1789 54.1049C56.2039 54.1178 56.2317 54.1245 56.2598 54.1245C56.2879 54.1245 56.3157 54.1178 56.3407 54.1049L57.4504 53.4635C57.4975 53.4372 57.5012 53.3958 57.4599 53.3713L56.3971 52.7581C56.3721 52.7464 56.3448 52.7403 56.3172 52.7403C56.2895 52.7403 56.2622 52.7464 56.2372 52.7581L55.1274 53.3995C55.0785 53.4259 55.0748 53.4673 55.1162 53.4917L56.1789 54.1049ZM54.8227 53.219L55.9325 52.5776C55.9795 52.5493 55.9852 52.508 55.9419 52.4835L54.881 51.8722C54.8558 51.8602 54.8281 51.8539 54.8002 51.8539C54.7722 51.8539 54.7445 51.8602 54.7193 51.8722L53.6095 52.5136C53.5625 52.5418 53.5587 52.5832 53.6001 52.6076L54.6591 53.219C54.6843 53.2322 54.7124 53.239 54.7409 53.239C54.7694 53.239 54.7975 53.2322 54.8227 53.219ZM45.4179 60.4024L46.5277 59.761C46.5747 59.7346 46.5803 59.6933 46.5277 59.6688L45.4705 59.05C45.4453 59.0379 45.4176 59.0317 45.3897 59.0317C45.3617 59.0317 45.334 59.0379 45.3088 59.05L44.199 59.6914C44.152 59.7177 44.1482 59.7591 44.199 59.7836L45.2618 60.3967C45.2848 60.409 45.3103 60.4158 45.3363 60.4168C45.3624 60.4178 45.3883 60.4128 45.4122 60.4024H45.4179ZM52.59 56.1702C52.615 56.182 52.6423 56.188 52.67 56.188C52.6976 56.188 52.7249 56.182 52.7499 56.1702L53.8597 55.5288C53.9086 55.5025 53.9123 55.4592 53.871 55.4366L52.8082 54.8234C52.7832 54.8106 52.7555 54.8038 52.7273 54.8038C52.6992 54.8038 52.6715 54.8106 52.6464 54.8234L51.5367 55.463C51.4896 55.4912 51.4859 55.5326 51.5273 55.557L52.59 56.1702ZM37.2996 65.0841L38.4094 64.4446C38.4564 64.4164 38.4602 64.375 38.4188 64.3505L37.3542 63.7374C37.3291 63.7256 37.3018 63.7195 37.2742 63.7195C37.2466 63.7195 37.2193 63.7256 37.1943 63.7374L36.0845 64.3788C36.0356 64.407 36.0318 64.4484 36.0732 64.4709L37.136 65.0841C37.1617 65.098 37.1905 65.1052 37.2197 65.1052C37.2489 65.1052 37.2776 65.098 37.3034 65.0841H37.2996ZM38.921 64.1436L40.0308 63.5022C40.0778 63.474 40.0816 63.4326 40.0402 63.4082L38.9831 62.8119C38.9581 62.799 38.9303 62.7923 38.9022 62.7923C38.8741 62.7923 38.8463 62.799 38.8213 62.8119L37.7115 63.4514C37.6645 63.4797 37.6608 63.521 37.7021 63.5455L38.763 64.1587C38.789 64.1693 38.817 64.1739 38.8449 64.1723C38.8729 64.1707 38.9002 64.1628 38.9248 64.1493L38.921 64.1436ZM35.6763 66.0152L36.7861 65.3757C36.8331 65.3475 36.8388 65.3061 36.7955 65.2816L35.7346 64.6684C35.7094 64.6564 35.6817 64.6502 35.6538 64.6502C35.6258 64.6502 35.5981 64.6564 35.5729 64.6684L34.4631 65.3098C34.4161 65.3362 34.4123 65.3794 34.4537 65.402L35.5164 66.0152C35.5411 66.0296 35.569 66.0376 35.5976 66.0386C35.6261 66.0396 35.6545 66.0335 35.6801 66.0208L35.6763 66.0152ZM42.1657 62.2702L43.2755 61.6288C43.3225 61.6024 43.3262 61.5611 43.2849 61.5366L42.2259 60.9309C42.2009 60.9181 42.1731 60.9114 42.145 60.9114C42.1169 60.9114 42.0891 60.9181 42.0641 60.9309L40.9543 61.5705C40.9073 61.5987 40.9035 61.6401 40.9543 61.6645L42.0171 62.2777C42.0412 62.2881 42.0672 62.2932 42.0935 62.2929C42.1197 62.2926 42.1456 62.2868 42.1694 62.2758L42.1657 62.2702ZM40.5424 63.2107L41.6522 62.5693C41.6992 62.5429 41.7048 62.4997 41.6522 62.4771L40.6045 61.8714C40.5795 61.8586 40.5517 61.8518 40.5236 61.8518C40.4955 61.8518 40.4677 61.8586 40.4427 61.8714L39.3329 62.511C39.2859 62.5392 39.2822 62.5806 39.3235 62.605L40.3863 63.2182C40.4125 63.23 40.441 63.2356 40.4697 63.2346C40.4984 63.2336 40.5265 63.2261 40.5518 63.2126L40.5424 63.2107ZM43.7871 61.3297L44.8968 60.6883C44.9439 60.662 44.9476 60.6206 44.8968 60.5961L43.8491 59.9905C43.8241 59.9776 43.7964 59.9709 43.7683 59.9709C43.7401 59.9709 43.7124 59.9776 43.6874 59.9905L42.5776 60.6319C42.5306 60.6582 42.5249 60.6996 42.5682 60.724L43.6291 61.3372C43.6542 61.3496 43.6818 61.3561 43.7097 61.3565C43.7377 61.3568 43.7654 61.3509 43.7908 61.3391L43.7871 61.3297ZM52.6389 48.3021C52.6636 48.315 52.691 48.3217 52.7189 48.3217C52.7467 48.3217 52.7741 48.315 52.7988 48.3021L53.9086 47.6607C53.9556 47.6344 53.9612 47.593 53.918 47.5685L53.6358 47.4049C53.6106 47.3929 53.5829 47.3866 53.555 47.3866C53.527 47.3866 53.4993 47.3929 53.4741 47.4049L52.3643 48.0463C52.3173 48.0726 52.3135 48.114 52.3549 48.1385L52.6389 48.3021ZM44.5771 53.4071C44.6021 53.4188 44.6294 53.4249 44.657 53.4249C44.6847 53.4249 44.712 53.4188 44.737 53.4071L45.8467 52.7656C45.8938 52.7393 45.8994 52.6961 45.8561 52.6735L44.7953 52.0603C44.7703 52.0474 44.7425 52.0407 44.7144 52.0407C44.6863 52.0407 44.6585 52.0474 44.6335 52.0603L43.5237 52.6998C43.4767 52.728 43.473 52.7694 43.5237 52.7939L44.5771 53.4071ZM47.8199 51.5261C47.8451 51.5381 47.8728 51.5444 47.9008 51.5444C47.9287 51.5444 47.9564 51.5381 47.9816 51.5261L49.0914 50.8847C49.1384 50.8583 49.1422 50.817 49.1008 50.7925L48.0399 50.1793C48.0149 50.1664 47.9872 50.1597 47.9591 50.1597C47.9309 50.1597 47.9032 50.1664 47.8782 50.1793L46.7684 50.8207C46.7214 50.8471 46.7176 50.8884 46.759 50.9129L47.8199 51.5261ZM42.5964 54.5356C42.6214 54.5474 42.6487 54.5535 42.6764 54.5535C42.704 54.5535 42.7313 54.5474 42.7563 54.5356L43.8661 53.8942C43.9131 53.8679 43.9187 53.8246 43.8755 53.8021L42.8146 53.1889C42.7896 53.176 42.7619 53.1693 42.7337 53.1693C42.7056 53.1693 42.6779 53.176 42.6528 53.1889L41.5431 53.8284C41.4961 53.8566 41.4923 53.898 41.5431 53.9224L42.5964 54.5356ZM46.1947 52.4797C46.22 52.4918 46.2476 52.498 46.2756 52.498C46.3036 52.498 46.3312 52.4918 46.3565 52.4797L47.4663 51.8383C47.5133 51.812 47.517 51.7706 47.4757 51.7462L46.4129 51.133C46.3882 51.1201 46.3608 51.1134 46.333 51.1134C46.3051 51.1134 46.2777 51.1201 46.253 51.133L45.1433 51.7725C45.0944 51.8007 45.0906 51.8421 45.132 51.8665L46.1947 52.4797ZM39.348 56.4298C39.373 56.4427 39.4007 56.4494 39.4289 56.4494C39.457 56.4494 39.4847 56.4427 39.5098 56.4298L40.6195 55.7903C40.6665 55.762 40.6703 55.7207 40.6195 55.6962L39.5568 55.083C39.5318 55.0713 39.5045 55.0652 39.4768 55.0652C39.4492 55.0652 39.4219 55.0713 39.3969 55.083L38.2871 55.7244C38.2382 55.7526 38.2345 55.794 38.2777 55.8166L39.348 56.4298ZM40.9694 55.4893C40.9946 55.5013 41.0223 55.5076 41.0503 55.5076C41.0782 55.5076 41.1059 55.5013 41.1311 55.4893L42.2409 54.8479C42.2879 54.8197 42.2917 54.7783 42.2409 54.7538L41.18 54.1425C41.1548 54.1305 41.1272 54.1242 41.0992 54.1242C41.0712 54.1242 41.0436 54.1305 41.0183 54.1425L39.9085 54.7839C39.8615 54.8121 39.8577 54.8535 39.9085 54.878L40.9694 55.4893ZM49.3924 50.185C49.4176 50.197 49.4453 50.2032 49.4732 50.2032C49.5012 50.2032 49.5289 50.197 49.5541 50.185L50.6639 49.5435C50.7109 49.5172 50.7147 49.4758 50.6639 49.4514L50.3818 49.2877C50.3567 49.2749 50.329 49.2682 50.3009 49.2682C50.2727 49.2682 50.245 49.2749 50.22 49.2877L49.1102 49.9291C49.0632 49.9555 49.0576 49.9969 49.1008 50.0213L49.3924 50.185ZM54.2584 47.3748C54.2835 47.3877 54.3112 47.3944 54.3393 47.3944C54.3675 47.3944 54.3952 47.3877 54.4202 47.3748L55.53 46.7353C55.577 46.707 55.5808 46.6657 55.53 46.6412L55.2478 46.4776C55.2226 46.4655 55.1949 46.4593 55.167 46.4593C55.139 46.4593 55.1113 46.4655 55.0861 46.4776L53.9763 47.119C53.9293 47.1453 53.9236 47.1886 53.9669 47.2111L54.2584 47.3748ZM56.4893 48.6633C56.5143 48.675 56.5416 48.6811 56.5692 48.6811C56.5968 48.6811 56.6241 48.675 56.6492 48.6633L57.7589 48.0218C57.8078 47.9955 57.8116 47.9541 57.7702 47.9297L56.7075 47.3165C56.6824 47.3036 56.6547 47.2969 56.6266 47.2969C56.5984 47.2969 56.5707 47.3036 56.5457 47.3165L55.4359 47.956C55.3889 47.9842 55.3851 48.0256 55.4265 48.0501L56.4893 48.6633ZM59.5778 52.2202L60.6876 51.5806C60.7346 51.5524 60.7403 51.511 60.697 51.4866L59.6361 50.8734C59.6109 50.8614 59.5832 50.8551 59.5553 50.8551C59.5273 50.8551 59.4996 50.8614 59.4744 50.8734L58.3646 51.5148C58.3176 51.5411 58.3138 51.5844 58.3552 51.607L59.4179 52.2202C59.4433 52.234 59.4718 52.2412 59.5007 52.2412C59.5296 52.2412 59.5581 52.234 59.5835 52.2202H59.5778ZM51.0138 49.2482C51.039 49.2603 51.0667 49.2665 51.0946 49.2665C51.1226 49.2665 51.1503 49.2603 51.1755 49.2482L52.2853 48.6068C52.3323 48.5805 52.3361 48.5391 52.2853 48.5147L52.0032 48.351C51.9781 48.3381 51.9504 48.3314 51.9223 48.3314C51.8941 48.3314 51.8664 48.3381 51.8414 48.351L50.7316 48.9924C50.6846 49.0188 50.6808 49.0601 50.7222 49.0846L51.0138 49.2482ZM37.7304 57.3684C37.755 57.3812 37.7825 57.388 37.8103 57.388C37.8381 57.388 37.8655 57.3812 37.8902 57.3684L39 56.7289C39.047 56.7006 39.0527 56.6593 39 56.6348L37.9391 56.0216C37.9139 56.0096 37.8862 56.0033 37.8583 56.0033C37.8303 56.0033 37.8026 56.0096 37.7774 56.0216L36.6676 56.663C36.6206 56.6894 36.6168 56.7307 36.6676 56.7552L37.7304 57.3684Z" fill="#263238"/>
<path opacity="0.4" d="M42.5343 65.735L42.7619 65.8648L48.8055 69.3539L59.5534 63.1486L59.7772 63.0207L53.506 59.4017L42.5343 65.735Z" fill="black"/>
<path d="M42.7619 65.8647L48.8055 69.3539L59.5534 63.1486L53.506 59.6594L42.7619 65.8647Z" fill="#012A4A"/>
<path opacity="0.45" d="M42.7619 65.8647L48.8055 69.3539L59.5534 63.1486L53.506 59.6594L42.7619 65.8647Z" fill="black"/>
<path d="M11.5397 64.6026C11.6363 64.6585 11.7393 64.7027 11.8463 64.7343C11.7394 64.7039 11.6365 64.661 11.5397 64.6064C11.5072 64.5874 11.4758 64.5667 11.4457 64.5443C11.4759 64.5655 11.5073 64.5849 11.5397 64.6026Z" fill="#012A4A"/>
<path d="M13.2777 64.6929C13.2777 64.6929 13.2777 64.6929 13.2947 64.6778L13.2815 64.6891L13.2777 64.6929Z" fill="#012A4A"/>
<path d="M82.6103 0.0928408L58.722 13.886C58.6092 13.9591 58.5152 14.0579 58.4479 14.1743C58.3805 14.2907 58.3417 14.4213 58.3345 14.5556V41.303C58.342 41.4369 58.3813 41.5671 58.449 41.6829C58.5166 41.7987 58.6109 41.8967 58.7239 41.9689L59.4293 42.3677C59.55 42.4275 59.6829 42.4586 59.8177 42.4586C59.9524 42.4586 60.0854 42.4275 60.2061 42.3677L84.0944 28.5745C84.2068 28.501 84.3003 28.4021 84.3673 28.2858C84.4343 28.1694 84.4729 28.0389 84.48 27.9049V1.15371C84.4729 1.01994 84.434 0.8898 84.3666 0.774021C84.2993 0.658242 84.2053 0.56015 84.0925 0.487845L83.3853 0.0890791C83.2646 0.0298433 83.1318 -0.000642402 82.9974 1.02627e-05C82.8629 0.000662927 82.7305 0.032436 82.6103 0.0928408Z" fill="#FAFAFA"/>
<path d="M59.8186 42.1401V15.3927C59.826 15.2584 59.8649 15.1278 59.9322 15.0115C59.9995 14.8951 60.0934 14.7963 60.2061 14.723L84.0944 0.927998C84.307 0.805735 84.48 0.905427 84.48 1.15183V27.9011C84.4729 28.0352 84.4343 28.1657 84.3673 28.282C84.3003 28.3984 84.2068 28.4973 84.0944 28.5707L60.2061 42.3639C59.9917 42.4862 59.8186 42.3865 59.8186 42.1401Z" fill="#37474F"/>
<path d="M60.2061 42.3639C60.085 42.4224 59.9522 42.4527 59.8177 42.4527C59.6832 42.4527 59.5504 42.4224 59.4293 42.3639L58.7239 41.9632C58.6106 41.8918 58.5161 41.7942 58.4484 41.6787C58.3806 41.5631 58.3416 41.433 58.3345 41.2993V14.5556C58.3401 14.4153 58.3829 14.2789 58.4587 14.1606L59.9334 15.0127C59.8631 15.126 59.8235 15.2557 59.8186 15.3889V42.14C59.8186 42.3658 59.9785 42.4974 60.2061 42.3639Z" fill="#263238"/>
<path d="M84.4763 1.08412C84.4462 0.896022 84.2882 0.818902 84.1001 0.92988L60.2117 14.723C60.0973 14.7944 60.0034 14.8942 59.939 15.0127L58.4624 14.1606C58.5258 14.0478 58.6171 13.9532 58.7277 13.886L82.616 0.0928476C82.7361 0.0320277 82.8688 0.000335693 83.0035 0.000335693C83.1381 0.000335693 83.2708 0.0320277 83.3909 0.0928476L84.0963 0.491614C84.198 0.557882 84.2844 0.64496 84.3499 0.747096C84.4154 0.849232 84.4584 0.964102 84.4763 1.08412Z" fill="#455A64"/>
<path d="M55.4247 30.5495C55.182 30.4047 54.0553 29.7633 53.997 29.7294C53.9515 29.7018 53.9127 29.6643 53.8834 29.6198C53.8541 29.5754 53.8351 29.5249 53.8277 29.4722C53.8204 29.4194 53.8248 29.3657 53.8407 29.3149C53.8567 29.264 53.8837 29.2174 53.9199 29.1783L58.3684 24.4063L59.8186 25.2395L55.372 30.0116C55.337 30.0489 55.3103 30.0932 55.2938 30.1417C55.2773 30.1901 55.2714 30.2416 55.2764 30.2925C55.2814 30.3434 55.2972 30.3927 55.3228 30.437C55.3483 30.4814 55.3831 30.5197 55.4247 30.5495Z" fill="#FAFAFA"/>
<path d="M55.4247 30.5495C55.182 30.4047 54.0553 29.7633 53.997 29.7294C53.9515 29.7018 53.9127 29.6643 53.8834 29.6198C53.8541 29.5754 53.8351 29.5249 53.8277 29.4722C53.8204 29.4194 53.8248 29.3657 53.8407 29.3149C53.8567 29.264 53.8837 29.2174 53.9199 29.1783L58.3684 24.4063L59.8186 25.2395L55.372 30.0116C55.337 30.0489 55.3103 30.0932 55.2938 30.1417C55.2773 30.1901 55.2714 30.2416 55.2764 30.2925C55.2814 30.3434 55.2972 30.3927 55.3228 30.437C55.3483 30.4814 55.3831 30.5197 55.4247 30.5495Z" fill="#455A64"/>
<path d="M59.8186 25.2395L55.372 30.0116C55.3229 30.0642 55.2908 30.1305 55.28 30.2018C55.2692 30.273 55.2802 30.3458 55.3115 30.4107C55.3428 30.4756 55.393 30.5295 55.4555 30.5653C55.518 30.6012 55.5898 30.6173 55.6617 30.6116L59.8186 30.2692V25.2395Z" fill="#FAFAFA"/>
<path d="M59.8186 25.2395L55.372 30.0116C55.3229 30.0642 55.2908 30.1305 55.28 30.2018C55.2692 30.273 55.2802 30.3458 55.3115 30.4107C55.3428 30.4756 55.393 30.5295 55.4555 30.5653C55.518 30.6012 55.5898 30.6173 55.6617 30.6116L59.8186 30.2692V25.2395Z" fill="#37474F"/>
<path d="M73.4463 23.0764C73.1058 22.8714 72.6299 22.8883 72.1033 23.2006C71.0612 23.8025 70.2223 25.2696 70.2223 26.4697C70.2223 27.0678 70.4311 27.4873 70.7697 27.6867C70.9916 27.8165 71.838 28.3018 72.0562 28.4391C72.3986 28.6403 72.8707 28.614 73.3955 28.3112C74.4375 27.7093 75.2765 26.2421 75.2765 25.042C75.2765 24.4476 75.0677 24.0263 74.731 23.8288C74.509 23.6877 73.6569 23.2043 73.4463 23.0764Z" fill="#EBEBEB"/>
<path d="M74.067 27.7638L70.3445 25.6139C70.2635 25.8921 70.2204 26.18 70.2166 26.4697C70.2166 27.0678 70.4254 27.4873 70.764 27.6867C70.9859 27.8165 71.8324 28.3018 72.0506 28.4391C72.3929 28.6403 72.865 28.614 73.3898 28.3112C73.6393 28.1603 73.8671 27.9761 74.067 27.7638Z" fill="#E0E0E0"/>
<path d="M73.388 23.9435C72.3459 24.5455 71.507 26.0126 71.507 27.2127C71.507 28.4127 72.3534 28.9055 73.388 28.3018C74.4225 27.698 75.2689 26.2327 75.2689 25.0326C75.2689 23.8326 74.43 23.3416 73.388 23.9435Z" fill="#FAFAFA"/>
<path d="M73.388 24.7147C73.0333 24.9465 72.7381 25.2584 72.5264 25.6254C72.3146 25.9924 72.1922 26.404 72.1691 26.8271C72.1691 27.6039 72.7164 27.9199 73.3898 27.5306C73.7445 27.2988 74.0397 26.9869 74.2514 26.6199C74.4632 26.2529 74.5856 25.8413 74.6087 25.4182C74.6068 24.6414 74.0613 24.3273 73.388 24.7147Z" fill="#37474F"/>
<path d="M81.557 21.3892C81.557 21.5641 81.557 21.7146 81.5476 21.8914L79.4165 23.1235L78.1336 22.3824C78.1336 22.2394 78.1336 22.0306 78.1336 21.8895C78.1336 20.4337 77.7875 19.2693 77.1931 18.4474L78.9236 15.9758L80.2083 16.7169C81.0623 17.806 81.557 19.3878 81.557 21.3892Z" fill="#012A4A"/>
<path d="M81.557 21.3892C81.557 21.566 81.557 21.7146 81.5476 21.8914L79.4165 23.1234C79.4165 22.9805 79.4259 22.7736 79.4259 22.6306C79.4259 21.1766 79.0798 20.0104 78.4854 19.1903L80.2065 16.7281C81.0623 17.8059 81.557 19.3897 81.557 21.3892Z" fill="#012A4A"/>
<path opacity="0.1" d="M78.4797 19.1885L77.195 18.4474L78.9218 15.9758L80.2065 16.7188L78.4797 19.1885Z" fill="black"/>
<path opacity="0.2" d="M79.424 22.6288C79.424 22.7717 79.424 22.9786 79.424 23.1216L78.1412 22.3805C78.1412 22.2375 78.1412 22.0287 78.1412 21.8877C78.1412 20.4318 77.7951 19.2675 77.2007 18.4455L78.4854 19.1979C79.0798 20.0086 79.424 21.1748 79.424 22.6288Z" fill="black"/>
<path d="M79.8227 16.1112L78.1035 18.5715L76.8188 17.8191L76.7474 17.7552C76.1974 17.5977 75.6201 17.5605 75.0545 17.6461L73.7641 16.9162L74.4093 14.1682C75.6451 13.9801 76.753 14.1682 77.6653 14.6929L78.9218 15.4152C78.9782 15.4472 79.0346 15.4811 79.0892 15.5168L79.2001 15.5902C79.2378 15.6146 79.2754 15.6391 79.3111 15.6673C79.3469 15.6955 79.3638 15.7049 79.3882 15.7256C79.4887 15.8037 79.5847 15.8872 79.676 15.9758C79.7325 16.0209 79.7776 16.0642 79.8227 16.1112Z" fill="#012A4A"/>
<path opacity="0.2" d="M78.1036 18.5715L76.8188 17.8191L76.7493 17.757C77.261 17.9125 77.7263 18.1923 78.1036 18.5715Z" fill="black"/>
<path opacity="0.2" d="M79.8246 16.1112L78.1035 18.5715C77.3361 17.8191 76.279 17.4843 75.0488 17.6555L75.6827 14.9111C77.3512 14.6591 78.7901 15.0823 79.8246 16.1112Z" fill="white"/>
<path opacity="0.1" d="M74.398 14.1682L75.6827 14.9111L75.0488 17.6555L73.7641 16.9144L74.398 14.1682Z" fill="black"/>
<path opacity="0.5" d="M77.6559 14.6929L78.9124 15.4152C78.0057 14.8999 76.9073 14.7193 75.6827 14.9093L74.4093 14.1682C75.6357 13.9763 76.7436 14.1644 77.6559 14.6929Z" fill="white"/>
<path d="M75.0639 15.0353L74.43 17.7758C73.8035 17.9458 73.2025 18.1989 72.6431 18.5282C72.001 18.9047 71.399 19.3459 70.8468 19.8449L69.5639 19.0925L68.9413 17.0629C69.6781 16.3919 70.4831 15.7999 71.3433 15.2967C72.1044 14.8466 72.9241 14.5042 73.7792 14.2791L75.0639 15.0353Z" fill="#012A4A"/>
<path opacity="0.05" d="M68.9413 17.0799L70.226 17.8228L70.8468 19.8524L69.5639 19.1113L68.9413 17.0799Z" fill="black"/>
<path opacity="0.6" d="M75.0639 15.0353C74.2054 15.258 73.3823 15.5999 72.6186 16.051C71.7593 16.5555 70.9543 17.1473 70.2166 17.8172L68.9319 17.0761C69.6687 16.4051 70.4737 15.8131 71.3339 15.3099C72.095 14.8598 72.9147 14.5174 73.7698 14.2923L75.0639 15.0353Z" fill="white"/>
<path opacity="0.4" d="M75.0639 15.0353L74.4319 17.7759C73.8052 17.9453 73.2041 18.1984 72.645 18.5282C72.0026 18.9043 71.4006 19.3455 70.8487 19.8449L70.2261 17.8154C70.9628 17.1443 71.7679 16.5523 72.6281 16.0491C73.3889 15.5996 74.2088 15.2583 75.0639 15.0353Z" fill="white"/>
<path d="M70.243 20.428C69.0738 21.6305 68.1008 23.0091 67.3594 24.5135L65.6816 23.9059L64.3969 23.1629C65.4035 21.1257 66.733 19.2646 68.3338 17.6517L69.6185 18.4041L70.243 20.428Z" fill="#012A4A"/>
<path opacity="0.7" d="M69.6185 18.3947C68.0168 20.0068 66.6873 21.8681 65.6816 23.9059L64.3969 23.1629C65.4035 21.1257 66.733 19.2646 68.3338 17.6517L69.6185 18.3947Z" fill="white"/>
<path opacity="0.6" d="M70.243 20.428C69.0738 21.6312 68.1008 23.0104 67.3594 24.5154L65.6816 23.9059C66.6873 21.8681 68.0169 20.0068 69.6185 18.3947L70.243 20.428Z" fill="white"/>
<path d="M66.972 25.3467C66.2967 26.9286 65.8942 28.4842 65.8697 30.0228L63.7047 31.2737L62.42 30.5213C62.4614 28.4108 63.0407 26.1424 64.0038 23.9868L65.6967 24.5962L66.972 25.3467Z" fill="#012A4A"/>
<path opacity="0.6" d="M65.2885 24.7373L64.0038 23.9962L65.6891 24.6057L66.9738 25.3468L65.2885 24.7373Z" fill="white"/>
<path opacity="0.9" d="M65.2885 24.7373C64.3236 26.8948 63.7461 29.1613 63.7047 31.2737L62.42 30.5213C62.4614 28.4108 63.0407 26.1424 64.0038 23.9868L65.2885 24.7373Z" fill="white"/>
<path opacity="0.75" d="M66.9738 25.3468C66.2967 26.9268 65.8942 28.4842 65.8678 30.0228L63.7047 31.2718C63.7461 29.1614 64.3236 26.8929 65.2885 24.7354L66.9738 25.3468Z" fill="white"/>
<path d="M80.5469 20.3829L80.2065 20.191L70.9352 27.3857L70.9634 28.7626L71.3038 28.9545L80.5469 20.3829Z" fill="#E0E0E0"/>
<path d="M71.3038 28.9544L71.2775 27.5776L80.5469 20.3828L71.3038 28.9544Z" fill="#EBEBEB"/>
<path d="M70.9352 27.3857L71.2775 27.5776L80.5469 20.3829L80.2065 20.191L70.9352 27.3857Z" fill="white"/>
</svg>
