<svg width="103" height="77" viewBox="0 0 103 77" fill="none" xmlns="http://www.w3.org/2000/svg">
<path d="M102.738 67.2729H0V67.3243H102.738V67.2729Z" fill="#EBEBEB"/>
<path d="M92.4437 70.579H85.6383V70.6303H92.4437V70.579Z" fill="#EBEBEB"/>
<path d="M77.0391 69.8845H65.1256V69.9358H77.0391V69.8845Z" fill="#EBEBEB"/>
<path d="M85.4329 68.6721H74.3145V68.7235H85.4329V68.6721Z" fill="#EBEBEB"/>
<path d="M13.8429 69.0174H10.7793V69.0687H13.8429V69.0174Z" fill="#EBEBEB"/>
<path d="M28.9043 69.0174H15.6717V69.0687H28.9043V69.0174Z" fill="#EBEBEB"/>
<path d="M46.2629 69.8845H37.3966V69.9358H46.2629V69.8845Z" fill="#EBEBEB"/>
<path d="M48.6978 58.1086H9.02244C8.71163 58.1081 8.41373 57.9842 8.19414 57.7643C7.97456 57.5443 7.85123 57.2462 7.85123 56.9354V1.16299C7.85393 0.853964 7.97846 0.55848 8.19775 0.340724C8.41704 0.122969 8.7134 0.000529386 9.02244 0H48.6978C49.009 0 49.3074 0.123612 49.5274 0.343642C49.7475 0.563673 49.8711 0.862098 49.8711 1.17327V56.9354C49.8711 57.2465 49.7475 57.545 49.5274 57.765C49.3074 57.985 49.009 58.1086 48.6978 58.1086ZM9.02244 0.0410954C8.72525 0.0416397 8.44042 0.160079 8.23047 0.370417C8.02051 0.580755 7.9026 0.865804 7.9026 1.16299V56.9354C7.9026 57.2326 8.02051 57.5176 8.23047 57.7279C8.44042 57.9383 8.72525 58.0567 9.02244 58.0573H48.6978C48.9952 58.0567 49.2802 57.9383 49.4905 57.7281C49.7008 57.5178 49.8192 57.2327 49.8197 56.9354V1.16299C49.8192 0.865615 49.7008 0.580571 49.4905 0.370292C49.2802 0.160012 48.9952 0.0416385 48.6978 0.0410954H9.02244Z" fill="#EBEBEB"/>
<path d="M93.1443 58.1086H53.4669C53.1559 58.1081 52.8578 57.9843 52.6379 57.7644C52.418 57.5445 52.2942 57.2464 52.2936 56.9354V1.16299C52.2969 0.853776 52.4219 0.558294 52.6415 0.340596C52.8611 0.122897 53.1577 0.000523613 53.4669 0H93.1443C93.453 0.0010694 93.7488 0.123748 93.9677 0.341445C94.1866 0.559143 94.3108 0.854319 94.3135 1.16299V56.9354C94.3135 57.2458 94.1904 57.5436 93.9713 57.7635C93.7522 57.9835 93.4548 58.1075 93.1443 58.1086ZM53.4669 0.0410954C53.1695 0.0416385 52.8845 0.160012 52.6742 0.370292C52.4639 0.580571 52.3456 0.865615 52.345 1.16299V56.9354C52.3456 57.2327 52.4639 57.5178 52.6742 57.7281C52.8845 57.9383 53.1695 58.0567 53.4669 58.0573H93.1443C93.4417 58.0567 93.7268 57.9383 93.937 57.7281C94.1473 57.5178 94.2657 57.2327 94.2662 56.9354V1.16299C94.2657 0.865615 94.1473 0.580571 93.937 0.370292C93.7268 0.160012 93.4417 0.0416385 93.1443 0.0410954H53.4669Z" fill="#EBEBEB"/>
<path d="M45.3075 5.93826H13.3066V35.5535H45.3075V5.93826Z" fill="#E6E6E6"/>
<path d="M46.0759 5.93826H13.6662V35.5535H46.0759V5.93826Z" fill="#F0F0F0"/>
<path d="M45.0013 34.3453V7.14853L14.745 7.14853V34.3453H45.0013Z" fill="#FAFAFA"/>
<path d="M32.4262 34.3453L27.0838 7.14853H20.0791L25.4215 34.3453H32.4262Z" fill="white"/>
<path d="M24.3325 34.3453L18.988 7.14853H15.8237L21.1681 34.3453H24.3325Z" fill="white"/>
<path d="M41.1877 34.3453L35.8433 7.14853H34.6823L40.0247 34.3453H41.1877Z" fill="white"/>
<path d="M45.0013 34.3453V7.14853H44.8636V34.3453H45.0013Z" fill="#E6E6E6"/>
<path opacity="0.7" d="M12.4991 5.891V21.0387H15.6038C15.6038 21.0387 21.1825 13.9868 22.4503 6.50126C22.4831 6.32183 22.4758 6.13735 22.4287 5.96111C22.3817 5.78487 22.2961 5.62128 22.1781 5.48211C22.0602 5.34295 21.9129 5.2317 21.7467 5.15636C21.5806 5.08103 21.3998 5.04351 21.2174 5.04649H13.3559C13.244 5.04486 13.1328 5.06549 13.029 5.1072C12.9251 5.14891 12.8305 5.21086 12.7508 5.28944C12.671 5.36802 12.6077 5.46167 12.5645 5.56495C12.5213 5.66822 12.4991 5.77905 12.4991 5.891Z" fill="#E6E6E6"/>
<path opacity="0.7" d="M12.4991 47.7999V21.9859H15.6038C15.6038 21.9859 17.5374 43.3554 18.275 47.7999H12.4991Z" fill="#E6E6E6"/>
<path d="M15.5155 21.0387H12.6142C12.4428 21.0387 12.3039 21.1776 12.3039 21.349V21.6757C12.3039 21.847 12.4428 21.9859 12.6142 21.9859H15.5155C15.6868 21.9859 15.8258 21.847 15.8258 21.6757V21.349C15.8258 21.1776 15.6868 21.0387 15.5155 21.0387Z" fill="#E0E0E0"/>
<path opacity="0.7" d="M46.9554 5.89098V21.0387H43.8506C43.8506 21.0387 38.272 13.9867 37.0042 6.50124C36.9732 6.32207 36.9819 6.13828 37.0297 5.96284C37.0775 5.7874 37.1632 5.62459 37.2808 5.48587C37.3983 5.34715 37.5449 5.23591 37.7101 5.15999C37.8753 5.08407 38.0552 5.04532 38.237 5.04647H46.1191C46.3416 5.04864 46.5543 5.13857 46.7109 5.29671C46.8675 5.45485 46.9554 5.66842 46.9554 5.89098Z" fill="#E6E6E6"/>
<path opacity="0.7" d="M46.9554 47.7999V21.9859H43.8507C43.8507 21.9859 41.9171 43.3554 41.1795 47.7999H46.9554Z" fill="#E6E6E6"/>
<path d="M43.9411 21.9859H46.8424C47.0137 21.9859 47.1526 21.847 47.1526 21.6757V21.349C47.1526 21.1776 47.0137 21.0387 46.8424 21.0387H43.9411C43.7697 21.0387 43.6308 21.1776 43.6308 21.349V21.6757C43.6308 21.847 43.7697 21.9859 43.9411 21.9859Z" fill="#E0E0E0"/>
<path d="M78.7713 10.0005H60.9339V30.6817H78.7713V10.0005Z" fill="#E6E6E6"/>
<path d="M80.0145 10.0005H61.2031V30.6817H80.0145V10.0005Z" fill="#F0F0F0"/>
<path d="M78.4405 29.1057V11.5765L62.7812 11.5765V29.1057H78.4405Z" fill="white"/>
<path d="M74.4214 24.3017H70.355C69.3733 24.2984 68.4329 23.9063 67.7397 23.2111C67.0465 22.516 66.657 21.5745 66.6564 20.5928V16.5285C66.6564 16.4887 66.6722 16.4506 66.7004 16.4224C66.7285 16.3943 66.7667 16.3785 66.8064 16.3785H70.8707C71.8525 16.379 72.7939 16.7686 73.4891 17.4618C74.1842 18.155 74.5763 19.0954 74.5796 20.0771V24.1414C74.5811 24.1627 74.578 24.184 74.5706 24.204C74.5632 24.2239 74.5517 24.2421 74.5367 24.2573C74.5217 24.2725 74.5037 24.2843 74.4838 24.2919C74.4639 24.2996 74.4426 24.3029 74.4214 24.3017ZM66.9503 16.6806V20.5846C66.9495 21.0324 67.0369 21.476 67.2076 21.8901C67.3783 22.3041 67.6289 22.6804 67.9451 22.9976C68.2612 23.3147 68.6368 23.5664 69.0503 23.7384C69.4638 23.9103 69.9072 23.9991 70.355 23.9996H74.2693V20.0956C74.2682 19.1924 73.909 18.3265 73.2703 17.6878C72.6316 17.0491 71.7657 16.6899 70.8625 16.6888L66.9503 16.6806Z" fill="#F0F0F0"/>
<path d="M59.0908 38.4898H55.9101V66.4161H59.0908V38.4898Z" fill="#F0F0F0"/>
<path d="M86.8938 66.416H56.3497V67.2728H86.8938V66.416Z" fill="#F0F0F0"/>
<path d="M59.0929 66.416H87.3356V38.4898H59.0929V66.416Z" fill="#F5F5F5"/>
<path d="M84.8616 55.5135H61.5606V49.3944H84.8616V55.5135ZM61.7641 55.308H84.6561V49.5999H61.7661L61.7641 55.308Z" fill="#F0F0F0"/>
<path d="M84.8616 63.1243H61.5606V57.0052H84.8616V63.1243ZM61.7641 62.9188H84.6561V57.2107H61.7661L61.7641 62.9188Z" fill="#F0F0F0"/>
<path d="M75.8063 51.8971H70.6201C70.4233 51.8971 70.2347 51.8189 70.0956 51.6798C69.9565 51.5407 69.8783 51.352 69.8783 51.1553C69.8783 50.9586 69.9565 50.7699 70.0956 50.6308C70.2347 50.4917 70.4233 50.4135 70.6201 50.4135H75.8063C76.003 50.4135 76.1917 50.4917 76.3308 50.6308C76.4699 50.7699 76.5481 50.9586 76.5481 51.1553C76.5481 51.352 76.4699 51.5407 76.3308 51.6798C76.1917 51.8189 76.003 51.8971 75.8063 51.8971ZM70.6201 50.619C70.4778 50.619 70.3414 50.6755 70.2409 50.7761C70.1403 50.8767 70.0838 51.0131 70.0838 51.1553C70.0838 51.2975 70.1403 51.434 70.2409 51.5345C70.3414 51.6351 70.4778 51.6916 70.6201 51.6916H75.8063C75.9485 51.6916 76.0849 51.6351 76.1855 51.5345C76.2861 51.434 76.3426 51.2975 76.3426 51.1553C76.3426 51.0131 76.2861 50.8767 76.1855 50.7761C76.0849 50.6755 75.9485 50.619 75.8063 50.619H70.6201Z" fill="#F0F0F0"/>
<path d="M84.8616 47.9026H61.5606V41.7835H84.8616V47.9026ZM61.7641 47.6971H84.6561V41.989H61.7661L61.7641 47.6971Z" fill="#F0F0F0"/>
<path d="M75.8063 44.2863H70.6201C70.4233 44.2863 70.2347 44.2081 70.0956 44.069C69.9565 43.9299 69.8783 43.7412 69.8783 43.5445C69.8783 43.3478 69.9565 43.1591 70.0956 43.02C70.2347 42.8809 70.4233 42.8027 70.6201 42.8027H75.8063C76.003 42.8027 76.1917 42.8809 76.3308 43.02C76.4699 43.1591 76.5481 43.3478 76.5481 43.5445C76.5481 43.7412 76.4699 43.9299 76.3308 44.069C76.1917 44.2081 76.003 44.2863 75.8063 44.2863ZM70.6201 43.0082C70.4778 43.0082 70.3414 43.0647 70.2409 43.1653C70.1403 43.2659 70.0838 43.4023 70.0838 43.5445C70.0838 43.6867 70.1403 43.8231 70.2409 43.9237C70.3414 44.0243 70.4778 44.0808 70.6201 44.0808H75.8063C75.9485 44.0808 76.0849 44.0243 76.1855 43.9237C76.2861 43.8231 76.3426 43.6867 76.3426 43.5445C76.3426 43.4023 76.2861 43.2659 76.1855 43.1653C76.0849 43.0647 75.9485 43.0082 75.8063 43.0082H70.6201Z" fill="#F0F0F0"/>
<path d="M75.8063 59.5079H70.6201C70.4233 59.5079 70.2347 59.4298 70.0956 59.2907C69.9565 59.1515 69.8783 58.9629 69.8783 58.7661C69.8783 58.5694 69.9565 58.3808 70.0956 58.2416C70.2347 58.1025 70.4233 58.0244 70.6201 58.0244H75.8063C76.003 58.0244 76.1917 58.1025 76.3308 58.2416C76.4699 58.3808 76.5481 58.5694 76.5481 58.7661C76.5481 58.9629 76.4699 59.1515 76.3308 59.2907C76.1917 59.4298 76.003 59.5079 75.8063 59.5079ZM70.6201 58.2299C70.4778 58.2299 70.3414 58.2864 70.2409 58.3869C70.1403 58.4875 70.0838 58.6239 70.0838 58.7661C70.0838 58.9084 70.1403 59.0448 70.2409 59.1454C70.3414 59.2459 70.4778 59.3024 70.6201 59.3024H75.8063C75.9485 59.3024 76.0849 59.2459 76.1855 59.1454C76.2861 59.0448 76.3426 58.9084 76.3426 58.7661C76.3426 58.6239 76.2861 58.4875 76.1855 58.3869C76.0849 58.2864 75.9485 58.2299 75.8063 58.2299H70.6201Z" fill="#F0F0F0"/>
<path d="M87.915 37.6946H59.0908V38.4918H87.915V37.6946Z" fill="#F0F0F0"/>
<path d="M55.2874 38.4898H59.0908V37.6926H55.2874V38.4898Z" fill="#E6E6E6"/>
<path d="M51.369 76.5522C73.3719 76.5522 91.2088 75.5108 91.2088 74.2262C91.2088 72.9416 73.3719 71.9002 51.369 71.9002C29.3661 71.9002 11.5293 72.9416 11.5293 74.2262C11.5293 75.5108 29.3661 76.5522 51.369 76.5522Z" fill="#F5F5F5"/>
<path d="M34.0269 18.1045C34.0659 17.6504 36.0221 15.9758 38.0645 17.1449C40.1069 18.3141 38.6295 21.8483 40.8507 22.1914C39.4124 23.6298 34.7276 25.3866 33.2872 23.7366C31.8468 22.0866 31.6619 17.4655 34.0269 18.1045Z" fill="#263238"/>
<path d="M42.2541 29.5002C42.3076 30.2605 42.3877 31.0659 42.4945 31.8344C42.5902 32.5917 42.744 33.3405 42.9548 34.0741C42.9795 34.1625 43.0103 34.2467 43.0391 34.3289L43.1171 34.5467C43.1332 34.594 43.1568 34.6384 43.187 34.6782C43.2343 34.7481 43.5075 34.8118 43.8281 34.7707C44.5604 34.646 45.271 34.4169 45.9383 34.0905L46.4602 34.857C46.2943 35.0029 46.1207 35.1401 45.9404 35.2679C45.7637 35.3953 45.5829 35.5186 45.3918 35.6296C44.9954 35.8723 44.5683 36.0609 44.1219 36.1905C43.8636 36.2627 43.597 36.3014 43.3288 36.3056C42.996 36.3081 42.6678 36.2283 42.3733 36.0734C42.0551 35.8989 41.794 35.6364 41.6213 35.3172L41.5658 35.2083L41.5309 35.1303L41.4589 34.97C41.4096 34.8652 41.3624 34.7645 41.3254 34.6536C41.0183 33.8347 40.7932 32.9874 40.6535 32.1241C40.5101 31.2855 40.4202 30.4386 40.3843 29.5886L42.2541 29.5002Z" fill="#FFC3BD"/>
<path d="M41.2493 27.4578C42.9158 28.7317 42.8479 31.1358 42.8479 31.1358L39.8624 31.8488C39.8624 31.8488 38.948 29.4324 39.3199 28.5468C39.7124 27.6242 40.3124 26.7386 41.2493 27.4578Z" fill="#012A4A"/>
<path d="M45.776 34.2693L46.8712 33.1721L47.4609 34.8878C47.4609 34.8878 46.5363 35.3871 45.6507 34.9145L45.776 34.2693Z" fill="#FFC3BD"/>
<path d="M48.3876 33.0036L48.589 34.3577L47.4609 34.8858L46.8712 33.1721L48.3876 33.0036Z" fill="#FFC3BD"/>
<path d="M31.594 72.8002L33.2707 72.9625L35.0152 68.9742L33.3385 68.8098L31.594 72.8002Z" fill="#FFC3BD"/>
<path d="M20.8004 66.903L22.0579 68.0845L24.7763 65.0989L23.5168 63.9154L20.8004 66.903Z" fill="#FFC3BD"/>
<path d="M22.6394 67.5174L21.6942 65.814C21.6784 65.7844 21.6524 65.7616 21.621 65.7499C21.5896 65.7382 21.555 65.7383 21.5237 65.7503L20.0668 66.3051C20.0308 66.3203 19.9983 66.343 19.9716 66.3716C19.9449 66.4002 19.9245 66.4341 19.9117 66.4711C19.8989 66.5081 19.894 66.5474 19.8974 66.5864C19.9008 66.6254 19.9123 66.6633 19.9312 66.6975C20.2723 67.2852 20.4654 67.5523 20.8826 68.3023C21.1374 68.7626 21.6367 69.8208 21.9901 70.4577C22.3435 71.0947 22.9907 70.7783 22.9003 70.4824C22.4894 69.1509 22.5736 68.4112 22.6949 67.8235C22.7135 67.7181 22.6939 67.6095 22.6394 67.5174Z" fill="#263238"/>
<path d="M33.4926 72.4447H31.4379C31.4008 72.4448 31.3648 72.4572 31.3355 72.4798C31.3061 72.5025 31.2851 72.5342 31.2756 72.57L30.8215 74.1995C30.8105 74.2378 30.8087 74.2783 30.8162 74.3175C30.8238 74.3566 30.8404 74.3935 30.8648 74.4251C30.8892 74.4567 30.9207 74.4821 30.9567 74.4993C30.9927 74.5165 31.0322 74.525 31.0721 74.5241C31.7975 74.5241 32.1406 74.5241 33.0468 74.5241H35.8125C36.5645 74.5241 36.7227 73.7639 36.4104 73.7022C35.0152 73.394 34.2118 72.9687 33.7803 72.5618C33.7025 72.4881 33.5998 72.4463 33.4926 72.4447Z" fill="#263238"/>
<path opacity="0.2" d="M35.0132 68.9763L34.1152 71.031H32.3666L33.3365 68.8119L35.0132 68.9763Z" fill="black"/>
<path opacity="0.2" d="M23.5168 63.9174L24.7743 65.0989L23.3729 66.638L22.1154 65.4565L23.5168 63.9174Z" fill="black"/>
<path d="M40.7459 27.2092C40.7459 27.2092 41.5062 27.5338 38.9727 37.5405L31.9536 36.9343C32.3194 34.0864 32.4735 32.3255 31.6166 26.3441C32.6168 26.2259 33.6242 26.1806 34.631 26.2085C35.6984 26.225 36.7634 26.317 37.8179 26.4838C38.8055 26.6764 39.7827 26.9185 40.7459 27.2092Z" fill="#012A4A"/>
<path d="M35.8864 29.7571C35.8804 29.7591 35.8739 29.7591 35.8679 29.7571C34.3495 28.5078 33.4022 26.5804 33.7063 26.1263C33.7102 26.1198 33.7164 26.1151 33.7237 26.1132C33.731 26.1112 33.7388 26.1123 33.7454 26.116C33.752 26.1203 33.7568 26.1269 33.7587 26.1345C33.7606 26.1422 33.7595 26.1503 33.7556 26.1571C33.4803 26.5825 34.4214 28.4749 35.872 29.6831C36.2378 28.5797 36.8604 28.1379 36.8665 28.1338C36.873 28.1309 36.8803 28.1304 36.8872 28.1322C36.8941 28.1341 36.9001 28.1383 36.9042 28.1442C36.9083 28.15 36.9103 28.157 36.9098 28.1641C36.9093 28.1712 36.9063 28.1779 36.9015 28.1831C36.9015 28.1831 36.2727 28.629 35.9131 29.7427C35.9117 29.747 35.9093 29.7509 35.9061 29.7541C35.9029 29.7574 35.899 29.7598 35.8946 29.7612L35.8864 29.7571Z" fill="white"/>
<path d="M38.3152 29.8248C38.3101 29.8238 38.3055 29.8213 38.3018 29.8176C38.2982 29.814 38.2957 29.8093 38.2946 29.8043C37.9761 28.6577 37.3412 28.2016 37.335 28.1975C37.3304 28.1916 37.3278 28.1844 37.3278 28.1769C37.3278 28.1695 37.3304 28.1622 37.335 28.1564C37.3407 28.1513 37.348 28.1485 37.3556 28.1485C37.3632 28.1485 37.3705 28.1513 37.3761 28.1564C37.3761 28.1564 38.0152 28.6146 38.3439 29.7427C39.1062 28.8077 38.6727 27.0304 38.3768 26.5742C38.3729 26.5673 38.3718 26.5593 38.3738 26.5516C38.3757 26.544 38.3804 26.5374 38.3871 26.5331C38.3924 26.5282 38.3994 26.5255 38.4066 26.5255C38.4138 26.5255 38.4208 26.5282 38.4261 26.5331C38.7323 27.0078 39.1823 28.8694 38.3521 29.8207C38.3471 29.8251 38.3409 29.8278 38.3343 29.8285C38.3277 29.8293 38.321 29.828 38.3152 29.8248Z" fill="white"/>
<path d="M35.2577 22.6476C35.3686 23.6893 35.4077 25.5859 34.631 26.2085C35.3858 26.9085 36.2285 27.5074 37.1378 27.99C38.3583 27.1475 37.8179 26.4838 37.8179 26.4838C36.6981 26.1119 36.7905 25.2674 37.07 24.4866L35.2577 22.6476Z" fill="#FFC3BD"/>
<path opacity="0.2" d="M35.9953 23.3976L37.0679 24.4866C37.003 24.6676 36.9542 24.8539 36.922 25.0434C36.4905 24.9428 35.8659 24.4948 35.8577 24.0325C35.8668 23.8145 35.9134 23.5998 35.9953 23.3976Z" fill="black"/>
<path d="M34.3392 21.0181C34.7748 22.6845 34.9228 23.3975 35.944 24.1003C37.481 25.1503 39.4371 24.2523 39.5049 22.4893C39.5686 20.9031 38.8474 18.4456 37.0638 18.0983C36.6715 18.0203 36.2658 18.0437 35.8851 18.1664C35.5043 18.2891 35.1613 18.507 34.8884 18.7994C34.6155 19.0919 34.4218 19.4492 34.3257 19.8375C34.2296 20.2258 34.2342 20.6322 34.3392 21.0181Z" fill="#FFC3BD"/>
<path d="M34.8139 22.2654C35.3789 23.0873 36.8522 18.1908 34.9433 18.3449C33.0345 18.499 33.2646 20.5723 34.8139 22.2654Z" fill="#263238"/>
<path d="M35.0666 18.6244C36.17 19.1853 39.3816 19.8572 38.9419 18.9634C38.7019 18.515 38.3446 18.1403 37.9081 17.8793C37.4716 17.6184 36.9724 17.481 36.4638 17.4819C35.4159 17.4655 34.0926 18.1312 35.0666 18.6244Z" fill="#263238"/>
<path d="M34.2015 22.4298C34.2781 22.5762 34.3829 22.7061 34.5098 22.8119C34.6368 22.9176 34.7834 22.9973 34.9413 23.0462C35.3645 23.1736 35.5844 22.7976 35.4734 22.3948C35.3748 22.0312 35.0358 21.5277 34.6084 21.5729C34.5149 21.5853 34.426 21.6209 34.3498 21.6764C34.2736 21.7319 34.2125 21.8056 34.172 21.8908C34.1316 21.9759 34.1131 22.0699 34.1182 22.164C34.1234 22.2582 34.152 22.3495 34.2015 22.4298Z" fill="#FFC3BD"/>
<path d="M38.9727 37.5405C38.9727 37.5405 41.348 48.0465 39.7638 55.4539C38.7015 60.4141 34.8714 70.4351 34.8714 70.4351L31.8776 70.3591C31.8776 70.3591 34.7769 59.8428 35.3707 55.7066C36.3981 48.6321 33.8296 37.0966 33.8296 37.0966L38.9727 37.5405Z" fill="#263238"/>
<path opacity="0.2" d="M36.2337 39.6569L34.7379 42.0199C35.189 44.8198 35.4751 47.6438 35.5947 50.4773C37.6988 46.7109 36.7022 41.6582 36.2337 39.6569Z" fill="black"/>
<path d="M35.2926 70.5913L31.594 70.4968L31.8098 69.3605L35.5823 69.5393L35.2926 70.5913Z" fill="#012A4A"/>
<path d="M37.4378 37.4295C37.4378 37.4295 36.0447 48.5704 33.0242 54.6525C30.5852 59.5675 24.0757 66.5599 24.0757 66.5599L22.4113 64.8462C22.4113 64.8462 26.8085 57.2436 28.6208 53.9806C33.0673 45.9794 29.4427 39.8726 31.9536 36.9261L37.4378 37.4295Z" fill="#263238"/>
<path d="M24.2442 66.79L22.097 64.6962L22.81 63.7264L25.0866 66.001L24.2442 66.79Z" fill="#012A4A"/>
<path d="M31.8837 36.5131L31.5139 37.1131C31.4851 37.1603 31.5385 37.2138 31.6187 37.222L38.9809 37.859C39.0446 37.859 39.1001 37.8364 39.1062 37.7973L39.2234 37.1809C39.2234 37.1377 39.1802 37.0966 39.1124 37.0905L32.0029 36.474C31.9814 36.4699 31.9591 36.4713 31.9383 36.4782C31.9174 36.485 31.8987 36.497 31.8837 36.5131Z" fill="#012A4A"/>
<path opacity="0.3" d="M31.8837 36.5131L31.5139 37.1131C31.4851 37.1603 31.5385 37.2138 31.6187 37.222L38.9809 37.859C39.0446 37.859 39.1001 37.8364 39.1062 37.7973L39.2234 37.1809C39.2234 37.1377 39.1802 37.0966 39.1124 37.0905L32.0029 36.474C31.9814 36.4699 31.9591 36.4713 31.9383 36.4782C31.9174 36.485 31.8987 36.497 31.8837 36.5131Z" fill="black"/>
<path d="M32.7693 37.3966L32.5803 37.3802C32.5413 37.3802 32.5146 37.3535 32.5187 37.3309L32.6789 36.5213C32.6789 36.4987 32.718 36.4823 32.757 36.4843L32.9461 36.5008C32.9851 36.5008 33.0118 36.5275 33.0077 36.5501L32.8474 37.3597C32.8433 37.3761 32.8084 37.3966 32.7693 37.3966Z" fill="#263238"/>
<path d="M38.4405 37.8795L38.2494 37.8631C38.2124 37.8631 38.1836 37.8384 38.1898 37.8138L38.348 37.0062C38.348 36.9816 38.3891 36.9651 38.4261 36.9693L38.6172 36.9857C38.6542 36.9857 38.6809 37.0104 38.6768 37.035L38.5165 37.8425C38.5124 37.8672 38.4775 37.8836 38.4405 37.8795Z" fill="#263238"/>
<path d="M35.6049 37.635L35.4138 37.6186C35.3768 37.6186 35.3501 37.5939 35.3542 37.5693L35.5145 36.7617C35.5145 36.7371 35.5536 36.7206 35.5905 36.7248L35.7816 36.7412C35.8207 36.7412 35.8474 36.7658 35.8433 36.7884L35.683 37.598C35.6757 37.6118 35.6642 37.6229 35.6501 37.6295C35.6361 37.6362 35.6202 37.6381 35.6049 37.635Z" fill="#263238"/>
<path d="M37.1604 20.9586C37.1871 21.0963 37.2816 21.1928 37.3659 21.1743C37.4501 21.1558 37.5077 21.0326 37.4809 20.8949C37.4542 20.7572 37.3597 20.6606 37.2755 20.6771C37.1912 20.6935 37.1316 20.823 37.1604 20.9586Z" fill="#263238"/>
<path d="M38.7118 20.6545C38.7385 20.7921 38.833 20.8908 38.9173 20.8723C39.0015 20.8538 39.057 20.7284 39.0303 20.5908C39.0036 20.4531 38.909 20.3565 38.8248 20.375C38.7405 20.3935 38.6851 20.5188 38.7118 20.6545Z" fill="#263238"/>
<path d="M38.7878 20.3894L39.098 20.2312C39.098 20.2312 38.9788 20.5209 38.7878 20.3894Z" fill="#263238"/>
<path d="M38.1775 20.9976C38.3602 21.2871 38.5814 21.5505 38.835 21.7805C38.7748 21.8438 38.7015 21.8934 38.6203 21.9257C38.539 21.9579 38.4518 21.9722 38.3645 21.9675L38.1775 20.9976Z" fill="#ED847E"/>
<path d="M37.7337 22.6209C37.4444 22.6247 37.1644 22.5181 36.9508 22.3229C36.9443 22.3164 36.9406 22.3075 36.9406 22.2983C36.9406 22.289 36.9443 22.2801 36.9508 22.2736C36.9539 22.2704 36.9576 22.2679 36.9616 22.2662C36.9657 22.2645 36.9701 22.2636 36.9745 22.2636C36.9789 22.2636 36.9832 22.2645 36.9873 22.2662C36.9914 22.2679 36.995 22.2704 36.9981 22.2736C37.1298 22.389 37.2866 22.4719 37.4561 22.5158C37.6256 22.5597 37.803 22.5633 37.9741 22.5263C37.9831 22.5245 37.9924 22.5263 38.0001 22.5313C38.0078 22.5363 38.0132 22.5441 38.0152 22.553C38.0161 22.5574 38.0161 22.5618 38.0152 22.5662C38.0144 22.5705 38.0126 22.5746 38.0101 22.5782C38.0076 22.5819 38.0044 22.585 38.0007 22.5874C37.997 22.5897 37.9928 22.5913 37.9885 22.5921C37.9047 22.6102 37.8194 22.6198 37.7337 22.6209Z" fill="#263238"/>
<path d="M36.2275 20.4284C36.2161 20.4314 36.2041 20.4314 36.1926 20.4284C36.1848 20.4238 36.178 20.4177 36.1727 20.4104C36.1673 20.4031 36.1635 20.3948 36.1613 20.386C36.1592 20.3771 36.1589 20.368 36.1604 20.3591C36.1619 20.3501 36.1651 20.3416 36.17 20.3339C36.233 20.2227 36.322 20.1284 36.4293 20.059C36.5366 19.9896 36.6592 19.9472 36.7864 19.9353C36.7953 19.935 36.8042 19.9365 36.8125 19.9397C36.8209 19.9428 36.8285 19.9476 36.835 19.9537C36.8415 19.9598 36.8467 19.9671 36.8503 19.9753C36.854 19.9834 36.856 19.9921 36.8563 20.0011C36.8566 20.01 36.8551 20.0188 36.8519 20.0272C36.8488 20.0355 36.844 20.0431 36.8379 20.0496C36.8318 20.0561 36.8245 20.0613 36.8163 20.065C36.8082 20.0686 36.7994 20.0707 36.7905 20.0709C36.6854 20.0823 36.5844 20.1186 36.4962 20.1768C36.4079 20.2351 36.3348 20.3136 36.283 20.4058C36.2761 20.4136 36.2675 20.4197 36.2579 20.4236C36.2483 20.4275 36.2379 20.4292 36.2275 20.4284Z" fill="#263238"/>
<path d="M39.1432 19.8778C39.1318 19.8807 39.1198 19.8807 39.1083 19.8778C39.018 19.8235 38.9161 19.7917 38.811 19.7849C38.7059 19.7781 38.6007 19.7966 38.5042 19.8388C38.488 19.8468 38.4694 19.8484 38.4522 19.843C38.4349 19.8376 38.4204 19.8258 38.4117 19.81C38.4074 19.802 38.4048 19.7933 38.4039 19.7844C38.4031 19.7754 38.404 19.7663 38.4067 19.7577C38.4094 19.7491 38.4137 19.7411 38.4195 19.7342C38.4253 19.7273 38.4325 19.7216 38.4405 19.7175C38.5574 19.6647 38.6853 19.6408 38.8133 19.648C38.9414 19.6552 39.0658 19.6931 39.1761 19.7586C39.1839 19.7629 39.1909 19.7687 39.1965 19.7757C39.2021 19.7827 39.2062 19.7907 39.2087 19.7993C39.2112 19.8079 39.2119 19.8169 39.2109 19.8258C39.2099 19.8347 39.2072 19.8433 39.2028 19.8511C39.1958 19.8601 39.1867 19.8672 39.1763 19.8718C39.1659 19.8765 39.1546 19.8785 39.1432 19.8778Z" fill="#263238"/>
<path d="M32.6173 28.9722C32.342 29.4283 32.0502 29.8968 31.7769 30.3653C31.5036 30.8338 31.2221 31.2981 30.955 31.7687C30.6879 32.2392 30.4393 32.7098 30.2276 33.1782C30.1701 33.2954 30.1249 33.4104 30.0715 33.5255C30.018 33.6406 29.9852 33.7495 29.942 33.8625C29.9224 33.9137 29.9079 33.9667 29.8989 34.0207C29.8989 34.0474 29.8989 34.0392 29.8865 34.0351C29.8742 34.031 29.9215 34.1132 30.092 34.1851C30.2903 34.2639 30.4972 34.3191 30.7084 34.3495C31.2146 34.4225 31.726 34.4521 32.2372 34.4378C33.3173 34.4085 34.395 34.3194 35.4652 34.1707L35.6707 35.0727C34.579 35.4149 33.4587 35.6583 32.3235 35.8001C31.7274 35.8773 31.1254 35.8972 30.5256 35.8597C30.185 35.8377 29.8487 35.7721 29.5249 35.6645C29.3271 35.5973 29.1392 35.504 28.966 35.3871C28.7416 35.2394 28.5568 35.0389 28.4279 34.8032C28.2989 34.5675 28.2297 34.3037 28.2263 34.0351C28.2237 33.812 28.2542 33.5897 28.3167 33.3755C28.3619 33.2255 28.4051 33.0693 28.4544 32.9255C28.5037 32.7817 28.553 32.6378 28.6085 32.4981C28.8263 31.9433 29.0667 31.4214 29.3276 30.9118C29.5886 30.4023 29.8578 29.903 30.1372 29.4119C30.4167 28.9208 30.7084 28.442 31.031 27.9612L32.6173 28.9722Z" fill="#FFC3BD"/>
<path d="M35.0461 34.3803L36.4166 33.6549L36.468 35.1816C36.468 35.1816 35.5104 35.5268 34.9433 35.083L35.0461 34.3803Z" fill="#FFC3BD"/>
<path d="M37.2508 33.7638L37.0453 35.1159L36.4679 35.1816L36.4145 33.6549L37.2508 33.7638Z" fill="#FFC3BD"/>
<path d="M31.6167 26.3441C30.7557 26.5065 29.5496 28.9722 29.5496 28.9722L32.2208 31.2838C32.2208 31.2838 33.4434 29.0523 33.353 27.9304C33.2749 26.9708 32.7119 26.151 31.6167 26.3441Z" fill="#012A4A"/>
<path d="M22.9722 68.4338C22.9493 68.4334 22.9265 68.43 22.9044 68.4235C22.699 68.3537 22.5633 67.9715 22.4935 67.7516C22.49 67.7461 22.4882 67.7397 22.4882 67.7331C22.4882 67.7266 22.49 67.7202 22.4935 67.7146C22.4994 67.7112 22.5062 67.7094 22.513 67.7094C22.5199 67.7094 22.5266 67.7112 22.5325 67.7146C22.5942 67.7475 23.149 68.0414 23.1613 68.2571C23.1639 68.2807 23.1599 68.3045 23.1498 68.3259C23.1396 68.3473 23.1237 68.3655 23.1038 68.3783C23.0665 68.4096 23.0207 68.4289 22.9722 68.4338ZM22.5901 67.8174C22.6866 68.1235 22.8099 68.3249 22.927 68.3639C22.9536 68.3719 22.9817 68.3729 23.0087 68.3668C23.0357 68.3607 23.0607 68.3477 23.0811 68.329C23.0917 68.3228 23.1001 68.3137 23.1056 68.3027C23.1111 68.2918 23.1133 68.2795 23.112 68.2674C23.1017 68.1276 22.7791 67.9181 22.5901 67.8071V67.8174Z" fill="#012A4A"/>
<path d="M23.0565 67.8975C22.8692 67.8968 22.6845 67.854 22.5161 67.7722C22.511 67.7688 22.5069 67.7642 22.504 67.7588C22.5011 67.7535 22.4997 67.7475 22.4997 67.7414C22.5 67.7354 22.5019 67.7296 22.5051 67.7246C22.5084 67.7195 22.5129 67.7154 22.5182 67.7126C22.5366 67.7023 22.9723 67.4619 23.2065 67.5462C23.2354 67.5557 23.2618 67.5715 23.2838 67.5925C23.3059 67.6134 23.323 67.639 23.3339 67.6674C23.3485 67.6948 23.3535 67.7264 23.3479 67.757C23.3423 67.7876 23.3265 67.8154 23.3031 67.8359C23.2301 67.8835 23.1433 67.9052 23.0565 67.8975ZM22.6086 67.7414C22.7955 67.8215 23.1572 67.8708 23.2599 67.7845C23.2764 67.7701 23.2928 67.7455 23.2599 67.6941C23.2524 67.6747 23.2408 67.6572 23.2259 67.6426C23.211 67.6281 23.1932 67.6169 23.1736 67.6099C23.0236 67.5544 22.7339 67.6818 22.6024 67.7414H22.6086Z" fill="#012A4A"/>
<path d="M34.407 72.7776C34.2175 72.7735 34.0288 72.7501 33.844 72.7077C33.837 72.7058 33.8308 72.7018 33.826 72.6963C33.8213 72.6909 33.8182 72.6841 33.8173 72.6769C33.817 72.6697 33.8187 72.6626 33.8224 72.6564C33.826 72.6502 33.8314 72.6452 33.8378 72.642C33.9221 72.6029 34.6598 72.2577 34.8652 72.3851C34.8825 72.3967 34.8962 72.4128 34.9049 72.4316C34.9136 72.4505 34.9169 72.4714 34.9145 72.492C34.913 72.5295 34.9029 72.5662 34.8851 72.5993C34.8673 72.6324 34.8423 72.6611 34.8118 72.6831C34.6904 72.757 34.5486 72.7901 34.407 72.7776ZM33.9611 72.6605C34.1831 72.7036 34.594 72.757 34.7625 72.6296C34.7852 72.6136 34.8038 72.5924 34.8167 72.5677C34.8295 72.5431 34.8363 72.5157 34.8365 72.4879C34.8365 72.4591 34.8365 72.4488 34.818 72.4427C34.7132 72.3707 34.2714 72.5331 33.9611 72.6605Z" fill="#012A4A"/>
<path d="M33.8523 72.7077C33.845 72.7106 33.8369 72.7106 33.8297 72.7077C33.8263 72.7029 33.8245 72.6972 33.8245 72.6913C33.8245 72.6854 33.8263 72.6797 33.8297 72.6748C33.8297 72.644 34.0064 71.9064 34.4111 71.9536C34.5118 71.966 34.5406 72.0153 34.5447 72.0564C34.5714 72.2433 34.1009 72.6214 33.8749 72.7139L33.8523 72.7077ZM34.3639 72.0112C34.105 72.0112 33.9529 72.4406 33.9036 72.6111C34.1481 72.4838 34.4831 72.1776 34.4666 72.0564C34.4666 72.0564 34.4666 72.0214 34.3927 72.0132L34.3639 72.0112Z" fill="#012A4A"/>
<path d="M37.2344 20.6955L37.5467 20.5353C37.5467 20.5353 37.4275 20.8271 37.2344 20.6955Z" fill="#263238"/>
<path d="M73.2789 27.3632C73.2686 27.505 73.2563 27.6056 73.2419 27.7228C73.2275 27.8399 73.2111 27.9447 73.1926 28.0536C73.1556 28.2734 73.1125 28.4892 73.0652 28.7049C72.9691 29.1348 72.8504 29.5594 72.7097 29.9768C72.423 30.8205 72.0338 31.6259 71.5509 32.3747L71.3618 32.6542L71.3146 32.722L71.2858 32.7631L71.2426 32.8206C71.18 32.8948 71.1113 32.9635 71.0372 33.0261C70.7955 33.2433 70.5073 33.4021 70.1947 33.4905C69.715 33.6195 69.2163 33.6633 68.7214 33.6199C67.8474 33.5478 66.988 33.3513 66.1694 33.0364L66.3913 32.1508C67.1641 32.2297 67.942 32.2455 68.7173 32.198C69.0452 32.1794 69.3682 32.1101 69.6749 31.9926C69.7543 31.9597 69.8248 31.9083 69.8803 31.8426C69.8577 31.8734 69.9954 31.6371 70.0858 31.4891C70.4452 30.8256 70.7351 30.1267 70.9509 29.4036C71.0618 29.0378 71.1563 28.668 71.2385 28.2981C71.2796 28.1111 71.3166 27.9241 71.3495 27.7392L71.3926 27.4618L71.4296 27.2091L73.2789 27.3632Z" fill="#B55B52"/>
<path d="M73.7063 26.157C73.7515 27.3077 73.3056 29.383 73.3056 29.383L70.4577 29.0378C70.4577 29.0378 70.3529 26.0009 70.9056 25.2673C71.8323 24.0406 73.6652 25.068 73.7063 26.157Z" fill="#263238"/>
<path d="M66.7797 32.272L65.0742 31.6659L65.4297 32.944C65.4297 32.944 66.2269 33.4104 66.6831 32.8803L66.7797 32.272Z" fill="#B55B52"/>
<path d="M64.4886 31.9926L64.2544 32.8946L65.4318 32.944L65.0763 31.6659L64.4886 31.9926Z" fill="#B55B52"/>
<path d="M56.4791 37.9637C57.6661 37.9817 58.8448 37.7634 59.9466 37.3216C61.0484 36.8799 62.0513 36.2234 62.8971 35.3903C63.7428 34.5573 64.4144 33.5644 64.8729 32.4694C65.3313 31.3744 65.5674 30.1992 65.5674 29.0121C65.5674 27.825 65.3313 26.6498 64.8729 25.5548C64.4144 24.4598 63.7428 23.4669 62.8971 22.6339C62.0513 21.8009 61.0484 21.1444 59.9466 20.7026C58.8448 20.2608 57.6661 20.0426 56.4791 20.0606H55.3182V37.9637H56.4791Z" fill="#012A4A"/>
<path d="M55.3182 37.9637C60.2626 37.9637 64.2708 33.9555 64.2708 29.0111C64.2708 24.0667 60.2626 20.0585 55.3182 20.0585C50.3738 20.0585 46.3656 24.0667 46.3656 29.0111C46.3656 33.9555 50.3738 37.9637 55.3182 37.9637Z" fill="#012A4A"/>
<path opacity="0.4" d="M55.3182 37.9637C60.2626 37.9637 64.2708 33.9555 64.2708 29.0111C64.2708 24.0667 60.2626 20.0585 55.3182 20.0585C50.3738 20.0585 46.3656 24.0667 46.3656 29.0111C46.3656 33.9555 50.3738 37.9637 55.3182 37.9637Z" fill="black"/>
<path opacity="0.2" d="M60.9313 34.6253C64.0311 31.5255 64.0311 26.4997 60.9313 23.3999C57.8315 20.3001 52.8057 20.3001 49.7059 23.3999C46.6061 26.4997 46.6061 31.5255 49.7059 34.6253C52.8057 37.7251 57.8315 37.7251 60.9313 34.6253Z" fill="#012A4A"/>
<path d="M59.399 29.5227C59.0273 29.1057 58.5268 28.8251 57.9771 28.7255C58.3457 28.6127 58.6785 28.406 58.9429 28.1255C59.2727 27.7486 59.4493 27.2618 59.4381 26.7611C59.4439 26.4619 59.3849 26.165 59.265 25.8908C59.1451 25.6166 58.9672 25.3717 58.7436 25.1728C58.2819 24.744 57.6189 24.5297 56.7546 24.5297H56.2224V23.0256H55.2176V24.5297H53.9724V23.0256H52.9676V24.5297H50.7834V26.3461H51.5745V31.6782H50.7896V33.4925H52.9738V34.9966H53.9786V33.4925H55.2238V34.9966H56.2285V33.4925H56.3559C56.7687 33.4727 57.1802 33.4316 57.5888 33.3692C57.9552 33.3409 58.3129 33.2433 58.6429 33.0816C59.0117 32.8726 59.3181 32.569 59.5305 32.2021C59.7485 31.8208 59.8599 31.3879 59.8531 30.9487C59.8741 30.4348 59.7133 29.9299 59.399 29.5227ZM54.3628 26.3461H55.5854C56.0066 26.3461 56.3005 26.42 56.4689 26.5659C56.5551 26.6428 56.6228 26.7382 56.6669 26.845C56.711 26.9517 56.7305 27.067 56.7237 27.1824C56.7309 27.302 56.7118 27.4217 56.6677 27.5331C56.6237 27.6446 56.5559 27.7451 56.4689 27.8275C56.3005 27.9755 56.0005 28.0495 55.569 28.0495H54.3628V26.3461ZM56.7854 31.3145C56.5799 31.483 56.2532 31.5672 55.7765 31.5672H54.3628V29.7529H55.7703C56.2552 29.7529 56.5943 29.833 56.7874 29.9933C56.882 30.0701 56.9575 30.1678 57.0081 30.2786C57.0588 30.3895 57.0831 30.5105 57.0792 30.6323C57.0846 30.7608 57.0609 30.8888 57.0101 31.0069C56.9592 31.125 56.8824 31.2301 56.7854 31.3145Z" fill="white"/>
<path d="M65.1729 20.2558C65.1729 20.3893 65.0969 20.4982 65.0106 20.5003C64.9243 20.5023 64.8524 20.3934 64.8544 20.2619C64.8565 20.1304 64.9284 20.0195 65.0167 20.0174C65.1051 20.0154 65.175 20.1243 65.1729 20.2558Z" fill="#263238"/>
<path d="M65.0558 20.0257L64.7249 19.9312C64.7249 19.9312 64.8955 20.1839 65.0558 20.0257Z" fill="#263238"/>
<path d="M65.0578 20.3873C64.9335 20.6937 64.7683 20.982 64.5667 21.2441C64.6356 21.2914 64.7138 21.3232 64.7961 21.3374C64.8784 21.3515 64.9627 21.3478 65.0434 21.3263L65.0578 20.3873Z" fill="#A02724"/>
<path d="M65.0044 19.3722C65.0165 19.3753 65.0292 19.3753 65.0414 19.3722C65.136 19.3382 65.2372 19.3266 65.337 19.3384C65.4369 19.3502 65.5326 19.385 65.6167 19.44C65.6333 19.4526 65.6543 19.458 65.6749 19.4551C65.6851 19.4537 65.6949 19.4502 65.7038 19.445C65.7127 19.4398 65.7204 19.4328 65.7266 19.4246C65.7328 19.4164 65.7374 19.407 65.74 19.397C65.7425 19.3871 65.7431 19.3767 65.7417 19.3665C65.7403 19.3563 65.7368 19.3464 65.7316 19.3375C65.7264 19.3287 65.7195 19.3209 65.7112 19.3147C65.6062 19.2456 65.4868 19.2016 65.3622 19.1859C65.2375 19.1703 65.1109 19.1834 64.9921 19.2243C64.9822 19.2273 64.973 19.2323 64.9652 19.2389C64.9573 19.2456 64.9508 19.2538 64.9462 19.263C64.9416 19.2722 64.9389 19.2823 64.9383 19.2926C64.9377 19.3029 64.9392 19.3132 64.9428 19.3229C64.9477 19.3359 64.956 19.3473 64.9669 19.3559C64.9777 19.3646 64.9907 19.3702 65.0044 19.3722Z" fill="#263238"/>
<path d="M69.1119 21.6756C69.0235 22.6763 69.3584 24.3139 70.1146 24.8708C70.1146 24.8708 69.5454 25.9228 67.7228 26.1673C65.7174 26.4365 66.6585 25.3084 66.6585 25.3084C67.7249 24.8975 67.6119 24.1023 67.3407 23.3708L69.1119 21.6756Z" fill="#B55B52"/>
<path d="M65.4688 27.3406C65.251 28.3821 64.9766 29.411 64.6469 30.4227C64.3246 31.4417 63.9389 32.4395 63.4921 33.4103L63.4078 33.5953C63.3729 33.6672 63.3277 33.7514 63.2866 33.8275C63.2059 33.9697 63.1167 34.1069 63.0195 34.2384C62.8411 34.4727 62.6468 34.6944 62.438 34.9021C62.0469 35.2884 61.6309 35.6488 61.1928 35.9808C60.3439 36.624 59.446 37.1998 58.5072 37.7027L58.0038 36.9384C58.7826 36.2891 59.5613 35.611 60.2805 34.9165C60.6352 34.5795 60.9713 34.2235 61.2873 33.8501C61.4318 33.678 61.5649 33.4968 61.6859 33.3076C61.7377 33.2253 61.785 33.1402 61.8277 33.0528L61.877 32.9357L61.9448 32.761C62.1257 32.2967 62.2859 31.8199 62.4483 31.3432C62.6106 30.8665 62.7524 30.3816 62.8941 29.9049C63.1715 28.9351 63.4325 27.9385 63.6606 26.9748L65.4688 27.3406Z" fill="#B55B52"/>
<path d="M58.5997 37.6308L57.6545 38.2473L57.186 37.4439C57.186 37.4439 58.1148 36.3343 58.6757 37.1233L58.5997 37.6308Z" fill="#B55B52"/>
<path d="M58.3552 36.8028L57.8209 36.7226L57.2209 36.85L57.0668 37.0247L57.4572 37.0822L57.56 37.2363L57.6915 37.3206L58.3552 36.8028Z" fill="#B55B52"/>
<path d="M56.7155 38.3274L56.1956 37.9082L57.186 37.448L57.6545 38.2514L56.7155 38.3274Z" fill="#B55B52"/>
<path d="M72.0728 72.4118L70.4146 72.535L69.9214 68.7276L71.5796 68.6043L72.0728 72.4118Z" fill="#B55B52"/>
<path d="M82.6897 67.5748L81.2534 68.4481L78.8658 65.4646L80.3021 64.5913L82.6897 67.5748Z" fill="#B55B52"/>
<path d="M80.824 68.1276L82.1863 66.8167C82.2088 66.7935 82.2391 66.7795 82.2713 66.7772C82.3035 66.7749 82.3354 66.7846 82.3609 66.8043L83.5219 67.7002C83.5499 67.7251 83.5724 67.7556 83.5877 67.7898C83.6031 67.824 83.611 67.861 83.611 67.8985C83.611 67.936 83.6031 67.973 83.5877 68.0072C83.5724 68.0414 83.5499 68.0719 83.5219 68.0968C83.039 68.5468 82.7842 68.7399 82.1842 69.3173C81.8164 69.6728 81.313 70.2276 80.8034 70.7187C80.2939 71.2097 79.7987 70.7454 79.9671 70.4967C80.7274 69.3831 80.6123 68.9659 80.6822 68.3968C80.6963 68.2932 80.7465 68.1978 80.824 68.1276Z" fill="#263238"/>
<path d="M70.3118 72.2987H72.1755C72.2076 72.2984 72.2388 72.3096 72.2634 72.3303C72.2879 72.3511 72.3041 72.38 72.3091 72.4118L72.5597 73.885C72.5651 73.9218 72.5624 73.9593 72.5519 73.995C72.5414 74.0307 72.5234 74.0637 72.499 74.0917C72.4746 74.1198 72.4445 74.1423 72.4107 74.1577C72.3768 74.1731 72.3401 74.181 72.3029 74.1809C71.6515 74.1809 71.3372 74.1316 70.5173 74.1316C70.0139 74.1316 68.9721 74.183 68.2756 74.183C67.579 74.183 67.5256 73.4946 67.8132 73.433C69.1057 73.1535 69.6091 72.7672 70.0365 72.4056C70.1126 72.3382 70.2102 72.3003 70.3118 72.2987Z" fill="#263238"/>
<path opacity="0.2" d="M69.9235 68.7276L70.1968 70.844L71.8344 70.5686L71.5817 68.6063L69.9235 68.7276Z" fill="black"/>
<path opacity="0.2" d="M80.3021 64.5913L78.8658 65.4667L79.8541 66.6995L81.3212 65.8632L80.3021 64.5913Z" fill="black"/>
<path d="M72.909 34.861L66.1941 35.763C63.5927 26.344 64.3612 26.0892 64.3612 26.0892C64.8638 25.8522 65.3805 25.6463 65.9085 25.4728L66.0009 25.444C66.4345 25.3146 66.5249 25.2961 67.1023 25.1646C68.0947 24.9899 69.0153 24.8543 70.1515 24.7536L70.357 24.7372C70.5625 24.7228 70.768 24.7125 70.9734 24.7064C71.107 24.7064 71.2385 24.7064 71.3638 24.6961H72.0193C72.1478 24.6991 72.2742 24.7287 72.3907 24.783C72.5071 24.8374 72.611 24.9153 72.6958 25.0118C72.7806 25.1084 72.8444 25.2215 72.8832 25.344C72.922 25.4665 72.935 25.5957 72.9214 25.7235C72.3501 30.6981 72.533 32.3254 72.909 34.861Z" fill="#263238"/>
<path opacity="0.2" d="M65.5469 28.972C65.6806 29.9461 65.5559 30.9381 65.1852 31.8487C64.7373 30.0118 64.4969 28.7666 64.3756 27.9036C64.8811 27.881 65.4154 28.0782 65.5469 28.972Z" fill="black"/>
<path d="M64.4188 26.0625C63.2702 26.7201 62.4709 28.2878 62.2305 29.1981L64.6777 31.4378C64.6777 31.4378 66.2599 28.3926 65.8468 27.5687C65.4153 26.7118 64.8544 25.8139 64.4188 26.0625Z" fill="#263238"/>
<path d="M69.6789 19.8284C69.5536 21.4722 69.5372 22.1585 68.6906 23.0092C67.4187 24.2893 65.4174 23.8311 65.0455 22.2099C64.7126 20.7469 64.9694 18.3058 66.5968 17.6442C66.9449 17.4887 67.3276 17.4265 67.707 17.4639C68.0865 17.5013 68.4496 17.6369 68.7607 17.8574C69.0718 18.0778 69.3201 18.3755 69.4811 18.7212C69.6421 19.0668 69.7103 19.4484 69.6789 19.8284Z" fill="#B55B52"/>
<path d="M66.2907 20.488C66.4592 19.9065 65.1523 19.2448 65.0126 18.3531C64.8318 17.1962 65.7277 16.2613 66.5639 16.8058C66.903 16.0312 69.2043 15.7045 70.468 16.6641C71.8899 17.7408 70.1475 18.8791 71.5652 19.8325C72.6954 20.5928 72.8495 21.0654 72.1508 21.9756C71.6207 22.6681 72.9912 22.5201 72.644 23.6913C72.2967 24.8626 65.2078 25.292 66.1489 22.664C66.9852 20.3421 65.9578 21.6756 66.2907 20.488Z" fill="#263238"/>
<path d="M66.6893 20.3585C66.6792 20.6633 66.5751 20.9576 66.3913 21.201C66.1365 21.5462 65.8386 21.4537 65.7749 21.1352C65.7091 20.8496 65.7646 20.3256 66.0872 20.0873C66.4098 19.8489 66.6872 20.0174 66.6893 20.3585Z" fill="#B55B52"/>
<path d="M72.0789 22.0373C72.0727 22.0372 72.0666 22.035 72.0617 22.0312C72.0567 22.0274 72.0532 22.022 72.0516 22.016C72.0499 22.0099 72.0503 22.0035 72.0527 21.9977C72.055 21.9919 72.0592 21.9871 72.0645 21.9838C72.5104 21.727 72.7488 21.3674 72.7385 20.9934C72.7262 20.5126 72.3275 20.0277 71.6762 19.6969C70.8995 19.3024 70.9591 18.7681 71.0187 18.2586C71.0782 17.749 71.1378 17.2024 70.3796 16.7627C70.373 16.7585 70.3681 16.752 70.3658 16.7444C70.3636 16.7369 70.3641 16.7288 70.3673 16.7216C70.3715 16.715 70.3782 16.7102 70.3858 16.7083C70.3934 16.7064 70.4015 16.7075 70.4084 16.7113C71.2015 17.1716 71.1378 17.7264 71.0762 18.2647C71.0145 18.8031 70.9611 19.2777 71.6926 19.6537C72.3645 19.9928 72.7734 20.4962 72.7878 20.9996C72.7878 21.4106 72.5494 21.7763 72.0851 22.0414C72.0828 22.0403 72.0807 22.0389 72.0789 22.0373Z" fill="#263238"/>
<path d="M67.9673 35.5247C67.9673 35.5247 70.5748 46.5423 71.7933 52.873C73.0775 59.551 79.2459 66.5084 79.2459 66.5084L81.3397 65.3413C81.3397 65.3413 77.4583 58.9921 76.2028 52.7559C73.6467 40.0986 75.3809 37.5507 72.9152 34.8631L67.9673 35.5247Z" fill="#012A4A"/>
<path d="M79.0384 66.7036L81.652 65.2468L81.2698 64.4742L78.3377 65.8242L79.0384 66.7036Z" fill="#263238"/>
<path opacity="0.2" d="M69.3523 37.9185C71.3803 39.6794 71.1604 45.9321 70.9488 48.7389C70.0981 44.7362 69.0749 40.2815 68.4831 37.7027C68.6886 37.5425 68.9803 37.602 69.3523 37.9185Z" fill="black"/>
<path d="M80.2527 68.8879C80.2725 68.891 80.2926 68.891 80.3123 68.8879C80.5178 68.8879 80.7623 68.5673 80.8856 68.3783C80.8896 68.3718 80.8917 68.3643 80.8917 68.3567C80.8917 68.3491 80.8896 68.3416 80.8856 68.3351C80.8814 68.3283 80.8752 68.3231 80.8678 68.3201C80.8604 68.3171 80.8522 68.3166 80.8445 68.3187C80.7788 68.331 80.1849 68.4564 80.1068 68.6536C80.0982 68.6752 80.0953 68.6988 80.0986 68.7218C80.1018 68.7449 80.1111 68.7667 80.1253 68.7851C80.1547 68.833 80.1997 68.8693 80.2527 68.8879ZM80.7644 68.4214C80.5918 68.668 80.4253 68.8139 80.3103 68.8159C80.2857 68.816 80.2616 68.8096 80.2403 68.7973C80.219 68.785 80.2013 68.7674 80.189 68.7461C80.1825 68.7382 80.1782 68.7287 80.1764 68.7187C80.1746 68.7086 80.1754 68.6982 80.1788 68.6886C80.2219 68.5838 80.5281 68.479 80.7644 68.4235V68.4214Z" fill="#012A4A"/>
<path d="M66.2948 35.7672C66.2948 35.7672 65.1215 48.8498 65.7523 53.8347C66.4181 59.025 69.8064 70.3159 69.8064 70.3159L72.1961 70.0077C72.1961 70.0077 70.2543 58.8175 69.9091 53.6806C69.5331 48.0772 71.2036 35.1035 71.2036 35.1035L66.2948 35.7672Z" fill="#012A4A"/>
<path d="M69.305 70.4577L72.7138 70.0179L72.6604 69.0111L68.9639 69.3686L69.305 70.4577Z" fill="#263238"/>
<path d="M80.3411 68.3742C80.5112 68.4203 80.6891 68.4294 80.863 68.4009C80.8699 68.399 80.8762 68.3953 80.8812 68.3903C80.8863 68.3852 80.8899 68.379 80.8918 68.3721C80.8932 68.3656 80.893 68.3588 80.8912 68.3523C80.8894 68.3459 80.8861 68.34 80.8815 68.3351C80.8671 68.3207 80.5425 67.9858 80.3021 67.9961C80.271 67.9965 80.2405 68.0039 80.2127 68.0178C80.185 68.0316 80.1607 68.0516 80.1418 68.0762C80.1192 68.0979 80.1048 68.1267 80.1011 68.1578C80.0973 68.1889 80.1045 68.2203 80.1212 68.2468C80.178 68.3129 80.2555 68.3579 80.3411 68.3742ZM80.7705 68.3372C80.5651 68.3598 80.2486 68.3002 80.187 68.2057C80.1767 68.1892 80.1685 68.1666 80.2014 68.1255C80.2139 68.1097 80.2298 68.0969 80.248 68.088C80.2661 68.0791 80.286 68.0744 80.3062 68.0742C80.4845 68.1115 80.6468 68.2034 80.7705 68.3372Z" fill="#012A4A"/>
<path d="M69.6954 72.5885C69.8702 72.5854 70.0443 72.5654 70.2153 72.5289C70.2232 72.5273 70.2304 72.5233 70.2359 72.5174C70.2414 72.5115 70.245 72.504 70.2461 72.496C70.2474 72.4879 70.2462 72.4795 70.2425 72.4721C70.2388 72.4648 70.2329 72.4587 70.2255 72.4549C70.1495 72.4159 69.4776 72.0769 69.2783 72.1919C69.2596 72.202 69.2439 72.2168 69.2327 72.2348C69.2215 72.2528 69.2153 72.2735 69.2146 72.2947C69.2109 72.3303 69.2159 72.3663 69.2291 72.3996C69.2424 72.4328 69.2635 72.4624 69.2906 72.4858C69.4102 72.5645 69.5528 72.6007 69.6954 72.5885ZM70.0837 72.4734C69.718 72.533 69.4447 72.5186 69.342 72.4282C69.3246 72.4121 69.3112 72.3923 69.3027 72.3702C69.2941 72.3481 69.2907 72.3244 69.2927 72.3008C69.2927 72.2924 69.2951 72.2841 69.2994 72.2769C69.3037 72.2697 69.3099 72.2638 69.3173 72.2597C69.4262 72.1981 69.8084 72.3419 70.0837 72.4734Z" fill="#012A4A"/>
<path d="M70.207 72.533C70.2151 72.5348 70.2236 72.5348 70.2317 72.533C70.237 72.5285 70.2411 72.5228 70.2436 72.5163C70.2461 72.5099 70.247 72.5029 70.2461 72.496C70.2461 72.4672 70.168 71.7892 69.7961 71.7892H69.7632C69.6563 71.7994 69.6255 71.8529 69.6194 71.8981C69.5885 72.085 69.9892 72.4446 70.1926 72.535L70.207 72.533ZM69.7961 71.8611C70.0365 71.8611 70.131 72.2556 70.1598 72.4241C69.9543 72.3008 69.681 72.0131 69.6974 71.9063C69.6974 71.896 69.6974 71.8693 69.7735 71.8631L69.7961 71.8611Z" fill="#012A4A"/>
<path d="M72.9666 34.4562L73.3323 35.0131C73.3611 35.0562 73.3118 35.1096 73.2337 35.1199L66.192 36.0651C66.1324 36.0651 66.079 36.0507 66.0708 36.0137L65.9475 35.4261C65.9475 35.385 65.9865 35.3418 66.0544 35.3336L72.8515 34.4213C72.8721 34.4168 72.8934 34.4177 72.9136 34.4238C72.9337 34.4299 72.952 34.4411 72.9666 34.4562Z" fill="#012A4A"/>
<path opacity="0.5" d="M72.9666 34.4562L73.3323 35.0131C73.3611 35.0562 73.3118 35.1096 73.2337 35.1199L66.192 36.0651C66.1324 36.0651 66.079 36.0507 66.0708 36.0137L65.9475 35.4261C65.9475 35.385 65.9865 35.3418 66.0544 35.3336L72.8515 34.4213C72.8721 34.4168 72.8934 34.4177 72.9136 34.4238C72.9337 34.4299 72.952 34.4411 72.9666 34.4562Z" fill="white"/>
<path d="M72.1344 35.3418L72.3173 35.3172C72.3522 35.3172 72.3789 35.2905 72.3728 35.2678L72.2063 34.5035C72.2063 34.4829 72.1673 34.4685 72.1303 34.4727L71.9495 34.4973C71.9125 34.4973 71.8858 34.524 71.8919 34.5466L72.0584 35.311C72.0645 35.3233 72.0974 35.3418 72.1344 35.3418Z" fill="#012A4A"/>
<path d="M67.5358 35.9582L67.7166 35.9336C67.7536 35.9336 67.7783 35.9069 67.7742 35.8843L67.6057 35.1199C67.6057 35.0973 67.5687 35.0829 67.5317 35.0891L67.3488 35.1117C67.3139 35.1117 67.2872 35.1404 67.2934 35.163L67.4598 35.9254C67.466 35.9582 67.4988 35.9582 67.5358 35.9582Z" fill="#012A4A"/>
</svg>
