<svg width="98" height="112" viewBox="0 0 98 112" fill="none" xmlns="http://www.w3.org/2000/svg">
<path opacity="0.7" d="M6.78707 37.1515C6.78707 37.1515 0.223054 54.1031 9.44752 71.1723C18.672 88.2416 37.6718 97.2588 52.8788 104.969C68.0857 112.68 83.8765 108.925 91.3799 96.2959C98.8834 83.667 88.5924 74.6521 88.5782 56.6434C88.5641 38.6348 91.274 33.8672 81.5151 18.6532C71.7562 3.43915 47.8333 0.0700345 29.7423 11.3546C11.6512 22.6391 6.78707 37.1515 6.78707 37.1515Z" fill="white"/>
<path d="M8.93896 37.0009C15.7243 24.5085 32.7935 9.92548 56.2102 15.9998C79.6269 22.0741 95.4483 34.9243 92.8561 57.2815C90.264 79.6387 76.6415 98.2147 47.2989 98.7586C17.9562 99.3025 -5.94072 64.3941 8.93896 37.0009Z" fill="#012A4A"/>
<path opacity="0.7" d="M8.93896 37.0009C15.7243 24.5085 32.7935 9.92548 56.2102 15.9998C79.6269 22.0741 95.4483 34.9243 92.8561 57.2815C90.264 79.6387 76.6415 98.2147 47.2989 98.7586C17.9562 99.3025 -5.94072 64.3941 8.93896 37.0009Z" fill="white"/>
<path d="M94.1766 53.8957L78.9044 56.26C78.321 56.3503 77.9213 56.8964 78.0116 57.4798L79.4516 66.7818C79.5419 67.3652 80.0881 67.7649 80.6715 67.6746L95.9437 65.3104C96.5271 65.22 96.9268 64.6739 96.8365 64.0905L95.3964 54.7885C95.3061 54.2051 94.76 53.8054 94.1766 53.8957Z" stroke="#263238" stroke-linecap="round" stroke-linejoin="round"/>
<path d="M78.2448 58.9814L95.6296 56.2903" stroke="#263238" stroke-linecap="round" stroke-linejoin="round"/>
<path d="M94.2703 59.3419L91.462 59.7766L92.088 63.8204L94.8963 63.3856L94.2703 59.3419Z" stroke="#263238" stroke-linecap="round" stroke-linejoin="round"/>
<path d="M92.6019 60.4387C93.1952 59.7324 94.1699 60.2033 93.9415 62.3952L94.8103 62.8261L94.895 63.377L92.0886 63.8125L91.9732 63.0756L93.0327 62.6636C93.0327 62.6636 92.0439 61.105 92.6019 60.4387Z" stroke="#263238" stroke-linecap="round" stroke-linejoin="round"/>
<path d="M86.5111 65.3829C86.5111 65.3829 88.5406 65.3994 87.959 64.9945C87.3775 64.5895 87.2904 64.1798 87.7848 64.1728C88.2792 64.1657 89.108 65.1145 89.042 64.5353C88.9761 63.9562 89.334 64.3329 89.4023 64.3705C89.4705 64.4082 90.0568 64.1728 90.085 64.241C90.1133 64.3093 90.0733 64.5 91.9827 64.2057" stroke="#263238" stroke-linecap="round" stroke-linejoin="round"/>
<path d="M79.7187 60.7871L88.2321 59.4687" stroke="#263238" stroke-linecap="round" stroke-linejoin="round"/>
<path d="M79.8694 61.7525L84.8842 60.9755" stroke="#263238" stroke-linecap="round" stroke-linejoin="round"/>
<path d="M80.1331 63.4547L87.1279 62.3716" stroke="#263238" stroke-linecap="round" stroke-linejoin="round"/>
<path d="M82.3038 57.0885L90.8408 55.7653" stroke="#263238" stroke-linecap="round" stroke-linejoin="round"/>
<path d="M1 51.1248L20.087 47.313L26.7522 79.3138L6.46452 83.6647L1 51.1248Z" stroke="#263238" stroke-linecap="round" stroke-linejoin="round"/>
<path d="M5.69699 79.0995L25.9447 75.4338" stroke="#263238" stroke-linecap="round" stroke-linejoin="round"/>
<path d="M23.5455 72.7121L13.8761 74.4967" stroke="#263238" stroke-linecap="round" stroke-linejoin="round"/>
<path d="M22.1117 71.1064L19.2865 71.5231" stroke="#263238" stroke-linecap="round" stroke-linejoin="round"/>
<path d="M22.5425 67.8386L8.1102 70.5461" stroke="#263238" stroke-linecap="round" stroke-linejoin="round"/>
<path d="M3.49564 65.9904L23.2512 62.5035" stroke="#263238" stroke-linecap="round" stroke-linejoin="round" stroke-dasharray="1 2"/>
<path d="M24.4873 78.2779L12.487 80.7924" stroke="#263238" stroke-linecap="round" stroke-linejoin="round"/>
<path d="M24.1294 77.2655L18.4883 78.2779" stroke="#263238" stroke-linecap="round" stroke-linejoin="round"/>
<path d="M21.0782 60.394L11.1827 62.3552" stroke="#263238" stroke-linecap="round" stroke-linejoin="round"/>
<path d="M20.2965 58.1973L17.144 58.8165" stroke="#263238" stroke-linecap="round" stroke-linejoin="round"/>
<path d="M20.1105 56.6717L5.69699 59.4499" stroke="#263238" stroke-linecap="round" stroke-linejoin="round"/>
<path d="M18.8015 49.246L14.9097 50.0512" stroke="#263238" stroke-linecap="round" stroke-linejoin="round"/>
<path d="M5.69698 52.0124L2.33963 52.6646" stroke="#263238" stroke-linecap="round" stroke-linejoin="round"/>
<path d="M3.56155 54.5152C3.63157 54.2765 3.75182 54.0555 3.91425 53.8671C4.07668 53.6787 4.27752 53.5272 4.50331 53.4227" stroke="#263238" stroke-linecap="round" stroke-linejoin="round"/>
<path d="M5.05424 56.6718C4.63735 56.6224 4.25199 56.4251 3.96815 56.1158C3.68432 55.8065 3.52084 55.4056 3.50742 54.986" stroke="#263238" stroke-linecap="round" stroke-linejoin="round"/>
<path d="M6.36328 56.2715C6.12428 56.4865 5.82685 56.6258 5.50864 56.6717" stroke="#263238" stroke-linecap="round" stroke-linejoin="round"/>
<path d="M5.21906 53.2626C5.52219 53.2725 5.81759 53.3607 6.07649 53.5187C6.3354 53.6767 6.54897 53.8991 6.69643 54.1641C6.84388 54.4291 6.92019 54.7278 6.91792 55.0311C6.91565 55.3344 6.83488 55.632 6.68348 55.8948" stroke="#263238" stroke-linecap="round" stroke-linejoin="round"/>
<path d="M8.65171 53.7053C8.33858 53.6064 8.0278 53.4934 7.70996 53.4227" stroke="#263238" stroke-linecap="round" stroke-linejoin="round"/>
<path d="M11.3216 53.9312C11.0556 54.5646 9.56761 53.9877 9.1344 53.8559" stroke="#263238" stroke-linecap="round" stroke-linejoin="round"/>
<path d="M8.77417 52.2502L11.557 52.9047C11.5123 53.0907 11.477 53.279 11.4417 53.465" stroke="#263238" stroke-linecap="round" stroke-linejoin="round"/>
<path d="M7.39688 52.9047C7.69353 52.1984 7.57581 51.9629 8.31509 52.1348" stroke="#263238" stroke-linecap="round" stroke-linejoin="round"/>
<path d="M41.3541 102.881L45.0387 104.011L42.3006 100.786C43.8016 99.1168 44.661 96.9691 44.7256 94.7255" stroke="#263238" stroke-linecap="round" stroke-linejoin="round"/>
<path d="M36.8831 104.303C38.1182 103.909 39.2836 103.323 40.337 102.568" stroke="#263238" stroke-linecap="round" stroke-linejoin="round"/>
<path d="M22.6651 97.4518C23.7504 102.681 29.5281 105.902 35.5718 104.649" stroke="#263238" stroke-linecap="round" stroke-linejoin="round"/>
<path d="M23.5456 91.5565C23.3137 91.9971 23.1169 92.4552 22.957 92.9268" stroke="#263238" stroke-linecap="round" stroke-linejoin="round"/>
<path d="M44.549 92.9126C43.466 87.6835 37.686 84.4628 31.6447 85.7176C28.9013 86.2563 26.429 87.7279 24.6475 89.8825" stroke="#263238" stroke-linecap="round" stroke-linejoin="round"/>
<path d="M38.138 90.9961C36.3982 89.1008 34.0273 90.4146 33.0408 92.3381C31.4116 90.9255 28.7205 90.5794 27.8117 92.9879C26.2767 97.0445 31.5269 99.519 33.9567 100.414C34.2321 100.517 34.4581 100.604 34.6465 100.668C34.7995 100.538 34.9785 100.374 35.1951 100.176C37.1162 98.4407 41.0716 94.1934 38.138 90.9961Z" stroke="#263238" stroke-linecap="round" stroke-linejoin="round"/>
<path d="M52.6057 13.8219L49.0482 12.341L51.4614 15.8161C49.812 17.3323 48.7541 19.3847 48.4761 21.6078" stroke="#263238" stroke-linecap="round" stroke-linejoin="round"/>
<path d="M57.1874 12.8307C55.9208 13.1053 54.7047 13.5755 53.5828 14.2245" stroke="#263238" stroke-linecap="round" stroke-linejoin="round"/>
<path d="M70.685 21.0192C70.1082 15.7054 64.6672 11.9384 58.5317 12.6141" stroke="#263238" stroke-linecap="round" stroke-linejoin="round"/>
<path d="M69.2418 26.8016C69.5109 26.385 69.747 25.9482 69.9481 25.4949" stroke="#263238" stroke-linecap="round" stroke-linejoin="round"/>
<path d="M48.4761 23.4301C49.053 28.7392 54.4939 32.5015 60.6294 31.8353C63.4114 31.5619 66.0132 30.335 67.9939 28.3625" stroke="#263238" stroke-linecap="round" stroke-linejoin="round"/>
<path d="M62.1609 26.6791C64.8813 25.2229 65.9061 21.8372 64.4499 19.1168C62.9937 16.3965 59.6079 15.3717 56.8875 16.8279C54.1672 18.2841 53.1424 21.6698 54.5986 24.3902C56.0548 27.1105 59.4405 28.1353 62.1609 26.6791Z" stroke="#263238" stroke-linecap="round" stroke-linejoin="round"/>
<path d="M57.4016 22.4601L59.0732 24.0375L61.8608 19.2369" stroke="#263238" stroke-linecap="round" stroke-linejoin="round"/>
<path opacity="0.2" d="M66.5083 74.9676C66.5083 74.9676 65.6701 85.1103 66.8826 87.5706C68.0951 90.0309 68.7026 106.841 68.1587 108.955C68.1587 108.955 72.0623 109.94 73.6067 108.541C75.1512 107.143 77.5268 108.489 81.4398 107.128C85.3527 105.768 82.5298 75.5633 82.5298 75.5633L82.6499 64.5754L76.1965 58.826L66.5083 74.9676Z" fill="black" fill-opacity="0.7"/>
<path d="M71.7114 79.8459C71.6871 79.9184 71.6478 79.985 71.5961 80.0413C70.7626 80.83 67.2051 81.7059 64.1492 82.3368C61.6182 82.8619 59.4404 83.2174 59.4404 83.2174C59.4404 83.2174 57.7641 69.2865 57.7641 67.8221C57.7641 66.3577 55.0612 42.6491 55.0612 42.6491L61.5405 42.3689L70.1363 41.9969C70.1363 41.9969 70.1881 42.6302 70.2753 43.7368C70.8427 50.7858 72.7921 77.0654 71.7114 79.8459Z" fill="#012A4A"/>
<path opacity="0.2" d="M71.7115 79.8459L64.1492 81.3927L61.2933 81.9789C60.5187 81.2185 59.9278 81.2043 59.9278 81.2043L59.6924 79.0736L59.3227 75.5868L56.069 44.9092C56.7753 44.4219 57.1237 43.3553 57.1237 43.3553L61.4793 43.1976L69.0251 42.9221L70.2706 43.7273C70.8427 50.7857 72.7921 77.0653 71.7115 79.8459Z" fill="black" fill-opacity="0.7"/>
<path d="M71.7115 79.8459L64.1492 81.3927L61.2933 81.9789C60.5187 81.2185 59.9278 81.2043 59.9278 81.2043L59.6924 79.0736L59.3227 75.5868L56.069 44.9092C56.7753 44.4219 57.1237 43.3553 57.1237 43.3553L61.4793 43.1976L69.0251 42.9221L70.2706 43.7273C70.8427 50.7857 72.7921 77.0653 71.7115 79.8459Z" stroke="#263238" stroke-linecap="round" stroke-linejoin="round"/>
<path d="M60.328 70.8145L62.8519 70.8098L62.8543 71.5985L62.1527 71.8481L60.5352 72.0247L60.328 70.8145Z" fill="#012A4A" stroke="#263238" stroke-linecap="round" stroke-linejoin="round"/>
<path d="M60.4834 72.4391L62.3387 72.3755L62.8143 72.6015L62.7907 73.6492L60.6247 73.6727L60.4834 72.4391Z" fill="#012A4A" stroke="#263238" stroke-linecap="round" stroke-linejoin="round"/>
<path d="M60.7801 74.1129L62.899 73.9599L62.8755 74.7533L61.8513 75.1159L60.7683 75.0547L60.7801 74.1129Z" fill="#012A4A" stroke="#263238" stroke-linecap="round" stroke-linejoin="round"/>
<path d="M60.9072 75.4503L62.6188 75.5374L62.7742 75.9753L62.5247 76.4579L60.9943 76.5568L60.7306 75.8105L60.9072 75.4503Z" fill="#012A4A" stroke="#263238" stroke-linecap="round" stroke-linejoin="round"/>
<path d="M62.8802 76.983L63.1156 77.6681C63.1532 77.7409 63.1728 77.8216 63.1728 77.9035C63.1728 77.9855 63.1532 78.0662 63.1156 78.139C63.0718 78.189 63.0159 78.227 62.9533 78.2493C62.8906 78.2715 62.8233 78.2773 62.7577 78.2661C62.6259 78.2543 62.4964 78.2096 62.3646 78.2025C61.9667 78.1861 61.6017 78.5133 61.2109 78.438C61.0579 78.0142 60.6718 77.3926 61.1944 77.2019C61.291 77.1713 62.9367 77.1384 62.8802 76.983Z" fill="#012A4A" stroke="#263238" stroke-linecap="round" stroke-linejoin="round"/>
<path d="M62.8731 78.9111C62.9104 79.074 62.9372 79.2392 62.9531 79.4056C62.977 79.5107 62.9736 79.6203 62.9431 79.7237C62.9126 79.8272 62.856 79.9211 62.7789 79.9965C62.6785 80.0517 62.5662 80.0815 62.4517 80.0836L61.0908 80.206C61.071 79.9491 61.067 79.6912 61.0791 79.4338C61.1591 79.1277 61.1026 79.1536 61.3922 79.0289C61.8513 78.8334 62.4022 79.1442 62.8731 78.9111Z" fill="#012A4A" stroke="#263238" stroke-linecap="round" stroke-linejoin="round"/>
<path d="M57.9242 45.6061C57.9242 45.6061 58.4374 50.5668 58.461 51.5486" stroke="#263238" stroke-linecap="round" stroke-linejoin="round"/>
<path d="M59.0308 45.6603L59.2709 48.3937" stroke="#263238" stroke-linecap="round" stroke-linejoin="round"/>
<path d="M62.866 44.6267L63.1768 47.831L63.6124 47.8734L63.4711 44.6573L62.866 44.6267Z" fill="#012A4A" stroke="#263238" stroke-linecap="round" stroke-linejoin="round"/>
<path opacity="0.2" d="M71.7115 79.8459C71.6871 79.9184 71.6478 79.985 71.5961 80.0413C70.7626 80.83 67.2052 81.7059 64.1492 82.3368V80.2179L59.7018 79.0784L59.0308 78.9065L59.3321 75.5915L60.4834 62.925L61.4887 43.207L61.5311 42.3689L70.1364 41.9969C70.1364 41.9969 70.1882 42.6302 70.2753 43.7368C70.8427 50.7858 72.7921 77.0654 71.7115 79.8459Z" fill="black" fill-opacity="0.7"/>
<path d="M71.7114 79.8459C71.6871 79.9184 71.6478 79.985 71.5961 80.0413C70.7626 80.83 67.2051 81.7059 64.1492 82.3368C61.6182 82.8619 59.4404 83.2174 59.4404 83.2174C59.4404 83.2174 57.7641 69.2865 57.7641 67.8221C57.7641 66.3577 55.0612 42.6491 55.0612 42.6491L61.5405 42.3689L70.1363 41.9969C70.1363 41.9969 70.1881 42.6302 70.2753 43.7368C70.8427 50.7858 72.7921 77.0654 71.7114 79.8459Z" stroke="#263238" stroke-linecap="round" stroke-linejoin="round"/>
<path d="M76.2719 111.458C76.326 110.961 75.5444 103.835 75.5303 103.06C75.4926 100.941 74.8922 98.1606 74.8922 98.1606C74.0541 96.0182 73.4019 91.081 71.1652 87.9144C68.9286 84.7477 68.9309 81.0231 68.5589 77.8612C68.1869 74.6992 68.2788 74.9724 68.3729 72.1659C68.4409 70.0578 68.3472 67.9476 68.0928 65.8538C67.9068 63.9892 67.5348 60.7095 68.0928 59.1815C68.6508 57.6535 70.1105 57.298 71.7091 58.8284C73.3077 60.3587 73.9599 66.6331 73.9599 67.4077C73.9599 68.1823 73.9599 70.6026 74.5202 71.535C74.5202 71.535 77.6869 69.9151 77.6869 69.4678C77.6869 69.0205 77.5927 65.0675 78.0589 64.8556L76.1965 58.8284L79.7281 57.5735C80.3929 58.1697 80.9671 58.8598 81.4327 59.6218C81.8313 60.2527 82.165 60.9225 82.4286 61.6207C83.9189 65.5737 86.3133 68.3306 86.8077 69.4678C87.3022 70.605 86.8077 79.6364 86.8077 81.3151C86.8077 82.9937 85.7247 90.7326 85.753 92.0345C85.7742 92.9763 86.4098 96.4796 87.0432 99.166C87.2786 100.202 88.7077 107.708 88.9267 108.303L76.2719 111.458Z" fill="white"/>
<path opacity="0.4" d="M79.0595 64.4577C79.0359 64.9639 79.641 68.9993 79.641 68.9993C80.0601 70.0046 77.7716 73.4326 77.7716 73.4326C77.2772 73.7104 77.0653 75.4338 77.0653 75.4338C75.5161 75.0901 71.9681 71.5232 71.9681 71.5232C71.9681 71.5232 71.549 72.9853 71.0781 76.6039C70.6072 80.2226 73.5926 88.8185 74.864 94.7538C76.1353 100.689 75.5303 103.053 75.5303 103.053C75.4926 100.934 74.8922 98.1536 74.8922 98.1536C74.0541 96.0111 73.4019 91.074 71.1652 87.9073C68.9286 84.7407 68.9309 81.0231 68.5589 77.8612C68.1869 74.6992 68.2788 74.9724 68.3729 72.1659C68.4409 70.0578 68.3472 67.9476 68.0928 65.8538C67.9068 63.9892 67.5348 60.7095 68.0928 59.1815C68.6508 57.6535 70.1105 57.298 71.7091 58.8284C73.3077 60.3587 73.9599 66.6331 73.9599 67.4077C73.9599 68.1823 73.9599 70.6026 74.5202 71.535C74.5202 71.535 77.6869 69.9151 77.6869 69.4678C77.6869 69.0205 77.5927 65.0675 78.0589 64.8556L76.1965 58.8284L79.7281 57.5735C80.3929 58.1697 80.9671 58.8598 81.4327 59.6218C80.2908 61.9055 79.083 64.1422 79.0595 64.4577Z" fill="#012A4A"/>
<path opacity="0.4" d="M84.9972 92.6584C85.1526 91.2458 85.6164 87.8884 85.9107 85.793C85.5505 87.4293 84.969 88.2581 84.969 88.2581C84.969 88.2581 85.9719 76.2507 86.0708 75.5185C86.1697 74.7863 87.1821 71.4949 86.8101 69.456C87.3045 70.5908 86.8101 79.6246 86.8101 81.3032C86.8101 82.9819 85.7271 90.7208 85.7553 92.0227C85.7765 92.9645 86.7865 98.9658 87.4199 101.652C86.059 99.6745 84.8418 94.0781 84.9972 92.6584Z" fill="#012A4A"/>
<path d="M88.922 108.292C88.178 106.149 85.7883 93.3177 85.76 92.0228C85.7318 90.7279 86.8148 82.9796 86.8148 81.3033C86.8148 79.627 87.3092 70.5908 86.8148 69.456C86.3204 68.3212 83.926 65.5619 82.4356 61.6089C81.8723 60.0632 80.9462 58.6752 79.7352 57.5617L76.2036 58.8166L78.0659 64.8438C77.595 65.0557 77.6939 69.0087 77.6939 69.456C77.6939 69.9034 74.5273 71.5232 74.5273 71.5232C73.9669 70.5814 73.9669 68.1705 73.9669 67.3959C73.9669 66.6214 73.3148 60.3446 71.7162 58.8166C70.1175 57.2886 68.6555 57.6394 68.0998 59.1697C67.5442 60.7001 67.9138 63.9774 68.0998 65.8421C68.3546 67.9382 68.4483 70.0508 68.38 72.1612C68.2858 74.9676 68.1916 74.6898 68.566 77.8565C68.9403 81.0231 68.938 84.7477 71.1723 87.9144C73.4066 91.081 74.0611 96.0181 74.8993 98.1606C74.8993 98.1606 76.4814 109.596 76.2789 111.458" stroke="#263238" stroke-linecap="round" stroke-linejoin="round"/>
<path d="M74.5202 71.5231C74.5202 71.5231 75.0782 74.1294 76.3354 75.4338" stroke="#263238" stroke-linecap="round" stroke-linejoin="round"/>
<path d="M74.8593 72.7121C74.8593 72.7121 77.2136 73.4325 78.1978 73.4773" stroke="#263238" stroke-linecap="round" stroke-linejoin="round"/>
<path d="M77.6869 69.456C77.6869 69.456 79.3632 68.6814 80.4344 69.1476" stroke="#263238" stroke-linecap="round" stroke-linejoin="round"/>
<path d="M78.0589 64.8438C78.0589 64.8438 79.3632 64.7237 79.641 64.0715" stroke="#263238" stroke-linecap="round" stroke-linejoin="round"/>
<path d="M71.5961 88.5783C71.5961 88.5783 74.1011 91.6884 74.8451 93.2706" stroke="#263238" stroke-linecap="round" stroke-linejoin="round"/>
<path d="M86.1626 74.9677C85.7436 77.4374 85.1832 84.1898 84.9972 85.3999" stroke="#263238" stroke-linecap="round" stroke-linejoin="round"/>
<path d="M86.9631 70.3107C87.0338 72.5473 86.4922 73.7104 86.4922 73.7104" stroke="#263238" stroke-linecap="round" stroke-linejoin="round"/>
<path d="M67.7066 39.0139L84.969 43.5672C84.969 43.5672 78.9017 61.9808 77.6704 64.2646L75.6126 80.3167C75.6126 80.3167 64.5847 79.8317 59.5134 78.299C59.5134 78.299 62.7201 61.5829 62.8919 59.3533C63.0638 57.1237 67.7066 39.0139 67.7066 39.0139Z" fill="#012A4A"/>
<path opacity="0.2" d="M63.9938 58.3645L67.7985 42.0981C67.7985 42.0981 69.4348 41.2858 70.0681 40.5442L82.4357 44.0616C82.4357 44.0616 82.4733 45.2741 83.182 46.0511L76.9405 64.0362L75.4267 77.2937C75.4267 77.2937 73.4137 77.4538 73.2206 78.9418C73.2206 78.9418 66.6943 79.2949 62.3175 78.1413C62.3175 78.1413 61.8019 76.5332 61.0132 75.5162L63.9938 58.3645Z" fill="black" fill-opacity="0.7"/>
<path d="M63.9938 58.3645L67.7985 42.0981C67.7985 42.0981 69.4348 41.2858 70.0681 40.5442L82.4357 44.0616C82.4357 44.0616 82.4733 45.2741 83.182 46.0511L76.9405 64.0362L75.4267 77.2937C75.4267 77.2937 73.4137 77.4538 73.2206 78.9418C73.2206 78.9418 66.6943 79.2949 62.3175 78.1413C62.3175 78.1413 61.8019 76.5332 61.0132 75.5162L63.9938 58.3645Z" stroke="#263238" stroke-linecap="round" stroke-linejoin="round"/>
<path d="M67.1605 59.2098C67.1605 59.2098 68.2835 54.9719 72.2389 55.7323C76.1942 56.4928 73.9599 61.7148 73.9599 61.7148C73.9599 61.7148 73.9835 65.9292 70.7744 65.3476C67.9916 64.8438 66.5083 63.3158 67.1605 59.2098Z" fill="#012A4A" stroke="#263238" stroke-linecap="round" stroke-linejoin="round"/>
<path d="M69.3029 43.6449C69.3029 43.6449 68.1069 48.4879 67.7985 49.4202" stroke="#263238" stroke-linecap="round" stroke-linejoin="round"/>
<path d="M70.3271 44.064L69.6302 46.7198" stroke="#263238" stroke-linecap="round" stroke-linejoin="round"/>
<path d="M79.0595 45.9263L81.4398 46.7644L81.1785 47.5108H80.4345L78.85 47.1388L79.0595 45.9263Z" fill="#012A4A" stroke="#263238" stroke-linecap="round" stroke-linejoin="round"/>
<path d="M78.664 47.5107L80.4345 48.0687L80.8065 48.4407L80.4345 49.4201L78.3838 48.7209L78.664 47.5107Z" fill="#012A4A" stroke="#263238" stroke-linecap="round" stroke-linejoin="round"/>
<path d="M78.3838 49.1871L80.4345 49.7522L80.1449 50.4915H79.0595L78.0589 50.0724L78.3838 49.1871Z" fill="#012A4A" stroke="#263238" stroke-linecap="round" stroke-linejoin="round"/>
<path d="M78.0589 50.4915L79.641 51.1436V51.6074L79.2455 51.9818L77.7717 51.5627V50.7693L78.0589 50.4915Z" fill="#012A4A" stroke="#263238" stroke-linecap="round" stroke-linejoin="round"/>
<path d="M79.408 52.5939V53.3191C79.4202 53.3989 79.4136 53.4806 79.3887 53.5574C79.3637 53.6343 79.3211 53.7042 79.2643 53.7617C79.2059 53.7936 79.1403 53.8104 79.0736 53.8104C79.007 53.8104 78.9414 53.7936 78.8829 53.7617C78.7629 53.7052 78.6475 53.6204 78.5345 53.571C78.1649 53.4227 77.7105 53.6087 77.3573 53.4109C77.3573 52.9612 77.1996 52.2478 77.7552 52.2337C77.847 52.2408 79.408 52.7587 79.408 52.5939Z" fill="#012A4A" stroke="#263238" stroke-linecap="round" stroke-linejoin="round"/>
<path d="M78.7558 54.4091C78.738 54.5751 78.7081 54.7396 78.6663 54.9012C78.6145 55.1107 78.5133 55.3438 78.3038 55.4003C78.1909 55.4191 78.0752 55.4093 77.9671 55.3721L76.6439 55.0236C76.7079 54.7759 76.7865 54.5322 76.8794 54.2938C77.0583 54.0324 76.9971 54.0371 77.3102 54.0159C77.8188 53.9948 78.2331 54.4727 78.7558 54.4091Z" fill="#012A4A" stroke="#263238" stroke-linecap="round" stroke-linejoin="round"/>
<path d="M74.2872 44.3912L73.4937 47.5108L73.8893 47.6968L74.8452 44.622L74.2872 44.3912Z" fill="#012A4A" stroke="#263238" stroke-linecap="round" stroke-linejoin="round"/>
<path d="M64.3447 65.3405L66.7885 65.9738L66.5907 66.7367L65.8491 66.8026L64.2387 66.5648L64.3447 65.3405Z" fill="#012A4A" stroke="#263238" stroke-linecap="round" stroke-linejoin="round"/>
<path d="M64.0856 66.9532L65.8961 67.3582L66.3011 67.6972L66.0139 68.7049L63.9114 68.1822L64.0856 66.9532Z" fill="#012A4A" stroke="#263238" stroke-linecap="round" stroke-linejoin="round"/>
<path d="M63.9515 68.6484L66.0422 69.0346L65.8161 69.795L64.7355 69.8892L63.7019 69.5572L63.9515 68.6484Z" fill="#012A4A" stroke="#263238" stroke-linecap="round" stroke-linejoin="round"/>
<path d="M63.7372 69.9739L65.3711 70.4895L65.4112 70.9534L65.0486 71.3583L63.5441 71.0664L63.4759 70.2777L63.7372 69.9739Z" fill="#012A4A" stroke="#263238" stroke-linecap="round" stroke-linejoin="round"/>
<path d="M65.2605 71.954L65.3241 72.6768C65.3434 72.7555 65.3438 72.8377 65.3254 72.9166C65.307 72.9956 65.2702 73.0691 65.2181 73.1312C65.1627 73.1679 65.0988 73.19 65.0325 73.1953C64.9662 73.2007 64.8997 73.1891 64.8391 73.1618C64.7143 73.117 64.6036 73.0417 64.4741 73.004C64.0951 72.8863 63.6572 73.11 63.2969 72.9428C63.2546 72.4955 63.0403 71.7986 63.5912 71.7444C63.676 71.7397 65.2746 72.1188 65.2605 71.954Z" fill="#012A4A" stroke="#263238" stroke-linecap="round" stroke-linejoin="round"/>
<path d="M64.7684 73.8186C64.7651 73.9899 64.7493 74.1606 64.7213 74.3295C64.686 74.5414 64.606 74.7839 64.4035 74.8569C64.2922 74.8852 64.1757 74.8852 64.0644 74.8569L62.7177 74.6215C62.7631 74.3685 62.8236 74.1185 62.899 73.8728C63.0544 73.5973 62.9932 73.6068 63.304 73.5597C63.7984 73.4867 64.2504 73.9269 64.7684 73.8186Z" fill="#012A4A" stroke="#263238" stroke-linecap="round" stroke-linejoin="round"/>
<path d="M74.5202 76.1047C74.5202 76.1047 75.0806 69.8562 75.0806 69.2276" stroke="#263238" stroke-linecap="round" stroke-linejoin="round"/>
<path d="M73.4019 75.8246C73.4019 75.8246 73.6374 72.5755 73.6797 72.0105" stroke="#263238" stroke-linecap="round" stroke-linejoin="round"/>
<path d="M69.0346 73.4772L68.2788 77.176H69.0346L69.5831 73.4772H69.0346Z" fill="#012A4A" stroke="#263238" stroke-linecap="round" stroke-linejoin="round"/>
<path opacity="0.2" d="M77.7104 64.1728C76.0765 63.8314 74.6191 63.3299 73.5408 62.6071C73.5408 62.6071 74.3225 64.8532 77.0936 68.6814L75.6032 80.3168C75.6032 80.3168 68.4059 80.0013 62.9673 79.0713C64.6389 74.3625 67.676 65.4394 67.3158 63.6713C66.8285 61.2439 68.5495 58.3787 68.5495 58.3787C73.9905 57.3992 79.2667 53.2861 82.8877 49.8087C81.0442 55.2591 78.5274 62.5577 77.7104 64.1728Z" fill="black" fill-opacity="0.7"/>
<path d="M67.7066 39.0139L84.969 43.5672C84.969 43.5672 78.9017 61.9808 77.6704 64.2646L75.6126 80.3167C75.6126 80.3167 64.5847 79.8317 59.5134 78.299C59.5134 78.299 62.7201 61.5829 62.8919 59.3533C63.0638 57.1237 67.7066 39.0139 67.7066 39.0139Z" stroke="#263238" stroke-linecap="round" stroke-linejoin="round"/>
<path d="M77.2772 75.6693L74.8451 93.2706C74.3036 92.1193 72.8274 90.1558 72.0646 89.174C71.7821 88.8067 71.5937 88.5783 71.5937 88.5783L71.1629 87.9144C68.9286 84.7478 68.9286 81.0231 68.5566 77.8565C68.1846 74.6898 68.2764 74.9677 68.3706 72.1612C68.4391 70.0548 68.3462 67.9462 68.0928 65.8539C67.9068 63.9892 67.5348 60.7095 68.0928 59.1815C68.3659 58.4329 68.8579 57.9667 69.4748 57.8678C70.0916 57.7689 70.8874 58.0514 71.7091 58.8284C73.3077 60.3564 73.9599 66.6332 73.9599 67.4078C73.9599 68.1823 73.9599 70.6026 74.5202 71.535C74.5202 71.5232 76.0223 74.3649 77.2772 75.6693Z" fill="white"/>
<path opacity="0.4" d="M70.9792 86.6594C71.4878 87.3093 71.8339 88.2463 72.0646 89.1739C71.7821 88.8066 71.5937 88.5783 71.5937 88.5783L71.1629 87.9143C68.9286 84.7477 68.9286 81.0231 68.5566 77.8564C68.1846 74.6898 68.2764 74.9676 68.3706 72.1612C68.4391 70.0547 68.3462 67.9461 68.0928 65.8538C67.9068 63.9891 67.5348 60.7095 68.0928 59.1815C68.3659 58.4328 68.8579 57.9666 69.4748 57.8677C70.652 58.2021 71.8292 59.4004 72.2388 61.4511C72.9451 64.8932 69.7597 62.1127 69.0227 65.0298C68.2858 67.9468 69.3571 68.7332 69.7973 69.4678C70.2376 70.2023 69.6749 71.8221 69.0227 73.9976C68.3706 76.173 69.5831 84.8725 70.9792 86.6594Z" fill="#012A4A"/>
<path d="M77.2772 75.6693C76.0199 74.3649 74.5202 71.5232 74.5202 71.5232C73.9599 70.5814 73.9599 68.1705 73.9599 67.396C73.9599 66.6214 73.3077 60.3446 71.7091 58.8166C70.1105 57.2886 68.6484 57.6394 68.0928 59.1698C67.5371 60.7001 67.9068 63.9774 68.0928 65.8421C68.3476 67.9382 68.4412 70.0508 68.3729 72.1612C68.2787 74.9676 68.1846 74.6898 68.5589 77.8565C68.9333 81.0231 68.9309 84.7477 71.1652 87.9144L71.5961 88.5783C71.5961 88.5783 74.1011 91.6885 74.8451 93.2706" stroke="#263238" stroke-linecap="round" stroke-linejoin="round"/>
<path d="M69.0345 68.2199C69.0345 68.2199 71.1699 67.1157 72.2388 67.2099" stroke="#263238" stroke-linecap="round" stroke-linejoin="round"/>
<path opacity="0.2" d="M36.424 38.0273C36.424 38.0273 31.023 32.0802 30.651 31.7152C30.279 31.3503 29.9989 25.0076 28.9724 22.2153C27.9459 19.423 27.4491 3.02712 27.4491 3.02712C27.4491 3.02712 26.472 1.81697 23.7174 2.46914C20.9628 3.1213 18.2623 1.90879 15.1898 3.67929C12.1174 5.44978 18.0763 30.7735 18.0763 30.7735L24.1247 50.0488L36.424 38.0273Z" fill="black" fill-opacity="0.7"/>
<path d="M40.1345 38.0721C40.1345 38.0721 37.7142 53.5333 35.1903 55.5816C33.733 56.7588 31.461 57.3003 29.4456 57.2297C27.9859 57.1779 26.658 56.8106 25.8764 56.1443C24.0141 54.5598 21.4031 53.7216 20.1034 52.6975C18.8038 51.6733 18.7991 48.0405 17.961 44.9657C17.1228 41.8909 15.9103 41.799 15.6325 38.7266C15.3547 35.6541 14.234 26.2484 12.2092 23.6374C10.1844 21.0264 10.1374 18.9804 9.2992 16.3247C8.46104 13.6689 2.33023 4.06069 2.33023 4.06069L17.2758 1C17.2758 1 18.745 7.08136 20.3177 12.042C21.064 14.3964 21.8339 16.5012 22.479 17.5795C23.7177 19.6653 24.7907 21.8451 25.688 24.0988C27.3785 25.8693 28.3037 29.7917 28.5839 33.2268L32.5864 35.4587C35.6635 36.2992 40.1345 38.0721 40.1345 38.0721Z" fill="white"/>
<path opacity="0.4" d="M40.1345 38.072C40.1345 38.072 37.7142 53.5332 35.1903 55.5815C33.7329 56.7587 31.4609 57.3002 29.4456 57.2296C24.6662 56.0524 23.3807 53.3872 22.7332 52.7421C21.8715 51.8828 20.7391 46.6467 21.3606 43.6001C21.9822 40.5535 21.5349 39.4258 21.0216 37.9378C19.8844 34.6417 23.3524 32.8665 23.7103 31.6187C24.0682 30.3708 23.9457 23.3924 22.3848 21.1228C21.556 19.915 19.4206 13.69 20.32 12.0467C21.0663 14.4011 21.8362 16.5059 22.4813 17.5842C23.72 19.6699 24.793 21.8497 25.6903 24.1035C27.3808 25.874 28.3061 29.7964 28.5862 33.2314L32.5887 35.4634C35.6635 36.2992 40.1345 38.072 40.1345 38.072Z" fill="#012A4A"/>
<path d="M21.8833 36.9843C21.8833 36.9843 21.0404 37.9755 20.2964 37.9755" stroke="#263238" stroke-linecap="round" stroke-linejoin="round"/>
<path d="M23.7174 40.3346C23.7174 40.3346 22.811 42.2605 21.363 42.689" stroke="#263238" stroke-linecap="round" stroke-linejoin="round"/>
<path d="M22.107 51.6215C22.107 51.6215 24.1577 50.7363 24.4826 49.246" stroke="#263238" stroke-linecap="round" stroke-linejoin="round"/>
<path d="M32.591 35.4611C32.591 35.4611 32.0778 36.1132 32.0778 36.6382" stroke="#263238" stroke-linecap="round" stroke-linejoin="round"/>
<path d="M17.2853 1C17.2853 1 20.4825 14.2246 22.4884 17.589C23.7271 19.6747 24.8001 21.8545 25.6975 24.1082C27.3879 25.8787 28.3132 29.8035 28.5933 33.2385L32.5958 35.4705C35.6683 36.3086 40.1298 38.0791 40.1298 38.0791C40.1298 38.0791 37.7095 53.5403 35.1856 55.5887C32.6617 57.637 27.7575 57.7217 25.874 56.1396C23.9905 54.5574 21.4007 53.7169 20.1011 52.6928C18.8015 51.6686 18.7968 48.0358 17.9586 44.961C17.1204 41.8862 15.9079 41.7943 15.6301 38.7219C15.3523 35.6494 14.2316 26.2437 12.2069 23.6327C10.1821 21.0216 10.135 18.9757 9.29684 16.3199C8.45868 13.6642 2.33023 4.06069 2.33023 4.06069" stroke="#263238" stroke-linecap="round" stroke-linejoin="round"/>
<path d="M45.7968 37.0691L21.0781 75.1182L26.9123 75.768L44.6384 76.505L46.4536 42.6607L45.7968 37.0691Z" fill="#263238" stroke="#263238" stroke-linecap="round" stroke-linejoin="round"/>
<path d="M45.7968 37.0667L43.513 75.8551L21.0781 75.1182L22.8486 45.3965L23.3995 36.1674L33.1749 36.5605L45.7968 37.0667Z" fill="#757575"/>
<path d="M40.1556 71.3889C41.664 71.3889 42.8867 70.1661 42.8867 68.6578C42.8867 67.1494 41.664 65.9267 40.1556 65.9267C38.6473 65.9267 37.4246 67.1494 37.4246 68.6578C37.4246 70.1661 38.6473 71.3889 40.1556 71.3889Z" fill="#BFBFBF" stroke="#263238" stroke-miterlimit="10"/>
<path d="M39.3857 66.845L41.2363 67.0875" stroke="#263238" stroke-linecap="round" stroke-linejoin="round"/>
<path d="M38.889 67.2946L41.6695 67.5654" stroke="#263238" stroke-linecap="round" stroke-linejoin="round"/>
<path d="M38.5806 70.0352L41.3634 70.3059" stroke="#263238" stroke-linecap="round" stroke-linejoin="round"/>
<path d="M39.7978 67.9138C39.8742 67.9329 39.955 67.9217 40.0234 67.8827C40.0918 67.8437 40.1426 67.7798 40.1651 67.7043L40.3723 67.7255L40.1627 69.6914L39.8543 69.6584L40.0144 68.1587L39.779 68.1328L39.7978 67.9138Z" fill="#263238"/>
<path d="M40.8267 67.9962C40.9491 67.9962 41.0056 68.088 40.9915 68.2175V68.2411L40.8714 68.2293V68.2081C40.8714 68.1516 40.8573 68.1257 40.8172 68.121C40.7772 68.1163 40.7513 68.1375 40.7466 68.194C40.7419 68.2505 40.7607 68.2999 40.8361 68.38C40.8743 68.4123 40.9043 68.4534 40.9235 68.4996C40.9428 68.5459 40.9507 68.5961 40.9467 68.646C40.9326 68.7755 40.862 68.8414 40.7372 68.8273C40.6124 68.8132 40.5583 68.7331 40.57 68.606V68.5565L40.6877 68.5683V68.6272C40.6877 68.6837 40.7042 68.7072 40.7442 68.7119C40.7843 68.7166 40.8125 68.6978 40.8172 68.6413C40.8219 68.5848 40.8031 68.5354 40.7278 68.4553C40.6895 68.4229 40.6595 68.3819 40.6403 68.3357C40.6211 68.2894 40.6131 68.2392 40.6171 68.1893C40.6336 68.048 40.7066 67.9727 40.8267 67.9962Z" fill="#263238"/>
<path d="M41.048 68.0292L41.4388 68.0692L41.4247 68.1846L41.2928 68.1704L41.2198 68.8579L41.0951 68.8461L41.168 68.1563L41.0362 68.1422L41.048 68.0292Z" fill="#263238"/>
<path d="M34.4294 38.7886L30.0497 37.8329C29.9366 37.8082 29.825 37.8799 29.8003 37.9929L29.2045 40.7233C29.1798 40.8364 29.2515 40.948 29.3645 40.9727L33.7442 41.9284C33.8573 41.9531 33.9689 41.8815 33.9936 41.7684L34.5894 39.038C34.6141 38.9249 34.5424 38.8133 34.4294 38.7886Z" fill="white" stroke="#263238" stroke-linecap="round" stroke-linejoin="round"/>
<path d="M31.4657 40.4876C31.4646 40.4688 31.4598 40.4504 31.4515 40.4334C31.4492 40.4242 31.4492 40.4145 31.4515 40.4052C31.4551 40.3981 31.4609 40.3923 31.468 40.3887C31.5316 40.3322 31.4539 40.2569 31.3927 40.2427C31.3715 40.2375 31.3493 40.2377 31.3283 40.2435C31.3073 40.2493 31.2881 40.2604 31.2726 40.2757L31.322 40.0921L31.5386 40.1391L31.5622 40.0261L31.2373 39.9555C31.2304 39.9713 31.2257 39.9879 31.2232 40.0049C31.2232 40.0214 31.2443 40.0261 31.2443 40.045C31.2443 40.0638 31.2443 40.0615 31.2443 40.0709C31.2486 40.0847 31.2579 40.0964 31.2702 40.1038C31.282 40.1038 31.2938 40.125 31.2914 40.1391C31.293 40.1437 31.293 40.1487 31.2914 40.1533C31.2825 40.1749 31.2668 40.1931 31.2467 40.2051C31.2374 40.2069 31.2291 40.2119 31.2232 40.2192V40.2333C31.2232 40.2498 31.2043 40.2592 31.1902 40.2686C31.1761 40.2781 31.1407 40.3534 31.1266 40.4052L31.2443 40.4311V40.4075C31.2561 40.351 31.2867 40.3369 31.3244 40.344C31.3621 40.351 31.3856 40.3793 31.3715 40.4358L31.3338 40.61C31.3338 40.6642 31.2938 40.6807 31.2538 40.6712C31.2137 40.6618 31.1949 40.6383 31.2067 40.5818L31.2232 40.5088L31.1054 40.4829L31.0913 40.5488C31.0822 40.5744 31.0786 40.6016 31.0808 40.6286C31.0831 40.6556 31.091 40.6819 31.1042 40.7056C31.1174 40.7293 31.1355 40.7499 31.1573 40.7661C31.179 40.7822 31.204 40.7936 31.2305 40.7993C31.2571 40.8051 31.2845 40.8051 31.311 40.7994C31.3375 40.7937 31.3625 40.7824 31.3843 40.7662C31.4061 40.7501 31.4243 40.7295 31.4375 40.7058C31.4507 40.6821 31.4587 40.6559 31.4609 40.6289C31.4693 40.5822 31.4709 40.5347 31.4657 40.4876Z" fill="#263238"/>
<path d="M33.0031 40.8172C33.0009 40.7986 32.9961 40.7804 32.9889 40.7631C32.9866 40.7538 32.9866 40.7441 32.9889 40.7348C32.9925 40.7277 32.9983 40.722 33.0054 40.7184C33.0666 40.6619 32.9889 40.5865 32.9301 40.5724C32.9089 40.5671 32.8867 40.5674 32.8657 40.5732C32.8447 40.5789 32.8255 40.59 32.81 40.6054L32.8594 40.4217L33.076 40.4688L33.0996 40.3558L32.7747 40.2852C32.7668 40.3006 32.762 40.3174 32.7606 40.3346C32.7606 40.3511 32.7794 40.3558 32.7817 40.3746C32.7841 40.3935 32.7817 40.3911 32.7817 40.4005C32.786 40.4143 32.7953 40.426 32.8076 40.4335C32.8194 40.4335 32.8312 40.4547 32.8288 40.4688C32.8265 40.4829 32.8288 40.4688 32.8288 40.4829C32.8198 40.5052 32.8031 40.5236 32.7817 40.5347C32.7734 40.5371 32.766 40.5421 32.7606 40.5488C32.7606 40.5488 32.7606 40.5488 32.7606 40.563C32.7606 40.5771 32.7441 40.5889 32.7299 40.5983C32.7158 40.6077 32.6805 40.683 32.6664 40.7348L32.7841 40.7607V40.7372C32.7959 40.6807 32.8265 40.6666 32.8641 40.6736C32.9018 40.6807 32.923 40.7089 32.9112 40.7655L32.8736 40.9397C32.8736 40.9938 32.8335 41.0103 32.7935 41.0009C32.7535 40.9915 32.7347 40.9679 32.7464 40.9114L32.7629 40.8384L32.6452 40.8125L32.6311 40.8785C32.624 40.9032 32.622 40.9292 32.6253 40.9547C32.6286 40.9803 32.6372 41.0049 32.6504 41.027C32.6636 41.0491 32.6812 41.0683 32.7021 41.0833C32.723 41.0984 32.7468 41.109 32.772 41.1145C32.7972 41.12 32.8232 41.1202 32.8485 41.1152C32.8738 41.1103 32.8977 41.1002 32.919 41.0855C32.9402 41.0709 32.9582 41.0521 32.9718 41.0303C32.9855 41.0084 32.9945 40.984 32.9983 40.9585C33.0078 40.912 33.0094 40.8643 33.0031 40.8172Z" fill="#263238"/>
<path d="M32.3132 40.6431H32.325C32.325 40.6313 32.325 40.6195 32.325 40.603H32.3768L32.4168 40.4218C32.4258 40.396 32.4293 40.3686 32.427 40.3414C32.4246 40.3142 32.4166 40.2877 32.4033 40.2639C32.39 40.24 32.3718 40.2193 32.3498 40.2029C32.3279 40.1866 32.3028 40.1752 32.2761 40.1693C32.2494 40.1634 32.2218 40.1633 32.1951 40.1689C32.1683 40.1745 32.1431 40.1857 32.121 40.2018C32.0989 40.2178 32.0805 40.2384 32.067 40.2621C32.0534 40.2858 32.0451 40.3122 32.0424 40.3394V40.3723C32.0589 40.3864 32.0683 40.41 32.0848 40.4218C32.1013 40.4335 32.1272 40.4218 32.1201 40.4618C32.1131 40.5018 32.106 40.4947 32.1201 40.5065C32.1343 40.5183 32.1366 40.5065 32.139 40.523C32.1418 40.5267 32.1434 40.5313 32.1434 40.5359C32.1434 40.5406 32.1418 40.5452 32.139 40.5489C32.139 40.5489 32.1225 40.5489 32.1201 40.5701C32.1178 40.5913 32.1201 40.6054 32.106 40.6101C32.0919 40.6148 32.0613 40.5819 32.0354 40.5842C32.0261 40.5869 32.0177 40.592 32.0111 40.5991C32.0045 40.6061 31.9998 40.6148 31.9977 40.6242C31.9857 40.6643 31.977 40.7052 31.9718 40.7467C31.9632 40.7716 31.9602 40.7981 31.9631 40.8243C31.9659 40.8504 31.9745 40.8757 31.9882 40.8982C32.0019 40.9207 32.0204 40.9399 32.0424 40.9544C32.0644 40.9689 32.0894 40.9783 32.1154 40.9821C32.1422 40.9893 32.1702 40.9905 32.1975 40.9856C32.2247 40.9807 32.2506 40.9699 32.2732 40.9538C32.294 40.9359 32.3116 40.9143 32.325 40.8903C32.3356 40.8782 32.3414 40.8628 32.3414 40.8467C32.3414 40.8307 32.3356 40.8152 32.325 40.8032H32.3132L32.2967 40.7467C32.2967 40.7467 32.2967 40.7467 32.3132 40.7325C32.3297 40.7184 32.3132 40.6878 32.3367 40.6713C32.3603 40.6548 32.3085 40.6478 32.3132 40.6431ZM32.2143 40.8032C32.2025 40.8597 32.1719 40.8762 32.1319 40.8667C32.0919 40.8573 32.0731 40.8314 32.0848 40.7749L32.179 40.3511C32.1908 40.2946 32.219 40.2781 32.259 40.2876C32.2991 40.297 32.3179 40.3229 32.3061 40.3794L32.2143 40.8032Z" fill="#263238"/>
<path d="M32.5227 40.935L32.4968 41.0551L32.3768 41.0292L32.4027 40.9091L32.5227 40.935Z" fill="#263238"/>
<path d="M33.5069 40.7255C33.521 40.7255 33.521 40.6713 33.5257 40.6525C33.5348 40.6267 33.5383 40.5993 33.5359 40.5721C33.5336 40.5449 33.5255 40.5185 33.5122 40.4946C33.4989 40.4707 33.4807 40.45 33.4588 40.4337C33.4369 40.4174 33.4117 40.4059 33.3851 40.4C33.3584 40.3941 33.3308 40.394 33.304 40.3996C33.2773 40.4052 33.2521 40.4164 33.23 40.4325C33.2079 40.4485 33.1895 40.4691 33.1759 40.4928C33.1624 40.5166 33.154 40.5429 33.1514 40.5701L33.1161 40.7278C33.1467 40.7561 33.1161 40.8008 33.1302 40.8338C33.1443 40.8667 33.1302 40.8338 33.1302 40.8479C33.1302 40.862 33.0949 40.8691 33.0949 40.8879C33.0949 40.9067 33.0949 40.8879 33.0949 40.8879C33.0949 40.8879 33.0761 40.9162 33.0643 40.9303C33.0569 40.9415 33.0528 40.9545 33.0525 40.968C33.0435 40.9937 33.04 41.0211 33.0423 41.0483C33.0447 41.0756 33.0527 41.102 33.066 41.1258C33.0793 41.1497 33.0975 41.1705 33.1195 41.1868C33.1414 41.2031 33.1665 41.2145 33.1932 41.2204C33.2199 41.2263 33.2475 41.2264 33.2742 41.2208C33.301 41.2152 33.3262 41.204 33.3483 41.188C33.3704 41.1719 33.3888 41.1513 33.4023 41.1276C33.4159 41.1039 33.4242 41.0776 33.4269 41.0504L33.4551 40.9209C33.4551 40.8879 33.4975 40.8008 33.4551 40.7749C33.4127 40.749 33.4363 40.7749 33.4316 40.7584C33.4287 40.753 33.4272 40.7469 33.4272 40.7408C33.4272 40.7346 33.4287 40.7285 33.4316 40.7231C33.4598 40.6996 33.481 40.7396 33.5069 40.7255ZM33.3633 40.9326C33.3633 40.9468 33.3397 40.9515 33.328 40.9703C33.3189 40.9937 33.3134 41.0183 33.3115 41.0433C33.2997 41.0998 33.2691 41.1139 33.2314 41.1069C33.1938 41.0998 33.1702 41.0716 33.1844 41.015C33.1844 40.9986 33.2055 40.9515 33.2008 40.9374C33.1961 40.9232 33.1773 40.9374 33.1679 40.9091C33.1608 40.8845 33.1608 40.8584 33.1679 40.8338C33.169 40.8283 33.169 40.8227 33.1679 40.8173C33.1679 40.8173 33.1561 40.7961 33.1679 40.7867C33.1796 40.7773 33.1679 40.7867 33.1679 40.7867C33.1679 40.7867 33.1679 40.7561 33.1679 40.7349C33.1679 40.7137 33.1679 40.7349 33.1679 40.7349C33.2432 40.7631 33.2409 40.6478 33.2526 40.6007C33.2644 40.5536 33.295 40.5277 33.3327 40.5371C33.3704 40.5465 33.3915 40.5724 33.3798 40.6266C33.3638 40.6745 33.3543 40.7244 33.3515 40.7749C33.3614 40.7764 33.3704 40.7812 33.3772 40.7884C33.384 40.7957 33.3883 40.805 33.3892 40.8149C33.3868 40.8274 33.3868 40.8401 33.3892 40.8526C33.3892 40.8526 33.3892 40.8738 33.3892 40.8832C33.3892 40.8926 33.3751 40.8832 33.3656 40.8832C33.3591 40.8858 33.3534 40.8899 33.3488 40.8952C33.3443 40.9006 33.3412 40.907 33.3397 40.9138L33.3633 40.9326Z" fill="#263238"/>
<path d="M32.1908 39.0138L32.9866 39.188" stroke="#263238" stroke-linecap="round" stroke-linejoin="round"/>
<path d="M30.3826 38.6183L31.7953 38.9291" stroke="#263238" stroke-linecap="round" stroke-linejoin="round"/>
<path d="M30.2649 39.1645L31.1973 39.367" stroke="#263238" stroke-linecap="round" stroke-linejoin="round"/>
<path opacity="0.4" d="M22.107 74.7745C23.3442 74.4508 24.6164 74.2801 25.8952 74.266C28.193 74.2094 29.6622 74.645 31.5457 73.7127C33.4292 72.7803 34.6511 74.459 36.4522 73.5267C38.2533 72.5943 39.0891 71.1017 40.1297 71.1346C41.1704 71.1676 42.7196 54.4915 43.2187 51.6215C43.7178 48.7515 44.7796 40.7514 45.1446 39.1268L43.0939 75.283L22.107 74.7745Z" fill="white"/>
<path d="M22.2058 67.6596L27.9482 74.645L21.8833 74.2683L22.2058 67.6596Z" fill="#012A4A" stroke="#263238" stroke-linecap="round" stroke-linejoin="round"/>
<path d="M37.4458 53.8464L37.3539 56.5045C37.3412 56.8754 37.2555 57.2401 37.1017 57.5779C36.948 57.9156 36.7292 58.2198 36.4578 58.4729C36.1865 58.7261 35.868 58.9234 35.5204 59.0534C35.1728 59.1835 34.803 59.2438 34.4322 59.2309L31.7011 59.1343C31.3292 59.1216 30.9634 59.0355 30.6249 58.881C30.2863 58.7265 29.9817 58.5066 29.7283 58.2341C29.475 57.9615 29.278 57.6415 29.1487 57.2926C29.0193 56.9437 28.9602 56.5726 28.9747 56.2008L29.0971 52.7398C29.1235 51.9912 29.4461 51.2837 29.994 50.7729C30.5419 50.2621 31.2703 49.9898 32.0189 50.0158L34.75 50.11C34.8253 50.11 34.9007 50.11 34.9854 50.1265C34.6033 50.4941 34.362 50.984 34.3037 51.5111C34.2454 52.0381 34.3736 52.5689 34.6661 53.0112C34.9587 53.4535 35.397 53.7793 35.9048 53.9319C36.4127 54.0844 36.9579 54.0542 37.4458 53.8464Z" fill="#012A4A" stroke="#263238" stroke-linecap="round" stroke-linejoin="round"/>
<path d="M37.9378 51.5509C37.9293 51.8064 37.8452 52.0537 37.6961 52.2614C37.547 52.4691 37.3397 52.628 37.1003 52.7178C36.8609 52.8077 36.6003 52.8246 36.3513 52.7663C36.1024 52.708 35.8763 52.5772 35.7017 52.3904C35.5271 52.2036 35.4118 51.9693 35.3705 51.7169C35.3291 51.4646 35.3635 51.2057 35.4693 50.9729C35.5751 50.7402 35.7475 50.544 35.9648 50.4093C36.1821 50.2745 36.4345 50.2073 36.69 50.216C37.0322 50.2282 37.3557 50.3756 37.5895 50.6258C37.8234 50.876 37.9486 51.2086 37.9378 51.5509Z" fill="#012A4A" stroke="#263238" stroke-linecap="round" stroke-linejoin="round"/>
<path opacity="0.4" d="M29.7516 56.5304L33.7659 53.0977C33.7659 53.0977 33.2573 51.2589 33.7659 50.6774H31.8376C31.3733 50.6758 30.9258 50.8517 30.5867 51.1689C30.2476 51.4861 30.0424 51.9209 30.013 52.3843L29.7516 56.5304Z" fill="white"/>
<path opacity="0.4" d="M36.0991 51.6216L36.9584 50.6798C36.9584 50.6798 36.424 50.3196 36.0991 50.6798C35.7741 51.04 36.0991 51.6216 36.0991 51.6216Z" fill="white"/>
<path d="M35.68 72.1305L42.1522 72.4107" stroke="#263238" stroke-linecap="round" stroke-linejoin="round"/>
<path d="M33.4386 72.7827L42.1522 73.2489" stroke="#263238" stroke-linecap="round" stroke-linejoin="round"/>
<path d="M39.8708 74.645H42.1522" stroke="#263238" stroke-linecap="round" stroke-linejoin="round"/>
<path opacity="0.2" d="M31.9389 50.8728C28.6004 52.4785 24.984 46.8539 23.7174 46.0793C23.4051 45.8822 23.114 45.6534 22.8486 45.3965L23.3995 36.1674L33.1726 36.5605C33.109 37.9355 33.1302 39.4541 33.4362 40.3275C34.0955 42.2322 35.275 49.2695 31.9389 50.8728Z" fill="black" fill-opacity="0.7"/>
<path opacity="0.4" d="M28.1978 51.16C28.1978 51.16 30.8676 52.3184 32.0778 51.6309C33.2879 50.9434 34.5923 49.6297 34.7782 46.7126C34.7782 46.7126 36.3675 50.821 33.1631 52.0523C29.9588 53.2837 28.1978 51.16 28.1978 51.16Z" fill="white"/>
<path opacity="0.4" d="M27.1571 52.8034C27.1571 52.8034 32.5722 54.2584 34.8889 51.6262C34.8889 51.6262 34.5781 53.0883 32.0778 53.5097C29.5774 53.9312 27.1571 52.8034 27.1571 52.8034Z" fill="white"/>
<path opacity="0.4" d="M35.866 43.3977C35.454 42.6655 35.9602 49.246 35.9602 49.246C35.9602 49.246 36.7042 44.8998 35.866 43.3977Z" fill="white"/>
<path d="M45.7968 37.0667L43.513 75.8551L21.0781 75.1182L22.8486 45.3965L23.3995 36.1674L33.1749 36.5605L45.7968 37.0667Z" stroke="#263238" stroke-linecap="round" stroke-linejoin="round"/>
<path opacity="0.4" d="M44.6619 76.0623L43.845 75.8551L45.7968 40.3346L46.1428 42.6796L44.6619 76.0623Z" fill="white"/>
<path d="M31.9389 50.8728C31.6301 51.0369 31.2868 51.1252 30.9372 51.1305C30.5876 51.1359 30.2418 51.058 29.9282 50.9034C29.3855 50.6187 28.9476 50.1684 28.678 49.6179C27.7481 47.9416 25.2312 44.1228 24.7674 43.0257C24.3036 41.9285 23.2771 38.8255 22.2529 37.5235C21.2288 36.2215 20.6684 34.2627 20.6684 34.2627L20.2964 15.2628C20.8544 18.0104 22.3918 21.1299 22.3918 21.1299C23.7276 21.825 24.8625 22.8513 25.688 24.1106C25.9283 24.3665 26.1435 24.6448 26.3307 24.9417C27.8517 27.2961 28.5886 31.5339 28.6686 34.8301C28.7628 38.5571 29.9729 40.2451 31.9294 43.4918C33.8859 46.7385 33.2102 50.15 31.9389 50.8728Z" fill="white"/>
<path opacity="0.4" d="M31.9389 50.8728C31.6289 51.0329 31.286 51.1189 30.9372 51.1243C30.5883 51.1296 30.243 51.054 29.9283 50.9034C30.9971 50.6114 32.4004 50.0629 32.0778 49.2553C31.5716 47.9651 30.0907 49.8792 29.3467 49.2553C28.6027 48.6314 25.8999 45.0527 27.6163 43.4777C29.3326 41.9026 28.7934 39.261 27.6163 38.517C26.4391 37.773 27.2042 36.0001 27.5762 33.2102C27.8117 31.5221 27.0041 27.6986 26.3402 24.9393C27.8611 27.2937 28.598 31.5315 28.6781 34.8277C28.7723 38.5546 29.9824 40.2427 31.9389 43.4894C33.8954 46.7361 33.2103 50.1947 31.9389 50.8728Z" fill="#012A4A"/>
<path d="M20.2964 15.251C20.8544 17.9986 22.3918 21.1182 22.3918 21.1182C23.7276 21.8132 24.8625 22.8395 25.688 24.0988C27.6445 26.1471 28.5768 31.0842 28.6686 34.8089C28.7604 38.5335 29.9729 40.2239 31.9294 43.4706C33.8859 46.7173 33.3421 50.1029 31.9294 50.8728C30.9453 51.412 29.601 51.2942 28.6686 49.6179C27.7363 47.9416 25.2218 44.1228 24.758 43.0257C24.2942 41.9285 23.2677 38.8254 22.2435 37.5235C21.2194 36.2215 20.659 34.2627 20.659 34.2627" stroke="#263238" stroke-linecap="round" stroke-linejoin="round"/>
<path d="M26.3449 42.6796C26.3449 42.6796 27.8658 42.543 28.5627 41.9733" stroke="#263238" stroke-linecap="round" stroke-linejoin="round"/>
<path d="M20.1105 34.637C20.1105 34.637 19.8138 35.3433 21.3677 36.0497" stroke="#263238" stroke-linecap="round" stroke-linejoin="round"/>
</svg>
