<svg width="95" height="94" viewBox="0 0 95 94" fill="none" xmlns="http://www.w3.org/2000/svg">
<path d="M77.639 18.6642C72.6469 14.2867 67.6268 9.64382 62.0618 6.11858C53.116 0.451181 40.5728 -1.66769 32.4046 6.53071C29.8899 9.05705 29.3777 12.5427 28.3765 15.8095C27.2821 19.4139 25.2424 22.0776 21.9826 24.0288C18.9556 25.8404 15.5375 26.8556 12.28 28.2037C8.10517 29.9314 4.25162 32.4554 2.2678 36.6629C-0.0862409 41.676 0.998807 46.107 4.19574 50.382C7.30186 54.5219 12.0425 58.3848 11.2881 64.0685C10.9715 66.4971 9.9912 68.7789 9.21583 71.1004C8.44046 73.4218 7.85137 75.9109 8.37294 78.3045C10.0471 86.128 22.1456 88.1584 28.4673 85.5622C39.4109 81.0684 50.1915 87.1921 61.2189 87.4413C68.9703 87.6182 79.0291 85.4062 81.3855 76.8423C83.4135 69.4774 76.1395 61.3466 81.8279 54.9201C86.2682 49.9047 90.5641 43.4736 90.0705 36.4627C89.5885 29.6567 84.3961 24.4922 79.5134 20.2941C78.8894 19.7647 78.2646 19.2214 77.639 18.6642Z" fill="#012A4A"/>
<path opacity="0.7" d="M77.639 18.6642C72.6469 14.2867 67.6268 9.64382 62.0618 6.11858C53.116 0.451181 40.5728 -1.66769 32.4046 6.53071C29.8899 9.05705 29.3777 12.5427 28.3765 15.8095C27.2821 19.4139 25.2424 22.0776 21.9826 24.0288C18.9556 25.8404 15.5375 26.8556 12.28 28.2037C8.10517 29.9314 4.25162 32.4554 2.2678 36.6629C-0.0862409 41.676 0.998807 46.107 4.19574 50.382C7.30186 54.5219 12.0425 58.3848 11.2881 64.0685C10.9715 66.4971 9.9912 68.7789 9.21583 71.1004C8.44046 73.4218 7.85137 75.9109 8.37294 78.3045C10.0471 86.128 22.1456 88.1584 28.4673 85.5622C39.4109 81.0684 50.1915 87.1921 61.2189 87.4413C68.9703 87.6182 79.0291 85.4062 81.3855 76.8423C83.4135 69.4774 76.1395 61.3466 81.8279 54.9201C86.2682 49.9047 90.5641 43.4736 90.0705 36.4627C89.5885 29.6567 84.3961 24.4922 79.5134 20.2941C78.8894 19.7647 78.2646 19.2214 77.639 18.6642Z" fill="white"/>
<path d="M29.1006 92.8665C35.0302 92.8665 39.837 91.9053 39.837 90.7197C39.837 89.534 35.0302 88.5729 29.1006 88.5729C23.1711 88.5729 18.3643 89.534 18.3643 90.7197C18.3643 91.9053 23.1711 92.8665 29.1006 92.8665Z" fill="#012A4A"/>
<path opacity="0.5" d="M29.1006 92.8665C35.0302 92.8665 39.837 91.9053 39.837 90.7197C39.837 89.534 35.0302 88.5729 29.1006 88.5729C23.1711 88.5729 18.3643 89.534 18.3643 90.7197C18.3643 91.9053 23.1711 92.8665 29.1006 92.8665Z" fill="white"/>
<path d="M70.3128 70.0767C83.0295 57.36 83.0295 36.7422 70.3128 24.0256C57.5962 11.3089 36.9784 11.3089 24.2617 24.0256C11.545 36.7423 11.545 57.36 24.2617 70.0767C36.9784 82.7934 57.5962 82.7934 70.3128 70.0767Z" fill="#012A4A" stroke="#2E353A" stroke-miterlimit="10" stroke-linecap="round"/>
<path d="M47.288 76.784C63.7097 76.784 77.0221 63.4717 77.0221 47.05C77.0221 30.6284 63.7097 17.316 47.288 17.316C30.8664 17.316 17.554 30.6284 17.554 47.05C17.554 63.4717 30.8664 76.784 47.288 76.784Z" fill="#2E353A" stroke="#2E353A" stroke-miterlimit="10" stroke-linecap="round"/>
<path d="M47.288 74.5627C62.4828 74.5627 74.8007 62.2449 74.8007 47.05C74.8007 31.8552 62.4828 19.5373 47.288 19.5373C32.0931 19.5373 19.7753 31.8552 19.7753 47.05C19.7753 62.2449 32.0931 74.5627 47.288 74.5627Z" fill="white" stroke="#2E353A" stroke-miterlimit="10" stroke-linecap="round"/>
<path d="M47.288 22.1754C42.3677 22.1754 37.5579 23.6344 33.4669 26.3681C29.3758 29.1017 26.1873 32.9871 24.3045 37.5329C22.4217 42.0787 21.9292 47.0807 22.8893 51.9064C23.8493 56.7321 26.2189 61.1648 29.6982 64.6438C33.1775 68.1228 37.6104 70.4919 42.4362 71.4515C47.262 72.4111 52.264 71.9182 56.8096 70.0349C61.3552 68.1517 65.2403 64.9628 67.9736 60.8715C70.7068 56.7802 72.1654 51.9703 72.1649 47.05C72.1649 43.7832 71.5215 40.5484 70.2713 37.5303C69.021 34.5123 67.1886 31.77 64.8785 29.4602C62.5685 27.1503 59.826 25.3181 56.8078 24.0682C53.7896 22.8183 50.5548 22.1751 47.288 22.1754ZM47.288 69.9082C42.7652 69.9082 38.3441 68.567 34.5835 66.0543C30.823 63.5416 27.892 59.9702 26.1612 55.7917C24.4304 51.6132 23.9776 47.0153 24.8599 42.5794C25.7423 38.1436 27.9202 34.069 31.1183 30.8709C34.3163 27.6728 38.3909 25.4949 42.8268 24.6126C47.2626 23.7302 51.8605 24.1831 56.039 25.9139C60.2175 27.6446 63.7889 30.5756 66.3016 34.3362C68.8144 38.0967 70.1555 42.5179 70.1555 47.0407C70.1567 50.0445 69.5662 53.0191 68.4175 55.7945C67.2688 58.57 65.5846 61.092 63.4611 63.2165C61.3375 65.3409 58.8162 67.0261 56.0412 68.1759C53.2662 69.3257 50.2918 69.9175 47.288 69.9175V69.9082Z" fill="#012A4A" stroke="#2E353A" stroke-miterlimit="10" stroke-linecap="round"/>
<path d="M47.288 33.3565C44.5792 33.3565 41.9311 34.1598 39.6788 35.6649C37.4265 37.1699 35.6711 39.309 34.6345 41.8117C33.598 44.3145 33.3269 47.0683 33.8556 49.7251C34.3842 52.3819 35.6888 54.8223 37.6045 56.7376C39.5201 58.6529 41.9607 59.9571 44.6176 60.4853C47.2744 61.0135 50.0283 60.7419 52.5308 59.705C55.0334 58.668 57.1722 56.9122 58.6768 54.6597C60.1815 52.4071 60.9843 49.7589 60.9839 47.05C60.9839 45.2516 60.6296 43.4707 59.9413 41.8092C59.253 40.1477 58.2441 38.638 56.9723 37.3664C55.7005 36.0949 54.1907 35.0863 52.529 34.3982C50.8674 33.7102 49.0865 33.3562 47.288 33.3565ZM47.288 59.6375C44.7985 59.6375 42.3648 58.8993 40.2948 57.5161C38.2248 56.133 36.6114 54.1671 35.6587 51.8671C34.706 49.567 34.4567 47.0361 34.9424 44.5943C35.4281 42.1526 36.627 39.9097 38.3874 38.1493C40.1477 36.3889 42.3906 35.1901 44.8323 34.7044C47.2741 34.2187 49.805 34.468 52.1051 35.4207C54.4051 36.3734 56.371 37.9868 57.7542 40.0568C59.1373 42.1268 59.8755 44.5605 59.8755 47.05C59.8755 50.3884 58.5494 53.5901 56.1887 55.9507C53.8281 58.3113 50.6265 59.6375 47.288 59.6375Z" fill="#012A4A" stroke="#2E353A" stroke-miterlimit="10" stroke-linecap="round"/>
<path d="M47.2881 39.1334C45.7223 39.1334 44.1917 39.5977 42.8898 40.4676C41.5879 41.3375 40.5732 42.5739 39.974 44.0204C39.3748 45.467 39.2181 47.0588 39.5235 48.5945C39.829 50.1302 40.583 51.5408 41.6901 52.6479C42.7973 53.7551 44.2079 54.5091 45.7436 54.8146C47.2793 55.12 48.871 54.9632 50.3176 54.3641C51.7642 53.7649 53.0006 52.7502 53.8705 51.4483C54.7404 50.1464 55.2047 48.6158 55.2047 47.05C55.2047 46.0104 54.9999 44.9809 54.6021 44.0204C54.2042 43.0599 53.6211 42.1872 52.886 41.4521C52.1508 40.717 51.2781 40.1338 50.3176 39.736C49.3571 39.3381 48.3277 39.1334 47.2881 39.1334ZM47.8958 40.3744C49.2908 40.4991 50.6113 41.0595 51.6702 41.9764L47.9004 45.7508L47.8958 40.3744ZM46.6827 45.7508L42.9083 41.9764C43.9669 41.0591 45.2875 40.4986 46.6827 40.3744V45.7508ZM45.8258 46.6076H40.5985C40.6874 45.2327 41.1998 43.9191 42.0654 42.8472L45.8258 46.6076ZM45.8258 47.8184L42.2144 51.4321C41.3333 50.4152 40.7805 49.1554 40.6288 47.8184H45.8258ZM46.6827 48.6776V53.7279C45.366 53.6111 44.1137 53.1054 43.0852 52.275L46.6827 48.6776ZM47.8958 48.6776L51.4932 52.275C50.4658 53.1042 49.2154 53.6098 47.9004 53.7279L47.8958 48.6776ZM48.7526 47.8184H53.9543C53.8016 49.1551 53.249 50.4146 52.3687 51.4321L48.7526 47.8184ZM48.7526 46.6076L52.5107 42.8472C53.3763 43.9191 53.8887 45.2327 53.9776 46.6076H48.7526Z" fill="#012A4A" stroke="#2E353A" stroke-miterlimit="10" stroke-linecap="round"/>
<path d="M47.288 51.5346C49.7648 51.5346 51.7726 49.5268 51.7726 47.05C51.7726 44.5733 49.7648 42.5655 47.288 42.5655C44.8113 42.5655 42.8035 44.5733 42.8035 47.05C42.8035 49.5268 44.8113 51.5346 47.288 51.5346Z" fill="white" stroke="#2E353A" stroke-miterlimit="10" stroke-linecap="round"/>
<g style="mix-blend-mode:multiply">
<path d="M79.6904 50.2865C46.6267 40.0065 23.9455 55.8189 17.8008 60.8762C20.8284 67.3291 25.8894 72.6106 32.2074 75.9104C38.5254 79.2103 45.7516 80.3462 52.7773 79.1441C59.8031 77.9419 66.2404 74.4681 71.1019 69.2554C75.9634 64.0426 78.9805 57.379 79.6904 50.2865Z" fill="#012A4A"/>
</g>
<path d="M77.0081 19.9424H76.4143C75.4627 19.9424 74.6913 20.7138 74.6913 21.6655V25.0882C74.6913 26.0398 75.4627 26.8113 76.4143 26.8113H77.0081C77.9597 26.8113 78.7311 26.0398 78.7311 25.0882V21.6655C78.7311 20.7138 77.9597 19.9424 77.0081 19.9424Z" fill="#2E353A" stroke="#2E353A" stroke-miterlimit="10" stroke-linecap="round"/>
<path d="M77.0081 68.2224H76.4143C75.4627 68.2224 74.6913 68.9938 74.6913 69.9454V73.3682C74.6913 74.3198 75.4627 75.0913 76.4143 75.0913H77.0081C77.9597 75.0913 78.7311 74.3198 78.7311 73.3682V69.9454C78.7311 68.9938 77.9597 68.2224 77.0081 68.2224Z" fill="#2E353A" stroke="#2E353A" stroke-miterlimit="10" stroke-linecap="round"/>
<path d="M47.586 19.9424H46.9923C46.0407 19.9424 45.2692 20.7138 45.2692 21.6655V25.0882C45.2692 26.0398 46.0407 26.8113 46.9923 26.8113H47.586C48.5376 26.8113 49.309 26.0398 49.309 25.0882V21.6655C49.309 20.7138 48.5376 19.9424 47.586 19.9424Z" fill="#2E353A" stroke="#2E353A" stroke-miterlimit="10" stroke-linecap="round"/>
<path d="M47.586 68.2224H46.9923C46.0407 68.2224 45.2692 68.9938 45.2692 69.9454V73.3682C45.2692 74.3198 46.0407 75.0913 46.9923 75.0913H47.586C48.5376 75.0913 49.309 74.3198 49.309 73.3682V69.9454C49.309 68.9938 48.5376 68.2224 47.586 68.2224Z" fill="#2E353A" stroke="#2E353A" stroke-miterlimit="10" stroke-linecap="round"/>
<path d="M47.288 12.8524C47.6507 12.8524 47.9446 12.5584 47.9446 12.1958C47.9446 11.8331 47.6507 11.5392 47.288 11.5392C46.9254 11.5392 46.6314 11.8331 46.6314 12.1958C46.6314 12.5584 46.9254 12.8524 47.288 12.8524Z" fill="white" stroke="#2E353A" stroke-miterlimit="10" stroke-linecap="round"/>
<path d="M35.9858 14.0725C35.9413 13.9506 35.8616 13.8447 35.7569 13.768C35.6522 13.6914 35.5271 13.6475 35.3974 13.6419C35.2678 13.6363 35.1394 13.6692 35.0285 13.7365C34.9175 13.8039 34.829 13.9025 34.7741 14.0201C34.7192 14.1377 34.7004 14.2689 34.72 14.3972C34.7396 14.5255 34.7968 14.6451 34.8844 14.7408C34.9719 14.8366 35.0859 14.9043 35.2119 14.9354C35.3379 14.9665 35.4703 14.9595 35.5923 14.9154C35.6736 14.886 35.7483 14.8409 35.812 14.7826C35.8758 14.7243 35.9275 14.654 35.9641 14.5756C36.0006 14.4973 36.0214 14.4126 36.0251 14.3262C36.0288 14.2399 36.0155 14.1537 35.9858 14.0725Z" fill="white" stroke="#2E353A" stroke-miterlimit="10" stroke-linecap="round"/>
<path d="M25.3868 19.9285C25.3027 19.8301 25.1913 19.7587 25.0667 19.7234C24.9422 19.6881 24.8099 19.6904 24.6866 19.7301C24.5634 19.7697 24.4546 19.8449 24.3739 19.9463C24.2933 20.0476 24.2444 20.1705 24.2334 20.2995C24.2225 20.4286 24.2499 20.5579 24.3123 20.6714C24.3747 20.7849 24.4692 20.8774 24.584 20.9373C24.6988 20.9972 24.8288 21.0218 24.9575 21.008C25.0863 20.9942 25.2081 20.9427 25.3077 20.8599C25.3748 20.8044 25.4302 20.7362 25.4706 20.6591C25.511 20.582 25.5356 20.4976 25.5429 20.4108C25.5503 20.3241 25.5403 20.2368 25.5135 20.1539C25.4867 20.0711 25.4436 19.9945 25.3868 19.9285Z" fill="white" stroke="#2E353A" stroke-miterlimit="10" stroke-linecap="round"/>
<path d="M17.4329 29.0466C17.321 28.9807 17.192 28.9495 17.0624 28.9569C16.9327 28.9643 16.8081 29.01 16.7045 29.0882C16.6008 29.1664 16.5226 29.2736 16.4798 29.3962C16.437 29.5188 16.4316 29.6514 16.4642 29.7771C16.4967 29.9029 16.5659 30.0161 16.6628 30.1025C16.7597 30.189 16.8801 30.2447 17.0087 30.2627C17.1374 30.2807 17.2684 30.2602 17.3854 30.2037C17.5023 30.1472 17.5999 30.0573 17.6657 29.9454C17.7534 29.7952 17.7781 29.6164 17.7345 29.448C17.6909 29.2797 17.5825 29.1354 17.4329 29.0466Z" fill="white" stroke="#2E353A" stroke-miterlimit="10" stroke-linecap="round"/>
<path d="M13.0764 40.3511C12.9485 40.3287 12.8169 40.3447 12.6981 40.3971C12.5794 40.4495 12.4788 40.5359 12.4091 40.6454C12.3394 40.7549 12.3037 40.8827 12.3066 41.0124C12.3095 41.1422 12.3508 41.2682 12.4252 41.3746C12.4997 41.4809 12.604 41.5628 12.725 41.6098C12.846 41.6569 12.9782 41.667 13.1049 41.639C13.2317 41.611 13.3472 41.546 13.4371 41.4523C13.5269 41.3586 13.5869 41.2403 13.6096 41.1125C13.6247 41.0275 13.6228 40.9404 13.6042 40.8561C13.5855 40.7718 13.5504 40.692 13.5009 40.6212C13.4514 40.5505 13.3884 40.4903 13.3156 40.4439C13.2427 40.3976 13.1614 40.366 13.0764 40.3511Z" fill="white" stroke="#2E353A" stroke-miterlimit="10" stroke-linecap="round"/>
<path d="M12.8482 52.4566C12.7204 52.4793 12.6022 52.5393 12.5084 52.6291C12.4147 52.719 12.3498 52.8346 12.3217 52.9613C12.2937 53.0881 12.3038 53.2203 12.3509 53.3412C12.398 53.4622 12.4798 53.5665 12.5862 53.641C12.6925 53.7155 12.8185 53.7567 12.9483 53.7596C13.0781 53.7625 13.2058 53.7268 13.3153 53.6571C13.4248 53.5875 13.5112 53.4869 13.5636 53.3681C13.616 53.2493 13.632 53.1177 13.6096 52.9898C13.5947 52.9048 13.5632 52.8235 13.5168 52.7507C13.4705 52.6778 13.4102 52.6148 13.3395 52.5653C13.2688 52.5158 13.189 52.4807 13.1047 52.462C13.0204 52.4434 12.9332 52.4415 12.8482 52.4566Z" fill="white" stroke="#2E353A" stroke-miterlimit="10" stroke-linecap="round"/>
<path d="M16.7739 63.9101C16.662 63.976 16.5721 64.0735 16.5156 64.1905C16.4591 64.3074 16.4386 64.4385 16.4566 64.5671C16.4746 64.6958 16.5304 64.8162 16.6168 64.9131C16.7032 65.01 16.8165 65.0791 16.9422 65.1117C17.0679 65.1443 17.2005 65.1388 17.3231 65.0961C17.4457 65.0533 17.5529 64.9751 17.6311 64.8714C17.7093 64.7677 17.755 64.6432 17.7624 64.5135C17.7698 64.3838 17.7386 64.2549 17.6727 64.143C17.6292 64.0685 17.5714 64.0033 17.5026 63.9512C17.4338 63.8991 17.3553 63.8612 17.2718 63.8395C17.1883 63.8179 17.1013 63.813 17.0158 63.8251C16.9304 63.8372 16.8482 63.8661 16.7739 63.9101Z" fill="white" stroke="#2E353A" stroke-miterlimit="10" stroke-linecap="round"/>
<path d="M24.3833 73.3286C24.3007 73.4284 24.2495 73.5503 24.2361 73.6791C24.2227 73.8079 24.2476 73.9378 24.3078 74.0524C24.368 74.1671 24.4607 74.2614 24.5743 74.3235C24.688 74.3856 24.8174 74.4127 24.9464 74.4014C25.0754 74.3901 25.1982 74.3409 25.2993 74.26C25.4004 74.1792 25.4754 74.0702 25.5147 73.9468C25.5541 73.8235 25.5561 73.6912 25.5205 73.5667C25.4849 73.4423 25.4133 73.3311 25.3147 73.2471C25.2484 73.1908 25.1716 73.1481 25.0887 73.1217C25.0059 73.0953 24.9186 73.0856 24.8319 73.0931C24.7453 73.1007 24.661 73.1254 24.584 73.1659C24.507 73.2063 24.4387 73.2616 24.3833 73.3286Z" fill="white" stroke="#2E353A" stroke-miterlimit="10" stroke-linecap="round"/>
<path d="M34.7494 79.5735C34.7053 79.6955 34.6984 79.8279 34.7294 79.9539C34.7605 80.0799 34.8282 80.1939 34.924 80.2814C35.0198 80.369 35.1394 80.4262 35.2676 80.4458C35.3959 80.4654 35.5271 80.4466 35.6447 80.3917C35.7623 80.3368 35.861 80.2483 35.9283 80.1374C35.9956 80.0264 36.0286 79.898 36.0229 79.7684C36.0173 79.6387 35.9734 79.5136 35.8968 79.4089C35.8202 79.3042 35.7142 79.2245 35.5923 79.18C35.5112 79.15 35.4249 79.1364 35.3385 79.14C35.252 79.1436 35.1672 79.1643 35.0888 79.2009C35.0104 79.2375 34.94 79.2892 34.8818 79.3532C34.8235 79.4172 34.7786 79.492 34.7494 79.5735Z" fill="white" stroke="#2E353A" stroke-miterlimit="10" stroke-linecap="round"/>
<path d="M46.6314 81.9019C46.631 82.0324 46.6693 82.1602 46.7415 82.2689C46.8137 82.3776 46.9166 82.4624 47.0371 82.5126C47.1576 82.5628 47.2903 82.576 47.4183 82.5506C47.5464 82.5253 47.664 82.4625 47.7563 82.3702C47.8486 82.2779 47.9114 82.1603 47.9368 82.0322C47.9621 81.9042 47.9489 81.7715 47.8987 81.651C47.8485 81.5305 47.7637 81.4276 47.655 81.3554C47.5463 81.2832 47.4186 81.2448 47.288 81.2453C47.1139 81.2453 46.9469 81.3145 46.8237 81.4376C46.7006 81.5608 46.6314 81.7278 46.6314 81.9019Z" fill="white" stroke="#2E353A" stroke-miterlimit="10" stroke-linecap="round"/>
<path d="M58.5926 80.0392C58.6371 80.161 58.7168 80.267 58.8215 80.3436C58.9262 80.4203 59.0513 80.4642 59.1809 80.4698C59.3106 80.4754 59.439 80.4425 59.5499 80.3751C59.6609 80.3078 59.7494 80.2091 59.8043 80.0915C59.8592 79.974 59.878 79.8427 59.8584 79.7145C59.8387 79.5862 59.7815 79.4666 59.694 79.3708C59.6064 79.275 59.4925 79.2073 59.3665 79.1763C59.2405 79.1452 59.1081 79.1522 58.9861 79.1963C58.9048 79.2257 58.8301 79.2708 58.7663 79.3291C58.7025 79.3874 58.6509 79.4577 58.6143 79.536C58.5778 79.6143 58.557 79.6991 58.5533 79.7854C58.5496 79.8718 58.5629 79.958 58.5926 80.0392Z" fill="white" stroke="#2E353A" stroke-miterlimit="10" stroke-linecap="round"/>
<path d="M69.1892 74.1739C69.2732 74.2733 69.3847 74.3456 69.5098 74.3817C69.6348 74.4179 69.7677 74.4161 69.8918 74.3768C70.0159 74.3375 70.1255 74.2623 70.2069 74.1607C70.2882 74.0591 70.3377 73.9358 70.3491 73.8061C70.3604 73.6765 70.3331 73.5464 70.2706 73.4322C70.2081 73.3181 70.1132 73.225 69.9979 73.1647C69.8825 73.1044 69.7519 73.0796 69.6225 73.0935C69.4931 73.1073 69.3707 73.1592 69.2707 73.2425C69.2037 73.298 69.1484 73.3662 69.1079 73.4432C69.0675 73.5202 69.0428 73.6045 69.0352 73.6911C69.0276 73.7778 69.0373 73.8651 69.0638 73.948C69.0902 74.0308 69.1329 74.1076 69.1892 74.1739Z" fill="white" stroke="#2E353A" stroke-miterlimit="10" stroke-linecap="round"/>
<path d="M77.1455 65.0488C77.2574 65.1147 77.3863 65.1459 77.516 65.1385C77.6457 65.1311 77.7702 65.0854 77.8739 65.0072C77.9776 64.929 78.0558 64.8218 78.0986 64.6992C78.1413 64.5766 78.1468 64.444 78.1142 64.3183C78.0816 64.1925 78.0125 64.0793 77.9156 63.9929C77.8186 63.9064 77.6983 63.8507 77.5696 63.8327C77.441 63.8147 77.3099 63.8352 77.193 63.8917C77.076 63.9482 76.9785 64.0381 76.9126 64.15C76.825 64.3002 76.8003 64.479 76.8439 64.6474C76.8875 64.8157 76.9959 64.96 77.1455 65.0488Z" fill="white" stroke="#2E353A" stroke-miterlimit="10" stroke-linecap="round"/>
<path d="M81.4996 53.7512C81.6275 53.7736 81.7591 53.7576 81.8779 53.7053C81.9966 53.6529 82.0972 53.5665 82.1669 53.457C82.2366 53.3474 82.2722 53.2197 82.2694 53.0899C82.2665 52.9602 82.2252 52.8341 82.1508 52.7278C82.0763 52.6215 81.972 52.5396 81.851 52.4925C81.73 52.4455 81.5978 52.4353 81.4711 52.4633C81.3443 52.4914 81.2287 52.5564 81.1389 52.6501C81.0491 52.7438 80.989 52.862 80.9664 52.9898C80.9513 53.0748 80.9531 53.162 80.9718 53.2463C80.9904 53.3306 81.0255 53.4104 81.0751 53.4811C81.1246 53.5518 81.1876 53.6121 81.2604 53.6584C81.3333 53.7048 81.4145 53.7363 81.4996 53.7512Z" fill="white" stroke="#2E353A" stroke-miterlimit="10" stroke-linecap="round"/>
<path d="M81.7279 41.6457C81.8557 41.6231 81.9739 41.563 82.0676 41.4732C82.1613 41.3834 82.2263 41.2678 82.2543 41.141C82.2824 41.0143 82.2722 40.8821 82.2251 40.7611C82.1781 40.6401 82.0962 40.5358 81.9899 40.4614C81.8835 40.3869 81.7575 40.3456 81.6278 40.3428C81.498 40.3399 81.3703 40.3755 81.2607 40.4452C81.1512 40.5149 81.0648 40.6155 81.0124 40.7343C80.9601 40.853 80.9441 40.9847 80.9665 41.1125C80.9814 41.1976 81.0129 41.2788 81.0592 41.3517C81.1056 41.4245 81.1658 41.4875 81.2366 41.5371C81.3073 41.5866 81.3871 41.6217 81.4714 41.6403C81.5557 41.659 81.6428 41.6608 81.7279 41.6457Z" fill="white" stroke="#2E353A" stroke-miterlimit="10" stroke-linecap="round"/>
<path d="M77.8021 30.1922C77.9144 30.1266 78.0046 30.0292 78.0614 29.9122C78.1183 29.7953 78.1391 29.6641 78.1213 29.5354C78.1035 29.4066 78.0479 29.286 77.9615 29.1888C77.8751 29.0917 77.7618 29.0224 77.636 28.9897C77.5101 28.957 77.3774 28.9624 77.2547 29.0052C77.1319 29.048 77.0246 29.1263 76.9464 29.2302C76.8682 29.334 76.8225 29.4588 76.8153 29.5886C76.808 29.7184 76.8395 29.8474 76.9056 29.9593C76.994 30.1087 77.1378 30.2171 77.3058 30.2607C77.4738 30.3044 77.6522 30.2797 77.8021 30.1922Z" fill="white" stroke="#2E353A" stroke-miterlimit="10" stroke-linecap="round"/>
<path d="M70.1974 20.7737C70.281 20.6739 70.3332 20.5516 70.3474 20.4223C70.3616 20.2929 70.3372 20.1622 70.2772 20.0467C70.2172 19.9312 70.1243 19.836 70.0103 19.7732C69.8963 19.7104 69.7663 19.6828 69.6366 19.6938C69.5069 19.7049 69.3834 19.754 69.2816 19.8352C69.1798 19.9163 69.1044 20.0258 69.0647 20.1498C69.0251 20.2737 69.0231 20.4067 69.0589 20.5318C69.0947 20.6569 69.1668 20.7686 69.266 20.8528C69.3323 20.9091 69.409 20.9516 69.4917 20.9781C69.5745 21.0045 69.6616 21.0143 69.7482 21.007C69.8348 20.9996 69.919 20.9752 69.9961 20.9352C70.0732 20.8952 70.1416 20.8403 70.1974 20.7737Z" fill="white" stroke="#2E353A" stroke-miterlimit="10" stroke-linecap="round"/>
<path d="M59.8267 14.5219C59.871 14.3998 59.8781 14.2673 59.847 14.1411C59.816 14.015 59.7483 13.9009 59.6524 13.8133C59.5565 13.7256 59.4368 13.6684 59.3084 13.6488C59.18 13.6292 59.0487 13.6482 58.931 13.7032C58.8134 13.7583 58.7147 13.847 58.6475 13.9582C58.5803 14.0694 58.5476 14.198 58.5535 14.3277C58.5594 14.4575 58.6036 14.5826 58.6806 14.6872C58.7576 14.7918 58.8639 14.8712 58.9861 14.9154C59.0671 14.945 59.1532 14.9583 59.2393 14.9546C59.3255 14.9508 59.4101 14.93 59.4882 14.8935C59.5663 14.8569 59.6365 14.8052 59.6945 14.7415C59.7526 14.6777 59.7975 14.6031 59.8267 14.5219Z" fill="white" stroke="#2E353A" stroke-miterlimit="10" stroke-linecap="round"/>
<path d="M79.1363 29.8406V24.1849H43.1481V33.1493H53.626C54.0902 33.1493 54.5498 33.2408 54.9786 33.4184C55.4074 33.596 55.7971 33.8564 56.1253 34.1846C56.4535 34.5128 56.7139 34.9024 56.8915 35.3313C57.0691 35.7601 57.1606 36.2197 57.1606 36.6839V57.5722C57.1599 58.5092 56.7873 59.4077 56.1245 60.07C55.4617 60.7324 54.563 61.1044 53.626 61.1044H43.1481V70.651H79.1363V64.9906H70.102C69.328 64.99 68.5859 64.6821 68.0388 64.1346C67.4917 63.587 67.1844 62.8447 67.1844 62.0707V32.7721C67.1844 31.9981 67.4917 31.2558 68.0388 30.7083C68.5859 30.1608 69.328 29.8529 70.102 29.8523L79.1363 29.8406Z" fill="white" stroke="#2E353A" stroke-miterlimit="10" stroke-linecap="round"/>
<path d="M58.9208 48.2981V57.5722C58.919 58.9778 58.3598 60.3252 57.3659 61.3191C56.372 62.313 55.0246 62.8722 53.619 62.874H44.9153V68.8767H77.369V66.7672H70.102C68.8592 66.7659 67.6678 66.2717 66.789 65.393C65.9103 64.5142 65.4161 63.3228 65.4148 62.08V48.7428C63.262 48.4549 61.0928 48.3063 58.9208 48.2981Z" fill="#012A4A"/>
<path d="M44.9153 29.3889C49.2485 28.1781 55.221 26.9045 63.2005 25.9545H44.9153V29.3889Z" fill="#012A4A"/>
<path d="M66.2182 30.1386C62.6277 30.8372 59.326 31.5799 56.5482 32.2668C57.2781 32.7511 57.8768 33.4086 58.2908 34.1805C58.7048 34.9525 58.9213 35.8149 58.9209 36.6908V39.2172C61.1655 38.1717 63.3449 37.238 65.4149 36.4091V32.7721C65.4123 31.8335 65.6922 30.9159 66.2182 30.1386Z" fill="#012A4A"/>
<path d="M47.0878 5.95324V4.50961" stroke="#2E353A" stroke-miterlimit="10" stroke-linecap="round"/>
<path d="M47.0878 10.347V6.81012" stroke="#2E353A" stroke-miterlimit="10" stroke-linecap="round"/>
<path d="M47.0878 87.3924V83.604" stroke="#2E353A" stroke-miterlimit="10" stroke-linecap="round"/>
<path d="M80.9385 47.2269H86.7479" stroke="#2E353A" stroke-miterlimit="10" stroke-linecap="round"/>
<path d="M6.13776 47.2269H13.5585" stroke="#2E353A" stroke-miterlimit="10" stroke-linecap="round"/>
<path d="M4.39838 47.2269H5.06198" stroke="#2E353A" stroke-miterlimit="10" stroke-linecap="round"/>
<path d="M88.0122 47.2269H89.3674" stroke="#2E353A" stroke-miterlimit="10" stroke-linecap="round"/>
<path d="M33.534 89.5857C33.0638 89.3919 32.6086 89.1639 32.1718 88.9035C32.1718 88.9035 34.6912 76.3812 34.7843 72.2692C34.8775 68.1572 35.4386 59.6468 35.4386 59.6468H24.1504C24.1504 59.6468 24.7115 68.1549 24.8047 72.2692C24.8978 76.3835 26.9003 88.9035 26.9003 88.9035C26.4626 89.1637 26.0066 89.3917 25.5358 89.5857C24.9304 89.8186 24.1737 90.1143 24.5509 90.2656C25.0633 90.4329 25.6062 90.4853 26.1412 90.4193C26.9327 90.2087 27.6958 89.903 28.4137 89.5089C28.7164 89.276 29.1123 64.8834 29.1123 64.8834H29.9202C29.9202 64.8834 30.344 89.283 30.6467 89.5089C31.3648 89.9026 32.1279 90.2083 32.9193 90.4193C33.4542 90.4853 33.9972 90.4329 34.5096 90.2656C34.8961 90.1213 34.1393 89.8186 33.534 89.5857Z" fill="#2E353A" stroke="#2E353A" stroke-linecap="round" stroke-linejoin="round"/>
<path d="M23.4519 44.1208C23.0606 44.1558 22.6841 44.287 22.3559 44.5028C22.0276 44.7185 21.7578 45.012 21.5705 45.3572C20.9395 46.5424 20.6228 52.1469 20.8603 52.7803C21.0978 53.4136 21.6497 54.0423 22.7533 53.1738C23.857 52.3053 23.9385 51.4368 23.9385 51.4368L23.4519 44.1208Z" fill="white" stroke="#2E353A" stroke-linecap="round" stroke-linejoin="round"/>
<path d="M36.2838 43.9904C36.2838 43.9904 37.9137 43.6994 38.235 44.9637C38.5564 46.2281 39.8929 49.9373 39.4202 51.4368C38.9475 52.9363 37.129 52.8594 35.867 52.0678C34.605 51.2761 36.2838 43.9904 36.2838 43.9904Z" fill="white" stroke="#2E353A" stroke-linecap="round" stroke-linejoin="round"/>
<path d="M28.8421 41.9787L23.4565 44.1208L24.1597 59.6538H35.4386L36.2838 43.9904L31.5268 42.0509L28.8421 41.9787Z" fill="white" stroke="#2E353A" stroke-linecap="round" stroke-linejoin="round"/>
<path d="M28.1902 46.6169H24.4554V47.2176H28.1902V46.6169Z" fill="#2E353A" stroke="#2E353A" stroke-linecap="round" stroke-linejoin="round"/>
<path d="M35.4596 46.6169H31.7248V47.2176H35.4596V46.6169Z" fill="#2E353A" stroke="#2E353A" stroke-linecap="round" stroke-linejoin="round"/>
<path d="M35.4712 57.7538H24.1597V59.6538H35.4712V57.7538Z" fill="#2E353A" stroke="#2E353A" stroke-linecap="round" stroke-linejoin="round"/>
<path d="M30.812 57.6746H28.9958V58.7015H30.812V57.6746Z" fill="white" stroke="#2E353A" stroke-miterlimit="10" stroke-linecap="round"/>
<path d="M30.9913 44.0883L29.9552 43.6133L29.1682 43.9835L29.8201 46.1093L28.7095 57.4092L29.7619 58.5431L30.9913 57.3626L30.2416 46.1093L30.9913 44.0883Z" fill="#012A4A"/>
<path d="M32.4512 42.5235L36.4841 44.0067L35.9322 44.8799L32.2603 43.5946L32.4512 42.5235Z" fill="#2E353A" stroke="#2E353A" stroke-linecap="round" stroke-linejoin="round"/>
<path d="M29.3917 44.1814L27.8922 45.604C27.8922 45.604 27.0237 43.1569 27.0237 42.761C27.0237 42.3652 28.0482 41.1823 28.0482 41.1823L31.918 41.1032L33.3384 42.8402L32.1555 45.5249L30.4977 44.2605L29.3917 44.1814Z" fill="white" stroke="#2E353A" stroke-linecap="round" stroke-linejoin="round"/>
<path d="M27.0236 42.7517L22.9885 44.2372L23.5403 45.1104L27.2122 43.8251L27.0236 42.7517Z" fill="#2E353A" stroke="#2E353A" stroke-linecap="round" stroke-linejoin="round"/>
<path d="M32.1136 43.0754L30.1228 44.817L28.1739 43.0754V38.4325H32.1136V43.0754Z" fill="white"/>
<g style="mix-blend-mode:multiply">
<path d="M28.1133 41.4268L29.5244 43.0637H30.8097L32.1136 41.6248L31.9878 40.2603L28.1739 40.0787L28.1133 41.4268Z" fill="#012A4A"/>
</g>
<path d="M32.1136 43.0754L30.1228 44.817L28.1739 43.0754V38.4325H32.1136V43.0754Z" stroke="#2E353A" stroke-linecap="round" stroke-linejoin="round"/>
<path d="M27.7478 37.1961C27.7478 37.1961 27.019 37.0051 27.0911 37.5151C27.1633 38.025 27.3845 38.9773 27.7478 39.1962L28.1133 39.4151L27.7478 37.1961Z" fill="white" stroke="#2E353A" stroke-linecap="round" stroke-linejoin="round"/>
<path d="M32.6375 37.1961C32.6375 37.1961 33.3687 37.0051 33.2942 37.5151C33.2196 38.025 33.0031 38.9773 32.6375 39.1962L32.272 39.4151L32.6375 37.1961Z" fill="white" stroke="#2E353A" stroke-linecap="round" stroke-linejoin="round"/>
<path d="M32.9821 36.3509C32.9825 35.95 32.8961 35.5538 32.7287 35.1895C32.5614 34.8252 32.3171 34.5015 32.0127 34.2406C31.7083 33.9797 31.351 33.7879 30.9654 33.6783C30.5797 33.5687 30.175 33.544 29.7789 33.6058C29.3828 33.6676 29.0047 33.8144 28.6708 34.0363C28.3369 34.2581 28.055 34.5496 27.8445 34.8908C27.634 35.232 27.4999 35.6147 27.4515 36.0127C27.403 36.4106 27.4414 36.8144 27.5639 37.1961L28.2624 40.5188L29.5524 42.3303H30.7981L32.0508 40.7516L32.8168 37.2729C32.9239 36.9772 32.9798 36.6654 32.9821 36.3509Z" fill="white" stroke="#2E353A" stroke-linecap="round" stroke-linejoin="round"/>
<path d="M28.1087 36.9027C28.1087 36.9027 28.5534 36.4207 28.9563 36.5814C29.3591 36.7421 29.2007 37.2264 30.3673 37.3474C31.024 37.4275 31.6904 37.3575 32.3162 37.1425L32.379 36.132L28.1087 35.5336V36.9027Z" fill="#012A4A"/>
<path d="M32.3837 36.132C32.2285 36.4796 32.1302 36.8499 32.0927 37.2287C32.0927 37.6664 32.4582 38.5419 32.4582 38.5419C32.4582 38.5419 33.3337 36.7164 33.2615 36.0598C33.1893 35.4032 32.3115 35.9131 32.3837 36.132Z" fill="#2E353A" stroke="#2E353A" stroke-linecap="round" stroke-linejoin="round"/>
<path d="M27.7827 38.3976C27.7827 38.3976 27.7827 38.2835 27.8014 38.1135C27.8433 37.6478 27.9527 36.7327 28.2205 36.5698C28.586 36.3509 28.5488 35.2006 28.5488 35.2006C28.5488 35.2006 28.0389 35.7758 29.7922 36.3649C31.5455 36.9539 32.9681 36.7211 33.9181 35.4801C34.8681 34.239 33.9903 33.3612 33.846 33.7989C33.7016 34.2367 33.4059 34.8234 32.896 34.3834C32.386 33.9433 31.5804 33.0701 30.1205 33.0701C28.6606 33.0701 28.0016 34.3834 28.0016 34.3834C27.7675 34.4982 27.569 34.6746 27.4275 34.8936C27.286 35.1127 27.2067 35.3661 27.1983 35.6267C27.1983 36.4976 27.7827 38.3976 27.7827 38.3976Z" fill="#2E353A" stroke="#2E353A" stroke-linecap="round" stroke-linejoin="round"/>
<path d="M32.9216 36.0854C31.8878 36.1273 31.0076 35.4311 30.1088 34.8164C29.2101 34.2017 28.6024 34.8164 28.6024 34.8164C28.672 34.4824 28.8498 34.1807 29.1083 33.9581C29.3667 33.7354 29.6914 33.6041 30.032 33.5847C31.2521 33.5055 31.6619 35.182 32.7865 35.3287" stroke="white" stroke-width="0.5" stroke-linecap="round" stroke-linejoin="round"/>
<path d="M30.0064 38.337H27.5639L27.8224 39.1426C27.847 39.219 27.8952 39.2856 27.96 39.3329C28.0249 39.3802 28.103 39.4057 28.1833 39.4058H29.4453C29.5294 39.4056 29.6111 39.3774 29.6774 39.3255C29.7436 39.2736 29.7906 39.201 29.8108 39.1194L30.0064 38.337Z" fill="#2E353A" stroke="#2E353A" stroke-linecap="round" stroke-linejoin="round"/>
<path d="M32.719 38.337H30.2742L30.5326 39.1426C30.5572 39.219 30.6054 39.2856 30.6703 39.3329C30.7351 39.3802 30.8133 39.4057 30.8935 39.4058H32.1555C32.24 39.4057 32.322 39.3776 32.3886 39.3257C32.4553 39.2738 32.5027 39.2012 32.5234 39.1194L32.719 38.337Z" fill="#2E353A" stroke="#2E353A" stroke-linecap="round" stroke-linejoin="round"/>
<path d="M27.5639 38.337L27.4405 37.1425" stroke="#2E353A" stroke-linecap="round" stroke-linejoin="round"/>
<path d="M32.719 38.337L32.9961 37.2031" stroke="#2E353A" stroke-linecap="round" stroke-linejoin="round"/>
<path d="M30.0063 38.337H30.2741" stroke="#2E353A" stroke-linecap="round" stroke-linejoin="round"/>
<path d="M29.9388 38.7165H30.3719" stroke="#2E353A" stroke-linecap="round" stroke-linejoin="round"/>
<path d="M30.649 40.2603C30.649 40.2603 30.4651 40.5374 30.2485 40.5374C30.032 40.5374 29.848 40.2603 29.848 40.2603" stroke="#2E353A" stroke-linecap="round" stroke-linejoin="round"/>
<path d="M24.1015 58.464C24.1015 58.464 22.127 59.3325 22.127 59.8866C22.127 60.4408 22.758 63.9917 23.1539 64.7763C23.5497 65.561 23.864 65.8823 24.5742 65.4073C25.2844 64.9323 24.1015 58.464 24.1015 58.464Z" fill="#2E353A" stroke="#2E353A" stroke-linecap="round" stroke-linejoin="round"/>
<path d="M36.4189 56.6478H35.3129V63.5166H36.4189V56.6478Z" fill="#2E353A" stroke="#2E353A" stroke-linecap="round" stroke-linejoin="round"/>
<path d="M36.9707 55.2274H34.761V57.2811H36.9707V55.2274Z" fill="#2E353A" stroke="#2E353A" stroke-linecap="round" stroke-linejoin="round"/>
<path d="M39.3411 50.1747C39.3411 50.1747 39.8067 51.9117 38.6286 52.5427C38.1838 52.7756 36.1022 52.3844 33.655 51.7534C31.2079 51.1224 29.8644 50.6474 29.8644 50.6474L22.9955 50.489C22.9955 50.489 22.3645 49.227 23.3122 48.5145C24.2598 47.802 27.7362 48.8312 27.7362 48.8312L34.8425 48.9895C34.8425 48.9895 36.342 48.291 38.3957 48.9104" fill="white"/>
<path d="M39.3411 50.1747C39.3411 50.1747 39.8068 51.9117 38.6286 52.5427C38.1838 52.7756 36.1022 52.3844 33.655 51.7534C31.2079 51.1224 29.8644 50.6474 29.8644 50.6474L22.9955 50.489C22.9955 50.489 22.3645 49.227 23.3122 48.5145C24.2598 47.802 27.7362 48.8312 27.7362 48.8312L34.8425 48.9895C34.8425 48.9895 36.342 48.291 38.3957 48.9104" stroke="#2E353A" stroke-linecap="round" stroke-linejoin="round"/>
<path d="M22.0548 50.6474C22.0548 50.6474 23.7127 49.3062 24.977 48.8312C26.2413 48.3562 33.2685 48.2002 33.2685 48.2002C33.2685 48.2002 35.2407 48.8312 34.8472 48.9896C34.4537 49.1479 32.8727 49.3062 32.1625 49.6206C31.4523 49.9349 27.345 52.7802 22.3831 53.4904C21.2934 53.6464 21.0396 53.5696 20.8044 52.4636" fill="white"/>
<path d="M22.0548 50.6474C22.0548 50.6474 23.7127 49.3062 24.977 48.8312C26.2413 48.3562 33.2685 48.2002 33.2685 48.2002C33.2685 48.2002 35.2407 48.8312 34.8472 48.9896C34.4537 49.1479 32.8727 49.3062 32.1625 49.6206C31.4523 49.9349 27.345 52.7802 22.3831 53.4904C21.2934 53.6464 21.0396 53.5696 20.8044 52.4636" stroke="#2E353A" stroke-linecap="round" stroke-linejoin="round"/>
<path d="M32.1252 48.284L32.258 49.418H32.726L32.7912 48.2188L32.1252 48.284Z" fill="#2E353A" stroke="#2E353A" stroke-linecap="round" stroke-linejoin="round"/>
</svg>
