<svg width="120" height="95" viewBox="0 0 120 95" fill="none" xmlns="http://www.w3.org/2000/svg">
<path d="M120 83.4672H0V83.5272H120V83.4672Z" fill="#EBEBEB"/>
<path d="M85.8432 85.1016H77.8944V85.1616H85.8432V85.1016Z" fill="#EBEBEB"/>
<path d="M104.942 85.6272H102.857V85.6872H104.942V85.6272Z" fill="#EBEBEB"/>
<path d="M90.6912 87.3289H86.0856V87.3889H90.6912V87.3289Z" fill="#EBEBEB"/>
<path d="M60 86.5176H49.6344V86.5776H60V86.5176Z" fill="#EBEBEB"/>
<path d="M47.496 86.5176H45.9768V86.5776H47.496V86.5176Z" fill="#EBEBEB"/>
<path d="M41.0376 85.5048H18.5544V85.5648H41.0376V85.5048Z" fill="#EBEBEB"/>
<path d="M56.88 72.7632H10.5384C10.1754 72.7626 9.82741 72.6179 9.57093 72.361C9.31445 72.1041 9.17039 71.7559 9.17039 71.3928V6.24964C9.17356 5.88868 9.319 5.54355 9.57514 5.28921C9.83128 5.03487 10.1774 4.89185 10.5384 4.89124H56.88C57.2435 4.89124 57.592 5.03562 57.849 5.29262C58.106 5.54962 58.2504 5.89818 58.2504 6.26164V71.3928C58.2504 71.7563 58.106 72.1049 57.849 72.3619C57.592 72.6189 57.2435 72.7632 56.88 72.7632ZM10.5384 4.93924C10.1913 4.93987 9.85858 5.07821 9.61335 5.32389C9.36812 5.56957 9.23039 5.90251 9.23039 6.24964V71.3928C9.23039 71.74 9.36812 72.0729 9.61335 72.3186C9.85858 72.5643 10.1913 72.7026 10.5384 72.7032H56.88C57.2273 72.7026 57.5603 72.5643 57.8059 72.3187C58.0515 72.0731 58.1898 71.7402 58.1904 71.3928V6.24964C58.1898 5.90229 58.0515 5.56935 57.8059 5.32374C57.5603 5.07813 57.2273 4.93987 56.88 4.93924H10.5384Z" fill="#EBEBEB"/>
<path d="M108.794 72.7632H62.4504C62.0871 72.7626 61.7389 72.618 61.4821 72.3612C61.2252 72.1043 61.0806 71.7561 61.08 71.3928V6.24964C61.0838 5.88846 61.2298 5.54333 61.4863 5.28906C61.7428 5.03478 62.0892 4.89185 62.4504 4.89124H108.794C109.155 4.89248 109.5 5.03578 109.756 5.29005C110.012 5.54432 110.157 5.8891 110.16 6.24964V71.3928C110.16 71.7555 110.016 72.1033 109.76 72.3602C109.504 72.617 109.157 72.762 108.794 72.7632ZM62.4504 4.93924C62.1031 4.93987 61.7701 5.07813 61.5245 5.32374C61.2789 5.56935 61.1406 5.90229 61.14 6.24964V71.3928C61.1406 71.7402 61.2789 72.0731 61.5245 72.3187C61.7701 72.5643 62.1031 72.7026 62.4504 72.7032H108.794C109.142 72.7026 109.475 72.5643 109.72 72.3187C109.966 72.0731 110.104 71.7402 110.105 71.3928V6.24964C110.104 5.90229 109.966 5.56935 109.72 5.32374C109.475 5.07813 109.142 4.93987 108.794 4.93924H62.4504Z" fill="#EBEBEB"/>
<path d="M57.6 68.1336C57.5856 67.7952 57.5568 67.452 57.5112 67.1064C57.0312 63.492 54.9168 60.2712 52.02 58.1712C52.0243 57.8558 52.005 57.5405 51.9624 57.228C51.4824 53.7264 48.2688 50.8872 44.7624 50.8872C44.0731 50.8842 43.3885 51.0012 42.7392 51.2328C40.284 47.9592 36.372 45.7752 32.2464 45.7752C30.912 45.7685 29.5882 46.0128 28.344 46.4952C26.9976 44.5488 24.744 43.2288 22.344 43.2288C18.8424 43.2288 16.3848 46.068 16.8576 49.5696C16.9167 50.0115 17.0196 50.4464 17.1648 50.868C12.6672 52.308 9.8424 56.664 10.5384 61.824C10.651 62.6523 10.8481 63.4669 11.1264 64.2552C7.6464 66.1416 5.6064 70.0152 6.2088 74.484C6.6888 78.1296 8.8488 81.3744 11.772 83.472H59.004C60.7584 81.4008 61.6296 78.5712 61.2 75.4512C60.8077 72.6915 59.5468 70.1284 57.6 68.1336Z" fill="#F0F0F0"/>
<path d="M115.706 64.2647C115.831 63.8399 115.946 63.4103 116.03 62.9759C116.974 58.4519 115.862 54.4199 113.366 51.7895C113.501 51.4034 113.611 51.009 113.695 50.6087C114.61 46.2215 112.044 42.6671 107.966 42.6671C107.114 42.6722 106.269 42.819 105.466 43.1015C103.97 38.9975 100.32 36.2615 95.52 36.2615C93.8643 36.2724 92.2236 36.5772 90.6744 37.1615C89.9232 34.7231 87.8472 33.0815 85.068 33.0815C80.988 33.0815 76.944 36.6359 76.0296 41.0207C75.9174 41.5561 75.8563 42.101 75.8472 42.6479C70.0128 44.4431 64.9008 49.9055 63.5544 56.3663C63.3453 57.3683 63.2352 58.3884 63.2256 59.4119C58.3848 61.7735 54.3912 66.6239 53.2272 72.2231C52.2672 76.7831 53.4096 80.8511 55.9512 83.4767H110.945C113.935 80.8387 116.009 77.3177 116.866 73.4231C117.6 69.9311 117.103 66.7487 115.706 64.2647Z" fill="#F0F0F0"/>
<path d="M12.96 18.972H10.9608V60.4128H12.96V18.972Z" fill="#E0E0E0"/>
<path d="M13.68 18.1704H10.2408V18.9696H13.68V18.1704Z" fill="#E0E0E0"/>
<path d="M12.12 4.8792L12.36 1.44L11.9592 0L11.5608 1.44L11.8008 4.8792H12.12Z" fill="#E0E0E0"/>
<path d="M13.68 18.1704H10.2408L7.84081 8.25122H16.08L13.68 18.1704Z" fill="#F5F5F5"/>
<path d="M12.8112 18.1704H11.1072L9.9192 8.25122H13.9992L12.8112 18.1704Z" fill="#FAFAFA"/>
<path d="M14.8008 81.612H9.12L10.2696 60.4104H13.6512L14.8008 81.612Z" fill="#E0E0E0"/>
<path d="M17.6256 83.4673V81.6121H6.2928V83.4673" fill="#E0E0E0"/>
<path d="M11.9592 3.67676C10.7464 3.67739 9.58352 4.15962 8.72617 5.01742C7.86882 5.87521 7.38721 7.03837 7.38721 8.25116H16.5336C16.5336 7.65044 16.4153 7.0556 16.1854 6.50061C15.9555 5.94562 15.6186 5.44134 15.1938 5.01657C14.769 4.5918 14.2647 4.25485 13.7098 4.02496C13.1548 3.79508 12.5599 3.67676 11.9592 3.67676Z" fill="#E0E0E0"/>
<path d="M12.7344 2.57041C12.7349 2.72383 12.6898 2.87394 12.6049 3.00174C12.52 3.12953 12.3991 3.22927 12.2575 3.28831C12.1159 3.34735 11.96 3.36304 11.8094 3.3334C11.6589 3.30376 11.5206 3.23012 11.4119 3.12181C11.3033 3.01349 11.2292 2.87537 11.1991 2.72493C11.169 2.57449 11.1842 2.4185 11.2428 2.27671C11.3014 2.13492 11.4007 2.01371 11.5283 1.92842C11.6558 1.84313 11.8058 1.79761 11.9592 1.79761C12.1644 1.79761 12.3612 1.87895 12.5065 2.02381C12.6518 2.16867 12.7338 2.36523 12.7344 2.57041Z" fill="#E0E0E0"/>
<path d="M60 94.3057C85.6998 94.3057 106.534 93.0893 106.534 91.5889C106.534 90.0884 85.6998 88.8721 60 88.8721C34.3002 88.8721 13.4664 90.0884 13.4664 91.5889C13.4664 93.0893 34.3002 94.3057 60 94.3057Z" fill="#F5F5F5"/>
<path d="M96.5064 17.3904H23.4936V90.888H96.5064V17.3904Z" fill="#012A4A"/>
<path d="M77.2752 24.8304H42.7248C42.2953 24.8304 41.9472 25.1786 41.9472 25.608V32.292C41.9472 32.7215 42.2953 33.0696 42.7248 33.0696H77.2752C77.7047 33.0696 78.0528 32.7215 78.0528 32.292V25.608C78.0528 25.1786 77.7047 24.8304 77.2752 24.8304Z" fill="white"/>
<path d="M76.2528 25.8984H43.7448C43.5314 25.8984 43.3584 26.0714 43.3584 26.2848V31.6176C43.3584 31.831 43.5314 32.004 43.7448 32.004H76.2528C76.4662 32.004 76.6392 31.831 76.6392 31.6176V26.2848C76.6392 26.0714 76.4662 25.8984 76.2528 25.8984Z" fill="#012A4A"/>
<path d="M44.9376 30.1249L46.8576 30.0049C46.8728 30.2618 46.9556 30.5102 47.0976 30.7249C47.2041 30.8566 47.3403 30.9612 47.4951 31.0301C47.6499 31.0989 47.8188 31.13 47.988 31.1209C48.2274 31.1364 48.4644 31.0648 48.6552 30.9193C48.7292 30.8629 48.7893 30.7903 48.8309 30.7071C48.8725 30.6239 48.8945 30.5323 48.8952 30.4393C48.8937 30.3521 48.8731 30.2664 48.835 30.188C48.7969 30.1097 48.742 30.0406 48.6744 29.9857C48.5256 29.8513 48.18 29.7241 47.64 29.6065C46.7544 29.4073 46.1256 29.1433 45.7464 28.8145C45.5631 28.66 45.4169 28.4664 45.3184 28.2479C45.22 28.0295 45.1719 27.7916 45.1776 27.5521C45.1768 27.2103 45.2779 26.8761 45.468 26.5921C45.6853 26.2764 45.9908 26.0318 46.3464 25.8889C46.8591 25.6971 47.405 25.6098 47.952 25.6321C48.7848 25.6321 49.4232 25.7881 49.872 26.0977C50.1007 26.2742 50.2888 26.4978 50.4238 26.7532C50.5588 27.0086 50.6374 27.2901 50.6544 27.5785L48.7512 27.6913C48.7457 27.5695 48.7153 27.4502 48.6617 27.3408C48.6082 27.2313 48.5327 27.1341 48.44 27.0551C48.3472 26.9761 48.2392 26.917 48.1226 26.8815C48.0061 26.846 47.8834 26.8349 47.7624 26.8489C47.5744 26.8356 47.3878 26.8883 47.2344 26.9977C47.1787 27.0403 47.1334 27.0951 47.1022 27.1579C47.071 27.2208 47.0547 27.2899 47.0544 27.3601C47.0561 27.4151 47.0703 27.4691 47.0961 27.5178C47.1219 27.5665 47.1586 27.6086 47.2032 27.6409C47.4081 27.7703 47.6393 27.8523 47.88 27.8809C48.5316 27.9981 49.1671 28.1914 49.7736 28.4569C50.1136 28.6134 50.4023 28.8631 50.6064 29.1769C50.7796 29.467 50.8701 29.799 50.868 30.1369C50.8691 30.5484 50.748 30.951 50.52 31.2937C50.2832 31.6524 49.9448 31.9323 49.548 32.0977C49.0491 32.2954 48.5148 32.3886 47.9784 32.3713C46.868 32.3713 46.0984 32.1577 45.6696 31.7305C45.2401 31.301 44.9801 30.7308 44.9376 30.1249Z" fill="white"/>
<path d="M52.704 25.7568H54.72V28.0416H56.9232V25.7568H58.9512V32.2848H56.9232V29.6448H54.72V32.2848H52.704V25.7568Z" fill="white"/>
<path d="M60.8592 29.0256C60.8592 27.96 61.156 27.1304 61.7496 26.5368C62.3432 25.9432 63.1704 25.6456 64.2312 25.644C65.3192 25.644 66.156 25.936 66.7416 26.52C67.3272 27.104 67.6216 27.9216 67.6248 28.9728C67.6489 29.6204 67.5163 30.2642 67.2384 30.8496C66.9876 31.331 66.6002 31.7276 66.1248 31.9896C65.5676 32.2764 64.9463 32.4161 64.32 32.3952C63.6926 32.4176 63.0682 32.2978 62.4936 32.0448C62.0001 31.799 61.5914 31.4112 61.32 30.9312C60.9976 30.3491 60.8384 29.6907 60.8592 29.0256ZM62.8776 29.0256C62.8776 29.6832 63 30.156 63.2448 30.444C63.3747 30.5791 63.5305 30.6865 63.7028 30.7598C63.8752 30.8332 64.0606 30.871 64.248 30.871C64.4353 30.871 64.6208 30.8332 64.7931 30.7598C64.9655 30.6865 65.1213 30.5791 65.2512 30.444C65.4896 30.1624 65.608 29.656 65.6064 28.9248C65.6064 28.3104 65.484 27.8616 65.2344 27.5784C65.1087 27.437 64.9529 27.3254 64.7785 27.2519C64.6041 27.1784 64.4154 27.1448 64.2264 27.1536C64.0411 27.147 63.8568 27.1824 63.6872 27.2572C63.5176 27.332 63.3671 27.4443 63.2472 27.5856C63 27.8928 62.88 28.368 62.88 29.0352L62.8776 29.0256Z" fill="white"/>
<path d="M69.5232 25.7568H72.8832C73.6128 25.7568 74.16 25.9304 74.5248 26.2776C74.7135 26.4735 74.8594 26.7066 74.9532 26.9619C75.047 27.2173 75.0866 27.4893 75.0696 27.7608C75.0853 28.0459 75.0404 28.3311 74.9378 28.5975C74.8352 28.8639 74.6773 29.1056 74.4744 29.3064C74.0784 29.676 73.4736 29.8632 72.66 29.8632H71.556V32.2848H69.5304L69.5232 25.7568ZM71.5488 28.5408H72.0432C72.3313 28.5681 72.62 28.4961 72.8616 28.3368C72.9386 28.2745 73.0002 28.1954 73.0418 28.1055C73.0834 28.0156 73.1039 27.9174 73.1016 27.8184C73.1037 27.7222 73.0866 27.6266 73.0511 27.5371C73.0157 27.4477 72.9627 27.3662 72.8952 27.2976C72.7608 27.1536 72.504 27.084 72.1248 27.084H71.5512L71.5488 28.5408Z" fill="white"/>
<path opacity="0.5" d="M29.064 35.5752H90.936C91.2899 35.5752 91.6293 35.7158 91.8795 35.966C92.1298 36.2163 92.2704 36.5557 92.2704 36.9096V90.8856H27.7296V36.912C27.7293 36.7366 27.7636 36.5628 27.8305 36.4006C27.8974 36.2384 27.9956 36.091 28.1196 35.9669C28.2435 35.8427 28.3907 35.7442 28.5528 35.677C28.7148 35.6098 28.8885 35.5752 29.064 35.5752Z" fill="white"/>
<path opacity="0.4" d="M98.88 41.8392V46.0488L90.3768 47.0592L82.4832 48L76.1712 48.7488L70.4736 49.4256L69.864 47.8152L69.2112 46.0944L69.1272 48.6816L69.0984 49.5888L68.2752 49.6872L61.9632 50.4384L54.0696 51.3768L47.7552 52.1256L39.8616 53.064L33.5472 53.8152L25.6536 54.7536L21.12 55.2912V51.084L29.6232 50.0736L37.5168 49.1352L43.8264 48.384L49.3656 47.7264L51.7248 47.448L58.0368 46.6968V46.6944L65.9304 45.7584L72.2448 45.0048L80.1384 44.0664L86.4528 43.3176L94.3464 42.3792L98.88 41.8392Z" fill="#012A4A"/>
<path opacity="0.4" d="M98.88 81.1248L21.12 63.0816V58.8744L98.88 76.9152V81.1248Z" fill="#012A4A"/>
<path d="M23.4912 90.8881H20.8896C20.6038 90.8881 20.3297 90.7745 20.1276 90.5724C19.9255 90.3704 19.812 90.0963 19.812 89.8105L19.812 17.3905H23.4912L23.4912 90.8881Z" fill="#263238"/>
<path d="M99.1104 90.8881H96.5088L96.5088 17.3905H100.188L100.188 89.8081C100.188 89.9498 100.161 90.0902 100.107 90.2212C100.053 90.3522 99.9733 90.4713 99.8732 90.5716C99.7731 90.6719 99.6542 90.7515 99.5233 90.8058C99.3924 90.8601 99.2521 90.8881 99.1104 90.8881Z" fill="#263238"/>
<path opacity="0.3" d="M76.7544 35.5752H68.484L54.1152 90.888H62.3832L76.7544 35.5752Z" fill="white"/>
<path opacity="0.3" d="M82.8456 35.5752H79.32L64.9488 90.888H68.4768L82.8456 35.5752Z" fill="white"/>
<path opacity="0.3" d="M53.7672 35.5752H50.2392L35.868 90.888H39.396L53.7672 35.5752Z" fill="white"/>
<path d="M61.2816 34.7352H58.7208V90.888H61.2816V34.7352Z" fill="#012A4A"/>
<path d="M105.068 19.5816L94.9881 6.24963H25.0161L14.9361 19.5816C13.7841 21.3 14.2977 22.7592 16.1361 22.7592C17.9745 22.7592 20.3049 21.3 21.2937 19.5816H21.3801C20.3937 21.3 21.0465 22.7592 22.8849 22.7592C24.7233 22.7592 26.9145 21.3 27.7377 19.5816H27.8241C27.0033 21.3 27.7953 22.7592 29.6337 22.7592C31.4721 22.7592 33.5217 21.3 34.1937 19.5816H34.2801C33.6225 21.3 34.5561 22.7592 36.3945 22.7592C38.2329 22.7592 40.1433 21.3 40.6401 19.5816H40.7241C40.2321 21.3 41.3049 22.7592 43.1433 22.7592C44.9817 22.7592 46.7433 21.3 47.0841 19.5816H47.1705C46.8417 21.3 48.0537 22.7592 49.8921 22.7592C51.7305 22.7592 53.3625 21.3 53.5281 19.5816H53.6145C53.4513 21.3 54.8025 22.7592 56.6409 22.7592C58.4793 22.7592 59.9721 21.3 59.9721 19.5816H60.0585C60.0585 21.3 61.5513 22.7592 63.3897 22.7592C65.2281 22.7592 66.5793 21.3 66.4161 19.5816H66.4809C66.6465 21.3 68.2785 22.7592 70.1169 22.7592C71.9553 22.7592 73.1673 21.3 72.8385 19.5816H72.9249C73.2561 21.3 75.0273 22.7592 76.8657 22.7592C78.704 22.7592 79.7769 21.3 79.2849 19.5816H79.3689C79.8657 21.3 81.7689 22.7592 83.6145 22.7592C85.4601 22.7592 86.3865 21.3 85.7289 19.5816H85.8153C86.4753 21.3 88.5249 22.7592 90.3753 22.7592C92.2257 22.7592 93.0153 21.3 92.1849 19.5816H92.2713C93.0945 21.3 95.2857 22.7592 97.1241 22.7592C98.9625 22.7592 99.6153 21.3 98.6289 19.5816H98.7153C99.7041 21.3 102.034 22.7592 103.873 22.7592C105.711 22.7592 106.22 21.3 105.068 19.5816Z" fill="#012A4A"/>
<path opacity="0.8" d="M105.068 19.5816L94.9881 6.24963H25.0161L14.9361 19.5816C13.7841 21.3 14.2977 22.7592 16.1361 22.7592C17.9745 22.7592 20.3049 21.3 21.2937 19.5816H21.3801C20.3937 21.3 21.0465 22.7592 22.8849 22.7592C24.7233 22.7592 26.9145 21.3 27.7377 19.5816H27.8241C27.0033 21.3 27.7953 22.7592 29.6337 22.7592C31.4721 22.7592 33.5217 21.3 34.1937 19.5816H34.2801C33.6225 21.3 34.5561 22.7592 36.3945 22.7592C38.2329 22.7592 40.1433 21.3 40.6401 19.5816H40.7241C40.2321 21.3 41.3049 22.7592 43.1433 22.7592C44.9817 22.7592 46.7433 21.3 47.0841 19.5816H47.1705C46.8417 21.3 48.0537 22.7592 49.8921 22.7592C51.7305 22.7592 53.3625 21.3 53.5281 19.5816H53.6145C53.4513 21.3 54.8025 22.7592 56.6409 22.7592C58.4793 22.7592 59.9721 21.3 59.9721 19.5816H60.0585C60.0585 21.3 61.5513 22.7592 63.3897 22.7592C65.2281 22.7592 66.5793 21.3 66.4161 19.5816H66.4809C66.6465 21.3 68.2785 22.7592 70.1169 22.7592C71.9553 22.7592 73.1673 21.3 72.8385 19.5816H72.9249C73.2561 21.3 75.0273 22.7592 76.8657 22.7592C78.704 22.7592 79.7769 21.3 79.2849 19.5816H79.3689C79.8657 21.3 81.7689 22.7592 83.6145 22.7592C85.4601 22.7592 86.3865 21.3 85.7289 19.5816H85.8153C86.4753 21.3 88.5249 22.7592 90.3753 22.7592C92.2257 22.7592 93.0153 21.3 92.1849 19.5816H92.2713C93.0945 21.3 95.2857 22.7592 97.1241 22.7592C98.9625 22.7592 99.6153 21.3 98.6289 19.5816H98.7153C99.7041 21.3 102.034 22.7592 103.873 22.7592C105.711 22.7592 106.22 21.3 105.068 19.5816Z" fill="white"/>
<g opacity="0.2">
<path opacity="0.2" d="M25.0152 6.24963H29.952L21.2904 19.5816H14.9328L25.0152 6.24963Z" fill="#012A4A"/>
<path opacity="0.2" d="M35.0208 6.24963H39.9576L34.1784 19.5816H27.8208L35.0208 6.24963Z" fill="#012A4A"/>
<path opacity="0.2" d="M45.0264 6.24963H49.9608L47.0688 19.5816H40.7088L45.0264 6.24963Z" fill="#012A4A"/>
<path opacity="0.2" d="M55.032 6.24963H59.9664L59.9568 19.5816H53.5992L55.032 6.24963Z" fill="#012A4A"/>
<path opacity="0.2" d="M65.0352 6.24963H69.972L72.8448 19.5816H66.4872L65.0352 6.24963Z" fill="#012A4A"/>
<path opacity="0.2" d="M75.0408 6.24963H79.9776L85.7352 19.5816H79.3776L75.0408 6.24963Z" fill="#012A4A"/>
<path opacity="0.2" d="M85.0464 6.24963H89.9808L98.6232 19.5816H92.2656L85.0464 6.24963Z" fill="#012A4A"/>
<path opacity="0.2" d="M92.2656 19.5817C93.0888 21.3001 95.28 22.7593 97.1184 22.7593C98.9568 22.7593 99.6096 21.3001 98.6232 19.5817" fill="#012A4A"/>
<path opacity="0.2" d="M79.3752 19.5817C79.872 21.3001 81.7752 22.7593 83.6208 22.7593C85.4664 22.7593 86.3928 21.3001 85.7352 19.5817" fill="#012A4A"/>
<path opacity="0.2" d="M66.48 19.5817C66.6456 21.3001 68.2776 22.7593 70.116 22.7593C71.9544 22.7593 73.1664 21.3001 72.8376 19.5817" fill="#012A4A"/>
<path opacity="0.2" d="M53.5992 19.5817C53.436 21.3001 54.7872 22.7593 56.6256 22.7593C58.464 22.7593 59.9568 21.3001 59.9568 19.5817" fill="#012A4A"/>
<path opacity="0.2" d="M40.7088 19.5817C40.2168 21.3001 41.2896 22.7593 43.128 22.7593C44.9664 22.7593 46.728 21.3001 47.0688 19.5817" fill="#012A4A"/>
<path opacity="0.2" d="M27.8208 19.5817C27 21.3001 27.792 22.7593 29.6304 22.7593C31.4688 22.7593 33.5184 21.3001 34.1904 19.5817" fill="#012A4A"/>
<path opacity="0.2" d="M14.9328 19.5817C13.7808 21.3001 14.2944 22.7593 16.1328 22.7593C17.9712 22.7593 20.3016 21.3001 21.2904 19.5817" fill="#012A4A"/>
</g>
<path d="M100.759 79.6632L19.2408 61.62V57.4104L100.759 75.4536V79.6632Z" fill="#012A4A"/>
<path opacity="0.4" d="M100.759 79.6632L19.2408 61.62V57.4104L100.759 75.4536V79.6632Z" fill="white"/>
<g opacity="0.6">
<path opacity="0.6" d="M32.2704 64.5024L23.9952 62.6712L28.1544 59.3832L36.4296 61.2144L32.2704 64.5024Z" fill="#012A4A"/>
<path opacity="0.6" d="M47.1624 67.8L38.8896 65.9688L43.0488 62.6808L51.324 64.512L47.1624 67.8Z" fill="#012A4A"/>
<path opacity="0.6" d="M62.0568 71.0952L53.7816 69.264L57.9432 65.976L66.2184 67.8072L62.0568 71.0952Z" fill="#012A4A"/>
<path opacity="0.6" d="M76.9512 74.3929L68.676 72.5617L72.8352 69.2737L81.1104 71.1049L76.9512 74.3929Z" fill="#012A4A"/>
<path opacity="0.6" d="M91.8456 77.6881L83.5704 75.8569L87.7296 72.5688L96.0048 74.4L91.8456 77.6881Z" fill="#012A4A"/>
</g>
<path d="M100.759 40.3776V44.5872L91.8456 45.5976L83.5704 46.536L76.9536 47.2872L70.98 47.9616L70.3416 46.3512L69.6576 44.6304L69.5688 47.22L69.5376 48.1272L68.676 48.2256L62.0568 48.9744L53.7816 49.9128L47.1648 50.664L38.8872 51.6024L32.268 52.3512L23.9952 53.2896L19.2408 53.8296V49.6224L28.1544 48.612L36.4296 47.6712L43.044 46.9224L48.8496 46.2624L51.324 45.984L57.9432 45.2328L66.216 44.2944L72.8352 43.5432L81.1128 42.6048L87.732 41.8536L96.0048 40.9152L100.759 40.3776Z" fill="#012A4A"/>
<path opacity="0.4" d="M100.759 40.3776V44.5872L91.8456 45.5976L83.5704 46.536L76.9536 47.2872L70.98 47.9616L70.3416 46.3512L69.6576 44.6304L69.5688 47.22L69.5376 48.1272L68.676 48.2256L62.0568 48.9744L53.7816 49.9128L47.1648 50.664L38.8872 51.6024L32.268 52.3512L23.9952 53.2896L19.2408 53.8296V49.6224L28.1544 48.612L36.4296 47.6712L43.044 46.9224L48.8496 46.2624L51.324 45.984L57.9432 45.2328L66.216 44.2944L72.8352 43.5432L81.1128 42.6048L87.732 41.8536L96.0048 40.9152L100.759 40.3776Z" fill="white"/>
<g opacity="0.6">
<path opacity="0.6" d="M32.268 52.3511L23.9928 53.2919L28.1544 48.6095L36.4296 47.6711L32.268 52.3511Z" fill="#012A4A"/>
<path opacity="0.6" d="M47.1624 50.664L38.8872 51.6024L43.0488 46.9224L51.324 45.984L47.1624 50.664Z" fill="#012A4A"/>
<path opacity="0.6" d="M62.0568 48.9744L53.7816 49.9128L57.9432 45.2328L66.2184 44.2944L62.0568 48.9744Z" fill="#012A4A"/>
<path opacity="0.6" d="M68.676 48.2256L69.5688 47.22L69.5376 48.1272L68.676 48.2256Z" fill="white"/>
<path opacity="0.6" d="M81.1128 42.6049L76.9536 47.2873L70.98 47.9617L70.3416 46.3513L72.8352 43.5433L81.1128 42.6049Z" fill="#012A4A"/>
<path opacity="0.6" d="M91.8456 45.5976L83.5704 46.536L87.732 41.8536L96.0072 40.9152L91.8456 45.5976Z" fill="#012A4A"/>
</g>
<path d="M78.7464 41.8032C79.2264 40.7304 81.1296 40.212 82.8696 41.3112C84.6096 42.4104 84.4512 44.7456 83.6904 45.0288C85.9512 45.792 87.0696 50.5656 85.1712 50.9472C85.8504 52.332 86.0808 57.6888 80.3712 56.6304C74.6616 55.572 76.332 50.8704 76.332 50.8704C76.332 50.8704 74.712 47.076 77.2536 45.3984C76.1712 44.4912 76.8816 41.2728 78.7464 41.8032Z" fill="#263238"/>
<path d="M80.6976 87.8761L79.3032 88.5433L76.3248 84.5209L78.1824 83.2609L80.6976 87.8761Z" fill="#FF8B7B"/>
<path d="M78.9864 88.1713L80.2848 87.0145C80.3063 86.9954 80.334 86.9849 80.3628 86.9849C80.3915 86.9849 80.4193 86.9954 80.4408 87.0145L81.4296 87.8449C81.4536 87.8687 81.4722 87.8973 81.4844 87.9289C81.4965 87.9604 81.5019 87.9942 81.5001 88.028C81.4982 88.0617 81.4893 88.0947 81.4739 88.1248C81.4584 88.1549 81.4368 88.1813 81.4104 88.2025C80.952 88.5985 80.712 88.7665 80.1408 89.2753C79.7904 89.5873 79.092 90.2689 78.6072 90.7009C78.1224 91.1329 77.7048 90.7009 77.8704 90.4849C78.6168 89.4961 78.756 88.9273 78.852 88.4161C78.8674 88.3214 78.9148 88.235 78.9864 88.1713Z" fill="#263238"/>
<path d="M78.72 88.7496C78.6296 88.8455 78.5111 88.9103 78.3816 88.9344C78.3504 88.9355 78.3195 88.9286 78.2917 88.9143C78.264 88.9 78.2404 88.8788 78.2232 88.8528C78.2116 88.8371 78.2043 88.8188 78.2018 88.7995C78.1992 88.7802 78.2017 88.7606 78.2088 88.7424C78.288 88.5432 78.9408 88.3536 79.0152 88.3344C79.022 88.332 79.0295 88.3319 79.0364 88.334C79.0433 88.3362 79.0493 88.3406 79.0536 88.3464C79.0577 88.3524 79.0599 88.3595 79.0599 88.3668C79.0599 88.3741 79.0577 88.3812 79.0536 88.3872C78.9534 88.5177 78.8418 88.639 78.72 88.7496ZM78.3192 88.7088C78.3003 88.7232 78.2854 88.7422 78.276 88.764C78.272 88.771 78.2699 88.7788 78.2699 88.7868C78.2699 88.7948 78.272 88.8027 78.276 88.8096C78.287 88.8268 78.3023 88.8407 78.3205 88.85C78.3386 88.8592 78.3588 88.8635 78.3792 88.8624C78.5016 88.8624 78.7008 88.6992 78.9216 88.4328C78.7065 88.4919 78.5024 88.5851 78.3168 88.7088H78.3192Z" fill="#012A4A"/>
<path d="M79.0416 88.3944C78.852 88.4592 78.3768 88.4664 78.2904 88.3248C78.2712 88.2912 78.2616 88.236 78.3312 88.1616C78.3552 88.1347 78.3843 88.1127 78.4169 88.0971C78.4494 88.0814 78.4847 88.0724 78.5208 88.0704C78.7245 88.0956 78.9139 88.1886 79.0584 88.3344C79.0651 88.3416 79.0689 88.351 79.0689 88.3608C79.0689 88.3707 79.0651 88.3801 79.0584 88.3872L79.0416 88.3944ZM78.384 88.2L78.3696 88.2144C78.3216 88.2648 78.336 88.2864 78.3408 88.2936C78.3912 88.3776 78.7368 88.3968 78.9456 88.3512C78.8263 88.2375 78.6727 88.1666 78.5088 88.1496C78.4626 88.1515 78.4185 88.1693 78.384 88.2Z" fill="#012A4A"/>
<path d="M76.5024 50.3496C76.2993 51.2872 76.0281 52.2089 75.6912 53.1072C75.5229 53.5653 75.3282 54.0132 75.108 54.4488C74.8794 54.9139 74.5993 55.3519 74.2728 55.7544L74.208 55.8336L74.0976 55.9488C74.0005 56.0378 73.8905 56.1114 73.7712 56.1672C73.5144 56.2836 73.2233 56.2999 72.9552 56.2128C72.7707 56.1518 72.5991 56.0574 72.4488 55.9344C72.3321 55.8398 72.223 55.7363 72.1224 55.6248C71.7897 55.2379 71.5022 54.8144 71.2656 54.3624C70.8213 53.5156 70.4504 52.6324 70.1568 51.7224C70.1296 51.6333 70.1362 51.5374 70.1753 51.4528C70.2143 51.3683 70.2831 51.3011 70.3685 51.264C70.454 51.2269 70.55 51.2226 70.6385 51.2518C70.7269 51.281 70.8015 51.3417 70.848 51.4224C71.0664 51.816 71.292 52.2192 71.5248 52.608C71.7576 52.9968 71.9904 53.3832 72.2448 53.7432C72.4714 54.0946 72.7353 54.4205 73.032 54.7152C73.0911 54.7705 73.1545 54.8211 73.2216 54.8664C73.2792 54.9024 73.3296 54.9192 73.3272 54.9096C73.2822 54.8933 73.2329 54.8933 73.188 54.9096L73.1448 54.9312C73.1448 54.9312 73.1448 54.9312 73.1448 54.9168L73.1856 54.8616C73.4224 54.5279 73.6227 54.1699 73.7832 53.7936C73.9536 53.3976 74.112 52.9872 74.2632 52.5672C74.5464 51.732 74.7936 50.8464 75.0024 49.9968V49.9776C75.0555 49.7887 75.1792 49.6274 75.3481 49.5274C75.5169 49.4274 75.7177 49.3962 75.9089 49.4404C76.1001 49.4845 76.267 49.6006 76.3748 49.7646C76.4826 49.9285 76.5232 50.1277 76.488 50.3208L76.5024 50.3496Z" fill="#FF8B7B"/>
<path d="M83.0976 90.5305L81.6024 90.5833L80.0256 85.2721L82.0872 85.0225L83.0976 90.5305Z" fill="#FF8B7B"/>
<path d="M81.5016 90.1056H83.1816C83.2098 90.1043 83.2375 90.1141 83.2586 90.1329C83.2797 90.1518 83.2925 90.1782 83.2944 90.2064L83.3952 91.5288C83.3958 91.5631 83.3897 91.5973 83.3771 91.6293C83.3645 91.6612 83.3458 91.6904 83.322 91.7152C83.2981 91.7399 83.2696 91.7597 83.2381 91.7735C83.2066 91.7872 83.1727 91.7946 83.1384 91.7952C82.5552 91.7952 82.2744 91.7592 81.5376 91.764C81.084 91.764 80.4192 91.8192 79.7928 91.824C79.1664 91.8288 79.1736 91.2096 79.44 91.1496C80.6256 90.8904 80.8344 90.5424 81.2496 90.2088C81.3201 90.1478 81.4086 90.1116 81.5016 90.1056Z" fill="#263238"/>
<path d="M75.0912 49.6943C74.88 50.6807 74.64 52.9079 74.64 57.9311L80.64 58.4615C80.916 56.1935 81.144 54.7319 82.7256 50.6663C82.7819 50.5224 82.8066 50.368 82.7979 50.2137C82.7892 50.0594 82.7473 49.9087 82.6751 49.7721C82.6029 49.6354 82.502 49.5159 82.3794 49.4217C82.2569 49.3275 82.1154 49.2609 81.9648 49.2263C81.5784 49.1375 81.132 49.0463 80.6784 48.9863C79.778 48.8417 78.8685 48.7615 77.9568 48.7463C77.292 48.7463 76.572 48.7991 76.0656 48.8423C75.8324 48.8585 75.611 48.9505 75.435 49.1044C75.2591 49.2582 75.1383 49.4654 75.0912 49.6943Z" fill="#012A4A"/>
<path opacity="0.2" d="M81.4944 50.4456C81.468 51.1656 81.6192 52.2624 81.948 52.7256C82.0536 52.4256 82.1664 52.1088 82.2912 51.7656L81.4944 50.4456Z" fill="black"/>
<path d="M80.8968 45.8832C80.5824 46.7496 80.148 48.3504 80.6568 48.9912C79.6876 49.604 78.6688 50.1346 77.6112 50.5776C76.9872 49.116 77.9352 48.7512 77.9352 48.7512C78.9504 48.6024 79.044 47.8704 78.9864 47.172L80.8968 45.8832Z" fill="#FF8B7B"/>
<path opacity="0.2" d="M80.352 46.5408L78.9936 47.1696C79.008 47.3341 79.008 47.4995 78.9936 47.664C79.2768 47.6904 80.0112 47.4744 80.2896 47.0184C80.3676 46.872 80.3898 46.7023 80.352 46.5408Z" fill="black"/>
<path d="M82.1496 44.5152C81.6576 45.9096 81.48 46.512 80.5536 47.0352C79.1616 47.8248 77.556 46.9152 77.6208 45.4008C77.6784 44.0376 78.4752 41.9832 80.0208 41.8152C80.3632 41.7753 80.7102 41.8237 81.0286 41.9559C81.347 42.0881 81.6262 42.2996 81.8397 42.5704C82.0531 42.8411 82.1937 43.162 82.2479 43.5024C82.3022 43.8429 82.2683 44.1916 82.1496 44.5152Z" fill="#FF8B7B"/>
<path d="M79.3968 41.8032C79.5648 42.6456 80.6376 43.1448 81.3168 43.0584C80.9976 43.4568 80.6448 45.1488 81.8904 45.3864C83.256 44.784 83.3904 43.2048 82.6368 42.1512C81.8832 41.0976 79.8168 41.0592 79.3968 41.8032Z" fill="#263238"/>
<path d="M79.3968 41.6113C78.3384 41.8513 78.2184 42.7657 78.7944 42.7201C79.788 42.6337 80.7792 41.2825 79.3968 41.6113Z" fill="#263238"/>
<path d="M74.64 57.9312C74.64 57.9312 71.4768 71.3232 71.76 74.7048C72.084 78.6576 76.4088 85.0248 76.4088 85.0248L78.3936 83.2224C78.3936 83.2224 76.4208 78.0024 74.964 74.604C75.432 71.2032 79.56 61.596 79.56 58.3608L74.64 57.9312Z" fill="#012A4A"/>
<path opacity="0.4" d="M74.64 57.9312C74.64 57.9312 71.4768 71.3232 71.76 74.7048C72.084 78.6576 76.4088 85.0248 76.4088 85.0248L78.3936 83.2224C78.3936 83.2224 76.4208 78.0024 74.964 74.604C75.432 71.2032 79.56 61.596 79.56 58.3608L74.64 57.9312Z" fill="black"/>
<path d="M78.744 83.5032L76.3992 85.2528L75.7968 84.7968L78.372 82.764L78.744 83.5032Z" fill="#012A4A"/>
<path opacity="0.4" d="M76.9728 63.8304C75.2304 66.2424 75.144 70.68 75.2544 73.1736C75.852 70.884 77.1048 67.4616 78.1032 64.38C78.0816 63.1968 77.7864 62.7 76.9728 63.8304Z" fill="black"/>
<path d="M75.756 57.9504C75.756 57.9504 76.6272 69.2712 77.016 73.1736C77.4744 77.808 79.896 85.4136 79.896 85.4136L82.0968 85.0248C82.0968 85.0248 80.88 78.8472 80.5152 74.7048C80.5824 69.1848 81.6816 61.9464 80.6352 58.4784L75.756 57.9504Z" fill="#012A4A"/>
<path opacity="0.4" d="M75.756 57.9504C75.756 57.9504 76.6272 69.2712 77.016 73.1736C77.4744 77.808 79.896 85.4136 79.896 85.4136L82.0968 85.0248C82.0968 85.0248 80.88 78.8472 80.5152 74.7048C80.5824 69.1848 81.6816 61.9464 80.6352 58.4784L75.756 57.9504Z" fill="black"/>
<path d="M82.308 85.4065L79.7616 85.6753L79.476 84.9025L82.3344 84.4344L82.308 85.4065Z" fill="#012A4A"/>
<path d="M79.6656 44.1912C79.6344 44.3064 79.5456 44.3832 79.4712 44.3616C79.3968 44.34 79.3608 44.2296 79.392 44.1216C79.4232 44.0136 79.5144 43.9296 79.5888 43.9512C79.6632 43.9728 79.6992 44.076 79.6656 44.1912Z" fill="#263238"/>
<path d="M78.36 43.8193C78.3264 43.9345 78.2376 44.0113 78.1632 43.9897C78.0888 43.9681 78.0528 43.8553 78.0864 43.7497C78.12 43.6441 78.2064 43.5577 78.2808 43.5793C78.3552 43.6009 78.3912 43.7017 78.36 43.8193Z" fill="#263238"/>
<path d="M78.3144 43.5865L78.0576 43.4257C78.0576 43.4257 78.1392 43.6849 78.3144 43.5865Z" fill="#263238"/>
<path d="M78.7728 44.2128C78.5945 44.447 78.3854 44.6561 78.1512 44.8344C78.1979 44.8931 78.257 44.9409 78.3241 44.9745C78.3913 45.0081 78.4649 45.0266 78.54 45.0288L78.7728 44.2128Z" fill="#FF5652"/>
<path d="M79.1064 45.648C79.0391 45.6404 78.9725 45.6275 78.9072 45.6096C78.8987 45.6064 78.8917 45.6003 78.8873 45.5924C78.8829 45.5845 78.8815 45.5753 78.8832 45.5664C78.886 45.557 78.8923 45.5491 78.9007 45.5442C78.9092 45.5393 78.9192 45.5378 78.9288 45.54C79.0713 45.5848 79.2224 45.5951 79.3697 45.5701C79.517 45.5451 79.6563 45.4854 79.776 45.396C79.7832 45.3911 79.7919 45.3889 79.8005 45.3899C79.8092 45.3909 79.8172 45.395 79.8231 45.4014C79.8289 45.4079 79.8323 45.4162 79.8324 45.425C79.8326 45.4337 79.8296 45.4422 79.824 45.4488C79.6198 45.606 79.3624 45.6774 79.1064 45.648Z" fill="#263238"/>
<path d="M82.2672 45.9312C82.0562 46.1241 81.7776 46.2258 81.492 46.2144C81.1128 46.1976 81.0264 45.9408 81.2304 45.6456C81.4344 45.3504 81.7848 45.048 82.1904 45.12C82.5432 45.192 82.524 45.6912 82.2672 45.9312Z" fill="#FF8B7B"/>
<path d="M80.592 43.8816C80.5828 43.8793 80.5742 43.8752 80.5668 43.8694C80.5594 43.8636 80.5532 43.8563 80.5488 43.848C80.5059 43.7704 80.4453 43.7041 80.3719 43.6545C80.2984 43.6048 80.2143 43.5733 80.1264 43.5624C80.1169 43.5621 80.1076 43.5599 80.099 43.556C80.0904 43.5521 80.0826 43.5465 80.0762 43.5396C80.0697 43.5327 80.0646 43.5246 80.0613 43.5157C80.058 43.5069 80.0565 43.4974 80.0568 43.488C80.0586 43.4695 80.0672 43.4524 80.081 43.44C80.0947 43.4275 80.1126 43.4207 80.1312 43.4208C80.2426 43.4329 80.3495 43.4714 80.4431 43.5332C80.5366 43.595 80.614 43.6782 80.6688 43.776C80.6779 43.7924 80.6806 43.8116 80.6761 43.8299C80.6717 43.8481 80.6605 43.864 80.6448 43.8744C80.6369 43.879 80.6282 43.882 80.6191 43.8832C80.61 43.8845 80.6008 43.8839 80.592 43.8816Z" fill="#263238"/>
<path d="M78.108 43.2096C78.0944 43.2077 78.0816 43.202 78.0712 43.1931C78.0607 43.1842 78.053 43.1725 78.049 43.1594C78.0449 43.1463 78.0447 43.1323 78.0484 43.1191C78.052 43.1059 78.0594 43.094 78.0696 43.0848C78.1542 43.011 78.2549 42.958 78.3637 42.9301C78.4725 42.9022 78.5863 42.9001 78.696 42.924C78.7136 42.93 78.7282 42.9426 78.7367 42.9592C78.7452 42.9757 78.7469 42.9949 78.7416 43.0128C78.7391 43.0216 78.7349 43.0299 78.7292 43.0371C78.7235 43.0443 78.7164 43.0503 78.7084 43.0548C78.7003 43.0592 78.6915 43.0621 78.6824 43.0631C78.6732 43.0641 78.664 43.0633 78.6552 43.0608C78.5686 43.0416 78.4787 43.0436 78.393 43.0666C78.3074 43.0896 78.2286 43.1329 78.1632 43.1928C78.1557 43.1994 78.1469 43.2043 78.1374 43.2072C78.1279 43.2101 78.1179 43.2109 78.108 43.2096Z" fill="#263238"/>
<path d="M82.8408 50.0448C83.1312 50.8944 83.376 51.7248 83.5824 52.6032C83.6856 53.0376 83.784 53.4768 83.8536 53.928C83.9354 54.4035 83.9747 54.8854 83.9712 55.368C83.9671 55.5086 83.9542 55.6489 83.9328 55.788C83.9189 55.8692 83.8996 55.9493 83.8752 56.028C83.8608 56.076 83.8488 56.1144 83.8296 56.1648C83.7468 56.3772 83.5979 56.5573 83.4048 56.6784C83.293 56.7443 83.1715 56.7921 83.0448 56.82C82.8662 56.8565 82.6826 56.8614 82.5024 56.8344C82.0052 56.7454 81.5265 56.5734 81.0864 56.3256C80.2958 55.8992 79.5477 55.3985 78.852 54.8304C78.7767 54.7724 78.726 54.6884 78.7097 54.5949C78.6934 54.5013 78.7128 54.4051 78.7641 54.3251C78.8154 54.2452 78.8948 54.1874 78.9866 54.1632C79.0784 54.139 79.176 54.1501 79.26 54.1944C80.0089 54.5821 80.7771 54.9313 81.5616 55.2408C81.7536 55.3128 81.9432 55.3776 82.1256 55.428C82.2865 55.4763 82.4523 55.5061 82.62 55.5168C82.6548 55.5216 82.6904 55.5175 82.7232 55.5048C82.7232 55.5048 82.6992 55.5048 82.6656 55.5264C82.6262 55.5488 82.5925 55.58 82.5672 55.6176C82.5562 55.6322 82.5473 55.6484 82.5408 55.6656C82.5408 55.6656 82.5408 55.6512 82.5408 55.644C82.5474 55.6205 82.5514 55.5963 82.5528 55.572C82.5567 55.496 82.5567 55.4199 82.5528 55.344C82.5303 54.9553 82.4757 54.5692 82.3896 54.1896C82.3008 53.7864 82.2096 53.3784 82.0992 52.9704C81.8808 52.1592 81.6336 51.3312 81.3792 50.532C81.3388 50.3479 81.3679 50.1553 81.461 49.9914C81.554 49.8275 81.7045 49.7039 81.8833 49.6443C82.0621 49.5847 82.2566 49.5933 82.4294 49.6686C82.6022 49.7439 82.7411 49.8804 82.8192 50.052L82.8408 50.0448Z" fill="#FF8B7B"/>
<path d="M80.6784 90.2784C80.6604 90.2543 80.6482 90.2264 80.6428 90.1968C80.6373 90.1673 80.6389 90.1369 80.6472 90.108C80.6507 90.0861 80.6596 90.0655 80.673 90.0479C80.6864 90.0304 80.7039 90.0164 80.724 90.0072C80.904 89.928 81.336 90.2184 81.3864 90.2472C81.3918 90.2513 81.3958 90.2569 81.398 90.2633C81.4001 90.2697 81.4002 90.2767 81.3984 90.2832C81.3971 90.2903 81.3936 90.2969 81.3884 90.302C81.3833 90.3072 81.3767 90.3106 81.3696 90.312C81.1728 90.36 80.8248 90.42 80.6928 90.2928L80.6784 90.2784ZM81.2736 90.264C81.096 90.1536 80.844 90.024 80.7504 90.072C80.7412 90.0758 80.7332 90.0821 80.7273 90.0901C80.7214 90.0982 80.7177 90.1076 80.7168 90.1176C80.7096 90.139 80.7085 90.162 80.7136 90.184C80.7186 90.2061 80.7297 90.2263 80.7456 90.2424C80.8152 90.312 81.0096 90.3312 81.2736 90.264Z" fill="#012A4A"/>
<path d="M81.168 90.1464C81.0625 90.0386 81.0031 89.894 81.0024 89.7432C81.0108 89.7157 81.0275 89.6914 81.0503 89.6738C81.0731 89.6562 81.1008 89.6461 81.1296 89.6448C81.1558 89.6407 81.1827 89.6426 81.2081 89.6505C81.2335 89.6584 81.2567 89.6721 81.276 89.6904C81.4272 89.832 81.4008 90.2616 81.3984 90.2808C81.3984 90.287 81.3966 90.293 81.3931 90.2982C81.3897 90.3033 81.3849 90.3073 81.3792 90.3096C81.3741 90.3126 81.3683 90.3141 81.3624 90.3141C81.3565 90.3141 81.3507 90.3126 81.3456 90.3096C81.2788 90.2642 81.2189 90.2092 81.168 90.1464ZM81.24 89.76L81.2256 89.7432C81.2132 89.7316 81.1984 89.7229 81.1821 89.7179C81.1659 89.7129 81.1487 89.7117 81.132 89.7144C81.0864 89.7144 81.0768 89.7408 81.072 89.7576C81.0456 89.8584 81.1968 90.1008 81.3312 90.2112C81.3431 90.0553 81.3116 89.8991 81.24 89.76Z" fill="#012A4A"/>
<path d="M80.772 58.1232L80.8392 58.6752C80.8512 58.7208 80.796 58.7593 80.7264 58.7521L74.5584 58.2072C74.5056 58.2072 74.4648 58.1712 74.4672 58.1376L74.5008 57.5928C74.5008 57.5544 74.5536 57.5256 74.6136 57.5328L80.6832 58.068C80.7264 58.0728 80.7648 58.0944 80.772 58.1232Z" fill="white"/>
<path d="M79.8456 58.7328L80.0088 58.7472C80.0424 58.7472 80.0688 58.7472 80.0688 58.716L80.1072 58.008C80.1072 57.9864 80.0832 57.9672 80.052 57.9648L79.8888 57.9504C79.8552 57.9504 79.8288 57.9624 79.8264 57.9816L79.7904 58.7016C79.788 58.7112 79.8144 58.7304 79.8456 58.7328Z" fill="#012A4A"/>
<path opacity="0.4" d="M79.8456 58.7328L80.0088 58.7472C80.0424 58.7472 80.0688 58.7472 80.0688 58.716L80.1072 58.008C80.1072 57.9864 80.0832 57.9672 80.052 57.9648L79.8888 57.9504C79.8552 57.9504 79.8288 57.9624 79.8264 57.9816L79.7904 58.7016C79.788 58.7112 79.8144 58.7304 79.8456 58.7328Z" fill="black"/>
<path d="M75.0048 58.3056L75.168 58.32C75.2016 58.32 75.228 58.308 75.2304 58.2864L75.2664 57.5664C75.2664 57.5472 75.2424 57.528 75.2112 57.5232L75.048 57.5088C75.0144 57.5088 74.988 57.5088 74.988 57.5424L74.9496 58.2504C74.9472 58.284 74.9736 58.3032 75.0048 58.3056Z" fill="#012A4A"/>
<path opacity="0.4" d="M75.0048 58.3056L75.168 58.32C75.2016 58.32 75.228 58.308 75.2304 58.2864L75.2664 57.5664C75.2664 57.5472 75.2424 57.528 75.2112 57.5232L75.048 57.5088C75.0144 57.5088 74.988 57.5088 74.988 57.5424L74.9496 58.2504C74.9472 58.284 74.9736 58.3032 75.0048 58.3056Z" fill="black"/>
<path d="M77.4264 58.5192L77.5896 58.5336C77.6208 58.5336 77.6496 58.5216 77.6496 58.5024L77.688 57.7824C77.688 57.7632 77.664 57.744 77.6304 57.7416L77.4672 57.7272C77.436 57.7272 77.4072 57.7272 77.4072 57.7584L77.3688 58.4664C77.3688 58.4976 77.3928 58.5168 77.4264 58.5192Z" fill="#012A4A"/>
<path opacity="0.4" d="M77.4264 58.5192L77.5896 58.5336C77.6208 58.5336 77.6496 58.5216 77.6496 58.5024L77.688 57.7824C77.688 57.7632 77.664 57.744 77.6304 57.7416L77.4672 57.7272C77.436 57.7272 77.4072 57.7272 77.4072 57.7584L77.3688 58.4664C77.3688 58.4976 77.3928 58.5168 77.4264 58.5192Z" fill="black"/>
<path d="M70.4496 50.7311L69.9696 50.0351C69.9144 49.9533 69.8332 49.8924 69.7391 49.8624C69.6451 49.8323 69.5436 49.8349 69.4512 49.8695L68.9904 50.0423C68.9356 50.0628 68.8855 50.094 68.843 50.134C68.8005 50.1741 68.7663 50.2223 68.7426 50.2757C68.719 50.3291 68.7062 50.3867 68.705 50.4451C68.7039 50.5036 68.7144 50.5616 68.736 50.6159L68.928 51.0959C68.9916 51.2536 69.1089 51.3837 69.2592 51.4631L70.3992 52.0631L71.004 51.9383C71.1576 51.3167 70.4496 50.7311 70.4496 50.7311Z" fill="#FF8B7B"/>
<path d="M71.04 51.7752C71.1059 51.3679 71.0491 50.9502 70.8768 50.5752C70.8336 50.4408 70.7304 49.98 70.6512 49.9536C70.464 49.8888 70.4112 50.2128 70.4544 50.4096C70.4659 50.4673 70.4568 50.5272 70.4287 50.579C70.4007 50.6307 70.3554 50.671 70.3008 50.6928C70.3008 50.6928 70.728 51.7392 71.04 51.7752Z" fill="#FF8B7B"/>
<path d="M69.3312 50.0449C69.3638 50.0522 69.3945 50.0662 69.4213 50.086C69.4482 50.1059 69.4706 50.1311 69.4872 50.1601L70.188 46.6105C70.3652 47.3173 70.3882 48.054 70.2552 48.7705L69.84 49.0513L69.5376 50.5849C69.4848 50.8489 69.2976 51.0361 69.132 51.0001C68.9664 50.9641 68.8632 50.7265 68.916 50.4625C68.9688 50.1985 69.1584 50.0113 69.3312 50.0449ZM69.168 50.8681C69.2904 50.8921 69.4224 50.7577 69.4608 50.5681C69.4992 50.3785 69.4272 50.2033 69.3048 50.1793C69.1824 50.1553 69.0504 50.2873 69.012 50.4793C68.9736 50.6713 69.0432 50.8441 69.168 50.8681Z" fill="#263238"/>
<path d="M70.3056 49.7304C70.2511 49.7709 70.2149 49.8313 70.2048 49.8984L68.1912 46.8912C68.3005 47.6144 68.5649 48.3054 68.9664 48.9168L69.4464 49.0128L70.3152 50.3088C70.4664 50.532 70.704 50.6352 70.8504 50.5488C70.9968 50.4624 70.9896 50.1912 70.8504 49.968C70.7112 49.7448 70.452 49.632 70.3056 49.7304ZM70.7736 50.4288C70.6704 50.4984 70.4952 50.4288 70.3896 50.2632C70.284 50.0976 70.2792 49.9152 70.3896 49.8432C70.5 49.7712 70.6656 49.8432 70.7736 50.0088C70.8816 50.1744 70.8792 50.3568 70.7736 50.4288Z" fill="#263238"/>
<path d="M79.62 43.9584L79.3656 43.8C79.3656 43.8 79.44 44.0568 79.62 43.9584Z" fill="#263238"/>
<path d="M79.7136 54.504L79.1784 53.3496C79.1025 53.1845 78.9695 53.0524 78.804 52.9776L78.348 52.7664C78.2947 52.7417 78.237 52.728 78.1783 52.7261C78.1196 52.7241 78.0611 52.7339 78.0063 52.755C77.9515 52.776 77.9015 52.8078 77.8592 52.8485C77.8168 52.8892 77.7831 52.938 77.76 52.992L77.5656 53.4432C77.5261 53.5334 77.5182 53.6343 77.543 53.7297C77.5678 53.825 77.6239 53.9092 77.7024 53.9688L78.3744 54.4728C78.3744 54.4728 78.9288 55.2096 79.5552 55.0992L79.7136 54.504Z" fill="#FF8B7B"/>
<path d="M35.8656 64.8432H48.0936C48.5102 64.8505 48.9097 65.0105 49.2163 65.2927C49.5228 65.5749 49.7152 65.9598 49.7568 66.3744L51.7584 89.2512C51.7799 89.4462 51.7597 89.6435 51.699 89.8299C51.6382 90.0164 51.5385 90.1878 51.4063 90.3327C51.2741 90.4776 51.1126 90.5926 50.9324 90.6702C50.7523 90.7477 50.5577 90.786 50.3616 90.7824H38.136C37.721 90.7724 37.3238 90.6113 37.019 90.3294C36.7141 90.0476 36.5225 89.6642 36.48 89.2512L34.4784 66.3744C34.457 66.1803 34.477 65.9839 34.5372 65.7981C34.5974 65.6123 34.6963 65.4413 34.8274 65.2966C34.9585 65.1519 35.1189 65.0366 35.2978 64.9585C35.4768 64.8803 35.6703 64.841 35.8656 64.8432Z" fill="#263238"/>
<path d="M49.572 84.4296H51.012C51.1012 84.4309 51.1869 84.4648 51.2528 84.525C51.3187 84.5851 51.3602 84.6673 51.3696 84.756L52.0656 92.7336C52.0704 92.7752 52.0663 92.8174 52.0534 92.8572C52.0406 92.897 52.0193 92.9337 51.9911 92.9646C51.9629 92.9955 51.9284 93.0201 51.8899 93.0365C51.8514 93.053 51.8099 93.061 51.768 93.06H50.328C50.2389 93.0592 50.1533 93.0254 50.0877 92.9651C50.0221 92.9048 49.9811 92.8224 49.9728 92.7336L49.2744 84.756C49.2696 84.7145 49.2738 84.6723 49.2866 84.6325C49.2995 84.5926 49.3207 84.556 49.3489 84.5251C49.3771 84.4942 49.4116 84.4696 49.4501 84.4532C49.4886 84.4367 49.5302 84.4287 49.572 84.4296Z" fill="#263238"/>
<path d="M36.384 84.4296H37.824C37.9128 84.4314 37.9979 84.4656 38.0633 84.5257C38.1287 84.5858 38.1699 84.6677 38.1792 84.756L38.88 92.7312C38.8845 92.7729 38.88 92.8151 38.8668 92.8549C38.8537 92.8948 38.8322 92.9313 38.8038 92.9622C38.7754 92.9931 38.7408 93.0176 38.7022 93.034C38.6636 93.0505 38.622 93.0585 38.58 93.0576H37.14C37.0511 93.0563 36.9657 93.0223 36.9002 92.9621C36.8347 92.9019 36.7937 92.8197 36.7848 92.7312L36.0864 84.7536C36.0824 84.7123 36.0871 84.6706 36.1002 84.6312C36.1134 84.5918 36.1347 84.5556 36.1628 84.5251C36.1909 84.4945 36.2251 84.4702 36.2632 84.4537C36.3014 84.4373 36.3425 84.4291 36.384 84.4296Z" fill="#263238"/>
<path d="M47.2944 64.8432H35.0688C34.6519 64.8505 34.2522 65.0104 33.9452 65.2925C33.6383 65.5747 33.4454 65.9596 33.4032 66.3744L31.4016 89.2512C31.3801 89.4462 31.4004 89.6435 31.4611 89.83C31.5218 90.0164 31.6216 90.1878 31.7538 90.3327C31.8859 90.4776 32.0475 90.5927 32.2276 90.6702C32.4077 90.7478 32.6023 90.786 32.7984 90.7824H45.024C45.4409 90.7752 45.8407 90.6153 46.1476 90.3332C46.4546 90.051 46.6474 89.6661 46.6896 89.2512L48.6912 66.3744C48.7128 66.1795 48.6925 65.9822 48.6318 65.7958C48.571 65.6093 48.4713 65.4379 48.3391 65.293C48.2069 65.1481 48.0454 65.033 47.8652 64.9555C47.6851 64.8779 47.4905 64.8397 47.2944 64.8432Z" fill="#012A4A"/>
<path d="M33.6 84.4296H32.16C32.0711 84.4309 31.9857 84.4649 31.9202 84.5251C31.8547 84.5853 31.8136 84.6674 31.8048 84.756L31.0968 92.7312C31.092 92.7727 31.0962 92.8149 31.109 92.8547C31.1219 92.8946 31.1431 92.9312 31.1713 92.9621C31.1995 92.9931 31.234 93.0176 31.2725 93.034C31.311 93.0505 31.3526 93.0585 31.3944 93.0576H32.8344C32.9234 93.0562 33.0087 93.0222 33.0742 92.9621C33.1397 92.9019 33.1808 92.8197 33.1896 92.7312L33.8856 84.7536C33.89 84.7132 33.8858 84.6723 33.8735 84.6336C33.8612 84.5949 33.841 84.5592 33.8141 84.5287C33.7873 84.4982 33.7544 84.4737 33.7175 84.4566C33.6806 84.4395 33.6406 84.4303 33.6 84.4296Z" fill="#012A4A"/>
<path d="M46.7784 84.4296H45.3384C45.2492 84.4308 45.1636 84.4648 45.0977 84.5249C45.0318 84.585 44.9902 84.6673 44.9808 84.756L44.2872 92.7312C44.2824 92.7728 44.2866 92.8149 44.2994 92.8547C44.3123 92.8946 44.3335 92.9312 44.3617 92.9621C44.3899 92.9931 44.4244 93.0176 44.4629 93.0341C44.5014 93.0505 44.543 93.0585 44.5848 93.0576H46.0248C46.1139 93.0568 46.1996 93.023 46.2652 92.9627C46.3308 92.9024 46.3717 92.8199 46.38 92.7312L47.0784 84.7536C47.0829 84.712 47.0784 84.6699 47.0652 84.6302C47.0521 84.5905 47.0306 84.554 47.0021 84.5233C46.9737 84.4926 46.939 84.4684 46.9004 84.4522C46.8619 84.436 46.8202 84.4283 46.7784 84.4296Z" fill="#012A4A"/>
<path d="M32.8536 90.168C32.7362 90.17 32.6197 90.1471 32.5118 90.1006C32.4039 90.0542 32.3072 89.9853 32.2279 89.8986C32.1487 89.8119 32.0889 89.7093 32.0523 89.5977C32.0158 89.4861 32.0034 89.3679 32.016 89.2512L34.0176 66.3744C34.0428 66.1262 34.1581 65.8959 34.3416 65.7269C34.5251 65.558 34.7642 65.4622 35.0136 65.4576H47.2392C47.3568 65.4551 47.4735 65.4779 47.5815 65.5242C47.6896 65.5705 47.7865 65.6393 47.8658 65.7261C47.9451 65.8129 48.005 65.9157 48.0413 66.0275C48.0777 66.1393 48.0898 66.2575 48.0768 66.3744L46.08 89.2512C46.0543 89.4991 45.9389 89.7292 45.7555 89.898C45.5721 90.0669 45.3333 90.1629 45.084 90.168H32.8536Z" fill="white"/>
<path d="M34.9704 71.3711L35.7576 71.3231C35.7577 71.4253 35.785 71.5255 35.8368 71.6135C35.8763 71.6678 35.929 71.711 35.9899 71.7392C36.0508 71.7673 36.1179 71.7794 36.1848 71.7743C36.2842 71.7793 36.3823 71.7505 36.4632 71.6927C36.4943 71.6703 36.5204 71.6417 36.5398 71.6086C36.5593 71.5756 36.5716 71.5388 36.576 71.5007C36.5786 71.4663 36.5732 71.4317 36.5603 71.3997C36.5474 71.3676 36.5273 71.339 36.5016 71.3159C36.3797 71.2327 36.24 71.1792 36.0936 71.1599C35.8223 71.1178 35.5662 71.0071 35.3496 70.8383C35.2804 70.7733 35.2275 70.693 35.195 70.6038C35.1624 70.5146 35.1513 70.419 35.1624 70.3247C35.1758 70.1832 35.2291 70.0484 35.316 69.9359C35.4147 69.8077 35.5467 69.7089 35.6976 69.6503C35.9102 69.5723 36.1361 69.5364 36.3624 69.5447C36.6298 69.5247 36.8965 69.5912 37.1232 69.7343C37.2112 69.8078 37.281 69.9006 37.3273 70.0055C37.3735 70.1105 37.3948 70.2246 37.3896 70.3391L36.6096 70.3847C36.6096 70.2872 36.5718 70.1934 36.504 70.1231C36.4283 70.064 36.3335 70.0349 36.2376 70.0415C36.1586 70.0363 36.0801 70.0574 36.0144 70.1015C35.9906 70.1189 35.9708 70.1412 35.9563 70.1668C35.9418 70.1925 35.933 70.221 35.9304 70.2503C35.9285 70.2719 35.9322 70.2935 35.941 70.3133C35.9498 70.333 35.9635 70.3502 35.9808 70.3631C36.0608 70.4161 36.152 70.4498 36.2472 70.4615C36.5066 70.5099 36.759 70.5906 36.9984 70.7015C37.1309 70.7655 37.2406 70.8685 37.3128 70.9967C37.3735 71.1185 37.3985 71.255 37.3848 71.3903C37.3707 71.5644 37.3075 71.7308 37.2024 71.8703C37.0927 72.0153 36.9459 72.128 36.7776 72.1967C36.5704 72.277 36.3493 72.3153 36.1272 72.3095C35.6736 72.3095 35.3688 72.2231 35.208 72.0479C35.0443 71.8615 34.9592 71.619 34.9704 71.3711Z" fill="#012A4A"/>
<path d="M37.9584 69.5928H38.7816L38.7 70.524H39.6L39.6816 69.5928H40.5096L40.2696 72.2544H39.4416L39.5376 71.1768H38.64L38.5464 72.2544H37.7232L37.9584 69.5928Z" fill="#012A4A"/>
<path d="M40.8336 70.9248C40.8351 70.7344 40.8756 70.5464 40.9526 70.3722C41.0297 70.1981 41.1416 70.0417 41.2816 69.9126C41.4215 69.7834 41.5864 69.6844 41.7661 69.6216C41.9458 69.5587 42.1365 69.5334 42.3264 69.5472C42.5079 69.5331 42.6903 69.5577 42.8616 69.6193C43.0329 69.681 43.1891 69.7783 43.32 69.9048C43.434 70.0421 43.5172 70.2023 43.564 70.3746C43.6107 70.5468 43.62 70.7271 43.5912 70.9032C43.5776 71.1723 43.5012 71.4345 43.368 71.6688C43.2474 71.8651 43.0768 72.0258 42.8736 72.1344C42.6398 72.2507 42.381 72.3076 42.12 72.3C41.8674 72.3098 41.6159 72.2605 41.3856 72.156C41.1945 72.0564 41.0411 71.8972 40.9488 71.7024C40.8373 71.4594 40.7973 71.1897 40.8336 70.9248ZM41.6544 70.9248C41.6171 71.1232 41.652 71.3283 41.7528 71.5032C41.7995 71.5619 41.8596 71.6086 41.9281 71.6391C41.9967 71.6696 42.0716 71.6831 42.1464 71.6784C42.2252 71.6814 42.3038 71.6678 42.377 71.6384C42.4502 71.6091 42.5163 71.5646 42.5712 71.508C42.7014 71.3278 42.7712 71.1111 42.7704 70.8888C42.8056 70.6991 42.7688 70.5032 42.6672 70.3392C42.6193 70.2814 42.5585 70.2357 42.4898 70.2057C42.421 70.1757 42.3461 70.1622 42.2712 70.1664C42.1935 70.1643 42.1163 70.1788 42.0447 70.2091C41.973 70.2393 41.9087 70.2845 41.856 70.3416C41.7255 70.5098 41.6545 70.7167 41.6544 70.9296V70.9248Z" fill="#012A4A"/>
<path d="M44.1456 69.5928H45.5136C45.6307 69.5828 45.7485 69.5963 45.8602 69.6325C45.9719 69.6688 46.0752 69.7271 46.164 69.804C46.2346 69.8864 46.2861 69.9833 46.3152 70.0878C46.3442 70.1923 46.35 70.3019 46.332 70.4088C46.3273 70.5286 46.2986 70.6463 46.2475 70.7547C46.1963 70.8632 46.1239 70.9602 46.0344 71.04C45.8174 71.2047 45.5478 71.2849 45.276 71.2656H44.8248L44.7384 72.2544H43.92L44.1456 69.5928ZM44.8656 70.728H45.0672C45.187 70.738 45.3067 70.7085 45.408 70.644C45.4412 70.6191 45.4687 70.5874 45.4885 70.5509C45.5084 70.5145 45.5202 70.4742 45.5232 70.4328C45.5279 70.3951 45.5245 70.3567 45.5133 70.3203C45.5021 70.284 45.4834 70.2503 45.4584 70.2216C45.4158 70.1869 45.3667 70.1611 45.3139 70.1459C45.2611 70.1306 45.2058 70.1262 45.1512 70.1328H44.9112L44.8656 70.728Z" fill="#012A4A"/>
<path d="M34.56 74.8824L34.7208 73.0392H35.6808C35.816 73.0336 35.9512 73.049 36.0816 73.0848C36.1704 73.1128 36.2456 73.1727 36.2928 73.2528C36.3437 73.3432 36.3639 73.4476 36.3504 73.5504C36.3456 73.6449 36.3149 73.7362 36.2616 73.8144C36.2116 73.8892 36.1451 73.9516 36.0672 73.9968C36.0021 74.0303 35.9326 74.0545 35.8608 74.0688C35.9107 74.085 35.9583 74.1076 36.0024 74.136C36.0339 74.1656 36.0621 74.1986 36.0864 74.2344C36.1128 74.2708 36.1361 74.3093 36.156 74.3496L36.384 74.8824H35.7408L35.484 74.3184C35.4648 74.2655 35.4345 74.2172 35.3952 74.1768C35.3557 74.1476 35.3076 74.1324 35.2584 74.1336H35.208L35.1432 74.8824H34.56ZM35.2296 73.7856H35.4696C35.5214 73.7823 35.5729 73.7742 35.6232 73.7616C35.6611 73.7545 35.6952 73.7341 35.7192 73.704C35.7459 73.674 35.7619 73.636 35.7648 73.596C35.7689 73.5714 35.7671 73.5462 35.7596 73.5224C35.7521 73.4987 35.7391 73.477 35.7216 73.4592C35.6593 73.4205 35.5858 73.4036 35.5128 73.4112H35.2728L35.2296 73.7856Z" fill="#012A4A"/>
<path d="M36.72 73.0511H38.2464L38.2128 73.4448H37.2528L37.2264 73.7375H38.1144L38.0808 74.1143H37.2L37.1688 74.4767H38.1528L38.1168 74.8943H36.552L36.72 73.0511Z" fill="#012A4A"/>
<path d="M38.4216 73.9632C38.4212 73.8304 38.4483 73.6989 38.5013 73.5772C38.5543 73.4554 38.6319 73.3459 38.7294 73.2557C38.8268 73.1655 38.9419 73.0964 39.0674 73.053C39.1929 73.0095 39.3261 72.9926 39.4584 73.0032C39.5837 72.9921 39.7099 73.0078 39.8286 73.0492C39.9474 73.0906 40.056 73.1567 40.1472 73.2432C40.226 73.3383 40.2835 73.4492 40.3158 73.5685C40.3481 73.6877 40.3545 73.8125 40.3344 73.9344C40.3246 74.1206 40.2721 74.3021 40.1808 74.4648C40.0983 74.6016 39.9795 74.7129 39.8376 74.7864C39.6754 74.8673 39.4957 74.9068 39.3144 74.9016C39.1395 74.9091 38.9652 74.8754 38.8056 74.8032C38.6733 74.7341 38.5672 74.6237 38.5032 74.4888C38.4288 74.3243 38.4006 74.1425 38.4216 73.9632ZM38.9928 73.9632C38.9662 74.1005 38.9901 74.2428 39.06 74.364C39.0924 74.4049 39.1342 74.4374 39.1818 74.4587C39.2295 74.48 39.2815 74.4895 39.3336 74.4864C39.3882 74.4887 39.4426 74.4791 39.4931 74.4584C39.5437 74.4377 39.5891 74.4063 39.6264 74.3664C39.7177 74.2418 39.7665 74.0912 39.7656 73.9368C39.7892 73.8058 39.7635 73.6708 39.6936 73.5576C39.6613 73.5167 39.6195 73.4842 39.5718 73.4628C39.5242 73.4415 39.4721 73.4321 39.42 73.4352C39.3661 73.4339 39.3125 73.4442 39.2628 73.4653C39.2131 73.4864 39.1686 73.5179 39.132 73.5576C39.0421 73.6746 38.9932 73.818 38.9928 73.9656V73.9632Z" fill="#012A4A"/>
<path d="M40.7184 73.0513H41.6784C41.7596 73.0437 41.8415 73.0528 41.9191 73.078C41.9967 73.1032 42.0683 73.1439 42.1296 73.1977C42.1784 73.255 42.2142 73.3223 42.2345 73.3948C42.2548 73.4673 42.2592 73.5433 42.2472 73.6177C42.2388 73.7848 42.1646 73.9418 42.0408 74.0545C41.8897 74.1672 41.7034 74.2225 41.5152 74.2105H41.2032L41.1432 74.8945H40.56L40.7184 73.0513ZM41.2224 73.8361H41.3616C41.4454 73.8432 41.5293 73.8239 41.6016 73.7809C41.6246 73.763 41.6435 73.7406 41.6571 73.7149C41.6708 73.6893 41.6788 73.6611 41.6808 73.6321C41.684 73.6058 41.6816 73.5792 41.6737 73.554C41.6658 73.5288 41.6527 73.5055 41.6352 73.4857C41.6061 73.4616 41.5723 73.4439 41.5359 73.4336C41.4996 73.4232 41.4615 73.4206 41.424 73.4257H41.2608L41.2224 73.8361Z" fill="#012A4A"/>
<path d="M42.5808 73.0511H44.1096L44.0736 73.4448H43.1136L43.0872 73.7375H43.9752L43.9416 74.1143H43.0536L43.0224 74.4767H44.0064L43.9704 74.8943H42.4152L42.5808 73.0511Z" fill="#012A4A"/>
<path d="M44.448 73.0511H44.9808L45.5856 74.0711L45.6744 73.0511H46.212L46.0512 74.8943H45.5136L44.9112 73.8815L44.8224 74.8943H44.2848L44.448 73.0511Z" fill="#012A4A"/>
<path d="M41.6376 84.5137L40.2936 83.9545C40.488 84.7321 39.7272 85.2937 39.0936 85.6153C38.7912 85.7689 38.8536 86.1649 39.2208 86.3113L40.0968 86.6761C41.1576 87.1177 41.6376 84.5137 41.6376 84.5137Z" fill="#012A4A"/>
<path d="M41.9112 84.6265L39.4464 83.6113C39.2549 83.5265 39.0831 83.4031 38.9416 83.2487C38.8002 83.0943 38.6922 82.9123 38.6246 82.7141C38.557 82.5159 38.5311 82.3059 38.5486 82.0972C38.5661 81.8886 38.6267 81.6858 38.7264 81.5017C38.9132 81.1049 39.2414 80.7921 39.6467 80.6247C40.0521 80.4574 40.5053 80.4474 40.9176 80.5969L43.38 81.6217C43.5716 81.7066 43.7435 81.8303 43.885 81.985C44.0264 82.1396 44.1344 82.3218 44.202 82.5202C44.2696 82.7185 44.2955 82.9287 44.2779 83.1376C44.2604 83.3464 44.1998 83.5494 44.1 83.7337C43.9117 84.1281 43.583 84.4382 43.1782 84.6033C42.7735 84.7684 42.3217 84.7766 41.9112 84.6265Z" fill="#012A4A"/>
<path opacity="0.3" d="M41.9112 84.6265L39.4464 83.6113C39.2549 83.5265 39.0831 83.4031 38.9416 83.2487C38.8002 83.0943 38.6922 82.9123 38.6246 82.7141C38.557 82.5159 38.5311 82.3059 38.5486 82.0972C38.5661 81.8886 38.6267 81.6858 38.7264 81.5017C38.9132 81.1049 39.2414 80.7921 39.6467 80.6247C40.0521 80.4574 40.5053 80.4474 40.9176 80.5969L43.38 81.6217C43.5716 81.7066 43.7435 81.8303 43.885 81.985C44.0264 82.1396 44.1344 82.3218 44.202 82.5202C44.2696 82.7185 44.2955 82.9287 44.2779 83.1376C44.2604 83.3464 44.1998 83.5494 44.1 83.7337C43.9117 84.1281 43.583 84.4382 43.1782 84.6033C42.7735 84.7684 42.3217 84.7766 41.9112 84.6265Z" fill="black"/>
<path d="M34.9296 83.2512L39.4488 84.2472C39.8256 84.4032 41.8224 80.3184 41.4456 80.1672L37.6416 77.7048C37.1016 77.4744 34.3896 83.028 34.9296 83.2512Z" fill="#012A4A"/>
</svg>
