<svg width="226" height="204" viewBox="0 0 226 204" fill="none" xmlns="http://www.w3.org/2000/svg">
<path d="M177.661 164.345C170.261 160.363 170.261 153.908 177.661 149.926C185.061 145.944 197.06 145.944 204.46 149.926C211.86 153.908 211.86 160.363 204.46 164.345C197.06 168.327 185.061 168.327 177.661 164.345Z" fill="#E0E0E0"/>
<path d="M27.1482 164.899L7.68275 154.426C6.58589 153.837 6.58589 152.877 7.68275 152.288L120.907 91.362C121.523 91.0714 122.203 90.9199 122.893 90.9199C123.583 90.9199 124.263 91.0714 124.878 91.362L144.348 101.835C145.445 102.424 145.445 103.384 144.348 103.973L31.1237 164.899C30.5075 165.19 29.8266 165.341 29.136 165.341C28.4454 165.341 27.7644 165.19 27.1482 164.899Z" fill="#E0E0E0"/>
<path d="M97.1168 146.23L113.852 137.213C115.576 136.284 116.439 135.07 116.439 133.851C116.439 132.632 116.439 131.682 116.439 131.682L99.0806 122.557C98.5957 122.265 98.1919 121.87 97.9022 121.404C97.6125 120.939 97.4452 120.416 97.4138 119.878V100.643L68.1964 116.383V135.61C68.23 136.147 68.3984 136.669 68.6878 137.134C68.9773 137.599 69.3799 137.995 69.8632 138.288L84.6347 146.217C88.0738 148.087 93.6682 148.087 97.1168 146.23Z" fill="#012A4A"/>
<g opacity="0.6">
<path opacity="0.6" d="M97.1168 146.23L113.852 137.213C115.576 136.284 116.439 135.07 116.439 133.851C116.439 132.632 116.439 131.682 116.439 131.682L99.0806 122.557C98.5957 122.265 98.1919 121.87 97.9022 121.404C97.6125 120.939 97.4452 120.416 97.4138 119.878V100.643L68.1964 116.383V135.61C68.23 136.147 68.3984 136.669 68.6878 137.134C68.9773 137.599 69.3799 137.995 69.8632 138.288L84.6347 146.217C88.0738 148.087 93.6682 148.087 97.1168 146.23Z" fill="black"/>
</g>
<path opacity="0.3" d="M75.2037 139.016V141.177L69.8488 138.297C69.3656 138.004 68.9634 137.609 68.6747 137.143C68.3859 136.678 68.2188 136.156 68.1868 135.619V116.383L73.7524 113.388C73.8674 114.705 73.9919 116.066 74.1117 117.406L70.1985 119.504V134.525C70.2295 135.063 70.3967 135.586 70.6864 136.051C70.9762 136.517 71.3802 136.912 71.8653 137.204L75.2037 139.016Z" fill="black"/>
<path d="M70.1985 134.53C70.2314 135.067 70.3994 135.589 70.689 136.054C70.9785 136.52 71.3815 136.915 71.8653 137.208L84.6156 144.056C88.0642 145.909 93.6586 145.913 97.112 144.056L113.876 135.039C117.33 133.182 117.33 130.173 113.876 128.316L101.116 121.468C100.634 121.174 100.232 120.778 99.9431 120.313C99.6544 119.848 99.487 119.326 99.4542 118.789V103.763L70.2368 119.504L70.1985 134.53Z" fill="#012A4A"/>
<path opacity="0.3" d="M70.1985 134.53C70.2314 135.067 70.3994 135.589 70.689 136.054C70.9785 136.52 71.3815 136.915 71.8653 137.208L84.6156 144.056C88.0642 145.909 93.6586 145.913 97.112 144.056L113.876 135.039C117.33 133.182 117.33 130.173 113.876 128.316L101.116 121.468C100.634 121.174 100.232 120.778 99.9431 120.313C99.6544 119.848 99.487 119.326 99.4542 118.789V103.763L70.2368 119.504L70.1985 134.53Z" fill="black"/>
<path opacity="0.5" d="M104.493 123.303L101.097 121.477C100.614 121.183 100.213 120.787 99.9239 120.322C99.6352 119.857 99.4678 119.335 99.435 118.798V103.763L70.2176 119.504V134.53C70.2505 135.067 70.4185 135.589 70.7081 136.054C70.9977 136.52 71.4006 136.915 71.8844 137.208L75.2372 138.994L104.493 123.303Z" fill="black"/>
<path d="M116.443 131.686V133.856C116.443 135.074 115.576 136.284 113.857 137.217L97.0929 146.23C95.2583 147.143 93.2092 147.617 91.1296 147.609V145.449C93.2092 145.456 95.2583 144.982 97.0929 144.069L113.857 135.047C115.576 134.123 116.443 132.905 116.443 131.686Z" fill="#012A4A"/>
<path opacity="0.5" d="M116.443 131.686V133.856C116.443 135.074 115.576 136.284 113.857 137.217L97.0929 146.23C95.2583 147.143 93.2092 147.617 91.1296 147.609V145.449C93.2092 145.456 95.2583 144.982 97.0929 144.069L113.857 135.047C115.576 134.123 116.443 132.905 116.443 131.686Z" fill="black"/>
<path d="M23.259 153.203C23.8906 153.487 24.5851 153.629 25.2864 153.618C25.9878 153.606 26.6764 153.441 27.2968 153.136L140.335 92.3128C140.941 91.9443 141.445 91.448 141.807 90.864C142.169 90.28 142.378 89.6247 142.418 88.9513V3.72277C142.397 3.06761 142.209 2.42648 141.871 1.85164C141.533 1.27679 141.054 0.7845 140.474 0.414876C139.843 0.130225 139.149 -0.0116615 138.448 0.000749461C137.747 0.0131604 137.059 0.179519 136.441 0.486301L23.4027 61.3275C22.7987 61.6982 22.2973 62.1968 21.9394 62.7825C21.5814 63.3683 21.3771 64.0245 21.3431 64.6979V149.913C21.3645 150.563 21.5489 151.199 21.8816 151.77C22.2143 152.341 22.6861 152.832 23.259 153.203Z" fill="#012A4A"/>
<path d="M27.3111 153.132L140.349 92.3084C140.956 91.9407 141.461 91.4446 141.823 90.8604C142.185 90.2763 142.394 89.6206 142.433 88.9469V3.72288C142.433 2.48632 141.498 1.98188 140.349 2.60239L27.3111 63.4257C26.7047 63.7939 26.2001 64.2902 25.838 64.8742C25.476 65.4583 25.2669 66.1136 25.2276 66.7872V152.011C25.2276 153.248 26.1616 153.752 27.3111 153.132Z" fill="#012A4A"/>
<path opacity="0.5" d="M27.3111 153.132L140.349 92.3084C140.956 91.9407 141.461 91.4446 141.823 90.8604C142.185 90.2763 142.394 89.6206 142.433 88.9469V3.72288C142.433 2.48632 141.498 1.98188 140.349 2.60239L27.3111 63.4257C26.7047 63.7939 26.2001 64.2902 25.838 64.8742C25.476 65.4583 25.2669 66.1136 25.2276 66.7872V152.011C25.2276 153.248 26.1616 153.752 27.3111 153.132Z" fill="black"/>
<path d="M27.0046 155.346C26.4118 155.587 25.77 155.705 25.1234 155.693C24.4768 155.681 23.8407 155.538 23.259 155.274C22.6848 154.903 22.2123 154.41 21.8795 153.837C21.5467 153.264 21.363 152.627 21.3431 151.975V144.217L25.2467 146.324V154.082C25.2228 155.212 25.9939 155.725 27.0046 155.346Z" fill="#012A4A"/>
<path opacity="0.5" d="M27.0046 155.346C26.4118 155.587 25.77 155.705 25.1234 155.693C24.4768 155.681 23.8407 155.538 23.259 155.274C22.6848 154.903 22.2123 154.41 21.8795 153.837C21.5467 153.264 21.363 152.627 21.3431 151.975V144.217L25.2467 146.324V154.082C25.2228 155.212 25.9939 155.725 27.0046 155.346Z" fill="black"/>
<path d="M25.2228 146.324V154.082C25.2228 155.319 26.1808 155.819 27.3063 155.203L140.344 94.3796C140.948 94.0129 141.451 93.5194 141.813 92.9387C142.174 92.358 142.385 91.7064 142.428 91.036V83.2417L25.2228 146.324Z" fill="#012A4A"/>
<path opacity="0.3" d="M25.2276 146.306V154.082C25.2276 155.319 26.1855 155.819 27.3111 155.203L140.349 94.3796C140.952 94.0124 141.454 93.5187 141.815 92.938C142.176 92.3574 142.386 91.706 142.428 91.036V83.2417L25.2276 146.306Z" fill="black"/>
<path d="M29.1312 136.57V67.9968C29.1535 67.5928 29.278 67.1994 29.4944 66.8488C29.7108 66.4981 30.0131 66.2001 30.3766 65.979L137.255 8.45022C137.945 8.0797 138.505 8.3788 138.505 9.11984V77.7285C138.482 78.1328 138.356 78.5263 138.139 78.877C137.922 79.2276 137.619 79.5255 137.255 79.7463L30.3813 137.262C29.6916 137.632 29.1312 137.329 29.1312 136.57Z" fill="#012A4A"/>
<path d="M29.1312 136.57V67.9968C29.1535 67.5928 29.278 67.1994 29.4944 66.8488C29.7108 66.4981 30.0131 66.2001 30.3766 65.979L137.255 8.45022C137.945 8.0797 138.505 8.3788 138.505 9.11984V77.7285C138.482 78.1328 138.356 78.5263 138.139 78.877C137.922 79.2276 137.619 79.5255 137.255 79.7463L30.3813 137.262C29.6916 137.632 29.1312 137.329 29.1312 136.57Z" fill="#263238"/>
<path d="M83.8252 117.254C83.2563 117.599 82.7828 118.064 82.4432 118.611C82.1036 119.159 81.9076 119.774 81.871 120.405C81.871 121.566 82.7476 122.039 83.8252 121.459C84.3948 121.114 84.8687 120.648 85.2083 120.099C85.548 119.551 85.7437 118.935 85.7795 118.303C85.7795 117.142 84.9029 116.673 83.8252 117.254Z" fill="#012A4A"/>
<path opacity="0.7" d="M25.8407 64.8675C25.4695 65.4491 25.2573 66.1067 25.2228 66.7826V146.324L21.3431 144.217V64.6979C21.3682 64.0197 21.5793 63.3589 21.9562 62.7783L25.8407 64.8675Z" fill="black"/>
<path opacity="0.3" d="M142.409 3.40259C142.26 2.40263 141.393 2.06336 140.344 2.60352L27.3064 63.4268C26.6935 63.7841 26.1876 64.2801 25.8359 64.8687L21.9275 62.7661C22.2815 62.1777 22.7889 61.6818 23.4027 61.3242L136.441 0.505394C137.06 0.198569 137.749 0.0322022 138.45 0.0197923C139.152 0.00738236 139.847 0.149279 140.478 0.433968C141.009 0.771167 141.456 1.2107 141.789 1.72285C142.122 2.235 142.334 2.80783 142.409 3.40259Z" fill="black"/>
<path d="M148.507 13.8923C148.339 13.8138 148.152 13.7794 147.964 13.7927C147.777 13.8061 147.597 13.8668 147.444 13.9682L40.786 71.3943C40.3652 71.6538 40.0158 72.002 39.7661 72.4107C39.5165 72.8194 39.3736 73.2772 39.3491 73.7469V141.9C39.3341 142.13 39.3832 142.36 39.4914 142.567C39.5997 142.775 39.7635 142.952 39.967 143.083C40.2017 143.204 41.4566 143.882 41.8302 144.07C41.9624 144.133 42.11 144.161 42.2581 144.154C42.4063 144.146 42.5495 144.101 42.6732 144.025L149.307 86.599C149.728 86.3396 150.077 85.9914 150.327 85.5827C150.577 85.174 150.72 84.7162 150.744 84.2465V15.7405C150.765 15.5673 150.735 15.3921 150.655 15.2344C150.576 15.0767 150.451 14.9427 150.294 14.8476C150.054 14.7003 148.775 14.0396 148.507 13.8923Z" fill="#012A4A"/>
<path d="M42.6479 72.3583L149.311 14.9544C150.115 14.508 150.747 14.8741 150.747 15.7401V84.2461C150.723 84.7159 150.58 85.1736 150.33 85.5823C150.081 85.9911 149.731 86.3392 149.311 86.5987L42.6479 144.025C41.8432 144.471 41.2109 143.753 41.2109 142.886V74.7108C41.2362 74.2412 41.3794 73.7838 41.629 73.3752C41.8786 72.9666 42.2275 72.6182 42.6479 72.3583Z" fill="#FAFAFA"/>
<path d="M149.962 15.2134C150.245 15.2134 150.288 15.5437 150.288 15.7401V84.2461C150.262 84.6395 150.138 85.0218 149.926 85.3628C149.714 85.7037 149.42 85.9939 149.066 86.2104L42.418 143.636C42.3464 143.68 42.2637 143.704 42.1785 143.708C41.9102 143.708 41.6995 143.324 41.6995 142.887V74.7108C41.7226 74.3176 41.8427 73.9346 42.0503 73.5917C42.258 73.2487 42.5477 72.955 42.8969 72.7332L149.55 15.3384C149.673 15.2642 149.815 15.2211 149.962 15.2134ZM149.962 14.767C149.731 14.7761 149.507 14.8407 149.311 14.9545L42.6479 72.3583C42.2275 72.6183 41.8786 72.9666 41.629 73.3752C41.3794 73.7838 41.2362 74.2413 41.2109 74.7108V142.887C41.2109 143.574 41.6229 144.154 42.1689 144.154C42.338 144.151 42.5033 144.107 42.6479 144.025L149.306 86.5987C149.727 86.3393 150.076 85.9911 150.326 85.5824C150.575 85.1736 150.718 84.7159 150.743 84.2461V15.7401C150.743 15.1241 150.417 14.767 149.938 14.767H149.962Z" fill="#E0E0E0"/>
<path d="M39.9368 143.083C40.0949 143.159 41.2301 143.761 41.7282 144.029C41.5493 143.891 41.4077 143.716 41.3145 143.517C41.2214 143.319 41.1793 143.103 41.1917 142.886V79.1615L39.3237 78.1437V141.9C39.3083 142.13 39.3566 142.359 39.464 142.566C39.5713 142.773 39.7342 142.951 39.9368 143.083Z" fill="#F0F0F0"/>
<path d="M150.767 15.7268C150.767 14.8696 150.11 14.5214 149.33 14.9545L42.6479 72.3583C42.2275 72.6183 41.8786 72.9666 41.629 73.3752C41.3794 73.7838 41.2362 74.2413 41.2109 74.7108V79.1749L150.767 20.1908V15.7268Z" fill="#012A4A"/>
<g opacity="0.4">
<path opacity="0.4" d="M149.311 14.9543L42.6479 72.3537C42.2198 72.6053 41.8671 72.9539 41.6229 73.367L39.7692 72.3626C40.0131 71.964 40.3627 71.6304 40.7846 71.3939L147.443 13.9678C147.595 13.8656 147.775 13.8042 147.962 13.79C148.15 13.7759 148.338 13.8095 148.506 13.8874C148.765 14.0392 149.976 14.6776 150.288 14.8338C150.127 14.7782 149.953 14.76 149.783 14.781C149.613 14.8021 149.451 14.8615 149.311 14.9543Z" fill="white"/>
</g>
<path opacity="0.15" d="M39.3238 78.1481V73.7242C39.3434 73.2421 39.4969 72.773 39.7692 72.3627L41.6276 73.3626C41.3592 73.7659 41.2089 74.2276 41.1918 74.7019V79.166L39.3238 78.1481Z" fill="black"/>
<path d="M128.274 67.1173L64.3933 101.491C64.0826 101.679 63.824 101.932 63.6384 102.231C63.4528 102.53 63.3454 102.865 63.3252 103.209V120.28C63.3454 120.625 63.4528 120.96 63.6384 121.259C63.824 121.557 64.0826 121.811 64.3933 121.999L66.2565 122.999C66.5876 123.155 66.9535 123.236 67.3246 123.236C67.6957 123.236 68.0616 123.155 68.3927 122.999L132.264 88.6253C132.575 88.4365 132.833 88.182 133.019 87.8827C133.204 87.5833 133.312 87.2474 133.332 86.9021V69.827C133.312 69.4824 133.204 69.1471 133.019 68.8484C132.833 68.5498 132.575 68.2962 132.264 68.1083L130.396 67.1083C130.066 66.9548 129.702 66.8755 129.334 66.8771C128.965 66.8786 128.602 66.9609 128.274 67.1173Z" fill="#012A4A"/>
<path opacity="0.5" d="M133.332 69.6752C133.255 69.1618 132.81 68.9744 132.273 69.2645L68.3927 103.638C68.0777 103.821 67.8186 104.076 67.6407 104.379L63.6413 102.227C63.8206 101.929 64.0775 101.677 64.3885 101.495L128.274 67.1218C128.604 66.9653 128.969 66.8838 129.34 66.8838C129.71 66.8838 130.075 66.9653 130.405 67.1218L132.273 68.1217C132.558 68.2956 132.8 68.5242 132.983 68.7921C133.165 69.0599 133.284 69.361 133.332 69.6752Z" fill="white"/>
<path d="M68.2107 123.084C67.8979 123.199 67.5627 123.251 67.2268 123.237C66.8909 123.223 66.562 123.144 66.2613 123.003L64.3933 122.003C64.0832 121.815 63.8249 121.561 63.6394 121.263C63.4538 120.964 63.3462 120.629 63.3252 120.285V103.214C63.3396 102.866 63.4483 102.526 63.6413 102.228L67.6407 104.379C67.4464 104.674 67.3374 105.011 67.3246 105.357V122.432C67.3246 122.999 67.7078 123.262 68.2107 123.084Z" fill="#263238"/>
<path d="M68.3927 103.638L132.273 69.2647C132.863 68.9477 133.342 69.2022 133.342 69.8361V86.9113C133.321 87.2565 133.214 87.5924 133.028 87.8918C132.843 88.1912 132.584 88.4456 132.273 88.6344L68.4023 123.008C67.8131 123.325 67.3342 123.066 67.3342 122.432V105.361C67.3534 105.017 67.4592 104.682 67.6431 104.382C67.8269 104.083 68.0837 103.828 68.3927 103.638Z" fill="#012A4A"/>
<path d="M111.337 76.2329L64.398 101.495C64.087 101.677 63.8301 101.929 63.6508 102.227L67.6502 104.379C67.8282 104.076 68.0872 103.82 68.4022 103.638L115.342 78.3801L111.337 76.2329Z" fill="#455A64"/>
<path d="M115.332 78.3804L68.3927 103.638C68.0819 103.827 67.8233 104.081 67.6377 104.381C67.4522 104.68 67.3449 105.016 67.3246 105.361V122.428C67.3246 123.062 67.8036 123.32 68.3927 123.003L115.332 97.7456V78.3804Z" fill="#37474F"/>
<path d="M79.2175 101.558L103.439 88.5271C104.44 87.9869 105.255 88.3708 105.255 89.3842C105.21 89.9533 105.022 90.5046 104.705 90.9932C104.389 91.4819 103.954 91.8942 103.434 92.1966L79.2175 105.232C78.2164 105.772 77.3974 105.388 77.3974 104.375C77.4426 103.805 77.6309 103.253 77.947 102.764C78.2632 102.275 78.6984 101.861 79.2175 101.558Z" fill="#012A4A"/>
<path d="M84.1797 105.875C84.1842 105.87 84.1897 105.866 84.1959 105.863C84.2021 105.861 84.2088 105.859 84.2156 105.859C84.2224 105.859 84.2291 105.861 84.2353 105.863C84.2415 105.866 84.247 105.87 84.2515 105.875C84.273 105.905 84.2831 105.941 84.2803 105.977V108.517C84.2806 108.763 84.2581 109.008 84.2132 109.249C84.1736 109.47 84.1061 109.686 84.012 109.892C83.9262 110.081 83.8134 110.258 83.6768 110.419C83.542 110.568 83.3798 110.694 83.1978 110.79C83.0552 110.876 82.889 110.923 82.7188 110.923C82.6538 110.919 82.5905 110.902 82.5329 110.873C82.4752 110.845 82.4244 110.806 82.3835 110.758C82.2784 110.627 82.2094 110.474 82.1824 110.312C82.1365 110.096 82.1157 109.876 82.1201 109.656V107.111C82.1199 107.067 82.1297 107.023 82.1488 106.982C82.1606 106.945 82.1861 106.913 82.2207 106.892L82.5224 106.727C82.5322 106.719 82.545 106.714 82.5583 106.714C82.5717 106.714 82.5845 106.719 82.5943 106.727C82.6164 106.757 82.6266 106.794 82.623 106.83V109.339C82.6194 109.477 82.6338 109.615 82.6661 109.749C82.6793 109.836 82.7193 109.916 82.7811 109.982C82.8026 110.006 82.8299 110.024 82.8606 110.037C82.8914 110.049 82.9248 110.055 82.9583 110.053C83.0402 110.048 83.1194 110.023 83.1882 109.982C83.2734 109.934 83.3508 109.875 83.4181 109.807C83.4929 109.727 83.5542 109.637 83.6001 109.54C83.6542 109.425 83.6943 109.305 83.7199 109.183C83.7478 109.035 83.7606 108.886 83.7582 108.736V106.223C83.7597 106.178 83.7711 106.134 83.7917 106.093C83.8034 106.057 83.8289 106.025 83.8636 106.004L84.1797 105.875Z" fill="#FAFAFA"/>
<path d="M86.0573 108.276C86.0598 108.244 86.0514 108.211 86.0333 108.183C86.022 108.171 86.0078 108.162 85.9919 108.157C85.9761 108.151 85.9591 108.149 85.9423 108.151C85.8835 108.144 85.8239 108.144 85.7651 108.151L85.4873 108.2C85.3977 108.221 85.3039 108.221 85.2143 108.2C85.144 108.179 85.0833 108.137 85.0419 108.08C84.995 108.007 84.9641 107.927 84.9509 107.843C84.9041 107.604 84.9041 107.359 84.9509 107.12C84.9868 106.983 85.0382 106.85 85.1041 106.723C85.1697 106.596 85.25 106.476 85.3436 106.366C85.4343 106.26 85.5446 106.171 85.6693 106.102C85.7701 106.045 85.8827 106.009 85.9998 105.995C86.0848 105.987 86.1703 106.004 86.2441 106.044C86.3144 106.084 86.3696 106.143 86.4022 106.214C86.4408 106.297 86.4619 106.387 86.4644 106.477C86.4694 106.522 86.4594 106.567 86.4357 106.607C86.4239 106.644 86.3985 106.675 86.3638 106.696L86.0765 106.852C86.0633 106.859 86.0485 106.863 86.0333 106.863C86.0182 106.863 86.0033 106.859 85.9902 106.852L85.928 106.808C85.9032 106.789 85.8732 106.779 85.8418 106.776C85.7802 106.783 85.7211 106.803 85.6693 106.834C85.5941 106.877 85.5276 106.931 85.473 106.995C85.415 107.065 85.3846 107.152 85.3867 107.241C85.38 107.275 85.38 107.309 85.3867 107.343C85.3959 107.356 85.408 107.366 85.4221 107.374C85.4361 107.382 85.4519 107.387 85.4682 107.388C85.5205 107.396 85.5739 107.396 85.6262 107.388L85.8944 107.343C86.1196 107.303 86.2728 107.343 86.3734 107.459C86.4791 107.625 86.5276 107.816 86.5123 108.008C86.5111 108.141 86.4918 108.273 86.4548 108.401C86.417 108.541 86.3623 108.675 86.292 108.803C86.2216 108.935 86.1331 109.058 86.0286 109.169C85.9293 109.278 85.8111 109.37 85.6789 109.441C85.5736 109.504 85.4537 109.542 85.3293 109.553C85.2392 109.556 85.1504 109.533 85.0754 109.486C85.0015 109.439 84.9446 109.372 84.9126 109.294C84.8739 109.209 84.8543 109.118 84.8551 109.026C84.8506 108.98 84.8606 108.933 84.8838 108.892C84.8956 108.856 84.921 108.824 84.9557 108.803L85.243 108.647C85.2814 108.647 85.3101 108.625 85.3293 108.647L85.3915 108.709C85.4043 108.723 85.4197 108.733 85.437 108.741C85.4543 108.749 85.473 108.753 85.4921 108.754C85.5595 108.754 85.6252 108.734 85.6789 108.696C85.7654 108.65 85.8431 108.591 85.9088 108.522C85.9414 108.485 85.9688 108.445 85.9902 108.401C86.0241 108.366 86.0472 108.323 86.0573 108.276Z" fill="#FAFAFA"/>
<path d="M87.0344 107.066C87.0335 106.834 87.0543 106.603 87.0966 106.374C87.1366 106.159 87.1992 105.949 87.2834 105.745C87.3539 105.563 87.4505 105.39 87.5708 105.232C87.6712 105.096 87.8019 104.981 87.954 104.897C88.065 104.827 88.2005 104.8 88.3324 104.821C88.4494 104.846 88.552 104.912 88.6198 105.004C88.7099 105.125 88.7734 105.262 88.8066 105.406C88.8525 105.593 88.875 105.785 88.8736 105.977V106.254C88.8751 106.3 88.8636 106.347 88.8401 106.388C88.8284 106.425 88.8029 106.456 88.7683 106.477L87.5229 107.151C87.5199 107.23 87.5313 107.308 87.5564 107.383C87.575 107.434 87.6081 107.479 87.6522 107.513C87.6915 107.542 87.7411 107.556 87.7911 107.553C87.849 107.547 87.9046 107.528 87.954 107.499C88.0264 107.463 88.0913 107.414 88.1456 107.357C88.1946 107.305 88.2364 107.248 88.2701 107.187C88.2906 107.152 88.313 107.117 88.3372 107.084C88.3577 107.062 88.382 107.042 88.409 107.026L88.706 106.865C88.7162 106.858 88.7288 106.854 88.7419 106.854C88.755 106.854 88.7676 106.858 88.7778 106.865C88.7904 106.88 88.7995 106.896 88.8045 106.914C88.8094 106.932 88.8102 106.95 88.8066 106.968C88.8013 107.055 88.7819 107.141 88.7491 107.223C88.7078 107.346 88.6532 107.466 88.5862 107.58C88.5113 107.71 88.4214 107.833 88.318 107.946C88.2149 108.061 88.0919 108.159 87.954 108.236C87.8408 108.305 87.7052 108.335 87.5708 108.321C87.453 108.294 87.3503 108.227 87.2834 108.133C87.1891 107.998 87.1256 107.846 87.0966 107.687C87.0531 107.483 87.0322 107.275 87.0344 107.066ZM87.954 105.642C87.8804 105.679 87.8165 105.731 87.7672 105.794C87.714 105.857 87.6705 105.926 87.6379 105.999C87.6043 106.073 87.5771 106.149 87.5564 106.227C87.5396 106.298 87.5284 106.369 87.5229 106.441L88.3659 105.995C88.361 105.933 88.3514 105.872 88.3372 105.812C88.3298 105.758 88.3066 105.707 88.2701 105.665C88.2558 105.645 88.2373 105.629 88.2159 105.617C88.1944 105.604 88.1705 105.596 88.1456 105.593C88.0775 105.588 88.0096 105.605 87.954 105.642Z" fill="#FAFAFA"/>
<path d="M90.3776 104.397C90.2325 104.474 90.1182 104.593 90.0519 104.736C89.9774 104.925 89.9432 105.125 89.9513 105.325V106.937C89.952 106.983 89.9422 107.029 89.9226 107.071C89.9108 107.108 89.8854 107.139 89.8507 107.16L89.5681 107.312C89.5637 107.317 89.5581 107.321 89.5519 107.323C89.5457 107.326 89.539 107.327 89.5322 107.327C89.5254 107.327 89.5187 107.326 89.5125 107.323C89.5063 107.321 89.5008 107.317 89.4963 107.312C89.4749 107.282 89.4648 107.246 89.4676 107.209V104.321C89.4678 104.275 89.4776 104.23 89.4963 104.187C89.5097 104.151 89.5348 104.12 89.5681 104.098L89.8507 103.946C89.8605 103.938 89.8733 103.933 89.8867 103.933C89.9 103.933 89.9128 103.938 89.9226 103.946C89.9448 103.974 89.955 104.009 89.9513 104.044V104.187C90.0084 104.067 90.0791 103.954 90.1621 103.848C90.2378 103.75 90.336 103.669 90.4495 103.611L90.6219 103.518C90.6308 103.509 90.6429 103.505 90.6554 103.505C90.668 103.505 90.68 103.509 90.6889 103.518C90.7121 103.547 90.7239 103.583 90.7225 103.62V104.026C90.7216 104.073 90.7102 104.118 90.6889 104.16C90.6768 104.196 90.6534 104.227 90.6219 104.25L90.3776 104.397Z" fill="#FAFAFA"/>
<path d="M93.9507 104.183C93.9552 104.178 93.9608 104.174 93.967 104.172C93.9732 104.169 93.9799 104.168 93.9867 104.168C93.9935 104.168 94.0002 104.169 94.0064 104.172C94.0126 104.174 94.0181 104.178 94.0226 104.183C94.044 104.213 94.0541 104.249 94.0513 104.285V104.732C94.0511 104.778 94.0413 104.823 94.0226 104.866C94.0061 104.899 93.9815 104.928 93.9507 104.951L92.3127 105.843C92.3029 105.852 92.2901 105.857 92.2767 105.857C92.2634 105.857 92.2506 105.852 92.2408 105.843C92.2194 105.815 92.2092 105.78 92.2121 105.745V101.728C92.2123 101.682 92.2221 101.636 92.2408 101.594C92.2542 101.559 92.2794 101.529 92.3127 101.509L92.6144 101.344C92.6242 101.335 92.637 101.33 92.6503 101.33C92.6637 101.33 92.6765 101.335 92.6863 101.344C92.7077 101.372 92.7178 101.407 92.715 101.442V104.839L93.9507 104.183Z" fill="#FAFAFA"/>
<path d="M95.4212 100.879C95.5291 100.81 95.6592 100.777 95.79 100.786C95.9022 100.794 96.0067 100.842 96.0822 100.92C96.1715 101.015 96.2369 101.128 96.2738 101.25C96.325 101.408 96.3539 101.571 96.36 101.736C96.36 101.772 96.36 101.821 96.36 101.879V102.223C96.36 102.277 96.36 102.326 96.36 102.366C96.3505 102.56 96.3217 102.753 96.2738 102.942C96.2295 103.126 96.1653 103.305 96.0822 103.477C96.0063 103.638 95.908 103.788 95.79 103.924C95.689 104.047 95.5639 104.152 95.4212 104.232C95.3104 104.299 95.1796 104.332 95.0476 104.326C94.937 104.317 94.8342 104.269 94.7602 104.192C94.6684 104.1 94.6025 103.988 94.5686 103.866C94.5175 103.708 94.4885 103.544 94.4824 103.379C94.4824 103.344 94.4824 103.299 94.4824 103.241V102.897C94.4824 102.839 94.4824 102.79 94.4824 102.754C94.488 102.559 94.5153 102.364 94.5638 102.174C94.6105 101.988 94.6762 101.808 94.7602 101.634C94.8363 101.475 94.9328 101.325 95.0476 101.187C95.1492 101.063 95.2761 100.958 95.4212 100.879ZM95.8715 102.031C95.8712 101.932 95.8534 101.834 95.8188 101.741C95.801 101.684 95.764 101.634 95.7134 101.598C95.6726 101.573 95.6233 101.561 95.5745 101.567C95.5197 101.576 95.4676 101.596 95.4212 101.625C95.3649 101.654 95.3133 101.69 95.2679 101.732C95.213 101.785 95.1663 101.845 95.129 101.911C95.0809 101.992 95.0454 102.079 95.0237 102.169C94.9922 102.283 94.973 102.4 94.9662 102.518C94.9662 102.553 94.9662 102.594 94.9662 102.643V102.96C94.9662 103.009 94.9662 103.049 94.9662 103.076C94.9706 103.174 94.99 103.272 95.0237 103.366C95.0412 103.423 95.0782 103.473 95.129 103.509C95.149 103.522 95.1716 103.531 95.1955 103.536C95.2194 103.54 95.2441 103.54 95.2679 103.535C95.3222 103.527 95.3743 103.509 95.4212 103.482C95.4767 103.452 95.5282 103.416 95.5745 103.375C95.6279 103.32 95.6745 103.26 95.7134 103.196C95.7595 103.114 95.7949 103.027 95.8188 102.937C95.8501 102.823 95.8677 102.707 95.8715 102.589C95.8743 102.547 95.8743 102.506 95.8715 102.464V102.152C95.8742 102.111 95.8742 102.071 95.8715 102.031Z" fill="#FAFAFA"/>
<path d="M97.8257 103.491C97.8869 103.456 97.9419 103.412 97.9885 103.361C98.0462 103.298 98.096 103.229 98.137 103.156C98.1846 103.066 98.2215 102.972 98.2472 102.875C98.2766 102.765 98.2911 102.653 98.2903 102.54V102.312C98.2903 102.357 98.2424 102.41 98.2088 102.473C98.176 102.538 98.1376 102.601 98.0939 102.66C98.0439 102.723 97.9895 102.783 97.931 102.839C97.871 102.898 97.8015 102.947 97.7251 102.986C97.6759 103.018 97.6204 103.039 97.5619 103.05C97.5035 103.061 97.4433 103.06 97.385 103.049C97.2786 103.018 97.1871 102.953 97.1264 102.866C97.0483 102.75 96.9916 102.624 96.9587 102.491C96.9179 102.322 96.8954 102.15 96.8917 101.977C96.8917 101.919 96.8917 101.848 96.8917 101.763C96.8917 101.678 96.8917 101.607 96.8917 101.544C96.8977 101.348 96.9201 101.153 96.9587 100.96C96.9981 100.77 97.0541 100.583 97.1264 100.402C97.1941 100.244 97.2809 100.094 97.385 99.9551C97.4733 99.8321 97.5894 99.7285 97.7251 99.6516C97.7888 99.6159 97.8584 99.5903 97.931 99.5757C97.9849 99.5664 98.0401 99.5664 98.0939 99.5757C98.1364 99.5868 98.1756 99.6067 98.2088 99.6337C98.2395 99.6555 98.2668 99.6811 98.2903 99.7096V99.5668C98.2905 99.5208 98.3003 99.4753 98.319 99.4328C98.3324 99.398 98.3576 99.3682 98.3909 99.348L98.6734 99.1918C98.6832 99.1833 98.696 99.1786 98.7094 99.1786C98.7227 99.1786 98.7355 99.1833 98.7453 99.1918C98.7684 99.2216 98.7802 99.2577 98.7788 99.2944V102.196C98.7917 102.631 98.7052 103.063 98.525 103.464C98.3836 103.779 98.1388 104.045 97.8257 104.223C97.7188 104.285 97.5968 104.32 97.4712 104.325C97.3718 104.331 97.2731 104.308 97.1886 104.259C97.1077 104.202 97.042 104.129 96.997 104.044C96.9503 103.942 96.9243 103.833 96.9204 103.723C96.9159 103.677 96.9259 103.63 96.9491 103.589C96.9609 103.552 96.9864 103.52 97.021 103.5L97.2748 103.366C97.2807 103.36 97.2877 103.355 97.2955 103.352C97.3034 103.349 97.3118 103.347 97.3203 103.347C97.3289 103.347 97.3373 103.349 97.3452 103.352C97.353 103.355 97.36 103.36 97.3658 103.366C97.3895 103.389 97.4103 103.414 97.4281 103.442C97.4573 103.489 97.5054 103.525 97.5622 103.54C97.6197 103.58 97.7059 103.535 97.8257 103.491ZM97.3754 101.326C97.3754 101.445 97.3754 101.561 97.3754 101.674C97.3618 101.852 97.416 102.029 97.5287 102.174C97.5713 102.208 97.6257 102.227 97.682 102.227C97.7382 102.227 97.7926 102.208 97.8352 102.174C97.9742 102.09 98.0828 101.968 98.1466 101.826C98.2338 101.639 98.2825 101.439 98.2903 101.236C98.2903 101.169 98.2903 101.089 98.2903 100.995C98.2903 100.902 98.2903 100.821 98.2903 100.763C98.3 100.603 98.2492 100.445 98.1466 100.317C98.1041 100.28 98.0486 100.26 97.9909 100.26C97.9332 100.26 97.8777 100.28 97.8352 100.317C97.6989 100.401 97.5923 100.52 97.5287 100.66C97.4303 100.87 97.3782 101.097 97.3754 101.326Z" fill="#FAFAFA"/>
<path d="M99.8948 97.3617C99.9043 97.3544 99.9161 97.3505 99.9284 97.3505C99.9406 97.3505 99.9525 97.3544 99.9619 97.3617C99.987 97.3906 99.999 97.4274 99.9954 97.4644V97.951C99.9957 97.9974 99.9842 98.0433 99.9619 98.0849C99.9485 98.1184 99.9252 98.1478 99.8948 98.1697L99.5739 98.3438C99.5694 98.3485 99.5639 98.3523 99.5577 98.355C99.5515 98.3576 99.5448 98.3589 99.538 98.3589C99.5312 98.3589 99.5245 98.3576 99.5183 98.355C99.5121 98.3523 99.5066 98.3485 99.5021 98.3438C99.4896 98.3304 99.4801 98.3148 99.4744 98.2979C99.4686 98.281 99.4666 98.2632 99.4685 98.2456V97.759C99.4682 97.7125 99.4797 97.6666 99.5021 97.6251C99.5155 97.5903 99.5407 97.5605 99.5739 97.5403L99.8948 97.3617ZM99.9763 101.553C99.9764 101.598 99.9666 101.642 99.9475 101.683C99.9323 101.718 99.9075 101.749 99.8757 101.772L99.5883 101.924C99.5842 101.929 99.5791 101.932 99.5733 101.935C99.5675 101.938 99.5612 101.939 99.5548 101.939C99.5483 101.939 99.542 101.938 99.5362 101.935C99.5304 101.932 99.5253 101.929 99.5212 101.924C99.4962 101.895 99.4841 101.858 99.4877 101.821V98.9331C99.4874 98.8866 99.4989 98.8407 99.5212 98.7991C99.5348 98.7644 99.5579 98.7336 99.5883 98.7098L99.8757 98.5581C99.8854 98.5496 99.8983 98.5449 99.9116 98.5449C99.9249 98.5449 99.9378 98.5496 99.9475 98.5581C99.9689 98.5867 99.9791 98.6214 99.9763 98.6563V101.553Z" fill="#FAFAFA"/>
<path d="M102.496 100.192C102.495 100.238 102.486 100.283 102.467 100.326C102.454 100.361 102.428 100.39 102.395 100.411L102.108 100.567C102.099 100.575 102.087 100.58 102.074 100.58C102.062 100.58 102.05 100.575 102.041 100.567C102.016 100.538 102.004 100.501 102.007 100.464V98.8929C102.022 98.7074 101.986 98.5215 101.902 98.3527C101.835 98.2411 101.729 98.2232 101.581 98.3036C101.433 98.3963 101.323 98.5333 101.269 98.692C101.19 98.9026 101.151 99.1248 101.155 99.3482V100.924C101.154 100.97 101.145 101.015 101.126 101.058C101.114 101.095 101.089 101.126 101.054 101.147L100.771 101.299C100.767 101.304 100.761 101.308 100.755 101.31C100.749 101.313 100.742 101.314 100.735 101.314C100.729 101.314 100.722 101.313 100.716 101.31C100.71 101.308 100.704 101.304 100.699 101.299C100.677 101.271 100.667 101.236 100.671 101.201V98.3125C100.67 98.2665 100.68 98.2208 100.699 98.1786C100.711 98.1418 100.737 98.1101 100.771 98.0893L101.054 97.9375C101.058 97.9328 101.064 97.929 101.07 97.9264C101.076 97.9238 101.083 97.9224 101.09 97.9224C101.097 97.9224 101.103 97.9238 101.11 97.9264C101.116 97.929 101.121 97.9328 101.126 97.9375C101.147 97.9679 101.157 98.004 101.155 98.0402V98.1786C101.218 98.0425 101.295 97.9125 101.384 97.7902C101.463 97.6775 101.57 97.5841 101.696 97.5179C101.805 97.4437 101.94 97.4117 102.074 97.4286C102.127 97.4411 102.177 97.4638 102.22 97.4953C102.263 97.5269 102.298 97.5665 102.323 97.6117C102.393 97.7325 102.438 97.8641 102.457 98C102.483 98.1776 102.496 98.3566 102.496 98.5357V100.192Z" fill="#FAFAFA"/>
<path d="M126.655 87.1967L122.004 89.6966L122.728 83.6165C122.167 83.3398 121.813 82.6657 121.813 81.697C121.813 79.9694 122.943 77.965 124.332 77.2329C125.721 76.5008 126.847 77.2775 126.847 79.0185C126.818 80.0429 126.504 81.0427 125.937 81.9202L126.655 87.1967Z" fill="#455A64"/>
<path d="M126.66 87.1969L122.565 84.9961L122.004 89.7012L126.66 87.1969Z" fill="#37474F"/>
<path d="M124.323 77.2195C123.31 77.8573 122.554 78.7921 122.177 79.8756L125.927 81.8934C126.495 81.0159 126.808 80.0161 126.837 78.9918C126.847 77.2641 125.721 76.474 124.323 77.2195Z" fill="#37474F"/>
<path d="M101.715 56.9749C100.12 56.1178 97.9214 56.2383 95.4882 57.5463C90.6314 60.1623 86.6943 66.5147 86.6943 71.7421C86.6943 74.367 87.6905 76.2062 89.2903 77.0544L92.3893 78.7329C93.9795 79.59 96.178 79.465 98.6159 78.157C103.473 75.5455 107.41 69.1887 107.41 63.9612C107.41 61.3497 106.423 59.4971 104.833 58.6623" fill="#012A4A"/>
<path d="M98.6112 59.2293C93.7544 61.8452 89.8172 68.2021 89.8172 73.4251C89.8172 78.6481 93.7544 80.773 98.6112 78.157C103.468 75.5411 107.41 69.1887 107.405 63.9612C107.4 58.7338 103.463 56.6178 98.6112 59.2293Z" fill="#012A4A"/>
<path d="M103.463 70.827V71.4252C102.3 73.3609 100.631 74.9915 98.6112 76.1661C96.7192 77.1794 95.0093 77.291 93.7544 76.6437V75.4116C93.8186 74.1298 94.2113 72.8809 94.8996 71.7695C95.5879 70.6581 96.5519 69.7165 97.7107 69.0235L98.9896 68.336C100.12 67.7289 101.222 67.6486 102.084 68.1173C102.946 68.586 103.463 69.5726 103.463 70.827Z" fill="#012A4A"/>
<path opacity="0.4" d="M101.715 56.9749L104.828 58.6623C103.238 57.8007 101.04 57.9213 98.6016 59.2292C95.4212 60.9435 92.6336 64.2603 91.0913 67.8137L87.9732 66.1307C89.5203 62.5595 92.2839 59.2605 95.4835 57.5463C97.9263 56.2428 100.125 56.1178 101.715 56.9749Z" fill="white"/>
<path opacity="0.2" d="M92.2791 78.666L89.2951 77.0545C87.6954 76.2063 86.6991 74.376 86.6991 71.7422L89.8172 73.4296C89.8364 75.9742 90.756 77.7866 92.2791 78.666Z" fill="black"/>
<path opacity="0.1" d="M87.9828 66.1307L91.1009 67.8137C90.3019 69.5926 89.8728 71.4969 89.8364 73.4251L86.7183 71.7376C86.7567 69.8111 87.1857 67.9087 87.9828 66.1307Z" fill="black"/>
<path d="M97.4999 68.0549C97.2028 68.0579 96.9101 67.987 96.6522 67.8495C96.3412 67.6563 96.092 67.3884 95.931 67.0741C95.77 66.7598 95.703 66.4108 95.7373 66.0639C95.778 65.2506 96.027 64.4581 96.4637 63.7529C96.9003 63.0477 97.5119 62.4502 98.2471 62.0105C98.5425 61.7908 98.9021 61.6592 99.279 61.633C99.6559 61.6068 100.032 61.6873 100.359 61.8638C100.687 62.0403 100.949 62.3047 101.112 62.6224C101.275 62.9401 101.332 63.2962 101.274 63.6444C101.233 64.4575 100.983 65.2497 100.547 65.9548C100.11 66.6599 99.4991 67.2575 98.7644 67.6978C98.3842 67.9189 97.9479 68.0422 97.4999 68.0549Z" fill="white"/>
<path d="M102.084 68.1129C101.222 67.6442 100.12 67.7245 98.9896 68.3316L97.7107 69.0191C96.5512 69.7125 95.5869 70.6548 94.8985 71.7671C94.2102 72.8793 93.8178 74.1291 93.7544 75.4117V76.6482C95.0093 77.2955 96.7192 77.1839 98.6112 76.1706C100.631 74.996 102.3 73.3654 103.463 71.4297V70.8315C103.463 69.5727 102.965 68.5861 102.084 68.1129Z" fill="white"/>
<path d="M200.551 145.342C200.551 145.342 201.188 140.128 203.971 136.079C206.754 132.03 210.576 129.507 214.145 129.244C217.713 128.981 220.596 132.043 216.779 134.155C212.961 136.266 206.179 138.4 203.056 146.257L200.551 145.342Z" fill="#012A4A"/>
<path opacity="0.1" d="M200.551 145.342C200.551 145.342 201.188 140.128 203.971 136.079C206.754 132.03 210.576 129.507 214.145 129.244C217.713 128.981 220.596 132.043 216.779 134.155C212.961 136.266 206.179 138.4 203.056 146.257L200.551 145.342Z" fill="black"/>
<path d="M201.6 143.985H201.562C201.515 143.967 201.477 143.932 201.458 143.889C201.438 143.845 201.438 143.796 201.456 143.752C205.221 135.114 212.387 131.503 215.653 130.807C215.678 130.801 215.703 130.801 215.728 130.804C215.753 130.808 215.777 130.817 215.798 130.829C215.819 130.842 215.838 130.858 215.852 130.877C215.867 130.896 215.878 130.918 215.883 130.941C215.889 130.963 215.89 130.987 215.885 131.01C215.881 131.033 215.872 131.055 215.859 131.075C215.846 131.095 215.828 131.113 215.808 131.126C215.787 131.14 215.764 131.15 215.739 131.155C212.54 131.842 205.513 135.387 201.811 143.891C201.792 143.926 201.762 143.955 201.723 143.972C201.685 143.989 201.642 143.994 201.6 143.985Z" fill="white"/>
<path d="M220.654 144.087C220.333 144.766 219.538 145.123 218.8 145.4C218.063 145.676 217.258 145.976 216.856 146.618C216.051 147.913 217.373 149.743 216.511 150.998C216.308 151.25 216.052 151.462 215.759 151.62C215.466 151.778 215.142 151.879 214.806 151.917C214.255 152.011 213.694 152.011 213.139 152.056C212.873 152.052 212.607 152.033 212.344 151.998C211.57 151.837 210.76 151.917 210.04 152.225C208.933 152.806 208.603 154.105 207.923 155.109C207.507 155.7 206.96 156.201 206.317 156.577C205.675 156.953 204.953 157.196 204.201 157.288C203.722 157.346 202.764 157.43 202.285 157.167C202.248 157.15 202.212 157.129 202.18 157.105C202.108 157.033 202.022 156.939 201.983 156.89C201.981 156.88 201.981 156.869 201.983 156.859C201.787 156.185 202.108 155.489 202.122 154.792V154.667C202.089 153.859 202.065 153.056 202.046 152.252C202.004 150.764 201.988 149.276 201.998 147.788C201.998 146.824 201.883 145.77 202.323 144.864C202.802 143.864 204.009 143.842 204.464 142.864C204.646 142.471 204.742 142.056 204.919 141.659C205.193 141.081 205.632 140.585 206.188 140.223C206.743 139.862 207.395 139.65 208.071 139.61C210.174 139.512 212.056 141.096 214.159 140.949C214.7 140.909 215.232 140.753 215.768 140.663C217.469 140.364 219.437 140.815 220.395 142.159C220.605 142.435 220.739 142.756 220.784 143.093C220.829 143.429 220.784 143.771 220.654 144.087Z" fill="#012A4A"/>
<path d="M201.773 153.766C201.727 153.753 201.689 153.725 201.666 153.686C201.643 153.648 201.636 153.603 201.648 153.56C204.551 143.409 216.017 141.954 218.714 142.123C218.738 142.124 218.761 142.13 218.782 142.14C218.804 142.149 218.823 142.163 218.838 142.179C218.854 142.196 218.866 142.216 218.873 142.237C218.881 142.258 218.884 142.28 218.882 142.302C218.877 142.345 218.854 142.385 218.818 142.414C218.783 142.442 218.737 142.456 218.69 142.454C216.06 142.279 204.833 143.712 201.993 153.65C201.98 153.692 201.949 153.727 201.908 153.749C201.867 153.771 201.818 153.777 201.773 153.766Z" fill="white"/>
<path d="M214.528 148.623C214.491 148.618 214.458 148.602 214.432 148.578C213.372 147.722 212.122 147.094 210.772 146.74C209.421 146.386 208.004 146.314 206.62 146.529C206.573 146.533 206.527 146.521 206.489 146.494C206.452 146.468 206.427 146.429 206.419 146.386C206.412 146.343 206.423 146.298 206.451 146.262C206.479 146.226 206.52 146.202 206.567 146.194C208.01 145.97 209.489 146.047 210.896 146.418C212.304 146.789 213.606 147.446 214.71 148.342C214.727 148.357 214.74 148.375 214.749 148.396C214.759 148.416 214.763 148.438 214.763 148.46C214.763 148.482 214.759 148.504 214.749 148.524C214.74 148.544 214.727 148.563 214.71 148.578C214.688 148.602 214.659 148.619 214.626 148.627C214.594 148.635 214.559 148.634 214.528 148.623Z" fill="white"/>
<path d="M174.193 22.7354L175.716 23.28V20.1551C175.716 17.6731 177.838 17.0794 180.142 18.3204C182.451 19.5614 184.319 22.5747 184.319 25.0567V25.5031C184.64 25.4117 184.979 25.3891 185.311 25.437C185.643 25.4849 185.958 25.6022 186.235 25.7799C187.11 26.3115 187.837 27.028 188.359 27.8712C188.881 28.7144 189.182 29.6604 189.238 30.6324V30.8377L191.365 31.9805C191.94 32.3305 192.419 32.8019 192.762 33.3564C193.106 33.9109 193.305 34.533 193.343 35.1723C193.343 36.3509 192.457 36.8285 191.365 36.2393L174.193 26.9941C173.618 26.6449 173.139 26.1737 172.796 25.6189C172.453 25.0642 172.255 24.4417 172.22 23.8023C172.22 22.6282 173.096 22.1506 174.193 22.7354Z" fill="#E6E6E6"/>
<path d="M194.593 20.2623L197.356 21.7488C197.341 21.6363 197.333 21.523 197.333 21.4096V20.6641C197.333 19.3248 198.329 18.7981 199.565 19.4632C200.096 19.7662 200.55 20.1729 200.896 20.6551C201.097 18.9856 202.505 18.3651 204.211 19.2802C205.185 19.8711 205.996 20.6677 206.579 21.6054C207.161 22.5431 207.499 23.5955 207.563 24.6773V25.7933C207.576 26.2392 207.479 26.6819 207.281 27.0879L209.58 28.32C209.938 28.5415 210.236 28.8382 210.449 29.1863C210.662 29.5344 210.784 29.9242 210.806 30.3244C210.806 31.0609 210.25 31.36 209.566 30.994L194.593 22.9586C194.231 22.7387 193.929 22.4421 193.714 22.0929C193.498 21.7438 193.374 21.3521 193.352 20.9498C193.352 20.1953 193.908 19.8962 194.593 20.2623Z" fill="#E6E6E6"/>
<path d="M183.893 88.0139C181.881 91.1834 179.946 93.9378 178.585 95.2591C176.004 96.3752 169.94 98.0983 167.569 98.384C167.153 98.4334 166.731 98.3415 166.381 98.1251C165.447 97.5537 164.724 97.4599 163.742 97.143C162.971 96.8975 162.645 96.5537 162.502 96.6966C162.353 96.8587 162.279 97.0685 162.294 97.2812C162.309 97.4939 162.413 97.6926 162.583 97.8349C162.951 98.1612 163.36 98.4458 163.8 98.6831C162.748 98.9263 161.651 98.9446 160.59 98.7367C158.536 98.2322 157.568 99.1518 158.957 101.232C159.436 101.973 161.409 103.165 165.375 102.844C166.79 102.773 168.199 102.623 169.595 102.397C173.398 101.638 177.628 100.906 180.228 100.165C181.196 99.8106 182.062 99.2513 182.757 98.5313C187.13 93.8842 188.582 90.5718 190.498 87.563L190.335 82.6525C187.231 82.5543 185.574 85.3622 183.893 88.0139Z" fill="#FFA8A7"/>
<path d="M190.866 82.5543C189.966 82.4364 189.049 82.55 188.213 82.8828C187.377 83.2156 186.655 83.755 186.125 84.4426C183.998 86.9827 180.233 93.0806 180.233 93.0806C180.233 93.0806 181.464 96.1385 184.788 96.6519L190.129 89.929C190.129 89.929 192.658 85.2595 190.866 82.5543Z" fill="#455A64"/>
<path d="M202.414 151.096H198.932V156.881H202.414V151.096Z" fill="#FFA8A7"/>
<path d="M190.344 150.788L186.867 150.904L186.69 144.779L190.344 144.663V150.788Z" fill="#FFA8A7"/>
<path d="M202.903 101.013C202.903 104.236 202.395 130.204 202.395 130.204C202.472 131.132 203.353 132.847 203.176 136.414C202.913 141.257 202.563 153.989 202.563 153.989C201.965 154.274 201.306 154.428 200.634 154.441C199.963 154.453 199.297 154.323 198.688 154.06C198.688 154.06 195.862 136.204 195.239 131.423C194.693 127.231 193.295 113.356 193.295 113.356L191.412 129.758C191.811 131.517 191.956 133.319 191.843 135.114C191.681 137.347 190.56 148.9 190.56 148.9C189.958 149.23 189.284 149.429 188.588 149.481C187.891 149.533 187.191 149.436 186.541 149.199C186.541 149.199 184.558 131.789 184.52 129.744C184.472 127.423 185.679 100.986 185.679 100.986L202.903 101.013Z" fill="#37474F"/>
<path d="M198.932 155.212V154.73C198.597 154.868 197.826 157.734 196.442 158.957C195.345 159.93 193.85 161.051 193.467 162.136C193.084 163.22 195.551 163.885 196.58 163.711C197.768 163.506 199.838 162.689 200.355 161.926C200.872 161.162 201.116 160.055 201.538 159.502C201.959 158.948 202.932 158.332 203.157 157.689C203.227 157.088 203.16 156.479 202.96 155.904C202.798 155.306 202.625 154.649 202.414 154.707V155.073C201.923 155.449 201.306 155.651 200.671 155.645C200.163 155.685 198.927 155.587 198.932 155.212Z" fill="#263238"/>
<path d="M186.829 149.859C186.647 149.859 186.498 150.114 186.101 150.534C185.509 151.113 184.818 151.596 184.055 151.962C182.753 152.596 180.224 153.569 179.069 154.074C178.351 154.386 178.384 155.225 179.127 155.703C179.869 156.181 181.656 156.524 183.802 156.06C184.97 155.806 186.493 154.757 187.461 154.815C188.428 154.873 190.225 154.855 190.938 154.368C191.652 153.882 191.364 152.873 191.163 152.002C190.943 151.047 190.684 149.56 190.344 149.627V149.962C189.928 150.578 187.767 150.828 186.848 150.377L186.829 149.859Z" fill="#263238"/>
<path d="M193.295 113.357C191.483 112.804 189.827 111.881 188.448 110.656C188.448 110.656 189.406 112.357 192.164 113.941L191.57 128.588L193.295 113.357Z" fill="#263238"/>
<path d="M200.958 83.0274C200.958 83.0274 203.832 83.6435 203.626 88.4825L203.028 96.1831V107.745C200.47 110.45 189.137 110.254 185.234 107.531C185.234 107.531 185.674 93.8484 185.938 88.5807C186.125 84.8398 187.049 82.956 190.996 82.5453L195.848 82.7417L200.958 83.0274Z" fill="#012A4A"/>
<path d="M197.299 72.9744C197.316 73.6222 197.194 74.2667 196.942 74.8707C196.69 75.4747 196.313 76.0262 195.831 76.4935C195.349 76.9607 194.773 77.3345 194.135 77.5932C193.498 77.852 192.812 77.9905 192.117 78.001C189.243 78.001 187.557 75.6886 186.934 72.9744C185.784 68.0059 189.252 67.9434 192.117 67.9434C193.519 67.9703 194.854 68.5154 195.825 69.4589C196.797 70.4023 197.327 71.6668 197.299 72.9744Z" fill="#263238"/>
<path d="M199.943 75.0055C199.943 75.0055 199.148 78.6303 198.827 79.2285C198.625 79.5885 198.282 79.862 197.869 79.9919L197.926 77.4429L199.943 75.0055Z" fill="#263238"/>
<path d="M198.942 69.8136C198.942 69.8136 199.512 69.6797 200.12 70.5636C200.637 71.318 200.757 73.0144 199.943 75.0277L198.444 75.1973L198.942 69.8136Z" fill="#263238"/>
<path d="M199.493 70.5503L201.332 70.5815C201.345 70.4707 201.332 70.3587 201.296 70.2525C201.26 70.1463 201.201 70.0482 201.122 69.9643C201.044 69.8805 200.947 69.8127 200.839 69.7653C200.731 69.7179 200.613 69.6918 200.494 69.6887C200.242 69.6921 200.001 69.7819 199.816 69.9409C199.631 70.0999 199.516 70.3169 199.493 70.5503Z" fill="#263238"/>
<path d="M199.718 70.1441L201.078 68.9254C201 68.8392 200.903 68.7692 200.794 68.7196C200.685 68.6701 200.567 68.6421 200.445 68.6375C200.324 68.6329 200.204 68.6517 200.091 68.6928C199.978 68.7339 199.875 68.7964 199.79 68.8763C199.609 69.0407 199.502 69.2623 199.488 69.4971C199.475 69.7319 199.557 69.9629 199.718 70.1441Z" fill="#263238"/>
<path d="M197.993 75.175C198.295 75.3491 198.722 74.791 199.095 74.4116C199.469 74.0321 200.628 73.6839 201.231 74.916C201.835 76.1481 200.805 77.3668 199.943 77.7686C198.396 78.4828 197.907 77.4427 197.907 77.4427L197.778 83.1835C195.603 86.3084 190.67 86.2102 192.447 83.0318V81.2863C191.716 81.3996 190.974 81.4355 190.234 81.3934C189.027 81.2149 188.27 80.2908 187.902 79.023C187.317 76.9874 187.092 75.3446 187.59 71.3403C188.136 66.9566 193.395 66.9075 196.212 68.6618C199.028 70.4162 197.993 75.175 197.993 75.175Z" fill="#FFA8A7"/>
<path d="M191.441 70.6573C192.696 70.5412 193.937 70.3002 195.196 70.2109C195.468 70.1802 195.743 70.1923 196.011 70.2466C196.968 70.4921 196.854 71.5367 197.007 72.2644C197.27 73.5232 197.486 75.6526 197.993 75.6615C198.147 75.6615 198.722 74.7375 199.095 74.4071C199.301 74.1225 199.417 73.7901 199.43 73.4473C199.526 72.9295 199.574 72.3983 199.617 71.8715C199.656 71.4251 199.703 70.9787 199.703 70.5323C199.725 70.0278 199.682 69.5227 199.574 69.0279C199.454 68.6069 199.224 68.2204 198.904 67.9029L198.808 67.8047C198.176 67.1895 197.41 66.7084 196.561 66.3941C195.34 65.9676 194.059 65.7075 192.758 65.6218C191.459 65.536 190.166 65.387 188.883 65.1754C188.81 65.1554 188.732 65.1554 188.658 65.1754C188.606 65.2022 188.562 65.2408 188.531 65.2876C188.499 65.3344 188.48 65.3879 188.476 65.4432C188.424 65.7206 188.457 66.0062 188.571 66.2669C188.685 66.5277 188.877 66.7528 189.123 66.9164C188.256 66.9789 187.26 66.5592 186.426 66.345C186.359 66.3183 186.286 66.3046 186.213 66.3046C186.14 66.3046 186.067 66.3183 186 66.345C185.916 66.3994 185.857 66.4803 185.832 66.5726C185.772 66.7824 185.764 67.0023 185.808 67.2155C185.885 67.8616 186.142 68.4775 186.556 69.0011C187.201 69.7844 188.113 70.3401 189.142 70.5769C189.9 70.713 190.675 70.7401 191.441 70.6573Z" fill="#263238"/>
<path d="M192.452 81.2864C192.452 81.2864 195.144 80.7596 196.082 80.273C196.642 79.9879 197.096 79.5523 197.385 79.0231C197.244 79.5548 196.992 80.0553 196.643 80.4962C195.958 81.3533 192.452 81.9783 192.452 81.9783V81.2864Z" fill="#F28F8F"/>
<path d="M193.098 74.5188C193.093 74.6566 193.147 74.7907 193.247 74.8919C193.348 74.9931 193.487 75.0532 193.635 75.059C193.752 75.068 193.87 75.0437 193.972 74.9894C194.074 74.9351 194.157 74.8532 194.208 74.7546C194.26 74.6559 194.278 74.545 194.261 74.4365C194.244 74.3279 194.192 74.2268 194.112 74.1462C194.032 74.0657 193.927 74.0096 193.813 73.9852C193.698 73.9608 193.578 73.9693 193.468 74.0096C193.359 74.0498 193.265 74.12 193.199 74.2109C193.133 74.3017 193.098 74.4091 193.098 74.5188Z" fill="#263238"/>
<path d="M193.961 72.3538L195.115 72.9743C195.199 72.8213 195.218 72.6445 195.168 72.479C195.119 72.3135 195.004 72.1716 194.847 72.0815C194.77 72.0415 194.685 72.0167 194.598 72.0088C194.511 72.001 194.423 72.0101 194.339 72.0357C194.256 72.0614 194.179 72.1029 194.114 72.1576C194.049 72.2124 193.997 72.2792 193.961 72.3538Z" fill="#263238"/>
<path d="M192.691 78.1393L191.46 78.5857C191.485 78.6644 191.527 78.7375 191.583 78.8005C191.64 78.8634 191.709 78.915 191.788 78.9518C191.866 78.9886 191.952 79.01 192.04 79.0146C192.128 79.0192 192.216 79.0069 192.299 78.9785C192.466 78.9113 192.6 78.7871 192.673 78.6312C192.746 78.4754 192.752 78.2995 192.691 78.1393Z" fill="#F28F8F"/>
<path d="M188.146 72.8136L189.2 72.0279C189.152 71.9593 189.09 71.9008 189.017 71.8561C188.944 71.8114 188.862 71.7815 188.775 71.7685C188.689 71.7554 188.601 71.7595 188.516 71.7803C188.432 71.8012 188.353 71.8384 188.285 71.8895C188.144 72.0008 188.052 72.1565 188.026 72.3269C188.001 72.4973 188.043 72.6705 188.146 72.8136Z" fill="#263238"/>
<path d="M188.61 74.3716C188.619 74.4693 188.657 74.5626 188.722 74.6401C188.786 74.7176 188.873 74.776 188.973 74.8081C189.072 74.8402 189.179 74.8446 189.281 74.8208C189.383 74.7971 189.476 74.7461 189.547 74.6742C189.618 74.6024 189.666 74.5126 189.683 74.416C189.701 74.3194 189.688 74.2201 189.646 74.1303C189.604 74.0404 189.535 73.9639 189.447 73.91C189.36 73.8562 189.257 73.8273 189.152 73.827C189.078 73.8293 189.005 73.8453 188.937 73.874C188.87 73.9026 188.809 73.9435 188.759 73.9941C188.709 74.0448 188.67 74.1042 188.644 74.169C188.619 74.2338 188.607 74.3027 188.61 74.3716Z" fill="#263238"/>
<path d="M191.499 73.952L191.436 77.126L189.501 76.7153L191.499 73.952Z" fill="#F28F8F"/>
<path d="M145.546 100.536L148.549 98.9195L149.737 97.5758L146.739 99.1918L145.546 100.536Z" fill="#012A4A"/>
<path opacity="0.4" d="M145.546 100.536L148.549 98.9195L149.737 97.5758L146.739 99.1918L145.546 100.536Z" fill="black"/>
<path d="M153.712 104.928L156.715 103.312L159.221 101.245L156.222 102.857L153.712 104.928Z" fill="#012A4A"/>
<path opacity="0.4" d="M153.712 104.928L156.715 103.312L159.221 101.245L156.222 102.857L153.712 104.928Z" fill="black"/>
<path d="M179.222 110.504C179.933 111.391 180.362 112.446 180.463 113.549C179.756 112.66 179.327 111.606 179.222 110.504ZM186.201 110.589C185.191 104.183 181.498 97.8483 177.101 95.4779C174.988 94.3395 173.034 94.2994 171.468 95.152L168.642 96.6698L168.484 96.7591C168.358 96.8236 168.236 96.8952 168.12 96.9734C167.888 97.1223 167.67 97.2895 167.468 97.4733L167.373 97.5582C167.286 97.6385 167.195 97.7323 167.114 97.8215C167.033 97.9108 166.908 98.0492 166.812 98.1697C166.609 98.4192 166.425 98.6817 166.261 98.9554C166.175 99.0938 166.094 99.2411 166.017 99.4018L141.336 86.1256L138.337 87.7371V89.5228L138.591 89.6567L138.831 89.7862V90.1433L138.352 90.4067V91.4423L141.977 98.5849L145.56 100.518L146.753 99.1786L149.914 100.942L151.729 103.839L153.731 104.915L156.237 102.844L159.312 104.5L160.346 108.477L165.514 111.263C165.77 112.275 166.09 113.273 166.472 114.249C166.506 114.348 166.549 114.45 166.592 114.562C168.307 118.758 171.032 122.352 174.107 124.008C174.476 124.212 174.862 124.386 175.261 124.53C175.473 124.609 175.689 124.676 175.908 124.731C176.1 124.779 176.291 124.819 176.483 124.852C177.088 124.954 177.708 124.954 178.312 124.852L178.562 124.794C178.681 124.771 178.798 124.74 178.911 124.7L179.179 124.602C179.274 124.57 179.366 124.529 179.452 124.481C179.541 124.445 179.627 124.405 179.711 124.361L179.836 124.289C179.858 124.282 179.879 124.272 179.898 124.258C180.583 123.892 182.269 122.981 182.729 122.74C185.008 121.508 186.484 118.392 186.484 113.986C186.48 112.849 186.385 111.713 186.201 110.589Z" fill="#012A4A"/>
<path d="M178.346 115.91C177.158 115.272 176.2 113.379 176.2 111.683C176.2 109.986 177.158 109.125 178.346 109.759C179.534 110.392 180.487 112.29 180.487 113.991C180.487 115.691 179.529 116.548 178.346 115.91ZM183.198 112.2C182.192 105.799 178.499 99.4599 174.098 97.0939C172.057 95.9958 170.17 95.9154 168.637 96.6698L168.479 96.7591C168.353 96.8237 168.232 96.8952 168.115 96.9734C167.883 97.1223 167.665 97.2896 167.464 97.4734L167.368 97.5582C167.282 97.6385 167.191 97.7323 167.109 97.8216C167.028 97.9109 166.903 98.0492 166.808 98.1698C166.604 98.4192 166.42 98.6817 166.257 98.9555C166.17 99.0938 166.089 99.2412 166.012 99.4019C165.566 100.265 165.244 101.179 165.054 102.12L138.333 87.7372V89.5228L138.586 89.6567L138.826 89.7862V90.1433L138.347 90.4067V91.4424L141.973 98.5849L145.555 100.518L146.748 99.1787L149.909 100.942L151.725 103.839L153.727 104.915L156.232 102.844L159.307 104.5L160.341 108.477L165.514 111.263C165.77 112.275 166.09 113.273 166.472 114.249C166.506 114.348 166.549 114.45 166.592 114.562C168.307 118.758 171.032 122.352 174.107 124.008C174.476 124.212 174.862 124.386 175.261 124.53C175.473 124.609 175.689 124.676 175.908 124.731C176.1 124.779 176.291 124.819 176.483 124.852C177.088 124.954 177.708 124.954 178.312 124.852L178.562 124.794C178.681 124.771 178.798 124.74 178.911 124.7L179.179 124.602C179.274 124.57 179.366 124.529 179.452 124.481C179.541 124.445 179.627 124.405 179.711 124.361L179.836 124.289C179.858 124.282 179.879 124.272 179.898 124.258C182.082 122.972 183.485 119.901 183.485 115.602C183.477 114.463 183.381 113.326 183.198 112.2Z" fill="#012A4A"/>
<path opacity="0.4" d="M180.487 113.986C180.487 115.687 179.529 116.548 178.346 115.91C177.163 115.272 176.2 113.383 176.2 111.682C176.2 109.982 177.158 109.12 178.346 109.758C178.688 109.952 178.986 110.207 179.223 110.508C179.325 111.611 179.755 112.665 180.463 113.553C180.481 113.697 180.489 113.841 180.487 113.986Z" fill="black"/>
<path opacity="0.4" d="M186.474 113.982C186.474 118.388 184.999 121.504 182.719 122.736C182.24 122.977 180.573 123.887 179.888 124.253C182.072 122.968 183.476 119.897 183.476 115.598C183.471 114.46 183.378 113.325 183.198 112.2C182.192 105.799 178.499 99.4599 174.097 97.0939C172.057 95.9957 170.17 95.9154 168.637 96.6698L171.463 95.152C173.029 94.2994 174.984 94.3396 177.096 95.4779C181.498 97.8483 185.191 104.183 186.196 110.589C186.379 111.712 186.472 112.846 186.474 113.982Z" fill="white"/>
<path d="M183.476 115.588C183.476 119.887 182.072 122.959 179.888 124.244C180.573 123.878 182.259 122.968 182.719 122.727C184.999 121.494 186.474 118.379 186.474 113.972C186.474 113.812 186.474 113.647 186.474 113.481L183.476 115.097C183.471 115.272 183.476 115.432 183.476 115.588Z" fill="#012A4A"/>
<path opacity="0.1" d="M183.476 115.588C183.476 119.887 182.072 122.959 179.888 124.244C180.573 123.878 182.259 122.968 182.719 122.727C184.999 121.494 186.474 118.379 186.474 113.972C186.474 113.812 186.474 113.647 186.474 113.481L183.476 115.097C183.471 115.272 183.476 115.432 183.476 115.588Z" fill="black"/>
<path opacity="0.15" d="M165.169 103.946V104.852L138.337 90.4154L138.831 90.1476V89.7726L165.169 103.946Z" fill="black"/>
<path opacity="0.15" d="M165.169 104.321V104.852L138.337 90.4155L138.831 90.1477V90.1432L165.169 104.321Z" fill="black"/>
<path opacity="0.15" d="M176.837 122.731C175.82 122.706 174.829 122.431 173.963 121.932C169.59 119.579 166.032 112.58 166.032 106.33C166.032 102.683 167.215 99.9597 169.279 98.8482C170.716 98.0714 172.416 98.1696 174.203 99.1294C178.571 101.482 182.13 108.504 182.13 114.754C182.13 118.396 180.947 121.124 178.882 122.231C178.26 122.563 177.554 122.735 176.837 122.731ZM171.353 98.7812C170.715 98.7779 170.087 98.9319 169.533 99.2276C167.65 100.241 166.525 102.897 166.525 106.326C166.525 112.432 169.973 119.271 174.217 121.539C175.841 122.432 177.378 122.512 178.657 121.825C180.54 120.812 181.665 118.16 181.665 114.731C181.665 108.62 178.217 101.786 173.978 99.5133C173.185 99.0641 172.28 98.8177 171.353 98.7991V98.7812Z" fill="black"/>
<path opacity="0.4" d="M165.993 99.3928C165.547 100.256 165.225 101.17 165.035 102.111L138.313 87.7281L141.312 86.1166L165.993 99.3928Z" fill="white"/>
<path d="M200.724 100.79C202.122 98.3216 203.722 92.7772 204.517 89.9782C205.648 86.0052 203.818 83.5053 201.739 83.4026C200.441 83.5901 196.164 98.085 196.164 98.085C195.685 98.4377 189.185 101.513 187.097 102.286C186.723 102.417 186.311 102.417 185.938 102.286C184.937 101.946 184.252 102.009 183.27 101.92C182.499 101.848 182.111 101.594 182.01 101.746C181.919 101.934 181.907 102.147 181.977 102.344C182.047 102.54 182.194 102.704 182.389 102.804C182.811 103.033 183.261 103.216 183.73 103.348C182.89 103.585 182.015 103.696 181.138 103.674C179.127 103.634 178.403 104.446 179.965 106.353C180.923 107.54 182.508 107.915 186.048 106.777C187.063 106.446 188.443 105.808 189.731 105.375C192.385 104.482 193.084 104.375 195.105 103.737C198.051 102.808 200.101 101.888 200.724 100.79Z" fill="#FFA8A7"/>
<path d="M200.958 83.0275C202.18 83.1837 203.353 83.4382 204.076 84.3667C204.8 85.2952 205.379 86.5987 204.67 90.1477C204.128 92.6436 203.401 95.1017 202.496 97.5045C202.496 97.5045 199.651 98.6384 196.628 95.7635L198.707 88.2728C198.707 88.2728 199.042 83.4024 200.958 83.0275Z" fill="#455A64"/>
</svg>
